<?xml version="1.0" encoding="UTF-8" standalone="no"?>
<!DOCTYPE svg PUBLIC "-//W3C//DTD SVG 1.1//EN" "http://www.w3.org/Graphics/SVG/1.1/DTD/svg11.dtd">
<!-- Created with Vectornator (http://vectornator.io/) -->
<svg height="100%" stroke-miterlimit="10" style="fill-rule:nonzero;clip-rule:evenodd;stroke-linecap:round;stroke-linejoin:round;" version="1.1" viewBox="0 0 772.5 163.41" width="100%" xml:space="preserve" xmlns="http://www.w3.org/2000/svg" xmlns:vectornator="http://vectornator.io" xmlns:xlink="http://www.w3.org/1999/xlink">
<defs/>
<clipPath id="ArtboardFrame">
<rect height="163.41" width="772.5" x="0" y="0"/>
</clipPath>
<g clip-path="url(#ArtboardFrame)" id="Untitled" vectornator:layerName="Untitled">
<path d="M0 0L772.5 0L772.5 0L772.5 163.41L772.5 163.41L0 163.41L0 163.41L0 0L0 0Z" fill="#817412" fill-rule="nonzero" opacity="1" stroke="none"/>
<path d="M417.15 61.8L411.36 633.45L768.64 635.38L774.43 63.73L417.15 61.8Z" fill="#39411c" fill-rule="nonzero" opacity="1" stroke="none"/>
<path d="M324.45 40.56L-3.86 94.63L77.25 573.63L405.56 519.56L324.45 40.56Z" fill="#3e431c" fill-rule="nonzero" opacity="1" stroke="none"/>
<path d="M324.393 3.84818L349.639-314.793L349.639-314.793L934.805-268.431L934.805-268.431L909.559 50.21L909.559 50.21L324.393 3.84818L324.393 3.84818Z" fill="#cfa300" fill-rule="nonzero" opacity="1" stroke="none"/>
<path d="M9.66 142.91L28.97 339.9L496.33 289.69L477.02 92.7L9.66 142.91Z" fill="#87881f" fill-rule="nonzero" opacity="1" stroke="none"/>
<path d="M270.38 65.66L262.65 104.29L411.36 127.46L419.08 88.84L270.38 65.66Z" fill="#2e2f19" fill-rule="nonzero" opacity="1" stroke="none"/>
<path d="M170 61.8L394 90.8L450-338L226-367L170 61.8Z" fill="#897005" fill-rule="nonzero" opacity="1" stroke="none"/>
<path d="M102.36 56L-3.86 100.42L15.45 144.84L121.67 100.42L102.36 56Z" fill="#22200f" fill-rule="nonzero" opacity="1" stroke="none"/>
<path d="M361.14 81.11L486.68 92.7L531.09-341.83L405.56-353.42L361.14 81.11Z" fill="#9b8108" fill-rule="nonzero" opacity="1" stroke="none"/>
<path d="M137.12 112.01L-34.76 152.57L42.49 465.43L214.37 424.88L137.12 112.01Z" fill="#a09816" fill-rule="nonzero" opacity="1" stroke="none"/>
<path d="M641.17 150.64L921.17 318.64L992.66 197L712.66 29L641.17 150.64Z" fill="#464410" fill-rule="nonzero" opacity="1" stroke="none"/>
<path d="M160.29 77.25L-83 115.87L-75.28 154.5L166.13 115.87L160.29 77.25Z" fill="#1b1c16" fill-rule="nonzero" opacity="1" stroke="none"/>
<path d="M587.1 46.35L693.32 77.25L755.12-137.12L648.9-168.02L587.1 46.35Z" fill="#b79706" fill-rule="nonzero" opacity="1" stroke="none"/>
<path d="M749.33 88.84L867.13 79.18L838.16-349.56L720.36-339.9L749.33 88.84Z" fill="#d0ab05" fill-rule="nonzero" opacity="1" stroke="none"/>
<path d="M349.56 121.67L345.69 162.22L789.88 193.13L793.74 152.57L349.56 121.67Z" fill="#707220" fill-rule="nonzero" opacity="1" stroke="none"/>
<path d="M392.04 108.15L392.04 115.88L679.8 75.32L679.8 67.59L392.04 108.15Z" fill="#343525" fill-rule="nonzero" opacity="1" stroke="none"/>
<path d="M303.21 67.59L125.53 90.77L129.39 129.39L307.07 106.22L303.21 67.59Z" fill="#1f221f" fill-rule="nonzero" opacity="1" stroke="none"/>
<path d="M23.17 81.11L382.39 83L384.32-255L25.11-256.86L23.17 81.11Z" fill="#7c6909" fill-rule="nonzero" opacity="1" stroke="none"/>
<path d="M181.54 73.39L-310.93 112.01L-307.07 140.98L183.47 102.36L181.54 73.39Z" fill="#262619" fill-rule="nonzero" opacity="1" stroke="none"/>
<path d="M1.93 40.56L187.33 52.14L202.78-197L17.38-208.57L1.93 40.56Z" fill="#655208" fill-rule="nonzero" opacity="1" stroke="none"/>
<path d="M374.66 102.36L374.66 264.58L550.41 262.65L550.41 100.42L374.66 102.36Z" fill="#71701a" fill-rule="nonzero" opacity="1" stroke="none"/>
<path d="M254.93 77.25L254.93 113.94L440.32 108.15L440.32 71.46L254.93 77.25Z" fill="#34361b" fill-rule="nonzero" opacity="1" stroke="none"/>
<path d="M637.31 79.18L637.31 137.12L888.38 133.26L888.38 75.32L637.31 79.18Z" fill="#454210" fill-rule="nonzero" opacity="1" stroke="none"/>
<path d="M426.81 71.46L424.87 83L482.81 90.73L484.74 79.14L426.81 71.46Z" fill="#c5af0c" fill-rule="nonzero" opacity="1" stroke="none"/>
<path d="M312.86 112.01L328.31 365.01L513.71 353.42L498.26 100.42L312.86 112.01Z" fill="#75731b" fill-rule="nonzero" opacity="1" stroke="none"/>
<path d="M3.86 135.19L-23.14 361.19L137.15 380.51L164.15 154.51L3.86 135.19Z" fill="#a19b1b" fill-rule="nonzero" opacity="1" stroke="none"/>
<path d="M392 46.35L633.45 67.59L641.17-38.62L399.77-59.87L392 46.35Z" fill="#957c08" fill-rule="nonzero" opacity="1" stroke="none"/>
<path d="M336 38.62L3.86 57.94L5.79 86.94L338 67.59L336 38.62Z" fill="#9a870c" fill-rule="nonzero" opacity="1" stroke="none"/>
<path d="M94.63 13.52L475.09 42.52L515.64-475.06L135.19-504.06L94.63 13.52Z" fill="#8b720b" fill-rule="nonzero" opacity="1" stroke="none"/>
<path d="M127.46 54.07L336 54.07L336-411.36L127.46-411.36L127.46 54.07Z" fill="#73610b" fill-rule="nonzero" opacity="1" stroke="none"/>
<path d="M291.62 69.52L392 94.63L442.26-94.63L341.83-119.74L291.62 69.52Z" fill="#8e7a0c" fill-rule="nonzero" opacity="1" stroke="none"/>
<path d="M461.57 44.42L459.64 50.21L619.93 96.56L621.86 90.77L461.57 44.42Z" fill="#413c16" fill-rule="nonzero" opacity="1" stroke="none"/>
<path d="M291.62 144.84L152.62 475.09L724.22 714.56L863.22 384.32L291.62 144.84Z" fill="#3f421b" fill-rule="nonzero" opacity="1" stroke="none"/>
<path d="M200.85 152.57L154.5 446.12L724.22 533L770.57 239.45L200.85 152.57Z" fill="#353819" fill-rule="nonzero" opacity="1" stroke="none"/>
<path d="M480.88 0L536.88 79.18L633.45 7.72L577.45-69.52L480.88 0Z" fill="#a3890a" fill-rule="nonzero" opacity="1" stroke="none"/>
</g>
</svg>
