<?xml version="1.0" encoding="UTF-8"?><svg id="Layer_1" xmlns="http://www.w3.org/2000/svg" xmlns:xlink="http://www.w3.org/1999/xlink" viewBox="0 0 670 160"><defs><style>.cls-1{fill:#62747d;}.cls-2{fill:rgba(236,200,190,.5);}.cls-3{fill:rgba(158,203,231,.5);}.cls-4{fill:rgba(183,222,250,.5);}.cls-5{fill:rgba(184,205,221,.5);}.cls-6{fill:rgba(139,181,223,.5);}.cls-7{fill:rgba(168,202,223,.5);}.cls-8{fill:rgba(171,83,37,.5);}.cls-9{fill:rgba(201,221,229,.5);}.cls-10{fill:rgba(212,214,221,.5);}.cls-11{fill:rgba(219,167,121,.5);}.cls-12{fill:rgba(111,159,207,.5);}.cls-13{fill:rgba(98,39,0,.5);}.cls-14{fill:rgba(132,87,58,.5);}.cls-15{filter:url(#g0.6-2);}.cls-16{filter:url(#g0.6-3);}.cls-17{filter:url(#g0.6);}.cls-18{fill:#d4ffff;}.cls-18,.cls-19,.cls-20{opacity:.5;}.cls-19{fill:#c34f00;}.cls-20{fill:#e6630e;}</style><filter id="g0.6"><feGaussianBlur stdDeviation="0.6"/></filter><filter id="g0.6-2"><feGaussianBlur stdDeviation="0.6"/></filter><filter id="g0.6-3"><feGaussianBlur stdDeviation="0.6"/></filter></defs><rect class="cls-1" width="670" height="160"/><path class="cls-10" d="M-27.81-189.81L171.97,322.25,1627.79-244.92l-199.77-512.06L-27.81-189.81Z"/><path class="cls-13" d="M426.85,69.67L-301.06,319.96-112.77,861.87l727.91-250.29L426.85,69.67Z"/><path class="cls-2" d="M-25.51-217.36L-636.31-24.48l119.41,369.7L91.6,152.33-25.51-217.36Z"/><path class="cls-9" d="M399.3,62.78l48.22,165.33L1274.17-17.59l-48.22-165.33L399.3,62.78Z"/><path class="cls-11" d="M-53.07,78.85l319.18,254.88,114.81-144.66L61.75-65.81-53.07,78.85Z"/><g class="cls-17"><polygon class="cls-19" points="300.56 -93.37 238.56 136.26 344.19 163.81 406.18 -65.81 300.56 -93.37"/></g><path class="cls-12" d="M-64.55-215.07L1028.47,145.44l94.15-293.92L29.6-506.69-64.55-215.07Z"/><path class="cls-5" d="M631.22-111.74L523.29,5.37l365.1,328.36,107.92-117.11L631.22-111.74Z"/><g class="cls-15"><polygon class="cls-20" points="-16.33 49 -69.14 179.89 77.82 235 130.63 104.11 -16.33 49"/></g><g class="cls-16"><polygon class="cls-18" points="109.97 67.37 158.19 140.85 275.3 60.48 227.08 -13 109.97 67.37"/></g><path class="cls-6" d="M199.52-226.55l-677.39-25.26L-487.06,9.96,188.04,35.22l11.48-261.77Z"/><path class="cls-3" d="M346.48-192.11l57.41,268.66,140.07-29.85-57.41-268.66-140.07,29.85Z"/><path class="cls-4" d="M176.56-72.7L119.15,216.63l96.44,18.37L273-54.33l-96.44-18.37Z"/><path class="cls-8" d="M-20.92,101.81l89.55,18.37L93.89-10.7,4.34-29.07-20.92,101.81Z"/><path class="cls-14" d="M477.37,248.77l146.96,103.33,96.44-137.78-146.96-103.33-96.44,137.78Z"/><path class="cls-7" d="M70.93-35.96L126.04,49,286.78-61.22l-55.11-84.96L70.93-35.96Z"/></svg>