<?xml version="1.0" encoding="utf-8"?>
<!-- Generator: Adobe Illustrator 27.5.0, SVG Export Plug-In . SVG Version: 6.00 Build 0)  -->
<svg version="1.1" id="Layer_1" xmlns="http://www.w3.org/2000/svg" xmlns:xlink="http://www.w3.org/1999/xlink" x="0px" y="0px"
	 viewBox="0 0 153.2 77.7" style="enable-background:new 0 0 153.2 77.7;" xml:space="preserve">
<style type="text/css">
	.st0{clip-path:url(#SVGID_00000114057931353018673990000000181047175778661777_);}
	.st1{fill-rule:evenodd;clip-rule:evenodd;fill:#2026D2;}
	.st2{fill:#FFFFFF;}
	.st3{fill:#62E1FC;}
</style>
<g>
	<defs>
		<rect id="SVGID_1_" width="153.2" height="77.7"/>
	</defs>
	<clipPath id="SVGID_00000146480616528482666680000000616318008970193338_">
		<use xlink:href="#SVGID_1_"  style="overflow:visible;"/>
	</clipPath>
	<g style="clip-path:url(#SVGID_00000146480616528482666680000000616318008970193338_);">
		<path class="st1" d="M0,12.9C0,5.8,5.8,0,12.9,0h127.3c7.1,0,12.9,5.8,12.9,12.9v51.8c0,7.2-5.8,12.9-12.9,12.9H12.9
			C5.8,77.7,0,71.9,0,64.8V12.9z"/>
		<path class="st2" d="M47.3,32.2v24.4h-6.8v-2.3c-0.8,1-1.9,1.8-3,2.3c-1.2,0.5-2.4,0.7-3.7,0.7c-5.9,0-10.8-5.6-10.8-12.9
			c0-7.3,4.9-12.9,10.8-12.9c1.3-0.1,2.5,0.2,3.7,0.7c1.2,0.5,2.2,1.3,3,2.3v-2.3L47.3,32.2z M40.5,44.4c0.1-0.8,0-1.6-0.3-2.3
			c-0.2-0.7-0.6-1.4-1.1-2c-0.5-0.6-1.1-1-1.8-1.3c-0.7-0.3-1.4-0.4-2.2-0.4c-0.7,0-1.5,0.1-2.2,0.4c-0.7,0.3-1.3,0.7-1.8,1.3
			c-0.5,0.6-0.9,1.2-1.1,2c-0.2,0.7-0.3,1.5-0.3,2.3c-0.1,0.8,0,1.6,0.3,2.3c0.2,0.7,0.6,1.4,1.1,2c0.5,0.6,1.1,1,1.8,1.3
			c0.7,0.3,1.4,0.4,2.2,0.4C38.3,50.3,40.5,48,40.5,44.4z"/>
		<path class="st2" d="M60.9,39.2v8.6c0,2.1,1.7,2.3,4.7,2.1v6.6c-8.9,1-11.4-1.9-11.4-8.7v-8.6h-3.6v-7h3.6v-4.6l6.8-2.2v6.8h4.7v7
			L60.9,39.2z"/>
		<path class="st2" d="M69.4,21h6.8v35.6h-6.8V21z"/>
		<path class="st2" d="M104.3,32.2v24.4h-6.8v-2.3c-0.8,1-1.9,1.8-3,2.3c-1.2,0.5-2.4,0.7-3.7,0.7c-5.9,0-10.8-5.6-10.8-12.9
			c0-7.3,4.9-12.9,10.8-12.9c1.3-0.1,2.5,0.2,3.7,0.7c1.2,0.5,2.2,1.3,3,2.3v-2.3L104.3,32.2z M97.6,44.4c0-1.5-0.6-3-1.6-4
			c-1-1.1-2.4-1.7-3.8-1.7s-2.8,0.6-3.8,1.7c-1,1.1-1.6,2.5-1.6,4c0,3.7,2.3,6,5.4,6S97.6,48,97.6,44.4z"/>
		<path class="st2" d="M131,41.6v15h-6.8V42.7c0-3-1.8-4.4-3.9-4.4c-2.5,0-4.2,1.6-4.2,5v13.3h-6.8V32.2h6.8v2.3
			c1.2-1.8,3.5-3,6.5-3C127.1,31.5,131,35,131,41.6z"/>
		<path class="st3" d="M35.2,47.4c0.6,0,1.1-0.2,1.6-0.5c0.5-0.3,0.8-0.8,1.1-1.3c0.2-0.5,0.3-1.2,0.2-1.7s-0.4-1.1-0.8-1.5
			s-0.9-0.7-1.5-0.8c-0.6-0.1-1.1-0.1-1.6,0.2c-0.5,0.2-1,0.6-1.3,1.1c-0.3,0.5-0.5,1.1-0.5,1.7c0,0.4,0.1,0.8,0.2,1.1
			c0.1,0.4,0.3,0.7,0.6,1c0.3,0.3,0.6,0.5,0.9,0.7C34.4,47.3,34.8,47.4,35.2,47.4L35.2,47.4z"/>
		<path class="st3" d="M92.2,47.4c0.6,0,1.1-0.2,1.6-0.5c0.5-0.3,0.8-0.8,1.1-1.3c0.2-0.5,0.3-1.2,0.2-1.7c-0.1-0.6-0.4-1.1-0.8-1.6
			c-0.4-0.4-0.9-0.7-1.5-0.8c-0.6-0.1-1.1-0.1-1.6,0.2s-1,0.6-1.3,1.1c-0.3,0.5-0.5,1.1-0.5,1.7c0,0.4,0.1,0.8,0.2,1.1
			c0.1,0.4,0.3,0.7,0.6,1c0.3,0.3,0.6,0.5,0.9,0.7C91.4,47.3,91.8,47.4,92.2,47.4z"/>
	</g>
</g>
</svg>
