<?xml version="1.0" encoding="utf-8"?>
<!-- Generator: Adobe Illustrator 27.9.0, SVG Export Plug-In . SVG Version: 6.00 Build 0)  -->
<svg version="1.1" id="Layer_2_00000150794164989664918530000016802948061849297038_"
	 xmlns="http://www.w3.org/2000/svg" xmlns:xlink="http://www.w3.org/1999/xlink" x="0px" y="0px" viewBox="0 0 600 300"
	 style="enable-background:new 0 0 600 300;" xml:space="preserve">
<style type="text/css">
	.st0{fill:#FFFFFF;}
	.st1{fill:#5F6368;}
	.st2{fill:#4285F4;}
	.st3{fill:#EA4335;}
	.st4{fill:#FBBC04;}
	.st5{fill:#34A853;}
</style>
<path class="st0" d="M64.1,0h471.9C571.2,0,600,32.4,600,72v156c0,39.6-28.8,72-64.1,72H64.1C28.8,300,0,267.6,0,228V72
	C0,32.4,28.8,0,64.1,0z"/>
<g>
	<g id="_294x96_00000050646840666354286690000015755503420309315219_">
		<path class="st1" d="M378.5,178.2c-9.1,0-17.1-3.6-23.5-10.8s-9.1-15.6-9.1-26.4c0-10.2,3.2-19.2,9.1-26.4
			c6.4-7.2,13.9-10.8,23.5-10.8s17.1,3.6,23,11.4l-5.9,6c-4.3-6-10.7-9-17.1-9s-12.8,2.4-17.6,7.8c-4.8,5.4-6.9,12-6.9,20.4
			c0,8.4,2.1,15,6.9,20.4c4.8,5.4,10.7,7.8,17.6,7.8c7.5,0,13.3-3.6,19.2-10.2l5.9,6.6c-3.2,4.2-6.9,7.2-10.7,9
			C388.1,177,383.3,178.2,378.5,178.2z M416.4,106.2v70.2h-8v-70.2H416.4z M422.2,152.4c0-7.2,2.1-13.8,6.4-18.6
			c4.3-4.8,9.6-7.2,16-7.2c5.9,0,11.7,2.4,15.5,7.2c4.3,4.8,6.4,10.8,6.4,18.6c0,7.2-2.1,13.8-6.4,18.6c-4.3,4.8-9.6,7.2-15.5,7.2
			c-5.9,0-11.7-2.4-16-7.2C424.4,165.6,422.2,159.6,422.2,152.4z M430.2,152.4c0,5.4,1.6,9.6,4.3,12.6c5.3,6,13.9,6.6,19.2,0.6
			l0.5-0.6c2.7-3,4.3-7.2,4.3-12.6c0-5.4-1.6-9.6-4.3-12.6c-4.8-6-13.9-6.6-19.2-1.2c-0.5,0-0.5,0.6-1.1,1.2
			C431.9,142.8,430.2,147,430.2,152.4z M509.8,176.4h-7.5v-6.6h-0.5c-1.6,2.4-3.2,4.8-5.9,6c-2.7,1.8-5.3,2.4-8,2.4
			c-5.3,0-9.1-1.8-12.3-4.8c-2.7-3.6-4.3-8.4-4.3-14.4v-30h8.5v29.4c0,7.8,3.7,12,10.7,12c3.2,0,5.9-1.8,8-4.2
			c2.1-3,3.2-6.6,3.2-10.2v-26.4h8V176.4z M535.9,178.2c-5.3,0-10.7-3-14.4-7.2c-3.7-4.8-5.9-11.4-5.9-18c0-6.6,2.1-13.2,5.9-18
			c3.7-4.8,9.1-7.2,14.4-7.2c3.2,0,5.9,0.6,8.5,2.4c2.7,1.2,4.3,3.6,5.9,6h0.5l-0.5-6.6v-22.2h8v70.2h-7.5V171h-0.5
			c-1.6,2.4-3.7,4.8-5.9,6C541.8,177,538.6,178.2,535.9,178.2L535.9,178.2z M537,169.8c3.7,0,7.5-1.8,9.6-4.8
			c2.7-3,3.7-7.2,3.7-12.6c0-4.8-1.1-9-3.7-12.6c-2.7-3-5.9-4.8-9.6-4.8s-7.5,1.8-9.6,4.8c-2.7,3.6-4.3,7.8-3.7,12.6
			c0,5.4,1.1,9,3.7,12.6C529.5,168,533.3,169.8,537,169.8L537,169.8z"/>
		<path class="st2" d="M77.9,178.2c-19.8,0-35.8-18-35.8-39.6S58.7,99,77.9,99c9.1,0,17.6,3.6,24,10.8l-6.4,7.2
			c-4.8-4.8-10.7-7.8-17.6-7.8c-13.9,0-25.1,12.6-25.1,28.8c0,0,0,0,0,0.6c0,15.6,11.2,28.8,25.1,28.8c0,0,0,0,0.5,0
			c9.1,0,14.4-4.2,17.6-7.8c2.7-3,4.8-7.8,5.3-13.8H77.9V135h32.6c0.5,2.4,0.5,4.8,0.5,6.6c0,8.4-2.1,18-8.5,25.2
			C96.6,174,88.6,178.2,77.9,178.2z"/>
		<path class="st3" d="M160.1,152.4c0,14.4-10.1,25.8-23,25.8c-12.8,0-23-11.4-23-25.8s10.1-25.8,23-25.8
			C150,126.6,160.1,138,160.1,152.4L160.1,152.4z M150,152.4c0-9-5.9-15.6-12.8-15.6s-12.8,6-12.8,15.6c0,9,5.9,15.6,12.8,15.6
			S150,161.4,150,152.4z"/>
		<path class="st4" d="M209.8,152.4c0,14.4-10.1,25.8-23,25.8c-12.8,0-23-11.4-23-25.8s10.1-25.8,23-25.8
			C199.6,126.6,209.8,138,209.8,152.4z M199.6,152.4c0-9-5.9-15.6-12.8-15.6c-6.9,0-12.8,6-12.8,15.6c0,9,5.9,15.6,12.8,15.6
			S199.6,161.4,199.6,152.4z"/>
		<path class="st2" d="M257.3,128.4v46.2c0,19.2-10.1,26.4-21.9,26.4c-9.1,0-17.1-6-20.3-15l8.5-4.2c1.6,4.2,5.3,9,11.2,9
			c7.5,0,12.3-5.4,12.3-15v-3.6h-0.5c-3.2,3.6-7.5,6-11.7,6c-11.2,0-21.9-11.4-21.9-25.8c0-14.4,10.7-25.8,21.9-25.8
			c4.8,0,9.1,1.8,11.7,6h0.5v-4.2C247.2,128.4,257.3,128.4,257.3,128.4z M248.2,152.4c0-9-5.3-15.6-12.3-15.6s-12.8,6.6-12.8,15.6
			S229,168,235.9,168C243.4,168,248.2,161.4,248.2,152.4L248.2,152.4z"/>
		<path class="st5" d="M274.4,101.4v75h-10.1v-75H274.4z"/>
		<path class="st3" d="M313.3,160.8l8,6c-4.3,7.2-11.2,11.4-19.2,11.4c-12.8,0-22.4-11.4-22.4-25.8c0-15,9.6-25.8,21.4-25.8
			s17.6,10.8,19.2,16.2l1.1,3l-30.4,14.4c2.1,5.4,5.9,7.8,11.2,7.8C306.9,168,310.7,165,313.3,160.8z M289.3,151.8l20.3-9.6
			c-1.1-3-4.3-5.4-8.5-5.4C294.1,136.8,288.8,143.4,289.3,151.8C289.3,151.2,289.3,151.8,289.3,151.8z"/>
	</g>
</g>
</svg>
