<?xml version="1.0" encoding="utf-8"?>
<!-- Generator: Adobe Illustrator 27.9.0, SVG Export Plug-In . SVG Version: 6.00 Build 0)  -->
<svg version="1.1" id="Layer_2_00000124876029545678511740000003778376765079464383_"
	 xmlns="http://www.w3.org/2000/svg" xmlns:xlink="http://www.w3.org/1999/xlink" x="0px" y="0px" viewBox="0 0 600 300"
	 style="enable-background:new 0 0 600 300;" xml:space="preserve">
<style type="text/css">
	.st0{fill:#FCFCFC;}
	.st1{fill:url(#SVGID_1_);}
	.st2{fill:url(#SVGID_00000110447072699244331100000010319173039729261961_);}
</style>
<path class="st0" d="M549.3,300H50.7C22.8,300,0,279.1,0,253.5V46.5C0,20.9,22.8,0,50.7,0h498.7C577.2,0,600,20.9,600,46.5v207.1
	C600,279.1,577.2,300,549.3,300z"/>
<g>
	<g>
		
			<linearGradient id="SVGID_1_" gradientUnits="userSpaceOnUse" x1="4.4313" y1="-207.7467" x2="-1.1515" y2="-69.4255" gradientTransform="matrix(1 0 0 -1 132.1 15)">
			<stop  offset="0" style="stop-color:#2B6CCE"/>
			<stop  offset="0.3299" style="stop-color:#3C87F4"/>
			<stop  offset="1" style="stop-color:#05E1D0"/>
		</linearGradient>
		<path class="st1" d="M157,98.6c-13.1-12-34.1-12-47.2,0l-51.8,47.6l0.5,0.1c22,6.6,41,18.9,55.1,35.1l13-3.7l6.9,33.8l6.9-33.8
			l13.3,3.8c14.1-16.1,33.2-28.6,55.2-35.2l0,0L157,98.6z"/>
		<g>
			<path d="M307.4,124.9c10.2,0,17,7,17,17.1v28.1h-9.9v-25.8c0-7.1-3.4-11.2-9.3-11.2c-6.4,0-11.3,5.3-11.3,12.9v24.1h-9.7v-25.8
				c0-7.1-3.4-11.2-9.4-11.2c-6.4,0-11.3,5.3-11.3,12.9v24.1h-9.9v-44.3h7l1.8,5.7c3.6-4.2,9-6.7,15-6.7c6.5,0,11.7,3,14.5,7.7
				C295.2,127.8,301.1,124.9,307.4,124.9L307.4,124.9z"/>
			<path d="M383.7,125.8V170h-8l-1-5.4c-4.4,4.1-10.5,6.5-17.5,6.5c-14.3,0-25.1-9.9-25.1-23.2s10.7-23.2,25.1-23.2
				c7,0,13.2,2.4,17.6,6.6l1.1-5.5h7.7L383.7,125.8L383.7,125.8z M373.7,148c0-8.3-6.6-14.5-15.7-14.5c-9,0-15.7,6.2-15.7,14.5
				s6.6,14.5,15.7,14.5C367.1,162.5,373.7,156.2,373.7,148z"/>
			<path d="M421.1,124.9c11.3,0,18.2,7.7,18.2,18.6v26.7h-9.9v-24.8c0-8.1-3.7-12.2-11.1-12.2c-7.6,0-13,5.5-13,13.4v23.6h-9.9
				v-44.3h6.9l1.9,6.1C408,127.6,414,124.9,421.1,124.9L421.1,124.9z"/>
			<path d="M477.2,161.8v8.2h-7.4c-10.6,0-17.1-6-17.1-15.7v-20.6h-8.6V132l16.8-16.4h1.6v10.3h14.3v7.7h-14.2v19.9
				c0,5.3,3.1,8.2,9,8.2h5.5L477.2,161.8L477.2,161.8z"/>
			<path d="M531.9,125.8V170h-8l-1-5.4c-4.4,4.1-10.5,6.5-17.5,6.5c-14.3,0-25.1-9.9-25.1-23.2s10.7-23.2,25.1-23.2
				c7,0,13.2,2.4,17.6,6.6l1.1-5.5h7.7L531.9,125.8L531.9,125.8z M521.9,148c0-8.3-6.6-14.5-15.7-14.5c-9,0-15.7,6.2-15.7,14.5
				s6.6,14.5,15.7,14.5S521.9,156.2,521.9,148z"/>
		</g>
	</g>
	<g>
		
			<linearGradient id="SVGID_00000062871414656867906530000001033698570319376798_" gradientUnits="userSpaceOnUse" x1="4.7697" y1="-206.6418" x2="-0.8133" y2="-68.3207" gradientTransform="matrix(1 0 0 -1 132.1 15)">
			<stop  offset="0" style="stop-color:#2B6CCE"/>
			<stop  offset="0.3299" style="stop-color:#3C87F4"/>
			<stop  offset="1" style="stop-color:#05E1D0"/>
		</linearGradient>
		<path style="fill:url(#SVGID_00000062871414656867906530000001033698570319376798_);" d="M157.4,97.6c-13.1-12-34.1-12-47.2,0
			l-51.9,47.6l0.5,0.1c22,6.6,41,18.9,55.1,35.1l13-3.7l6.9,33.8l6.9-33.8l13.3,3.8c14.1-16.1,33.2-28.6,55.2-35.2l0,0L157.4,97.6z"
			/>
		<g>
			<path d="M308,123.8c10.2,0,17,7,17,17.1V169H315v-25.8c0-7.1-3.4-11.2-9.3-11.2c-6.4,0-11.3,5.3-11.3,12.9V169h-9.7v-25.8
				c0-7.1-3.4-11.2-9.4-11.2c-6.4,0-11.3,5.3-11.3,12.9V169H254v-44.2h7l1.8,5.7c3.6-4.2,9-6.7,15-6.7c6.5,0,11.7,3,14.5,7.7
				C295.6,126.7,301.5,123.8,308,123.8L308,123.8z"/>
			<path d="M384.1,124.8V169h-8l-1-5.4c-4.4,4.1-10.5,6.5-17.5,6.5c-14.3,0-25.1-9.9-25.1-23.2s10.7-23.2,25.1-23.2
				c7,0,13.2,2.4,17.6,6.6l1.1-5.5h7.7L384.1,124.8L384.1,124.8z M374.1,146.8c0-8.3-6.6-14.5-15.7-14.5c-9,0-15.7,6.2-15.7,14.5
				c0,8.3,6.6,14.5,15.7,14.5S374.1,155.1,374.1,146.8z"/>
			<path d="M421.5,123.8c11.3,0,18.2,7.7,18.2,18.6V169h-9.9v-24.8c0-8.1-3.7-12.2-11.1-12.2c-7.6,0-13,5.5-13,13.4V169H396v-44.2
				h6.9l1.9,6.1C408.5,126.5,414.4,123.8,421.5,123.8L421.5,123.8z"/>
			<path d="M477.6,160.7v8.2h-7.4c-10.6,0-17.1-6-17.1-15.7v-20.6h-8.6v-1.7l16.8-16.4h1.6v10.3h14.3v7.7H463v19.9
				c0,5.3,3.1,8.2,9,8.2h5.5L477.6,160.7L477.6,160.7z"/>
			<path d="M532.3,124.8V169h-8l-1-5.4c-4.4,4.1-10.5,6.5-17.5,6.5c-14.3,0-25.1-9.9-25.1-23.2s10.7-23.2,25.1-23.2
				c7,0,13.2,2.4,17.6,6.6l1.1-5.5h7.7V124.8z M522.5,146.8c0-8.3-6.6-14.5-15.7-14.5c-9,0-15.7,6.2-15.7,14.5
				c0,8.3,6.6,14.5,15.7,14.5S522.5,155.1,522.5,146.8z"/>
		</g>
	</g>
</g>
</svg>
