<?xml version="1.0" encoding="utf-8"?>
<!-- Generator: Adobe Illustrator 27.9.0, SVG Export Plug-In . SVG Version: 6.00 Build 0)  -->
<svg version="1.1" id="Layer_1" xmlns="http://www.w3.org/2000/svg" xmlns:xlink="http://www.w3.org/1999/xlink" x="0px" y="0px"
	 viewBox="0 0 600 300" style="enable-background:new 0 0 600 300;" xml:space="preserve">
<style type="text/css">
	.st0{fill:#7048E8;}
	.st1{fill:#FFFFFF;}
	.st2{fill:#041189;}
	.st3{fill:url(#SVGID_1_);}
	.st4{fill:#5B1D9F;}
	.st5{fill:url(#SVGID_00000128479617595521939160000005298429824908236194_);}
	.st6{fill:url(#SVGID_00000059296512992844133930000010139972707253851810_);}
	.st7{fill-rule:evenodd;clip-rule:evenodd;fill:#FFFFFF;}
</style>
<rect class="st0" width="600" height="300"/>
<ellipse class="st1" cx="99.5" cy="150.3" rx="66.8" ry="61.4"/>
<path class="st2" d="M57.5,117.9c0-4.1,3.6-7.4,8-7.4l0,0c4.4,0,8,3.3,8,7.4v63.7c0,4.1-3.6,7.4-8,7.4l0,0c-4.4,0-8-3.3-8-7.4V117.9
	z"/>
<linearGradient id="SVGID_1_" gradientUnits="userSpaceOnUse" x1="60.6295" y1="189.3574" x2="138.1929" y2="112.0116" gradientTransform="matrix(1 0 0 -1 0 299.8898)">
	<stop  offset="0" style="stop-color:#281692"/>
	<stop  offset="1" style="stop-color:#451A9A"/>
</linearGradient>
<path class="st3" d="M59.3,121.9c-2.4-2.4-2.4-6.1-0.1-8.6l0,0l0,0c3-3.6,8.7-3.9,12.1-0.6l67.3,62.9c3.2,3,3.5,7.8,0.7,11.1l0,0
	l0,0c-3.2,2.9-8.4,2.9-11.5-0.1l-34.5-32.3l-19.2-17.6L59.3,121.9z"/>
<path class="st4" d="M133.5,173.7c4.7-0.1,8.5,3.4,8.5,7.7l0,0c0,4.2-3.7,7.7-8.3,7.7H99.7H65.4c-3.8,0-7.1-2.5-7.7-6l0,0
	c-0.8-4.3,2.8-8.3,7.6-8.4L133.5,173.7z"/>
<linearGradient id="SVGID_00000158708145531778854180000017741858694281435063_" gradientUnits="userSpaceOnUse" x1="139.5328" y1="187.8438" x2="59.6996" y2="112.1397" gradientTransform="matrix(1 0 0 -1 0 299.8898)">
	<stop  offset="0" style="stop-color:#A027B3"/>
	<stop  offset="1" style="stop-color:#521B9D"/>
</linearGradient>
<path style="fill:url(#SVGID_00000158708145531778854180000017741858694281435063_);" d="M128.2,112.7c2.7-2.5,7-2.9,10.3-0.9l0,0
	c1.4,0.9,2.5,2.1,3.1,3.6l0,0c1.2,2.8,0.5,6-1.8,8.1l-68.3,63.4c-3.4,3.2-9.1,2.9-12.1-0.6l0,0c-2.6-3-2.3-7.4,0.6-10.1L128.2,112.7
	z"/>
<linearGradient id="SVGID_00000029750227236347242210000001512470799995764615_" gradientUnits="userSpaceOnUse" x1="133.944" y1="189.3286" x2="133.944" y2="110.8665" gradientTransform="matrix(1 0 0 -1 0 299.8898)">
	<stop  offset="0" style="stop-color:#9E26B1"/>
	<stop  offset="1" style="stop-color:#DF4FF5"/>
</linearGradient>
<path style="fill:url(#SVGID_00000029750227236347242210000001512470799995764615_);" d="M125.9,117.9c0-4.1,3.6-7.4,8-7.4l0,0
	c4.4,0,8,3.3,8,7.4v63.7c0,4.1-3.6,7.4-8,7.4l0,0c-4.4,0-8-3.3-8-7.4V117.9z"/>
<path class="st7" d="M250.6,149.2v22.4H238v-21.1c0-4.1-2.7-6.4-6.5-6.4c-4.1,0-7,2.6-7,6.8v20.7h-12.7v-21.1c0-4.1-2.6-6.4-6.4-6.4
	c-4.1,0-7.1,2.6-7.1,6.8v20.7h-12.6v-35.1l12.3-1.3v4.2c2.8-2.9,6.9-4.6,11.8-4.6c5.3,0,9.3,1.9,11.8,5.2c3.1-3.3,7.9-5.2,13.7-5.2
	C245.1,135,250.6,140.5,250.6,149.2"/>
<path class="st7" d="M268.4,151l20.6-5.7c-1.8-2.6-4.9-4.1-8.7-4.1C273.8,141.3,269,145.4,268.4,151 M296.3,157.2l3.6,7.9
	c-5.1,3.6-12,6-19.2,6c-13.5,0-23.4-8.2-23.4-18.8s9.8-18.9,22.8-18.9c11.1,0,20.1,6.1,21.2,17l-30.9,8.4c2.1,2.7,5.8,4.3,10.4,4.3
	C285.7,163,290.9,161.3,296.3,157.2"/>
<path class="st7" d="M323.6,143v13.4c0,3.1,2,4.9,5.6,4.9c1.8,0,3.9-0.5,5.4-0.9v8.9c-2.1,0.8-5.1,1.3-8.5,1.3c-10,0-15.2-5-15.2-13
	V143h-6.6l1.6-8.6h5v-6.7l12.6-5.4v12.1h11v8.6H323.6z"/>
<path class="st7" d="M365.1,158.1c0-3.1-3.1-5.6-7.2-5.6c-4,0-7,2.4-7,5.6c0,3.1,3,5.6,7,5.6C362.1,163.7,365.1,161.2,365.1,158.1
	L365.1,158.1z M365.9,170l-0.4-2.4c-2.8,2.1-6.5,3.4-10.8,3.4c-8.8,0-15.8-5.5-15.8-12.7c0-7.1,6.8-12.6,16.2-12.6
	c3.5,0,6.8,1,9.7,2.6V147c0-3.9-2.3-6-9.2-6c-3.4,0-6.8,0.5-10.1,1.5l1.5-7.8c3.9-0.9,7.5-1.3,11.1-1.3c12,0,18.6,4.2,18.6,12.9
	v17.2l0.4,6.4H365.9z"/>
<path class="st7" d="M365.1,158.1c0-3.1-3.1-5.6-7.2-5.6c-4,0-7,2.4-7,5.6c0,3.1,3,5.6,7,5.6C362.1,163.7,365.1,161.2,365.1,158.1
	L365.1,158.1z M365.9,170l-0.4-2.4c-2.8,2.1-6.5,3.4-10.8,3.4c-8.8,0-15.8-5.5-15.8-12.7c0-7.1,6.8-12.6,16.2-12.6
	c3.5,0,6.8,1,9.7,2.6V147c0-3.9-2.3-6-9.2-6c-3.4,0-6.8,0.5-10.1,1.5l1.5-7.8c3.9-0.9,7.5-1.3,11.1-1.3c12,0,18.6,4.2,18.6,12.9
	v17.2l0.4,6.4H365.9z"/>
<path class="st7" d="M420,152.1c0-5.4-4.8-9.7-11.3-9.7c-6.3,0-11.3,4.2-11.3,9.7c0,5.5,4.9,9.7,11.3,9.7
	C415.2,161.9,420,157.6,420,152.1 M432.1,152.1c0,10.6-9.5,18.8-20.9,18.8c-5.1,0-9.5-1.6-12.7-4.4v20.7h-12.6v-52.4l11.4-1.2v5.3
	c3.3-3.5,8-5.6,13.9-5.6C422.6,133.4,432.1,141.6,432.1,152.1"/>
<path class="st7" d="M480.3,148.1V170h-12.7v-20.6c0-4.4-3.1-6.9-7.5-6.9c-4.7,0-8.1,2.9-8.1,7.3V170h-12.6v-55.5l12.6-1.3v24.7
	c3-2.9,7.3-4.6,12.6-4.6C474.5,133.4,480.3,139.1,480.3,148.1"/>
<path class="st7" d="M521.5,152.1c0-5.5-4.8-9.7-11.3-9.7c-6.4,0-11.3,4.2-11.3,9.7c0,5.5,4.9,9.7,11.3,9.7
	C516.6,161.9,521.5,157.6,521.5,152.1 M486.9,152.2c0-10.7,10.2-18.9,23.3-18.9c13.1,0,23.3,8.2,23.3,18.9
	c0,10.6-10.1,18.8-23.3,18.8C497.1,171.1,486.9,162.8,486.9,152.2"/>
<path class="st7" d="M566.2,133.6v9.6c-8.3,0-12.8,3.2-12.8,10.4V170h-12.7v-35.1l11.9-1.3v6C555.1,135.7,559.5,133.6,566.2,133.6"
	/>
</svg>
