<?xml version="1.0" encoding="UTF-8" standalone="no"?>
<!DOCTYPE svg PUBLIC "-//W3C//DTD SVG 1.1//EN" "http://www.w3.org/Graphics/SVG/1.1/DTD/svg11.dtd">
<!-- Created with Vectornator (http://vectornator.io/) -->
<svg height="100%" stroke-miterlimit="10" style="fill-rule:nonzero;clip-rule:evenodd;stroke-linecap:round;stroke-linejoin:round;" version="1.1" viewBox="0 0 770 190" width="100%" xml:space="preserve" xmlns="http://www.w3.org/2000/svg" xmlns:vectornator="http://vectornator.io" xmlns:xlink="http://www.w3.org/1999/xlink">
<defs/>
<clipPath id="ArtboardFrame">
<rect height="190" width="770" x="0" y="0"/>
</clipPath>
<g clip-path="url(#ArtboardFrame)" id="Untitled" vectornator:layerName="Untitled">
<path d="M-115.091-10.0794L638.024-10.0794L638.024-10.0794L638.024 152.782L638.024 152.782L-115.091 152.782L-115.091 152.782L-115.091-10.0794L-115.091-10.0794Z" fill="#8f6e5f" fill-rule="nonzero" opacity="1" stroke="none"/>
<path d="M349.958 55.8181L346.192 151.84L686.977 157.489L690.742 61.4665L349.958 55.8181Z" fill="#000718" fill-rule="nonzero" opacity="1" stroke="none"/>
<path d="M78.8364 52.0526L282.178 61.4665L295.357-220.952L92.0159-230.366L78.8364 52.0526Z" fill="#ffad5f" fill-rule="nonzero" opacity="1" stroke="none"/>
<path d="M61.8913 114.185L171.093 566.054L453.511 496.39L344.309 44.5214L61.8913 114.185Z" fill="#542737" fill-rule="nonzero" opacity="1" stroke="none"/>
<path d="M-98.1456 91.5911L-24.7169 163.137L135.32-0.665494L61.8913-70.3286L-98.1456 91.5911Z" fill="#ca9e90" fill-rule="nonzero" opacity="1" stroke="none"/>
<path d="M536.354 36.9903L867.725 404.134L1200.98 101.005L869.607-264.256L536.354 36.9903Z" fill="#5c3f2f" fill-rule="nonzero" opacity="1" stroke="none"/>
<path d="M485.519 59.5837L-54.8415 264.808L29.8839 488.859L570.244 283.635L485.519 59.5837Z" fill="#181a22" fill-rule="nonzero" opacity="1" stroke="none"/>
<path d="M-36.0136 78.4116L-32.248 227.152L171.093 221.503L167.327 72.7632L-36.0136 78.4116Z" fill="#a34d3c" fill-rule="nonzero" opacity="1" stroke="none"/>
<path d="M-11.5374 46.4042L41.1807 87.8255L274.646-213.421L221.928-254.842L-11.5374 46.4042Z" fill="#f3c6a0" fill-rule="nonzero" opacity="1" stroke="none"/>
<path d="M504.346 57.7009L489.284 539.695L609.783 543.46L624.845 61.4665L504.346 57.7009Z" fill="#695f5d" fill-rule="nonzero" opacity="1" stroke="none"/>
<path d="M278.412 36.9903L429.035 74.646L444.097 8.74844L293.474-27.0245L278.412 36.9903Z" fill="#b4964a" fill-rule="nonzero" opacity="1" stroke="none"/>
<path d="M-32.248 48.287L-19.0685 55.8181L-0.240661 16.2796L-13.4202 8.74844L-32.248 48.287Z" fill="#26141b" fill-rule="nonzero" opacity="1" stroke="none"/>
<path d="M-66.1382 3.10008L-52.9587 424.845L-2.12344 422.962L-15.303 1.21729L-66.1382 3.10008Z" fill="#756066" fill-rule="nonzero" opacity="1" stroke="none"/>
<path d="M432.801-0.665494L515.643 61.4665L890.318-433.707L807.475-495.839L432.801-0.665494Z" fill="#ba8e50" fill-rule="nonzero" opacity="1" stroke="none"/>
<path d="M108.961-2.54828L69.4225 29.4591L189.921 166.903L229.459 134.895L108.961-2.54828Z" fill="#915e59" fill-rule="nonzero" opacity="1" stroke="none"/>
<path d="M284.06 61.4665L75.0708 174.434L227.577 456.852L436.566 343.885L284.06 61.4665Z" fill="#705360" fill-rule="nonzero" opacity="1" stroke="none"/>
<path d="M-101.911 1.21729L-263.831 12.514L-245.003 249.745L-84.9661 238.449L-101.911 1.21729Z" fill="#a1878f" fill-rule="nonzero" opacity="1" stroke="none"/>
<path d="M583.424 65.2321L634.259 70.8804L649.321-75.977L598.486-81.6254L583.424 65.2321Z" fill="#522f1f" fill-rule="nonzero" opacity="1" stroke="none"/>
<path d="M613.548 110.419L897.849 438.024L1091.78 270.456L807.475-55.2663L613.548 110.419Z" fill="#857b7b" fill-rule="nonzero" opacity="1" stroke="none"/>
<path d="M349.958 67.1149L212.514 270.456L470.456 439.907L607.9 236.566L349.958 67.1149Z" fill="#2a252c" fill-rule="nonzero" opacity="1" stroke="none"/>
<path d="M122.141-2.54828L263.35 89.7083L374.434-83.5082L233.225-175.765L122.141-2.54828Z" fill="#df8a4b" fill-rule="nonzero" opacity="1" stroke="none"/>
<path d="M325.482 70.8804L291.591 67.1149L244.522 503.922L278.412 507.687L325.482 70.8804Z" fill="#87686d" fill-rule="nonzero" opacity="1" stroke="none"/>
<path d="M370.669 106.653L383.848 112.302L481.753-139.992L468.573-145.64L370.669 106.653Z" fill="#49452f" fill-rule="nonzero" opacity="1" stroke="none"/>
<path d="M-107.56 144.309L-118.856 148.075L-86.8489 221.503L-75.5522 217.738L-107.56 144.309Z" fill="#ffffff" fill-rule="nonzero" opacity="1" stroke="none"/>
<path d="M513.76 129.247L485.519 161.254L696.391 345.767L724.633 313.76L513.76 129.247Z" fill="#d6b6ac" fill-rule="nonzero" opacity="1" stroke="none"/>
<path d="M-22.8341 48.287L-205.465 300.581L-186.637 311.877L-5.88902 59.5837L-22.8341 48.287Z" fill="#b0908e" fill-rule="nonzero" opacity="1" stroke="none"/>
<path d="M139.086 87.8255L-160.278 419.196L-128.27 445.555L169.21 114.185L139.086 87.8255Z" fill="#712f21" fill-rule="nonzero" opacity="1" stroke="none"/>
<path d="M455.394 35.1075L461.042 157.489L496.815 153.723L491.167 31.3419L455.394 35.1075Z" fill="#24201b" fill-rule="nonzero" opacity="1" stroke="none"/>
<path d="M590.955 134.895L707.688 737.387L1125.67 656.427L1008.93 53.9353L590.955 134.895Z" fill="#161113" fill-rule="nonzero" opacity="1" stroke="none"/>
<path d="M-24.7169 18.1624L-877.62 20.0452L-875.737 68.9977L-24.7169 67.1149L-24.7169 18.1624Z" fill="#5a4046" fill-rule="nonzero" opacity="1" stroke="none"/>
<path d="M16.7044-10.0794L161.679 21.928L203.1-175.765L58.1258-207.772L16.7044-10.0794Z" fill="#d1b195" fill-rule="nonzero" opacity="1" stroke="none"/>
<path d="M543.885 138.661L372.551 332.588L515.643 454.969L686.977 261.042L543.885 138.661Z" fill="#000000" fill-rule="nonzero" opacity="1" stroke="none"/>
<path d="M-7.77181 59.5837L103.313 74.646L103.313 61.4665L-7.77181 46.4042L-7.77181 59.5837Z" fill="#fbddc4" fill-rule="nonzero" opacity="1" stroke="none"/>
<path d="M515.643 18.1624L542.002 57.7009L636.142-4.43107L609.783-42.0868L515.643 18.1624Z" fill="#a66642" fill-rule="nonzero" opacity="1" stroke="none"/>
<path d="M28.0012 110.419L-28.4825 151.84L105.195 319.408L161.679 277.987L28.0012 110.419Z" fill="#cb7964" fill-rule="nonzero" opacity="1" stroke="none"/>
</g>
</svg>
