<?xml version="1.0" encoding="UTF-8" standalone="no"?>
<!DOCTYPE svg PUBLIC "-//W3C//DTD SVG 1.1//EN" "http://www.w3.org/Graphics/SVG/1.1/DTD/svg11.dtd">
<!-- Created with Vectornator (http://vectornator.io/) -->
<svg height="100%" stroke-miterlimit="10" style="fill-rule:nonzero;clip-rule:evenodd;stroke-linecap:round;stroke-linejoin:round;" version="1.1" viewBox="0 0 600 435" width="100%" xml:space="preserve" xmlns="http://www.w3.org/2000/svg" xmlns:vectornator="http://vectornator.io" xmlns:xlink="http://www.w3.org/1999/xlink">
<defs/>
<clipPath id="ArtboardFrame">
<rect height="435" width="600" x="0" y="0"/>
</clipPath>
<g clip-path="url(#ArtboardFrame)" id="Untitled" vectornator:layerName="Untitled">
<path d="M0 0L680 0L680 0L680 459L680 459L0 459L0 459L0 0L0 0Z" fill="#d6d0cb" fill-rule="nonzero" opacity="1" stroke="none"/>
<path d="M630.7 11.9L-107.1 129.2L-23.8 635.8L712.3 518.5L630.7 11.9Z" fill="#360000" fill-rule="nonzero" opacity="1" stroke="none"/>
<path d="M345.1 299.2L761.6 511.7L969 103.7L552.5-107.1L345.1 299.2Z" fill="#37230e" fill-rule="nonzero" opacity="1" stroke="none"/>
<path d="M13.6 8.5L90.1 261.8L805.8 42.5L729.3-209.1L13.6 8.5Z" fill="#c68246" fill-rule="nonzero" opacity="1" stroke="none"/>
<path d="M5.1 350.2L10.2 824.5L491.3 817.7L486.2 343.4L5.1 350.2Z" fill="#dcaa84" fill-rule="nonzero" opacity="1" stroke="none"/>
<path d="M273.7 282.2L552.5 328.1L572.9 200.6L294.1 154.7L273.7 282.2Z" fill="#1a162d" fill-rule="nonzero" opacity="1" stroke="none"/>
<path d="M20.4 241.4L64.6 392.7L416.5 285.6L372.3 134.3L20.4 241.4Z" fill="#7f3f3b" fill-rule="nonzero" opacity="1" stroke="none"/>
<path d="M149.6 54.4L45.9-62.9L-340 266.9L-236.3 384.2L149.6 54.4Z" fill="#624b57" fill-rule="nonzero" opacity="1" stroke="none"/>
<path d="M112.2 17L249.9 178.5L414.8 35.7L277.1-124.1L112.2 17Z" fill="#eba25f" fill-rule="nonzero" opacity="1" stroke="none"/>
<path d="M647.7 39.1L435.2 544L727.6 664.7L940.1 159.8L647.7 39.1Z" fill="#603d34" fill-rule="nonzero" opacity="1" stroke="none"/>
<path d="M272 93.5L627.3 149.6L649.4 0L294.1-54.4L272 93.5Z" fill="#ba955e" fill-rule="nonzero" opacity="1" stroke="none"/>
<path d="M170 394.4L367.2 960.5L564.4 889.1L367.2 323L170 394.4Z" fill="#cdb7a9" fill-rule="nonzero" opacity="1" stroke="none"/>
<path d="M248.2 368.9L-10.2 464.1L85 717.4L343.4 622.2L248.2 368.9Z" fill="#8f5c43" fill-rule="nonzero" opacity="1" stroke="none"/>
<path d="M96.9 163.2L183.6 166.6L192.1-23.8L105.4-27.2L96.9 163.2Z" fill="#f0d3c1" fill-rule="nonzero" opacity="1" stroke="none"/>
<path d="M90.1 102L-64.6 119L-6.8 586.5L146.2 569.5L90.1 102Z" fill="#92695f" fill-rule="nonzero" opacity="1" stroke="none"/>
<path d="M588.2 319.6L380.8 433.5L572.9 775.2L780.3 661.3L588.2 319.6Z" fill="#935b3e" fill-rule="nonzero" opacity="1" stroke="none"/>
<path d="M334.9 323L669.8 363.8L691.9 176.8L357 136L334.9 323Z" fill="#302e38" fill-rule="nonzero" opacity="1" stroke="none"/>
<path d="M549.1 168.3L666.4 817.7L719.1 807.5L601.8 158.1L549.1 168.3Z" fill="#7a584f" fill-rule="nonzero" opacity="1" stroke="none"/>
<path d="M207.4 334.9L-11.9 690.2L39.1 720.8L258.4 365.5L207.4 334.9Z" fill="#ceaa8d" fill-rule="nonzero" opacity="1" stroke="none"/>
<path d="M52.7 134.3L-51 224.4L-15.3 263.5L86.7 173.4L52.7 134.3Z" fill="#af9595" fill-rule="nonzero" opacity="1" stroke="none"/>
<path d="M13.6 244.8L85 248.2L108.8-147.9L37.4-151.3L13.6 244.8Z" fill="#755c60" fill-rule="nonzero" opacity="1" stroke="none"/>
<path d="M127.5 275.4L144.5 365.5L404.6 314.5L387.6 224.4L127.5 275.4Z" fill="#673432" fill-rule="nonzero" opacity="1" stroke="none"/>
<path d="M226.1 105.4L142.8 168.3L246.5 299.2L329.8 236.3L226.1 105.4Z" fill="#7f4b4f" fill-rule="nonzero" opacity="1" stroke="none"/>
<path d="M370.6 243.1L360.4 334.9L581.4 358.7L591.6 266.9L370.6 243.1Z" fill="#272026" fill-rule="nonzero" opacity="1" stroke="none"/>
<path d="M578 421.6L635.8 588.2L753.1 547.4L695.3 380.8L578 421.6Z" fill="#551f12" fill-rule="nonzero" opacity="1" stroke="none"/>
<path d="M132.6 404.6L-248.2 421.6L-232.9 717.4L146.2 700.4L132.6 404.6Z" fill="#864a33" fill-rule="nonzero" opacity="1" stroke="none"/>
<path d="M275.4 156.4L357 168.3L389.3-40.8L307.7-52.7L275.4 156.4Z" fill="#e89150" fill-rule="nonzero" opacity="1" stroke="none"/>
<path d="M511.7 30.6L584.8 74.8L742.9-185.3L669.8-229.5L511.7 30.6Z" fill="#cc9574" fill-rule="nonzero" opacity="1" stroke="none"/>
<path d="M380.8 340L272 367.2L289 433.5L397.8 406.3L380.8 340Z" fill="#f0e2d9" fill-rule="nonzero" opacity="1" stroke="none"/>
<path d="M598.4 156.4L712.3 292.4L924.8 113.9L810.9-20.4L598.4 156.4Z" fill="#4c403e" fill-rule="nonzero" opacity="1" stroke="none"/>
<path d="M244.8 324.7L414.8 297.5L391 144.5L221 171.7L244.8 324.7Z" fill="#684b56" fill-rule="nonzero" opacity="1" stroke="none"/>
<path d="M538.9 355.3L608.6 591.6L782 538.9L712.3 302.6L538.9 355.3Z" fill="#824834" fill-rule="nonzero" opacity="1" stroke="none"/>
<path d="M360.4 119L489.6 161.5L533.8 25.5L404.6-15.3L360.4 119Z" fill="#908d5a" fill-rule="nonzero" opacity="1" stroke="none"/>
<path d="M40.8 122.4L45.9 137.7L246.5 64.6L241.4 49.3L40.8 122.4Z" fill="#9a6b58" fill-rule="nonzero" opacity="1" stroke="none"/>
<path d="M360.4 35.7L358.7 134.3L392.7 134.3L394.4 35.7L360.4 35.7Z" fill="#c85318" fill-rule="nonzero" opacity="1" stroke="none"/>
</g>
</svg>
