<?xml version="1.0" encoding="UTF-8" standalone="no"?>
<!DOCTYPE svg PUBLIC "-//W3C//DTD SVG 1.1//EN" "http://www.w3.org/Graphics/SVG/1.1/DTD/svg11.dtd">
<!-- Created with Vectornator (http://vectornator.io/) -->
<svg height="100%" stroke-miterlimit="10" style="fill-rule:nonzero;clip-rule:evenodd;stroke-linecap:round;stroke-linejoin:round;" version="1.1" viewBox="0 0 770 190" width="100%" xml:space="preserve" xmlns="http://www.w3.org/2000/svg" xmlns:vectornator="http://vectornator.io" xmlns:xlink="http://www.w3.org/1999/xlink">
<defs/>
<clipPath id="ArtboardFrame">
<rect height="190" width="770" x="0" y="0"/>
</clipPath>
<g clip-path="url(#ArtboardFrame)" id="Untitled" vectornator:layerName="Untitled">
<path d="M0 0L644 0L644 0L644 150.91L644 150.91L0 150.91L0 150.91L0 0L0 0Z" fill="#2e572d" fill-rule="nonzero" opacity="1" stroke="none"/>
<path d="M154.712 138.4L521.789 24.0684L521.789 24.0684L640.662 405.724L640.662 405.724L273.585 520.056L273.585 520.056L154.712 138.4L154.712 138.4Z" fill="#478f27" fill-rule="nonzero" opacity="1" stroke="none"/>
<path d="M418.6 37.03L623.07 90.16L652.05-17.71L447.58-70.84L418.6 37.03Z" fill="#201c65" fill-rule="nonzero" opacity="1" stroke="none"/>
<path d="M80.5 19.32L-11.27 25.76L30.59 505.54L122.36 499.1L80.5 19.32Z" fill="#07070f" fill-rule="nonzero" opacity="1" stroke="none"/>
<path d="M592.48 103.04L648.83 214.13L882.28 96.6L825.93-12.88L592.48 103.04Z" fill="#68b036" fill-rule="nonzero" opacity="1" stroke="none"/>
<path d="M243.11 1.61L391.23 35.42L408.94-38.64L260.82-72.45L243.11 1.61Z" fill="#6a9f5d" fill-rule="nonzero" opacity="1" stroke="none"/>
<path d="M437.92 114.31L368.69 241.5L468.51 293L537.74 165.81L437.92 114.31Z" fill="#0e0333" fill-rule="nonzero" opacity="1" stroke="none"/>
<path d="M484.61 24.15L273.7 294.63L547.4 503.93L758.31 233.45L484.61 24.15Z" fill="#41812b" fill-rule="nonzero" opacity="1" stroke="none"/>
<path d="M264 8.05L276.88 54.74L592.44-41.86L579.6-88.55L264 8.05Z" fill="#5b9846" fill-rule="nonzero" opacity="1" stroke="none"/>
<path d="M363.86 75.67L378.35 99.82L658.49-75.67L644-99.82L363.86 75.67Z" fill="#1c1854" fill-rule="nonzero" opacity="1" stroke="none"/>
<path d="M523.25 93.38L402.5 149.73L415.38 175.49L536.13 119.14L523.25 93.38Z" fill="#152726" fill-rule="nonzero" opacity="1" stroke="none"/>
<path d="M162.61 51.52L-107.87 183.54L-17.71 365.47L251.16 233.45L162.61 51.52Z" fill="#24530c" fill-rule="nonzero" opacity="1" stroke="none"/>
<path d="M541 104.65L544.22 130.41L724.5 104.65L721.28 78.89L541 104.65Z" fill="#75c43f" fill-rule="nonzero" opacity="1" stroke="none"/>
<path d="M368.69 67.62L-402.5 333.27L-378.35 397.67L391.23 132L368.69 67.62Z" fill="#3d811b" fill-rule="nonzero" opacity="1" stroke="none"/>
<path d="M556.7 24.0053L724.14 357.295L917.34 257.475L749.9-75.7947L556.7 24.0053Z" fill="#174519" fill-rule="nonzero" opacity="1" stroke="none"/>
<path d="M597.31 20.93L524.86 33.81L536.13 99.82L608.58 86.94L597.31 20.93Z" fill="#161243" fill-rule="nonzero" opacity="1" stroke="none"/>
<path d="M243.11 78.89L262.43 96.6L520-199.64L500.68-217.35L243.11 78.89Z" fill="#2a4537" fill-rule="nonzero" opacity="1" stroke="none"/>
<path d="M12.88 133.63L61.18 140.07L101.43-107.87L53.13-114.31L12.88 133.63Z" fill="#151d1f" fill-rule="nonzero" opacity="1" stroke="none"/>
<path d="M301.07 112.7L307.51 215.7L383.18 209.26L376.74 106.26L301.07 112.7Z" fill="#1e520f" fill-rule="nonzero" opacity="1" stroke="none"/>
<path d="M133.63 16.1L135.24 70.84L309.12 64.4L307.51 9.66L133.63 16.1Z" fill="#346f1a" fill-rule="nonzero" opacity="1" stroke="none"/>
<path d="M19.32 0L38.64 104.65L103 91.77L83.68-11.23L19.32 0Z" fill="#0e111e" fill-rule="nonzero" opacity="1" stroke="none"/>
<path d="M25.76 80.5L-40.24 365.5L66 389.62L132 104.62L25.76 80.5Z" fill="#254f19" fill-rule="nonzero" opacity="1" stroke="none"/>
<path d="M370.3 0L375.13 16.1L534.52-41.9L529.69-58L370.3 0Z" fill="#a9f552" fill-rule="nonzero" opacity="1" stroke="none"/>
<path d="M157.78 45.08L215.78 59.57L307.51-289.8L249.51-304.29L157.78 45.08Z" fill="#263933" fill-rule="nonzero" opacity="1" stroke="none"/>
<path d="M66 99.82L67.61 122.36L302.68 88.55L301.07 66L66 99.82Z" fill="#1a301f" fill-rule="nonzero" opacity="1" stroke="none"/>
<path d="M447.58 93.38L489.44 123.97L537.74 53.13L495.88 22.54L447.58 93.38Z" fill="#50a922" fill-rule="nonzero" opacity="1" stroke="none"/>
<path d="M634.34 143.29L930.58 172.27L930.58 156.17L634.34 127.19L634.34 143.29Z" fill="#76df3f" fill-rule="nonzero" opacity="1" stroke="none"/>
<path d="M610.19 130.41L598.92 144.9L961.17 367.08L972.44 352.59L610.19 130.41Z" fill="#100c34" fill-rule="nonzero" opacity="1" stroke="none"/>
<path d="M553.84 111.09L465.29 185.15L503.93 228.62L592.48 154.56L553.84 111.09Z" fill="#48a21a" fill-rule="nonzero" opacity="1" stroke="none"/>
<path d="M623.07 22.54L602.14 28.98L629.51 101.43L650.44 94.99L623.07 22.54Z" fill="#1f4c2b" fill-rule="nonzero" opacity="1" stroke="none"/>
</g>
</svg>
