<?xml version="1.0" encoding="UTF-8" standalone="no"?>
<!DOCTYPE svg PUBLIC "-//W3C//DTD SVG 1.1//EN" "http://www.w3.org/Graphics/SVG/1.1/DTD/svg11.dtd">
<!-- Created with Vectornator (http://vectornator.io/) -->
<svg height="100%" stroke-miterlimit="10" style="fill-rule:nonzero;clip-rule:evenodd;stroke-linecap:round;stroke-linejoin:round;" version="1.1" viewBox="0 0 400 286.567" width="100%" xml:space="preserve" xmlns="http://www.w3.org/2000/svg" xmlns:vectornator="http://vectornator.io" xmlns:xlink="http://www.w3.org/1999/xlink">
<defs/>
<clipPath id="ArtboardFrame">
<rect height="286.567" width="400" x="0" y="0"/>
</clipPath>
<g clip-path="url(#ArtboardFrame)" id="Untitled" vectornator:layerName="Untitled">
<path d="M0 0L400 0L400 0L400 286.567L400 286.567L0 286.567L0 286.567L0 0L0 0Z" fill="#26432a" fill-rule="nonzero" opacity="1" stroke="none"/>
<path d="M71 34L325 228L414 111L160-82L71 34Z" fill="#478632" fill-opacity="0.5" fill-rule="nonzero" opacity="1" stroke="none"/>
<path d="M39 103L-69 258L142 404L250 249L39 103Z" fill="#092100" fill-opacity="0.5" fill-rule="nonzero" opacity="1" stroke="none"/>
<path d="M117 185L329 202L337 97L125 80L117 185Z" fill="#326712" fill-opacity="0.5" fill-rule="nonzero" opacity="1" stroke="none"/>
<path d="M351 223L193 295L216 345L374 273L351 223Z" fill="#577140" fill-opacity="0.5" fill-rule="nonzero" opacity="1" stroke="none"/>
<path d="M172 11L391 61L431-112L212-162L172 11Z" fill="#374075" fill-opacity="0.5" fill-rule="nonzero" opacity="1" stroke="none"/>
<path d="M121 21L6 94L114 263L229 190L121 21Z" fill="#234e0d" fill-opacity="0.5" fill-rule="nonzero" opacity="1" stroke="none"/>
<path d="M226 137L236 161L420 83L410 59L226 137Z" fill="#4e922c" fill-opacity="0.5" fill-rule="nonzero" opacity="1" stroke="none"/>
<path d="M50 91L-84 149L18 382L152 324L50 91Z" fill="#0e2b00" fill-opacity="0.5" fill-rule="nonzero" opacity="1" stroke="none"/>
<path d="M173 10L210 59L277 7L240-41L173 10Z" fill="#598352" fill-opacity="0.5" fill-rule="nonzero" opacity="1" stroke="none"/>
<path d="M375 233L360 362L532 381L547 252L375 233Z" fill="#5b653f" fill-opacity="0.5" fill-rule="nonzero" opacity="1" stroke="none"/>
<path d="M214 145L291 265L341 231L264 111L214 145Z" fill="#3c4e29" fill-opacity="0.5" fill-rule="nonzero" opacity="1" stroke="none"/>
<path d="M21 19L-89 141L-44 180L65 58L21 19Z" fill="#0d1316" fill-opacity="0.5" fill-rule="nonzero" opacity="1" stroke="none"/>
<path d="M311 62L78 89L80 113L313 86L311 62Z" fill="#459027" fill-opacity="0.5" fill-rule="nonzero" opacity="1" stroke="none"/>
<path d="M33 17L93 19L99-139L39-141L33 17Z" fill="#52a62f" fill-opacity="0.5" fill-rule="nonzero" opacity="1" stroke="none"/>
<path d="M335 215L387 241L403 209L351 183L335 215Z" fill="#0f0619" fill-opacity="0.5" fill-rule="nonzero" opacity="1" stroke="none"/>
<path d="M107 80L112 96L354 16L349 0L107 80Z" fill="#151b42" fill-opacity="0.5" fill-rule="nonzero" opacity="1" stroke="none"/>
<path d="M279 116L383 196L401 172L297 92L279 116Z" fill="#3e7c2d" fill-opacity="0.5" fill-rule="nonzero" opacity="1" stroke="none"/>
<path d="M146 0L203 84L226 68L169-15L146 0Z" fill="#488c33" fill-opacity="0.5" fill-rule="nonzero" opacity="1" stroke="none"/>
<path d="M272 42L274 76L328 71L326 37L272 42Z" fill="#5bb52d" fill-opacity="0.5" fill-rule="nonzero" opacity="1" stroke="none"/>
<path d="M337 125L343 138L451 84L445 71L337 125Z" fill="#111829" fill-opacity="0.5" fill-rule="nonzero" opacity="1" stroke="none"/>
<path d="M374 83L450 138L459 124L383 69L374 83Z" fill="#8bdc45" fill-opacity="0.5" fill-rule="nonzero" opacity="1" stroke="none"/>
<path d="M230 244L-224 223L-236 483L217 504L230 244Z" fill="#111c07" fill-opacity="0.5" fill-rule="nonzero" opacity="1" stroke="none"/>
<path d="M240 125L256 141L301 96L285 80L240 125Z" fill="#120c41" fill-opacity="0.5" fill-rule="nonzero" opacity="1" stroke="none"/>
<path d="M196 282L199 343L399 329L396 268L196 282Z" fill="#2f6a24" fill-opacity="0.5" fill-rule="nonzero" opacity="1" stroke="none"/>
<path d="M197 254L279 261L283 216L201 209L197 254Z" fill="#2e2021" fill-opacity="0.5" fill-rule="nonzero" opacity="1" stroke="none"/>
<path d="M229 154L257 201L333 155L305 108L229 154Z" fill="#3e871f" fill-opacity="0.5" fill-rule="nonzero" opacity="1" stroke="none"/>
<path d="M314 88L325 96L497-132L486-140L314 88Z" fill="#1b2048" fill-opacity="0.5" fill-rule="nonzero" opacity="1" stroke="none"/>
<path d="M29 61L-248 404L-184 455L92 112L29 61Z" fill="#1b3f14" fill-opacity="0.5" fill-rule="nonzero" opacity="1" stroke="none"/>
<path d="M29 274L50 286L141 126L120 114L29 274Z" fill="#234a17" fill-opacity="0.5" fill-rule="nonzero" opacity="1" stroke="none"/>
</g>
</svg>
