<?xml version="1.0" encoding="UTF-8" standalone="no"?>
<!DOCTYPE svg PUBLIC "-//W3C//DTD SVG 1.1//EN" "http://www.w3.org/Graphics/SVG/1.1/DTD/svg11.dtd">
<!-- Created with Vectornator (http://vectornator.io/) -->
<svg height="100%" stroke-miterlimit="10" style="fill-rule:nonzero;clip-rule:evenodd;stroke-linecap:round;stroke-linejoin:round;" version="1.1" viewBox="0 0 770 190" width="100%" xml:space="preserve" xmlns="http://www.w3.org/2000/svg" xmlns:vectornator="http://vectornator.io" xmlns:xlink="http://www.w3.org/1999/xlink">
<defs/>
<clipPath id="ArtboardFrame">
<rect height="190" width="770" x="0" y="0"/>
</clipPath>
<g clip-path="url(#ArtboardFrame)" id="Untitled" vectornator:layerName="Untitled">
<path d="M21.7504-12.3963L697.125-12.3963L697.125-12.3963L697.125 132.418L697.125 132.418L21.7504 132.418L21.7504 132.418L21.7504-12.3963L21.7504-12.3963Z" fill="#5f5956" fill-rule="nonzero" opacity="1" stroke="none"/>
<path d="M426.975 23.0853L489.451 229.193L933.507 88.9711L871.032-115.456L426.975 23.0853Z" fill="#000000" fill-rule="nonzero" opacity="1" stroke="none"/>
<path d="M242.933 78.8285L362.821 126.169L496.204-206.681L376.328-254.021L242.933 78.8285Z" fill="#fffbec" fill-rule="nonzero" opacity="1" stroke="none"/>
<path d="M47.074 24.7777L-302.43 97.4214L-261.907 279.93L85.9169 207.227L47.074 24.7777Z" fill="#000000" fill-rule="nonzero" opacity="1" stroke="none"/>
<path d="M48.7654 112.629L204.102 146.419L236.179-5.63843L80.8427-37.7352L48.7654 112.629Z" fill="#0b0000" fill-rule="nonzero" opacity="1" stroke="none"/>
<path d="M413.468 87.2787L575.511 254.532L747.773 83.9057L585.73-81.6669L413.468 87.2787Z" fill="#00000c" fill-rule="nonzero" opacity="1" stroke="none"/>
<path d="M381.391 26.4583L200.731 154.857L334.114 344.076L514.774 215.677L381.391 26.4583Z" fill="#efc3b1" fill-rule="nonzero" opacity="1" stroke="none"/>
<path d="M298.654 60.2474L418.53 92.3441L432.038 38.2934L312.162 6.1848L298.654 60.2474Z" fill="#fff5ed" fill-rule="nonzero" opacity="1" stroke="none"/>
<path d="M158.517 4.50422L77.4718 256.224L226.054 301.837L307.099 50.1166L158.517 4.50422Z" fill="#49291b" fill-rule="nonzero" opacity="1" stroke="none"/>
<path d="M296.963 83.9057L133.193 438.686L166.962 453.894L330.732 99.1138L296.963 83.9057Z" fill="#000000" fill-rule="nonzero" opacity="1" stroke="none"/>
<path d="M48.7654 55.182L-12.0184 114.31L21.7504 148.099L80.8427 88.9711L48.7654 55.182Z" fill="#fce9d8" fill-rule="nonzero" opacity="1" stroke="none"/>
<path d="M28.5041-3.94602L-23.8345 11.2739L45.4062 230.886L97.7448 215.677L28.5041-3.94602Z" fill="#f8e9de" fill-rule="nonzero" opacity="1" stroke="none"/>
<path d="M386.453 80.5209L317.224 122.76L418.53 288.321L487.771 246.094L386.453 80.5209Z" fill="#67392c" fill-rule="nonzero" opacity="1" stroke="none"/>
<path d="M175.395 75.4555L23.4418 148.099L99.4244 308.606L251.378 235.951L175.395 75.4555Z" fill="#000000" fill-rule="nonzero" opacity="1" stroke="none"/>
<path d="M285.147 31.5355L378.008 34.944L381.391-76.5542L288.529-79.9745L285.147 31.5355Z" fill="#fff8f8" fill-rule="nonzero" opacity="1" stroke="none"/>
<path d="M696.198 77.8802L439.532 82.9456L444.595 275.538L701.261 270.472L696.198 77.8802Z" fill="#000111" fill-rule="nonzero" opacity="1" stroke="none"/>
<path d="M515.332 180.331L915.494 220.867L929.002 72.2062L528.839 31.6592L515.332 180.331Z" fill="#a8b6bb" fill-rule="nonzero" opacity="1" stroke="none"/>
<path d="M367.883-2.2536L443.866 68.7568L470.881 38.3525L394.898-30.9773L367.883-2.2536Z" fill="#3f3b22" fill-rule="nonzero" opacity="1" stroke="none"/>
<path d="M237.87 18.0199L275.022 33.2161L305.408-46.1854L268.268-61.3935L237.87 18.0199Z" fill="#cf946d" fill-rule="nonzero" opacity="1" stroke="none"/>
<path d="M38.6407-7.33085L-125.141 26.4583L-88.001 190.339L74.0417 156.549L38.6407-7.33085Z" fill="#e0d2c7" fill-rule="nonzero" opacity="1" stroke="none"/>
<path d="M116.303 2.81181L153.454 45.0512L435.421-213.439L398.269-255.678L116.303 2.81181Z" fill="#000000" fill-rule="nonzero" opacity="1" stroke="none"/>
<path d="M616.08-5.63843L558.668 107.552L683.618 168.373L741.019 55.182L616.08-5.63843Z" fill="#000319" fill-rule="nonzero" opacity="1" stroke="none"/>
<path d="M494.513-2.2536L514.774 51.7972L928.444-112.071L908.183-166.134L494.513-2.2536Z" fill="#000009" fill-rule="nonzero" opacity="1" stroke="none"/>
<path d="M126.439 48.4242L111.241 56.8744L131.502 87.2787L146.701 78.8285L126.439 48.4242Z" fill="#ffd472" fill-rule="nonzero" opacity="1" stroke="none"/>
<path d="M229.425 1.11939L185.532 23.0853L242.933 136.276L286.838 114.31L229.425 1.11939Z" fill="#8b6856" fill-rule="nonzero" opacity="1" stroke="none"/>
<path d="M26.8127 31.5355L55.5191 36.6009L177.087-517.541L148.38-522.606L26.8127 31.5355Z" fill="#fff0e1" fill-rule="nonzero" opacity="1" stroke="none"/>
<path d="M224.363 92.3441L302.072 104.179L312.197 39.9739L234.535 28.1389L224.363 92.3441Z" fill="#785347" fill-rule="nonzero" opacity="1" stroke="none"/>
<path d="M565.421-0.561187L227.746 350.834L264.885 386.339L602.573 34.944L565.421-0.561187Z" fill="#263136" fill-rule="nonzero" opacity="1" stroke="none"/>
<path d="M448.928 105.86L445.545 143.034L629.588 149.744L632.959 112.57L448.928 105.86Z" fill="#00050b" fill-rule="nonzero" opacity="1" stroke="none"/>
<path d="M263.194-0.561187L234.499 58.6142L268.268 73.7631L296.963 14.5877L263.194-0.561187Z" fill="#a47e6f" fill-rule="nonzero" opacity="1" stroke="none"/>
</g>
</svg>
