<?xml version="1.0" encoding="UTF-8" standalone="no"?>
<!DOCTYPE svg PUBLIC "-//W3C//DTD SVG 1.1//EN" "http://www.w3.org/Graphics/SVG/1.1/DTD/svg11.dtd">
<!-- Created with Vectornator (http://vectornator.io/) -->
<svg height="100%" stroke-miterlimit="10" style="fill-rule:nonzero;clip-rule:evenodd;stroke-linecap:round;stroke-linejoin:round;" version="1.1" viewBox="0 0 600 435" width="100%" xml:space="preserve" xmlns="http://www.w3.org/2000/svg" xmlns:vectornator="http://vectornator.io" xmlns:xlink="http://www.w3.org/1999/xlink">
<defs/>
<clipPath id="ArtboardFrame">
<rect height="435" width="600" x="0" y="0"/>
</clipPath>
<g clip-path="url(#ArtboardFrame)" id="Untitled" vectornator:layerName="Untitled">
<path d="M-26.2326-12.5316L613.337-12.5316L613.337-12.5316L613.337 448.46L613.337 448.46L-26.2326 448.46L-26.2326 448.46L-26.2326-12.5316L-26.2326-12.5316Z" fill="#69635c" fill-rule="nonzero" opacity="1" stroke="none"/>
<path d="M381.479 292.094L766.789 698.841L926.681 523.591L541.371 116.856L381.479 292.094Z" fill="#000000" fill-rule="nonzero" opacity="1" stroke="none"/>
<path d="M411.878 150.797L426.282 462.277L614.961 450.356L600.546 138.935L411.878 150.797Z" fill="#000003" fill-rule="nonzero" opacity="1" stroke="none"/>
<path d="M15.345 172.971L-37.4335 172.971L-24.6309 685.227L28.1364 685.227L15.345 172.971Z" fill="#ffffff" fill-rule="nonzero" opacity="1" stroke="none"/>
<path d="M184.825-9.12201L95.2856 57.2466L269.571 314.221L359.077 247.852L184.825-9.12201Z" fill="#ffefdf" fill-rule="nonzero" opacity="1" stroke="none"/>
<path d="M-15.0318 235.942L63.3743 370.384L210.475 271.672L132.069 137.23L-15.0318 235.942Z" fill="#090000" fill-rule="nonzero" opacity="1" stroke="none"/>
<path d="M228.027-4.01949L405.482 377.192L531.795 309.118L354.317-70.4L228.027-4.01949Z" fill="#191310" fill-rule="nonzero" opacity="1" stroke="none"/>
<path d="M239.228 281.937L186.461 287.039L200.82 457.187L253.576 452.084L239.228 281.937Z" fill="#fffffe" fill-rule="nonzero" opacity="1" stroke="none"/>
<path d="M16.9355 104.898L-160.542 87.8737L-189.328 440.162L-13.4412 457.187L16.9355 104.898Z" fill="#f7e5d7" fill-rule="nonzero" opacity="1" stroke="none"/>
<path d="M395.883 366.975L322.338 431.65L375.095 498.019L448.684 433.343L395.883 366.975Z" fill="#c3b19d" fill-rule="nonzero" opacity="1" stroke="none"/>
<path d="M87.2882 58.9991L-154.147 234.249L-122.168 281.937L117.676 106.686L87.2882 58.9991Z" fill="#e1cdb8" fill-rule="nonzero" opacity="1" stroke="none"/>
<path d="M10.5398 58.9991L170.432 150.797L240.785 11.3119L80.8925-78.9002L10.5398 58.9991Z" fill="#a99982" fill-rule="nonzero" opacity="1" stroke="none"/>
<path d="M421.466 111.705L373.504 348.257L666.104 412.933L714.066 176.369L421.466 111.705Z" fill="#000a1b" fill-rule="nonzero" opacity="1" stroke="none"/>
<path d="M-8.64726 210.406L93.6839 344.86L170.432 276.786L68.1011 142.332L-8.64726 210.406Z" fill="#180b00" fill-rule="nonzero" opacity="1" stroke="none"/>
<path d="M530.193 147.447L1136.16-10.8268L1115.38-101.027L509.404 55.5418L530.193 147.447Z" fill="#acb0a3" fill-rule="nonzero" opacity="1" stroke="none"/>
<path d="M288.758 220.623L327.132 263.172L490.217 92.9881L451.843 50.4392L288.758 220.623Z" fill="#a6a298" fill-rule="nonzero" opacity="1" stroke="none"/>
<path d="M234.389 171.267L328.734 285.287L360.713 252.955L266.368 138.935L234.389 171.267Z" fill="#fff8f5" fill-rule="nonzero" opacity="1" stroke="none"/>
<path d="M307.945 79.3734L261.63 113.41L391.089 304.016L437.483 270.015L307.945 79.3734Z" fill="#2c2114" fill-rule="nonzero" opacity="1" stroke="none"/>
<path d="M26.5347 200.201L-0.649841 205.303L58.5132 537.158L85.6977 532.056L26.5347 200.201Z" fill="#26140b" fill-rule="nonzero" opacity="1" stroke="none"/>
<path d="M133.66 167.869L119.267 382.294L207.216 387.397L221.598 172.971L133.66 167.869Z" fill="#87583f" fill-rule="nonzero" opacity="1" stroke="none"/>
<path d="M582.96 162.719L658.14 322.733L1096.22 91.2833L1021.05-66.9904L582.96 162.719Z" fill="#a3ada3" fill-rule="nonzero" opacity="1" stroke="none"/>
<path d="M477.426 60.6443L525.399 72.5661L560.57-94.2197L512.608-106.142L477.426 60.6443Z" fill="#2b1a03" fill-rule="nonzero" opacity="1" stroke="none"/>
<path d="M90.4916 365.282L85.6977 450.368L136.863 452.072L141.657 366.975L90.4916 365.282Z" fill="#622502" fill-rule="nonzero" opacity="1" stroke="none"/>
<path d="M410.276 110L424.67 477.597L487.025 474.199L472.632 106.603L410.276 110Z" fill="#0b1c2a" fill-rule="nonzero" opacity="1" stroke="none"/>
<path d="M-5.44381 31.722L-21.4387 72.5661L157.641 144.097L173.636 103.253L-5.44381 31.722Z" fill="#ab967e" fill-rule="nonzero" opacity="1" stroke="none"/>
<path d="M266.368 256.364L250.429 649.485L295.232 651.19L311.138 258.093L266.368 256.364Z" fill="#4a2216" fill-rule="nonzero" opacity="1" stroke="none"/>
<path d="M451.843 375.487L576.565 547.375L741.217 407.819L616.54 235.942L451.843 375.487Z" fill="#00000f" fill-rule="nonzero" opacity="1" stroke="none"/>
<path d="M290.36 167.869L183.224 421.421L210.408 433.343L317.533 179.767L290.36 167.869Z" fill="#fffffa" fill-rule="nonzero" opacity="1" stroke="none"/>
<path d="M253.576 149.14L208.773 176.369L277.535 298.901L322.338 271.672L253.576 149.14Z" fill="#f8e6e1" fill-rule="nonzero" opacity="1" stroke="none"/>
<path d="M173.636 195.098L237.593 276.786L258.381 256.364L194.424 174.64L173.636 195.098Z" fill="#7f4d37" fill-rule="nonzero" opacity="1" stroke="none"/>
</g>
</svg>
