<?xml version="1.0" encoding="UTF-8"?><svg id="Layer_2" xmlns="http://www.w3.org/2000/svg" xmlns:xlink="http://www.w3.org/1999/xlink" viewBox="0 0 496 251.4"><defs><style>.cls-1{fill:#fff;stroke:#000;stroke-miterlimit:10;stroke-width:.5px;}.cls-1,.cls-2{fill-rule:evenodd;}.cls-2{fill:url(#linear-gradient);stroke-width:0px;}</style><linearGradient id="linear-gradient" x1=".48" y1="243.95" x2="1.49" y2="243.94" gradientTransform="translate(-148 10127.1) scale(400 -41)" gradientUnits="userSpaceOnUse"><stop offset="0" stop-color="#3f2870"/><stop offset="1" stop-color="#9377d1"/></linearGradient></defs><g id="Layer_1-2"><path class="cls-1" d="m.2,41.44H.2C.3,18.24,19.1-.46,42.2-.46h411.9c23.2,0,41.9,18.7,41.9,41.9h0v167.7c0,23.1-18.7,41.9-41.9,41.9H42.1c-23.1.1-42-18.5-42.1-41.7v-.2L.2,41.44Z"/><g id="Symbols"><g id="astronomer-logo"><path class="cls-2" d="m99.58,106.29c-2.09,1.01-3.69,2.35-4.81,4.04-1.11,1.69-1.67,3.54-1.67,5.55,0,2.58.6,4.65,1.81,6.21,1.21,1.56,2.64,2.7,4.29,3.44,1.65.74,3.84,1.51,6.56,2.31,1.99.53,3.56,1.02,4.69,1.48,1.13.46,2.07,1.06,2.82,1.82.75.76,1.12,1.75,1.12,2.96,0,1.67-.72,3.09-2.16,4.24-1.44,1.16-3.41,1.74-5.9,1.74-3.95,0-7.33-1.46-10.13-4.38l-4.26,4.1c1.38,1.63,3.31,3.04,5.78,4.21,2.47,1.18,5.34,1.76,8.6,1.76,2.88,0,5.41-.53,7.6-1.59,2.19-1.06,3.86-2.49,5.04-4.27,1.17-1.78,1.76-3.72,1.76-5.81,0-2.58-.6-4.65-1.81-6.21-1.21-1.56-2.64-2.7-4.29-3.45-1.65-.74-3.84-1.51-6.56-2.31-2-.53-3.56-1.03-4.69-1.48-1.13-.46-2.07-1.06-2.82-1.82-.75-.76-1.12-1.75-1.12-2.96,0-1.52.66-2.8,1.99-3.84s3.16-1.57,5.5-1.57c1.73,0,3.31.35,4.75,1.05,1.44.7,2.66,1.53,3.65,2.48l4.26-4.1c-1.3-1.37-3.06-2.56-5.27-3.59-2.21-1.02-4.67-1.54-7.39-1.54s-5.25.5-7.34,1.51h0Zm200.3,4.39c1.77.28,3.44.87,5.01,1.76,2.3,1.31,4.11,3.1,5.44,5.38,1.32,2.28,1.99,4.76,1.99,7.46s-.66,5.18-1.99,7.46c-1.32,2.28-3.14,4.07-5.44,5.38-2.3,1.31-4.81,1.96-7.54,1.96s-5.24-.65-7.54-1.96c-.28-.16-.56-.33-.82-.5l-2.24,5.54c3.2,1.74,6.74,2.62,10.6,2.62s7.56-.91,10.82-2.73c3.26-1.82,5.82-4.3,7.68-7.43,1.86-3.13,2.79-6.58,2.79-10.33s-.93-7.2-2.79-10.34c-1.86-3.13-4.42-5.61-7.68-7.43-1.91-1.07-3.95-1.82-6.1-2.26l-2.19,5.42Zm-82.99,0c1.77.28,3.44.87,5.01,1.76,2.3,1.31,4.12,3.1,5.44,5.38,1.32,2.28,1.99,4.76,1.99,7.46s-.66,5.18-1.99,7.46c-1.32,2.28-3.14,4.07-5.44,5.38-2.3,1.31-4.82,1.96-7.54,1.96s-5.24-.65-7.54-1.96c-.28-.16-.56-.33-.82-.5l-2.24,5.54c3.2,1.74,6.74,2.62,10.6,2.62s7.56-.91,10.82-2.73c3.26-1.82,5.82-4.3,7.68-7.43,1.86-3.13,2.79-6.58,2.79-10.33s-.93-7.2-2.79-10.34c-1.86-3.13-4.42-5.61-7.68-7.43-1.91-1.07-3.95-1.82-6.1-2.26l-2.19,5.42Zm199.75-5.33v39.86h6.33v-14.81h9.5l8.34,14.81h7.19l-9.09-15.83c2.34-.99,4.2-2.51,5.58-4.56,1.38-2.05,2.07-4.37,2.07-6.95,0-2.35-.57-4.48-1.7-6.38-1.13-1.9-2.7-3.4-4.72-4.5-2.01-1.1-4.29-1.65-6.82-1.65h-16.69Zm6.33,5.69h10.36c2.03,0,3.69.64,4.98,1.91,1.28,1.27,1.93,2.91,1.93,4.92s-.64,3.61-1.93,4.9c-1.29,1.29-2.94,1.94-4.98,1.94h-10.36v-13.67Zm-44.72-5.69v39.86h29.06v-5.69h-22.73v-12.13h17.55v-5.69h-17.55v-10.65h22.16v-5.69h-28.49Zm-15.6,0l-15.19,19.3h-.12l-15.19-19.3h-5.81v39.86h6.33v-29.16h.23l14.44,18.34,14.45-18.34h.23v29.16h6.33v-39.86h-5.7Zm-90.78,0v29.1h-.17l-21.98-29.1h-5.75v39.86h6.33v-29.1h.17l21.98,29.1h5.75v-39.86h-6.33Zm-105.61,0v39.86h6.33v-14.81h9.5l8.35,14.81h7.19l-9.09-15.83c2.34-.99,4.2-2.51,5.58-4.56,1.38-2.05,2.07-4.37,2.07-6.95,0-2.35-.57-4.48-1.7-6.38-1.13-1.9-2.7-3.4-4.72-4.5-2.01-1.1-4.29-1.65-6.82-1.65h-16.69Zm6.33,5.69h10.36c2.03,0,3.69.64,4.98,1.91,1.29,1.27,1.93,2.91,1.93,4.92s-.64,3.61-1.93,4.9c-1.29,1.29-2.94,1.94-4.98,1.94h-10.36v-13.67Zm-45.79-5.69v5.69h12.09v34.17h6.33v-34.17h12.08v-5.69h-30.5Zm-62.71.05l-16.09,39.81h6.49l4.02-10.24h17.77l4.07,10.24h6.72l-10.39-25.71h-6.5l3.85,9.78h-13.22l9.39-23.89h-6.12Z"/></g></g></g></svg>