<?xml version="1.0" encoding="utf-8"?>
<!-- Generator: Adobe Illustrator 26.3.1, SVG Export Plug-In . SVG Version: 6.00 Build 0)  -->
<svg version="1.1" id="Layer_1" xmlns="http://www.w3.org/2000/svg" xmlns:xlink="http://www.w3.org/1999/xlink" x="0px" y="0px"
	 viewBox="0 0 200 140" style="enable-background:new 0 0 200 140;" xml:space="preserve">
<style type="text/css">
	.st0{fill:#545454;}
	.st1{fill:#F5F4F2;}
	.st2{fill:#DEDEFC;}
	.st3{fill:#FFFFFF;}
	.st4{fill:#C9C6FA;}
	.st5{fill:#163B36;}
</style>
<path class="st0" d="M187,140H13c-7.2,0-13-5.9-13-13V13C0,5.8,5.8,0,13,0h174c7.1,0,13,5.8,13,13v114C200,134.1,194.1,140,187,140z
	"/>
<path class="st1" d="M44,77.9h3.9v34.6H44v-3.1h-0.1c-1.5,1.9-3.8,3.7-7.7,3.7c-6.2,0-11.1-4.9-11.1-13c0-8.1,4.9-13,11.1-13
	c4,0,6.3,1.7,7.7,3.9H44V77.9z M44,100.2c0-5.8-2.9-9.6-7.4-9.6c-5.1,0-7.6,4.8-7.6,9.6c0,4.8,2.6,9.6,7.6,9.6
	C41.1,109.8,44,106,44,100.2z"/>
<path class="st1" d="M62.3,90.5c-4.7,0-6.2,1.4-6.5,4.9h-3.9c0.2-4.7,3.2-8.3,10.4-8.3c4.7,0,8.9,1.8,8.9,7.8v12
	c0,1.9,0.3,3,2.8,2.7v2.7c-0.7,0.3-1.5,0.4-2.3,0.4c-2.3,0-3.7-0.6-4.4-3.3h-0.1c-1.5,2.3-4.3,3.8-8.4,3.8c-5,0-8.1-2.9-8.1-7
	c0-5.6,4.2-7.1,10.5-8.3c4.2-0.8,6.1-1.3,6.1-3.8C67.3,92.2,66.2,90.5,62.3,90.5z M67.3,103v-4.1c-0.7,0.7-3.1,1.4-5.7,1.9
	c-4.8,1-7,2.2-7,5.2c0,2.4,1.5,3.8,4.6,3.8C63.8,109.8,67.3,107.7,67.3,103z"/>
<path class="st1" d="M93.5,87.8h3.9v23.3c0,6.6-4.2,9.9-10.9,9.9c-6.8,0-10.8-3.6-11.2-7.8h3.9c0.5,2.5,2.5,4.4,7.1,4.4
	c4.6,0,7.3-2,7.3-6.6v-3.7h-0.1c-1.5,2.1-3.8,3.9-7.8,3.9c-6.1,0-11-3.9-11-12c0-8.1,4.9-12,11-12c4.1,0,6.4,1.8,7.8,3.7h0.1
	L93.5,87.8z M93.5,99.2c0-5.8-2.9-8.7-7.4-8.7c-5.1,0-7.6,3.8-7.6,8.7c0,4.8,2.6,8.7,7.6,8.7C90.6,107.9,93.5,105,93.5,99.2
	L93.5,99.2z"/>
<path class="st1" d="M121.1,105.7c0,4.5-4.1,7.4-9.7,7.4c-7.5,0-11-3.6-11.3-8.9h3.9c0.2,2.8,1.2,5.5,7.4,5.5c4.2,0,5.9-2.2,5.9-3.8
	c0-3.6-3.2-3.8-6.8-4.6c-3.8-0.9-9.4-1.4-9.4-7.2c0-3.9,3.4-7,9.2-7c6.1,0,9.4,3.5,9.8,7.7h-3.9c-0.4-1.9-1.3-4.4-5.9-4.4
	c-3.5,0-5.4,1.4-5.4,3.3c0,2.9,3.3,3.1,6.8,4C116.2,98.9,121.1,99.6,121.1,105.7z"/>
<path class="st1" d="M134.2,91.2h-4.8v14.8c0,2.8,1.6,3.3,4.8,3v3.4c-1,0.2-1.9,0.3-2.9,0.3c-3.3,0-5.8-1.3-5.8-6.3V91.2h-3.6v-3.4
	h3.6v-8.2h3.9v8.2h4.8L134.2,91.2z"/>
<path class="st1" d="M154.8,104.9h3.9c-1.3,4.6-4.8,8.3-10.9,8.3c-7.5,0-12-5.3-12-13c0-8.2,4.6-13,11.9-13c7.7,0,11.5,5.3,11.5,14
	h-19.5c0,4.5,2.7,8.6,8,8.6C152.5,109.8,154.3,106.6,154.8,104.9z M139.5,97.8h15.6c0-4-3-7.3-7.6-7.3
	C142.9,90.5,139.5,93.8,139.5,97.8z"/>
<path class="st1" d="M175,87.3v3.9h-0.1c-5.4-0.9-9.1,2.9-9.1,8.2v13.2h-3.9V87.8h3.9v4.9h0.1c1.3-3.2,3.3-5.6,6.8-5.6
	C173.5,87.1,174.2,87.2,175,87.3L175,87.3z"/>
<path class="st2" d="M90.8,70.8c0,0.3,0.1,0.6,0.2,0.9c0.1,0.3,0.3,0.5,0.5,0.7c0.2,0.2,0.5,0.4,0.8,0.5c0.3,0.1,0.6,0.1,0.9,0.1
	c11.6-0.8,22.6-9.1,26.1-21.9c0.2-0.7,0.7-1.1,1.5-1.1c0.4,0,0.7,0.2,1,0.5s0.4,0.6,0.4,1c0,2.9-3.7,10.4-9,14.7
	c-0.3,0.2-0.5,0.5-0.6,0.8c-0.1,0.3-0.2,0.7-0.2,1c0,0.3,0.1,0.6,0.2,0.8c0.1,0.3,0.3,0.5,0.5,0.7s0.4,0.4,0.7,0.5
	c0.3,0.1,0.6,0.2,0.8,0.1c0.5,0,1.2-0.3,2.1-1.1c3.7-3.3,10.7-12.7,10.7-23c0-15.1-11.6-28-27.9-28c-14.5,0-27.1,11.8-27.1,25.5
	c0,9.1,7.2,15.9,16.7,15.9c7.3,0,14-5.2,15.9-12.3c0.2-0.7,0.7-1.1,1.5-1.1c0.4,0,0.7,0.2,1,0.5c0.3,0.3,0.4,0.6,0.4,1
	c0,3.2-6.1,14.5-18.5,14.5c-3,0-6.7-0.8-9.2-2.3c-0.3-0.2-0.7-0.3-1.1-0.3c-0.3,0-0.6,0-0.9,0.1c-0.3,0.1-0.5,0.3-0.7,0.5
	c-0.2,0.2-0.4,0.5-0.5,0.7c-0.1,0.3-0.2,0.6-0.1,0.9c0,0.4,0.1,0.7,0.3,1.1c0.2,0.3,0.5,0.6,0.8,0.8c3.4,2,7.5,3,11.6,3
	c10.3,0,19.8-7,22.5-17.4c0.2-0.7,0.7-1.1,1.5-1.1c0.4,0,0.7,0.2,1,0.5c0.3,0.3,0.4,0.6,0.4,1c0,4.3-7.6,18-22.2,19.1
	c-0.6,0-1.1,0.3-1.5,0.7C91.1,69.7,90.8,70.2,90.8,70.8L90.8,70.8z"/>
<path class="st3" d="M105.3,35.3c2,0,3.9,0.5,5.6,1.6c0.2-0.9,0.3-1.9,0.3-2.8c0-4.4-3.3-8.3-7.4-8.3c-3.2,0-5.2,2.6-5.2,5.9
	c0,1.8,0.6,3.5,1.7,4.8C101.9,35.7,103.6,35.3,105.3,35.3L105.3,35.3z"/>
<path class="st4" d="M114.8,51.2c0.6-1.9,0.8-3.3,0.8-4.2c0-0.4-0.2-0.7-0.5-1c-0.3-0.3-0.6-0.4-1-0.4c-0.4,0-0.7,0.1-1,0.4
	c-0.3,0.2-0.5,0.5-0.5,0.9c-0.2,0.6-0.5,2.4-0.8,3.5c0.1-0.4,0.3-0.8,0.4-1.2c0.2-0.7,0.7-1.1,1.5-1.1c0.4,0,0.7,0.2,1,0.5
	c0.3,0.3,0.4,0.6,0.4,1C115.1,50.1,115,50.7,114.8,51.2L114.8,51.2z"/>
<path class="st4" d="M122.7,49.2c0-0.4-0.2-0.7-0.4-1c-0.3-0.3-0.6-0.4-1-0.4c-0.3,0-0.7,0.1-1,0.4c-0.3,0.2-0.5,0.5-0.5,0.9
	c-0.2,0.7-0.5,2.4-0.8,3.5h0c0.2-0.5,0.3-1,0.4-1.5c0.2-0.7,0.7-1.1,1.5-1.1c0.4,0,0.7,0.2,1,0.5c0.3,0.3,0.4,0.6,0.4,1
	c0,0.5-0.1,0.9-0.2,1.4C122.5,51.2,122.7,50,122.7,49.2z"/>
<path class="st5" d="M105.3,35.3c1,0,2,0.1,2.9,0.4c0.5-0.7,0.8-1.5,0.7-2.4c0-0.8-0.4-1.7-0.9-2.3c-0.6-0.6-1.3-1-2.2-1.2
	c-0.8-0.1-1.7,0-2.4,0.5l1.5,2.5l-2.8-1.2c-0.4,0.6-0.6,1.3-0.6,2.1c0,0.7,0.3,1.4,0.7,2C103.2,35.4,104.2,35.3,105.3,35.3
	L105.3,35.3z"/>
<path class="st4" d="M83.4,51.4c1.2,0,2.2-1,2.2-2.2c0-1.2-1-2.2-2.2-2.2s-2.2,1-2.2,2.2C81.2,50.4,82.2,51.4,83.4,51.4z"/>
<path class="st4" d="M83.4,42.7c1.2,0,2.2-1,2.2-2.2c0-1.2-1-2.2-2.2-2.2s-2.2,1-2.2,2.2C81.2,41.7,82.2,42.7,83.4,42.7z"/>
<path class="st4" d="M79,47.1c1.2,0,2.2-1,2.2-2.2c0-1.2-1-2.2-2.2-2.2s-2.2,1-2.2,2.2C76.9,46.1,77.8,47.1,79,47.1z"/>
<path class="st4" d="M88.8,59.5h0.4c7.3,0,14-5.2,15.9-12.3c0.2-0.7,0.7-1.1,1.5-1.1c0.4,0,0.7,0.2,1,0.5c0.3,0.3,0.4,0.6,0.4,1
	c0,0.8-0.2,1.5-0.5,2.2c0.1-0.1,0.1-0.2,0.1-0.3c0.5-1.3,0.8-2.6,0.8-4c0-2.1-1.5-3.5-3.6-3.5c-3.7,0-4.4,3.2-6,6.7
	c-1.6,3.6-4.6,7.5-12.1,7.5c-7.8,0-15.8-5.5-13.9-16.6c0-0.1,0-0.3,0.1-0.4c-0.3,1.4-0.4,2.9-0.4,4.4C72.5,52.5,79.5,59.3,88.8,59.5
	z"/>
</svg>
