<?xml version="1.0" encoding="UTF-8"?><svg id="Layer_1" xmlns="http://www.w3.org/2000/svg" viewBox="0 0 496 347.2"><defs><style>.cls-1{fill:#f5f4f2;}.cls-2{fill:#fff;}.cls-3{fill:#686868;}.cls-4{fill:#c9c6fa;}.cls-5{fill:#dedefc;}.cls-6{fill:#163b36;}</style></defs><path class="cls-3" d="m435.98,347.2H60.02c-32.98,0-60.02-27.03-60.02-60.02V60.02C0,27.03,27.03,0,60.02,0h375.97C468.97,0,496,27.03,496,60.02v227.17c0,32.98-27.03,60.02-60.02,60.02Z"/><path class="cls-1" d="m109.12,193.19h9.67v85.81h-9.67v-7.69h-.25c-3.72,4.71-9.42,9.18-19.1,9.18-15.38,0-27.53-12.15-27.53-32.24s12.15-32.24,27.53-32.24c9.92,0,15.62,4.22,19.1,9.67h.25v-32.49Zm0,55.3c0-14.38-7.19-23.81-18.35-23.81-12.65,0-18.85,11.9-18.85,23.81s6.45,23.81,18.85,23.81c11.16,0,18.35-9.42,18.35-23.81Z"/><path class="cls-1" d="m154.5,224.44c-11.66,0-15.38,3.47-16.12,12.15h-9.67c.5-11.66,7.94-20.58,25.79-20.58,11.66,0,22.07,4.46,22.07,19.34v29.76c0,4.71.74,7.44,6.94,6.7v6.7c-1.74.74-3.72.99-5.7.99-5.7,0-9.18-1.49-10.91-8.18h-.25c-3.72,5.7-10.66,9.42-20.83,9.42-12.4,0-20.09-7.19-20.09-17.36,0-13.89,10.42-17.61,26.04-20.58,10.42-1.98,15.13-3.22,15.13-9.42,0-4.71-2.73-8.93-12.4-8.93Zm12.4,31v-10.17c-1.74,1.74-7.69,3.47-14.14,4.71-11.9,2.48-17.36,5.46-17.36,12.9,0,5.95,3.72,9.42,11.41,9.42,11.41,0,20.09-5.21,20.09-16.86Z"/><path class="cls-1" d="m231.88,217.74h9.67v57.78c0,16.37-10.42,24.55-27.03,24.55s-26.78-8.93-27.78-19.34h9.67c1.24,6.2,6.2,10.91,17.61,10.91s18.1-4.96,18.1-16.37v-9.18h-.25c-3.72,5.21-9.42,9.67-19.34,9.67-15.13,0-27.28-9.67-27.28-29.76s12.15-29.76,27.28-29.76c10.17,0,15.87,4.46,19.34,9.18h.25s-.25-7.69-.25-7.69Zm0,28.27c0-14.38-7.19-21.58-18.35-21.58-12.65,0-18.85,9.42-18.85,21.58s6.45,21.58,18.85,21.58c11.16,0,18.35-7.19,18.35-21.58h0Z"/><path class="cls-1" d="m300.33,262.14c0,11.16-10.17,18.35-24.06,18.35-18.6,0-27.28-8.93-28.02-22.07h9.67c.5,6.94,2.98,13.64,18.35,13.64,10.42,0,14.63-5.46,14.63-9.42,0-8.93-7.94-9.42-16.86-11.41-9.42-2.23-23.31-3.47-23.31-17.86,0-9.67,8.43-17.36,22.82-17.36,15.13,0,23.31,8.68,24.3,19.1h-9.67c-.99-4.71-3.22-10.91-14.63-10.91-8.68,0-13.39,3.47-13.39,8.18,0,7.19,8.18,7.69,16.86,9.92,11.16,2.98,23.31,4.71,23.31,19.84Z"/><path class="cls-1" d="m332.82,226.18h-11.9v36.7c0,6.94,3.97,8.18,11.9,7.44v8.43c-2.48.5-4.71.74-7.19.74-8.18,0-14.38-3.22-14.38-15.62v-37.7h-8.93v-8.43h8.93v-20.34h9.67v20.34h11.9s0,8.43,0,8.43Z"/><path class="cls-1" d="m383.9,260.15h9.67c-3.22,11.41-11.9,20.58-27.03,20.58-18.6,0-29.76-13.14-29.76-32.24,0-20.34,11.41-32.24,29.51-32.24,19.1,0,28.52,13.14,28.52,34.72h-48.36c0,11.16,6.7,21.33,19.84,21.33,11.9,0,16.37-7.94,17.61-12.15Zm-37.94-17.61h38.69c0-9.92-7.44-18.1-18.85-18.1s-19.84,8.18-19.84,18.1Z"/><path class="cls-1" d="m434,216.5v9.67h-.25c-13.39-2.23-22.57,7.19-22.57,20.34v32.74h-9.67v-61.5h9.67v12.15h.25c3.22-7.94,8.18-13.89,16.86-13.89,1.98,0,3.72.25,5.7.5h0Z"/><path class="cls-5" d="m225.18,175.58c0,.74.25,1.49.5,2.23s.74,1.24,1.24,1.74,1.24.99,1.98,1.24,1.49.25,2.23.25c28.77-1.98,56.05-22.57,64.73-54.31.5-1.74,1.74-2.73,3.72-2.73.99,0,1.74.5,2.48,1.24s.99,1.49.99,2.48c0,7.19-9.18,25.79-22.32,36.46-.74.5-1.24,1.24-1.49,1.98s-.5,1.74-.5,2.48.25,1.49.5,1.98c.25.74.74,1.24,1.24,1.74s.99.99,1.74,1.24c.74.25,1.49.5,1.98.25,1.24,0,2.98-.74,5.21-2.73,9.18-8.18,26.54-31.5,26.54-57.04,0-37.45-28.77-69.44-69.19-69.44-35.96,0-67.21,29.26-67.21,63.24,0,22.57,17.86,39.43,41.42,39.43,18.1,0,34.72-12.9,39.43-30.5.5-1.74,1.74-2.73,3.72-2.73.99,0,1.74.5,2.48,1.24s.99,1.49.99,2.48c0,7.94-15.13,35.96-45.88,35.96-7.44,0-16.62-1.98-22.82-5.7-.74-.5-1.74-.74-2.73-.74-.74,0-1.49,0-2.23.25s-1.24.74-1.74,1.24-.99,1.24-1.24,1.74c-.25.74-.5,1.49-.25,2.23,0,.99.25,1.74.74,2.73.5.74,1.24,1.49,1.98,1.98,8.43,4.96,18.6,7.44,28.77,7.44,25.54,0,49.1-17.36,55.8-43.15.5-1.74,1.74-2.73,3.72-2.73.99,0,1.74.5,2.48,1.24s.99,1.49.99,2.48c0,10.66-18.85,44.64-55.06,47.37-1.49,0-2.73.74-3.72,1.74-.5.99-1.24,2.23-1.24,3.72h0Z"/><path class="cls-2" d="m261.14,87.54c4.96,0,9.67,1.24,13.89,3.97.5-2.23.74-4.71.74-6.94,0-10.91-8.18-20.58-18.35-20.58-7.94,0-12.9,6.45-12.9,14.63,0,4.46,1.49,8.68,4.22,11.9,3.97-1.98,8.18-2.98,12.4-2.98h0Z"/><path class="cls-4" d="m284.7,126.98c1.49-4.71,1.98-8.18,1.98-10.42,0-.99-.5-1.74-1.24-2.48s-1.49-.99-2.48-.99-1.74.25-2.48.99c-.74.5-1.24,1.24-1.24,2.23-.5,1.49-1.24,5.95-1.98,8.68.25-.99.74-1.98.99-2.98.5-1.74,1.74-2.73,3.72-2.73.99,0,1.74.5,2.48,1.24s.99,1.49.99,2.48c0,1.24-.25,2.73-.74,3.97h0Z"/><path class="cls-4" d="m304.3,122.02c0-.99-.5-1.74-.99-2.48-.74-.74-1.49-.99-2.48-.99-.74,0-1.74.25-2.48.99-.74.5-1.24,1.24-1.24,2.23-.5,1.74-1.24,5.95-1.98,8.68h0c.5-1.24.74-2.48.99-3.72.5-1.74,1.74-2.73,3.72-2.73.99,0,1.74.5,2.48,1.24s.99,1.49.99,2.48c0,1.24-.25,2.23-.5,3.47.99-4.22,1.49-7.19,1.49-9.18Z"/><path class="cls-6" d="m261.14,87.54c2.48,0,4.96.25,7.19.99,1.24-1.74,1.98-3.72,1.74-5.95,0-1.98-.99-4.22-2.23-5.7-1.49-1.49-3.22-2.48-5.46-2.98-1.98-.25-4.22,0-5.95,1.24l3.72,6.2-6.94-2.98c-.99,1.49-1.49,3.22-1.49,5.21,0,1.74.74,3.47,1.74,4.96,2.48-.74,4.96-.99,7.69-.99h0Z"/><path class="cls-4" d="m206.83,127.47c2.98,0,5.46-2.48,5.46-5.46s-2.48-5.46-5.46-5.46-5.46,2.48-5.46,5.46,2.48,5.46,5.46,5.46Z"/><path class="cls-4" d="m206.83,105.9c2.98,0,5.46-2.48,5.46-5.46s-2.48-5.46-5.46-5.46-5.46,2.48-5.46,5.46,2.48,5.46,5.46,5.46Z"/><path class="cls-4" d="m195.92,116.81c2.98,0,5.46-2.48,5.46-5.46s-2.48-5.46-5.46-5.46-5.46,2.48-5.46,5.46c.25,2.98,2.48,5.46,5.46,5.46Z"/><path class="cls-4" d="m220.22,147.56h.99c18.1,0,34.72-12.9,39.43-30.5.5-1.74,1.74-2.73,3.72-2.73.99,0,1.74.5,2.48,1.24s.99,1.49.99,2.48c0,1.98-.5,3.72-1.24,5.46.25-.25.25-.5.25-.74,1.24-3.22,1.98-6.45,1.98-9.92,0-5.21-3.72-8.68-8.93-8.68-9.18,0-10.91,7.94-14.88,16.62-3.97,8.93-11.41,18.6-30.01,18.6s-39.18-13.64-34.47-41.17c0-.25,0-.74.25-.99-.74,3.47-.99,7.19-.99,10.91,0,22.07,17.36,38.94,40.42,39.43Z"/></svg>