<?xml version="1.0" encoding="utf-8"?>
<!-- Generator: Adobe Illustrator 26.3.1, SVG Export Plug-In . SVG Version: 6.00 Build 0)  -->
<svg version="1.1" id="Layer_1" xmlns="http://www.w3.org/2000/svg" xmlns:xlink="http://www.w3.org/1999/xlink" x="0px" y="0px"
	 viewBox="0 0 497 290" style="enable-background:new 0 0 497 290;" xml:space="preserve">
<style type="text/css">
	.st0{fill:#FFFFFF;}
	.st1{display:none;fill:none;}
	.st2{fill:#E65270;}
	.st3{opacity:0.2;fill:#430A1D;enable-background:new    ;}
	.st4{opacity:0.2;}
	.st5{fill:#2B2B2B;}
	.st6{fill:url(#SVGID_1_);}
	.st7{opacity:0.2;fill:#2B2B2B;enable-background:new    ;}
	.st8{fill:url(#SVGID_00000153682258505840299930000018019727729449726867_);}
	.st9{opacity:0.2;fill:#FFFFFF;enable-background:new    ;}
	.st10{opacity:0.6;fill:#8B4FBA;enable-background:new    ;}
	.st11{fill:#F9E0E7;}
	.st12{fill:url(#SVGID_00000062899326296099486620000009165466467946188175_);}
	.st13{opacity:0.2;fill:#8B4FBA;enable-background:new    ;}
	.st14{opacity:0.3;fill:#FFFFFF;enable-background:new    ;}
	.st15{fill:url(#SVGID_00000165208994928342887660000012551645297810560143_);}
	.st16{fill:url(#SVGID_00000163044549932713674040000004165975100770440883_);}
	.st17{fill:#E65271;}
	.st18{fill:url(#SVGID_00000005980296426118803400000007885338380256680074_);}
	.st19{fill:url(#SVGID_00000152942466347555153960000003190800746097438096_);}
	.st20{fill:#F6E8A0;}
	.st21{fill:#F8D285;}
	.st22{fill:url(#SVGID_00000002348298635228240650000016543609123471900033_);}
	.st23{fill:url(#SVGID_00000077311184153999404680000001796794071391488680_);}
	.st24{fill:url(#SVGID_00000071561418933278975740000017344036997551703435_);}
	.st25{opacity:0.7;fill:url(#SVGID_00000034781764858931062790000016538744366841909397_);enable-background:new    ;}
	.st26{opacity:0.7;fill:url(#SVGID_00000062909187674891083200000010416067069256820115_);enable-background:new    ;}
	.st27{opacity:0.7;fill:url(#SVGID_00000117658187373660191870000004998125299118788019_);enable-background:new    ;}
	.st28{fill:url(#SVGID_00000157284786160227539310000010859782787372895376_);}
	.st29{opacity:0.3;fill:#F6E8A0;enable-background:new    ;}
	.st30{fill:url(#SVGID_00000133499776236858144550000004667528732077828521_);}
	.st31{fill:url(#SVGID_00000167390643539504304280000005707957223671367094_);}
	.st32{fill:url(#SVGID_00000029009048272062641500000015651179217548692157_);}
	.st33{fill:url(#SVGID_00000064316099306828330620000014880153375051254460_);}
	.st34{opacity:0.4;fill:#8B4FBA;enable-background:new    ;}
	.st35{opacity:0.4;fill:#2B2B2B;enable-background:new    ;}
	.st36{fill:#0D0D0D;}
	.st37{fill:url(#SVGID_00000161633123681879500850000008510578614004499865_);}
	.st38{fill:url(#SVGID_00000003786745051026357920000004637452213396919952_);}
	.st39{fill:#8B4FBA;}
	.st40{fill:#6500C6;}
	.st41{fill:#FBFAFC;}
</style>
<symbol  id="New_Symbol_2" viewBox="-3 -3.5 6 7">
	<path class="st0" d="M0-3.5c-0.2,0-0.4,0.1-0.5,0.2l-2,1.2C-2.8-1.9-3-1.6-3-1.2v2.5c0,0.3,0.2,0.7,0.5,0.8l2,1.2
		C-0.4,3.4-0.2,3.5,0,3.5s0.4-0.1,0.5-0.2l2-1.2C2.8,1.9,3,1.6,3,1.2v-2.5c0-0.3-0.2-0.7-0.5-0.8l-2-1.2C0.4-3.4,0.2-3.5,0-3.5z"/>
	<polygon class="st1" points="-3,3 3,3 3,-3 -3,-3 	"/>
</symbol>
<symbol  id="New_Symbol_3" viewBox="-50.5 -51 100.9 101.9">
	<path class="st2" d="M14.1-50c-1.4,0-2.7,0-4.1,0l-3.5,0c0,0-10,0-14.8,0c-0.7,0-1.5,0-2.2,0c-0.8,0-1.5,0-2.3,0
		c-0.5,0-0.9,0-1.4,0c-2.8,0-5.6,0.4-8.1,1c-10,2.6-17.6,8.6-22.5,17.6c-2.4,4.4-3.7,9.2-4,14.5c-0.1,2.3,0,4.7,0.4,7.1
		c0,0.3,0.1,0.6,0.1,0.9l0.1,0.6l0.2-0.2c0.1-0.1,0.1-0.2,0.2-0.3c0.1-0.3,0.2-0.6,0.3-1c0.2-0.7,0.4-1.4,0.6-2
		c1.7-4.9,4.3-9.4,7.9-13.9c0.1-0.2,0.3-0.4,0.3-0.6c1.2-3.8,3.4-7,6.3-9.7c2.9-2.6,6.4-4.5,10.3-5.8c-2.5,1.1-4.9,2.5-7,4.1
		c-3.4,2.7-5.9,6-7.4,9.9c-0.1,0.4-0.3,0.9-0.1,1.4c0.1,0.2,0.1,0.4,0.2,0.5c0,0.1,0.1,0.3,0.1,0.4c0.8,2.6,2,4.6,3.6,6.1
		c1.5,1.5,3.5,2.5,6,3.3c2.3,0.7,4.8,1,7.1,1.3l1,0.1c1.3,0.2,2.7,0.4,4,0.6l0.8,0.1c0.3,0,0.6,0.1,0.9,0.2l0.7,0.2l-0.2-0.3
		c0,0,0-0.1,0-0.1c-1.2-1.4-2.3-2.9-3.1-4.5c-0.1-0.1-0.2-0.3-0.4-0.3c-0.2-0.1-0.3-0.1-0.5-0.2c-0.6-0.2-1.1-0.4-1.7-0.5
		c-0.6-0.1-1.3-0.2-1.9-0.3c-0.5-0.1-1-0.1-1.5-0.2c-1.7-0.3-2.9-0.8-3.9-1.6c0.2,0.1,0.4,0.1,0.6,0.1c0.3,0,0.6,0.1,0.9,0.2
		c1.5,0.5,3.2,0.8,5.3,0.8l0.3,0c0.4,0,0.7,0,1.1,0l0.7,0l-0.1-0.2c-1.5-4.8-1.4-9.6,0.1-14.2c-0.7,3.1-0.8,6-0.4,8.7
		c0.6,4.2,2.5,7.9,5.6,10.9c2.1,2,4.7,3.7,7.9,5.1c2.8,1.3,5.8,2,8.6,2.7l0.5,0.1c2,0.5,4,1,6,1.6c3,0.9,5.6,2.3,7.7,4.3
		c0.3,0.3,0.7,0.6,1,1c2,2.6,4.4,4.5,7.3,5.7c0.1,0,0.2,0.1,0.2,0.2c0.9,1.5,2,2.6,3.4,3.4C32,9,32.3,9.1,32.6,9.1
		c0.4,0,0.7-0.1,1.1-0.4c0.1-0.1,0.3-0.2,0.4-0.3c0.5-0.5,0.9-1.1,1.2-1.9c0-0.1,0.1-0.1,0.2-0.1c0.3,0,0.7-0.1,1.1-0.2
		c5.8-1.2,9.9-5.6,10.6-11.7c0-0.2,0-0.3,0-0.5c0-0.4,0.1-0.8,0.2-1.1c0.1-0.5,0.4-0.9,0.6-1.3C48-8.6,48.1-8.8,48.2-9
		c0.1-0.2,0.2-0.3,0.2-0.5c0.2-0.4,0.4-0.8,0.5-1.2c0.2-0.6,0.3-1.3,0.1-1.9c-0.1-0.3-0.2-0.3-0.3-0.3c-0.1,0-0.1,0-0.2,0.1
		c-0.2,0.1-0.3,0.2-0.5,0.3c-0.1,0.1-0.1,0.1-0.2,0.2c-0.1,0.1-0.2,0.1-0.2,0.2c-0.2,0.1-0.4,0.3-0.6,0.4c-0.1,0-0.1,0.1-0.2,0.1
		c-0.1,0-0.1,0-0.2-0.1l0.3-0.2c0.5-0.4,1-0.9,1.5-1.3c0.1-0.1,0.2-0.3,0.2-0.4c-0.1-0.9-0.4-1.7-0.9-2.2c-0.7-0.7-1.4-1-2.2-1
		c-0.2,0-0.3,0-0.5,0c0-0.3-0.1-0.4-0.4-0.6c-1.6-0.9-3.2-1.3-4.8-1.3l-0.3,0c-1.1,0-2.2-0.3-3.4-1c-0.4-0.2-0.8-0.4-1.1-0.5
		c-1-0.3-2.1-0.4-3-0.4c0.4-0.1,0.8-0.1,1.3-0.1c0.3,0,0.6,0,0.9,0l0.2,0c0.1,0,0.3,0,0.4,0c0.2,0,0.3,0,0.4-0.1
		c0.8-0.3,1.7-0.8,2.4-1.2c0.2-0.1,0.3-0.1,0.4-0.1c0.1,0,0.1,0,0.2,0l0.2,0.1c0.4,0.2,0.9,0.3,1.3,0.5c1,0.4,1.8,0.6,2.7,0.6
		c0.2,0,0.5,0,0.7,0c0.6-0.1,1.2-0.2,1.9-0.6c0.3-0.2,0.7-0.5,0.7-1.1c0,0,0,0,0.1-0.1c0.1-0.1,0.1-0.1,0.2-0.2
		c0.1-0.1,0.2-0.1,0.2-0.2c0.5-0.4,0.7-1,0.6-1.6c0-0.2-0.1-0.6-0.4-0.6c-0.1,0-0.2,0-0.4,0.1c-0.1,0-0.1,0.1-0.2,0.1
		c0.2-0.1,0.3-0.2,0.5-0.3c0.4-0.3,0.6-0.7,0.6-1.2c0-1.2-1.3-2.3-2.6-2.3c-0.2,0-0.3,0-0.5,0c-0.4,0.1-0.9,0.2-1.1,0.7c0,0,0,0,0,0
		l-0.2,0c-0.3,0-0.5,0-0.8-0.1l-0.1,0c-0.4-0.1-0.9-0.2-1.3-0.2c-0.2,0-0.3,0-0.5,0c-0.2,0-0.4,0.1-0.6,0.1l-0.1,0
		c-0.2-0.7-0.6-1.5-1.1-2.1c-1.1-1.4-2.6-2.5-4.6-3.1c-1.4-0.5-3-0.7-4.6-0.7c-0.8,0-1.7,0.1-2.6,0.2c-3.5,0.5-6,2.4-7.4,5.7
		c-0.2,0.6-0.4,1.1-0.5,1.7c-0.1,0.3-0.1,0.6-0.2,0.8c-0.4,1.4-0.9,2.7-1.6,3.9c-1.2,2.1-2.7,3.6-4.6,4.6c-1.5,0.8-3.1,1.2-4.9,1.2
		c-0.7,0-1.5-0.1-2.3-0.2c-0.2,0-0.3-0.1-0.5-0.1c0.5,0,1.1-0.1,1.6-0.1c2.4-0.2,4.6-1,6.6-2.2c2.6-1.7,4.2-3.7,4.9-6.3
		c0.4-1.5,0.9-2.9,1.6-4.3c0.4-0.8,0.9-1.8,1.7-2.5c1-1.1,2.4-1.9,4.2-2.4c0.5-0.1,1-0.3,1.5-0.5c0.3-0.1,0.5-0.3,0.6-0.6
		c0.3-0.8,0.4-1.5,0.2-2.3c-0.2-1.1-0.7-2.1-1.6-3.1c-0.7-0.8-1.5-1.4-2.4-1.9c-0.4-0.3-0.8-0.6-1.2-0.9c-0.3-0.3-0.5-0.6-0.4-1
		c0-0.6,0.1-0.6,0.2-0.6c0.1,0,0.2,0,0.5,0.1c0.1,0,0.2,0.1,0.3,0.1l0.7,0.3c0.4,0.2,0.8,0.3,1.2,0.5c0.9,0.4,1.7,0.5,2.5,0.5
		c0.4,0,0.9-0.1,1.3-0.2c1.5-0.4,2.5-1.3,3-2.7c0.1-0.4,0.1-0.7-0.1-1c-0.1-0.2-0.3-0.3-0.5-0.3c-0.2,0-0.4,0.2-0.5,0.3
		c-0.1,0.1-0.1,0.2-0.1,0.3c0,0,0,0.1,0,0.1c-0.1,0.5-0.3,0.8-0.6,1.1c0.5-0.7,0.7-1.4,0.7-2.2c0-0.8-0.6-1.4-1.5-1.4
		c0,0-0.1,0-0.1,0c-0.3,0-0.5,0.2-0.5,0.5c0,0.2,0,0.4,0,0.6c0,0.1,0,0.2,0,0.2c0,0.1,0,0.2,0,0.3c0,0.2,0,0.4,0,0.6
		c-0.1,0.4-0.3,0.7-0.8,0.9c0,0-0.1,0-0.1,0c0.1-0.1,0.3-0.2,0.3-0.3c0.2-0.3,0.3-0.6,0.4-0.9c0.2-0.8,0-1.5-0.6-1.9
		c-0.3-0.2-0.7-0.3-1-0.3c-0.1,0-0.3,0-0.4,0c-0.5,0-1,0.1-1.5,0.2l-0.2,0.1c-0.5,0.1-0.9,0.2-1.3,0.2c-0.3,0-0.7-0.1-1-0.1l-0.2,0
		c-2.5-0.5-4.8-0.7-7-0.7L14.1-50z"/>
	<path class="st3" d="M34.7-20.4c0,0-3.7-4.5-10.1-1.9C18.8-20,21-13.6,21-13.6s1-4,4-5.5C29.3-21.3,34.7-20.4,34.7-20.4z"/>
	<path class="st3" d="M16.3-22.4c0.8-0.8,0.8-1.7,1.1-2.7c0.5-1.9,1.1-3.6,2.3-5.2c1.2-1.5,2.6-2.6,4.4-3.3c1.6-0.6,3.6-0.4,3.3-2.8
		l-0.5-2c-4,0-7.8,1.8-9.4,5.9c-1.4,3.5,0.2,7.8-3.9,13.7C14-19.1,15.9-21.9,16.3-22.4z"/>
	<g class="st4">
		<path class="st5" d="M14.7-20.6c0.1-0.2,0.1-0.5,0.2-0.8C14.8-21.2,14.7-20.9,14.7-20.6z"/>
	</g>
	
		<linearGradient id="SVGID_1_" gradientUnits="userSpaceOnUse" x1="58611.7891" y1="18.7145" x2="58640.2578" y2="-114.1338" gradientTransform="matrix(-1 0 0 1 58590.8086 50.955)">
		<stop  offset="0.3836" style="stop-color:#FAA100"/>
		<stop  offset="0.6584" style="stop-color:#BF73F2"/>
		<stop  offset="0.6649" style="stop-color:#C370E6"/>
		<stop  offset="0.6852" style="stop-color:#CC68C7"/>
		<stop  offset="0.7081" style="stop-color:#D461AB"/>
		<stop  offset="0.7341" style="stop-color:#DB5B95"/>
		<stop  offset="0.7643" style="stop-color:#E05784"/>
		<stop  offset="0.8017" style="stop-color:#E35479"/>
		<stop  offset="0.8543" style="stop-color:#E55272"/>
		<stop  offset="1" style="stop-color:#E65270"/>
	</linearGradient>
	<path class="st6" d="M-32.3-36c-15.2,1.5-17,16.7-17,16.7s-0.8,7,1.1,13.9C-47-17.9-37-26.6-37-26.6S-34.8-33.8-32.3-36z"/>
	<path class="st7" d="M-36.2-30.2c0,0-3.2-0.3-7.5,4.9c4.1-7.5,9.4-7.6,9.4-7.6L-36.2-30.2z"/>
	
		<linearGradient id="SVGID_00000105409789716285649150000010366376452369482415_" gradientUnits="userSpaceOnUse" x1="58595.7227" y1="20.4883" x2="58626.0469" y2="-121.0206" gradientTransform="matrix(-1 0 0 1 58590.8086 50.955)">
		<stop  offset="0.3836" style="stop-color:#FAA100"/>
		<stop  offset="0.6584" style="stop-color:#BF73F2"/>
		<stop  offset="0.6649" style="stop-color:#C370E6"/>
		<stop  offset="0.6852" style="stop-color:#CC68C7"/>
		<stop  offset="0.7081" style="stop-color:#D461AB"/>
		<stop  offset="0.7341" style="stop-color:#DB5B95"/>
		<stop  offset="0.7643" style="stop-color:#E05784"/>
		<stop  offset="0.8017" style="stop-color:#E35479"/>
		<stop  offset="0.8543" style="stop-color:#E55272"/>
		<stop  offset="1" style="stop-color:#E65270"/>
	</linearGradient>
	<path style="fill:url(#SVGID_00000105409789716285649150000010366376452369482415_);" d="M-27.9-38.9c-0.8,14,7.4,7.5,11.7,15
		c1.2,6.5,4.8,10.6,4.8,10.6s-25.5,4.8-25.9-13.8c0.9-4,4.8-7.9,7.2-10c-0.5,1.1-6.6,17.8,13.7,16.5c-7,0.6-17.1-6.7-12.3-17.7
		C-28.2-38.7-27.9-38.9-27.9-38.9z"/>
	<path class="st9" d="M-21-18.7c-5.3-2-14.2-2-11.7-15.4c-0.4-0.3-2.4,2.9-1.9,2.5C-37-19.5-26.4-20.2-21-18.7z"/>
	<path class="st10" d="M-14.3-13.9c5.1,2,1-3.7,0.2-4.6c-1.7-2.1-5.9-1.4-8.2-2.1c-1.3-0.4-6.5-1.2-8.3-6.1
		c-0.8-2.2-1.1-5.8,0.6-10.1c-0.4-0.3-3.1,2.6-2.6,2.3C-36.9-15.3-16.5-22.2-14.3-13.9z"/>
	<path class="st11" d="M36.6-6c0.1,0.4,0.4,0.9,0.7,1.2c0.1,0,0.1,0,0.2-0.1c0.5,0.3,1.3,0.3,1.9,0.3c0.4,0,0.9,0.1,1.3,0
		c0.5-0.2,0.5-0.8,0.7-1.2c0.4-0.8,1.7-0.8,1.7-1.9c0-0.5,0.1-1.2,0-1.7c-0.1-0.4-0.5-0.3-0.9-0.3c-1.1,0-2.2,0-3.3,0l-1.5,1.1
		c-0.4-0.1-0.7,0.7-0.8,1C36.5-7.1,36.5-6.4,36.6-6z"/>
	<path class="st0" d="M41.8-7.5c0.2,0.1,0.5,0.4,0.6,0.6c0.1,0.1,0.1,0.2,0.2,0.2c0.5,0,0.5-0.6,0.4-1c0-0.4-0.2-0.8-0.3-1.2
		c-0.2,0-0.2,0.2-0.4,0.3c-0.1,0-0.3,0-0.5,0c-0.2,0-0.5-0.1-0.7-0.1L41.8-7.5z"/>
	
		<linearGradient id="SVGID_00000027594815326335229020000004225838084436811690_" gradientUnits="userSpaceOnUse" x1="58590.75" y1="11.5099" x2="58592.5547" y2="-72.4377" gradientTransform="matrix(-1 0 0 1 58590.8086 50.955)">
		<stop  offset="0" style="stop-color:#FAA7B5"/>
		<stop  offset="0.3836" style="stop-color:#FAA100"/>
		<stop  offset="0.7317" style="stop-color:#BF73F2"/>
	</linearGradient>
	<path style="fill:url(#SVGID_00000027594815326335229020000004225838084436811690_);" d="M-19,13.1c0.1,0.1,0.1,0.1,0.1,0.1
		c2,1.9,3.1,4.3,3.7,7c0.4,1.8-0.1,3.3-0.9,4.8c0,0,0,0-0.1,0.1c-0.2-0.5-0.3-1-0.5-1.5c-0.4-1.2-0.9-2.3-1.7-3.3
		c-0.3-0.4-13.6-7.8-12.2-24.1c0-0.1,0-0.2,0-0.3c0.2,0.2,0.5,0.5,0.7,0.7c0.9,0.7,1.9,1.1,3,1.4c2,0.5,3.9,1,5.9,1.5
		c2.2,0.5,4.5,1.1,6.6,1.9c1.2,0.5,2.4,1.1,3.4,1.8c1.6,1.1,3,2.4,4.2,4c0.7,0.9,1,1.6,1.3,2.6c0.2-0.5,0.1-2-0.2-3
		c-0.3-1-0.8-1.9-1.5-2.6c0.2,0.1,0.3,0.1,0.5,0.2C-4.7,5.5-3,6.8-1.7,8.6c0.8,1.2,1.3,2.6,1.4,4.1c0,0,0,0,0,0.1
		C0.1,10.9,0,7.8-2,5.6C-1.3,5.8-0.7,6.1,0,6.3c0.6,0.2,0.9,0.5,1.2,1c1.4,2.1,2.5,4.4,3.1,6.9c0.5,1.9,0.6,3.8,0.1,5.8
		c-0.6,2.2-1.9,3.9-3.7,5.2c-1.2,0.9-2.6,1.6-4.1,2.2c-0.1,0-0.2,0.1-0.3,0.1c0,0,0,0-0.1,0.1c0.5-0.1,0.9-0.3,1.4-0.4
		c2.1-0.6,4-1.4,5.8-2.7c1.6-1.1,2.8-2.6,3.4-4.4c0.5-1.7,0.5-3.4,0.1-5.1c-0.6-2.5-1.7-4.7-3.1-6.7C3.8,8.1,3.8,8,3.7,8
		c0,0,0,0,0-0.1c0.1,0,0.1,0,0.1,0.1c2.9,1.5,5.5,3.4,7.6,6c2,2.5,3.5,5.3,4.2,8.4c0.9,4-0.1,7.5-2.7,10.6c-1.6,2-3.6,3.5-5.9,4.7
		c-2.9,1.6-5.9,2.6-9.2,3.1c-1.8,0.3-3.7,0.3-5.5,0c-1-0.2-1.7-0.5-2.8-1.1c0.1,0.1,0.3,0.2,0.4,0.4c1,0.8,2.2,1.2,3.4,1.4
		c2,0.4,4,0.4,6.1,0.2c3.1-0.4,6.1-1.2,9-2.6c0.3-0.1,0.6-0.3,0.9-0.4c0,0.3,0,0.5,0,0.7c0,0.3,0.2,0.5,0.5,0.6
		c0.3,0,0.4-0.1,0.5-0.3c0-0.2,0.1-0.4,0.1-0.7c0.1-0.5,0.3-0.9,0.6-1.3c0,0,0.1-0.1,0.1-0.1c0,0,0,0,0.1,0c0,0.2,0,0.3,0,0.5
		c0,0.3,0,0.7,0,1c0,0.1,0.1,0.2,0.1,0.2c0.1,0,0.2,0,0.3-0.1c0.1-0.2,0.3-0.4,0.3-0.6c0.1-0.4,0.2-0.9,0.3-1.3
		c0.1-0.3,0.2-0.5,0.4-0.8c0.2-0.2,0.4-0.2,0.5,0.1c0.1,0.3,0.1,0.6,0.1,0.9c0,0.1,0,0.2,0,0.3c0,0.1,0.1,0.1,0.1,0.2
		c0.1-0.1,0.2-0.1,0.2-0.2c0.1-0.2,0.1-0.4,0.1-0.5c0-0.4,0-0.8,0-1.2c0-0.2,0.1-0.4,0.2-0.6c0.1-0.2,0.3-0.2,0.4,0
		c0.1,0.3,0.1,0.7,0.2,1c0,0.2,0.1,0.4,0.1,0.7c0.3-0.2,0.3-0.5,0.4-0.7c0.1-0.6,0.1-1.3,0.2-1.9c0-0.5,0.2-0.9,0.5-1.3
		c0.5-0.8,1-1.6,1.4-2.3c0.2-0.4,0.5-0.4,0.7,0c0.3,0.5,0.4,1,0.7,1.5c0.1,0.2,0.2,0.4,0.3,0.7c0,0.1,0.1,0.2,0.2,0.3
		c0.3-0.2,0.3-0.4,0.3-0.7c-0.1-0.4-0.2-0.7-0.3-1.1c-0.1-0.4-0.2-0.8-0.3-1.2c0-0.2,0-0.4,0.1-0.5c0.1-0.2,0.3-0.3,0.4-0.1
		c0.2,0.2,0.3,0.4,0.5,0.6c0.1,0.1,0.2,0.2,0.4,0.2c0.1-0.1,0.2-0.3,0.2-0.4c0-0.3-0.1-0.6-0.2-0.9c-0.2-0.6-0.5-1.1-0.7-1.7
		c-0.1-0.4-0.2-0.9-0.2-1.3c0-0.1,0.1-0.3,0.2-0.3c0.1,0,0.3,0.1,0.3,0.1c0.4,0.4,0.7,0.8,1.1,1.2c0.1,0.1,0.2,0.2,0.3,0.3
		c0,0,0.1,0,0.1-0.1c0-0.2,0-0.5-0.1-0.7c-0.1-0.4-0.3-0.7-0.5-1c-0.3-0.5-0.7-1-1-1.5c-0.6-0.9-1-2-1.3-3.1
		c-0.2-0.8-0.4-1.6-0.7-2.3c0-0.1-0.1-0.2-0.1-0.3c0.2,0.3,0.4,0.6,0.6,1c0.4,0.7,0.9,1.3,1.6,1.7c0.3,0.2,0.7,0.4,1.1,0.6
		c1.9,0.7,3.9,1.4,5.7,2.3c0.5,0.3,1,0.6,1.5,0.9c0.6,0.4,0.8,1,0.6,1.8c-0.1,0.5-0.3,1-0.4,1.6c-0.3-0.5-0.6-1-0.9-1.4
		s-0.7-0.8-1.3-1.1c0.1,0.1,0.1,0.1,0.1,0.2c0.8,1.1,1.3,2.4,1.6,3.7c0,0.1,0,0.3,0,0.4c-0.2,1-0.1,1.9,0,2.9c0,0.2,0,0.4,0,0.6
		c0,0.1-0.1,0.2-0.2,0.2c-0.1,0-0.2,0-0.2-0.1c-0.2-0.3-0.4-0.5-0.5-0.8c-0.5-1.2-1-2.3-1.5-3.5C24.7,28,24,26.5,23,25.3
		c-0.5-0.6-1-1-1.6-1.4c-0.1-0.1-0.3-0.1-0.4-0.2c1,1,1.2,2.4,1.3,3.7c0.1,1.7,0,3.4,0,5.2c0,1.9,0.2,3.7,0.7,5.5
		c0,0.1,0,0.2-0.1,0.2c-0.2,0.3-0.4,0.6-0.5,0.9c-0.3,0.7-0.5,1.3-0.8,2c-0.2,0.4-0.2,0.4-0.6,0.4c-0.5,0-0.7,0.2-1,0.5
		c-0.2,0.2-0.3,0.2-0.4,0c-0.1-0.3-0.2-0.6-0.4-0.9c-0.1-0.1-0.2-0.2-0.3-0.3c-0.1,0.1-0.2,0.2-0.2,0.3c0,0.4,0,0.7-0.1,1.1
		c0,0.2,0,0.4-0.1,0.5c0,0.1-0.2,0.2-0.2,0.2c-0.1,0-0.2-0.1-0.2-0.2c-0.1-0.3-0.1-0.5-0.2-0.8c-0.1-0.2-0.2-0.2-0.3-0.1
		c-0.9,1.3-2.2,2.2-3.5,2.9c-0.4,0.2-0.8,0.5-1.2,0.7c0,0-0.1,0-0.1,0c0-0.4,0.1-0.9,0.1-1.3c0,0-0.1,0-0.1-0.1
		c-0.1,0.1-0.3,0.2-0.4,0.3c-0.3,0.3-0.5,0.6-0.7,0.9c-0.5,0.6-1.2,1-1.8,1.2c0.2-0.7,0.4-1.3,0.6-2c0,0-0.1,0-0.1,0
		c-0.1,0.1-0.1,0.2-0.2,0.2c-0.2,0.2-0.3,0.5-0.4,0.7c-0.6,1.1-1.5,1.7-2.7,1.9c-0.8,0.1-1.6,0.2-2.5,0.3c-0.6,0-1.2,0.1-1.7,0.4
		c-0.4,0.2-0.8,0.3-1.2,0.4c-0.1,0-0.2,0-0.2,0c0-0.1,0-0.2,0-0.3c0.2-0.4,0.4-0.7,0.6-1.1c0.1-0.1,0.1-0.3,0.2-0.4c0,0,0,0-0.1-0.1
		C2.2,46.9,2.1,47,2,47c-0.5,0.3-1.1,0.5-1.6,0.8c-0.5,0.3-1.1,0.3-1.7,0.4c-1.8,0.1-3.5,0-5.2-0.5c-1-0.3-2-0.8-2.9-1.5
		c0.1,0,0.2,0,0.3,0c1,0.2,2.1,0.4,3.1,0.4c0.7,0,1.4-0.1,2.1-0.5c0.1-0.1,0.2-0.2,0.2-0.3c-0.1-0.1-0.3-0.1-0.4-0.1
		c-0.3,0-0.7,0.2-1,0.2C-6,46-7.1,45.7-8.1,45.4c-2.4-0.7-4.7-1.8-6.7-3.3c-0.5-0.4-1-0.7-1.5-1c-1-0.6-1.8-1.5-2.5-2.5
		c-0.1-0.1-0.1-0.2-0.2-0.4c-0.1-0.4,0-0.7,0.3-0.9c0.2-0.1,0.5-0.2,0.8-0.3c3.7-0.9,6.4-3.9,6.8-7.6c0.2-1.4,0.4-2.8,0.3-4.2
		c-0.2-3.3-1.3-6.1-3.5-8.5c-1.3-1.4-2.8-2.6-4.5-3.6C-18.9,13.1-18.9,13.1-19,13.1z"/>
	<path class="st13" d="M27.9,34.7c-1.6-12.1-6.9-9.4-10.5-16.2c-0.2,0.3-0.6-1.8,0.3,2c0.9,3.9,3.4,2.1,5.8,6.5
		C26.6,32.6,26,33.1,27.9,34.7z"/>
	<path class="st14" d="M11.8,34.5c-0.6-3.5-5.5-3.3-9.7-1.8c-4.6,1.6-14.1,2.1-14.8,0.2c-0.4-0.4-1.1,1.4-1.1,1.4s7.2,7.9,19.3-0.4
		c-0.5,0.8,4.3,3,4.3,3S11.2,37.2,11.8,34.5z"/>
	<path class="st13" d="M-13.2,1.1c0.3-0.6,2.4-0.2,2.6,0.8c-3.1,3.6,5.1,10.1-2.5,18.7C-8.1,7.4-18.8,6.8-13.2,1.1z"/>
	<path class="st10" d="M-13.2,1.1c0.3-0.6,0.2-0.5,0.4,0.6c-3.1,3.6,5.2,8.8-0.3,18.9C-8.1,7.4-18.8,6.8-13.2,1.1z"/>
	
		<linearGradient id="SVGID_00000106145284014732557170000010810278332762666376_" gradientUnits="userSpaceOnUse" x1="58613.1406" y1="2.8814" x2="58592.875" y2="-32.0302" gradientTransform="matrix(-1 0 0 1 58590.8086 50.955)">
		<stop  offset="0" style="stop-color:#F6E8A0"/>
		<stop  offset="1" style="stop-color:#E65271"/>
	</linearGradient>
	<path style="fill:url(#SVGID_00000106145284014732557170000010810278332762666376_);" d="M-1.7,3.7C13.4,19.6-5.7,17-12,27.8
		c0,0.2,0,0.4,0,0.6c0,1.5-0.4,2.9-1,4.2c5.8-8.7,20.6-1,17.8-18.7C4.6,12.9,2.5,3.9-1.7,3.7z"/>
	
		<linearGradient id="SVGID_00000089554026595491167180000000546869480688794034_" gradientUnits="userSpaceOnUse" x1="58609.5781" y1="-18.0967" x2="58592.1016" y2="-48.2026" gradientTransform="matrix(-1 0 0 1 58590.8086 50.955)">
		<stop  offset="0" style="stop-color:#F6E8A0"/>
		<stop  offset="1" style="stop-color:#E65271"/>
	</linearGradient>
	<path style="fill:url(#SVGID_00000089554026595491167180000000546869480688794034_);" d="M-1.7,3.7C-8,0.7-13.4,0.6-13.1,1.5
		c12.4,8.4,2.4,17,0.1,25.2c0.2,0.7,1.2,0.9,1.2,1.6c0,0.1,0,0.2,0,0.2c0.2-0.8,0.6-1.1,1-1.5C-5.2,21.3,13.1,19.3-1.7,3.7z"/>
	<path class="st17" d="M-3.7,3.9c9.6,14.3-8.3,17-8.2,21.6C-13.3,16.2,3.9,12.2-12.2,1C-12.5,0.1-9.9,0.9-3.7,3.9z"/>
	
		<linearGradient id="SVGID_00000168087759334657242100000003417518109152186248_" gradientUnits="userSpaceOnUse" x1="58570.5195" y1="4.1521" x2="58572.5352" y2="-31.019" gradientTransform="matrix(-1 0 0 1 58590.8086 50.955)">
		<stop  offset="0" style="stop-color:#F6E8A0"/>
		<stop  offset="1" style="stop-color:#E65271"/>
	</linearGradient>
	<path style="fill:url(#SVGID_00000168087759334657242100000003417518109152186248_);" d="M23.1,28.8c0.8-1.3-0.1-2.8-1-4.2
		c-0.8-1.3-2.8-0.9-4.1-4l0.1,2.4c1.5,2.6-1,6.1-1.7,8.6c-1.2,4.1-2.5,7.9-0.9,12c0.1,0.3,0.2,0.6,0.3,0.9c0.8-0.6,1.4-1.2,2.1-2
		c0.4-0.6,0.3,1.5,0.9,1.1c0.4-0.3,0-1.8,0.4-2.1c0.5-0.4,0.7,1.9,1.1,1.4c0.8-1.2,1.2-0.4,1.6-0.8c0.3-0.3,1-2.8,1.3-3.1
		c0.3-0.3,0.5-0.7,0.8-1c-0.2-1.8-0.5-3.8-1.1-5.4C22.2,31,22.2,30.3,23.1,28.8z"/>
	<path class="st17" d="M1.8,47.5c0,0,0.1,0,0.1,0c0.4,0-1.1,2-0.7,2c0.8,0,1.8-0.8,2.5-0.8c1.6-0.1,3.2-0.1,4.5-0.7
		c1.3-0.6,1.9-2.5,2.2-2.6c0.3-0.1-0.7,2.2-0.4,2.1c0.5-0.2,0.9-0.4,1.2-0.7c1.3-1.9,1.7-11.1-0.2-10.8c-2,0.2,3.2-0.7,3.2-0.6
		c1.7,6.5-2.1,10.5-1.9,10.3c0.2-0.3,0.4-0.5,0.6-0.6c0.4-0.2-0.3,1.6,0.1,1.3c1.2-0.7,2-1.2,2.7-1.8c0,0,0-0.1,0.1-0.1
		c0.5,0.2,3.7,1,1.3-10.4c3.7,7.4,0.8,10.3,1.1,10c1.3-1.4,1.6-4.8,1.7-6.8c0.2-1.9-1-6.2-2.6-7.7c-1.1-1-1.1,0.2-1.5,1.2
		c-0.7,1.6-1.9,2.9-3,4.2c-0.8,1-1.8,1.7-2.8,2.5c-1,0.9-1.5,2.3-2.4,3.3c-0.8,0.9-1.8,1.7-2.5,2.6c-0.9,1.1-1.4,2.3-2.4,3.3
		C2.5,47,2.1,47.2,1.8,47.5z"/>
	
		<linearGradient id="SVGID_00000063615097864953396140000003528033540928316807_" gradientUnits="userSpaceOnUse" x1="58572.418" y1="-30.9764" x2="58584.0352" y2="20.4943" gradientTransform="matrix(-1 0 0 1 58590.8086 50.955)">
		<stop  offset="0" style="stop-color:#E65271"/>
		<stop  offset="0.3836" style="stop-color:#FAA100"/>
	</linearGradient>
	<path style="fill:url(#SVGID_00000063615097864953396140000003528033540928316807_);" d="M8.8,48.5c2.2,0,3.6-1.1,5.5-2.1
		c1.5-0.9,3.4-0.9,4.7-2c1.7-1.6,2.5-3.1,2.8-5.4c0.4-2.6,0.4-5.9-0.1-8.5c-0.3-1.3-1.2-4-2.2-5l-1.2,0.8C16,32.3,8.9,34.8,6.2,40.8
		c-0.8,1.8-1.1,4-1.1,6C5,48.8,7.2,48.5,8.8,48.5z"/>
	<path class="st20" d="M-13.4,33.3c-1.3,2-3.4,3.5-5.8,4c-0.6,0.1-1.7,0.5-0.6,1.8c1.2,1.8,2.8,2.5,3.7,3.2c3.6,2.7,2.1,3,4.2,3.2
		c0.8,0.1,0.6,0.2,1,0s-0.3,0.1-0.6,0.3c-2.4,1.6-2.2-1.6-1.2-0.9c3,2.3,10,4,11.9,3.6c0.3,0,2.2-1.2,2.5-1.2c0.4,0-1.1,2-0.7,2
		c0.8,0,1.8-0.8,2.5-0.8c1.5-0.1,6.1-2.2,6.1-7.8c0-1.7,0.1-2.9-0.1-4C8.1,28.6-9,40-13.4,33.3z"/>
	<path class="st0" d="M7,38.4c-0.8,1-5.9,2.8-5.9,2.8s-8.5,2.9-16.4-5.4c4,3.2,11.1,1.9,16.2,1.3c0.7-0.1-1.5,0.6-0.9,0.8
		c1.9,0.7,3.7-1.3,5.6-0.9C6.4,37.1,7,37.5,7,38.4z"/>
	<path class="st20" d="M0.5,39.7c-3.1,0.8-6.3-0.4-6.9-0.4c0.3,0.4,0.7,1.4,3.1,1.8c0.5,0.1,1.6,0,2.2,0c1,0,1.6-0.2,2.5-0.7
		c0.6-0.3,1.9-0.6,2.4-0.5c0,0,4.8-0.4,3.2-2c-1.6-1.6-3.9,2.1-9,0.9C-2.1,39-0.9,39.8,0.5,39.7z"/>
	<g>
		<path class="st21" d="M-4.3,46.5c-2,1.3-5.4,0.2-5.9,0.2c0,0,0,0.1,0.1,0.1c3,2.3,7.5,2.1,9.4,1.8c0,0,0,0,0.1,0c0,0,0,0,0,0
			c0.4-0.2,1.8-0.9,2.3-1.1c2.9-1.7,7.6-5.2,8-10.8c-1.7,0.7-2.9,1.5-3.8,2.2c-0.3,0.2-7.3,7.6-25.9-1.2c0,0-0.5,0.3-0.2,0.9
			c4.2,6.7,11.9,8.7,24.1,2.3C2.2,43,1.3,44.8-4.3,46.5z"/>
	</g>
	
		<linearGradient id="SVGID_00000148655353882524474770000012714777968318053768_" gradientUnits="userSpaceOnUse" x1="58612.7266" y1="-5.217" x2="58569.7188" y2="-41.8523" gradientTransform="matrix(-1 0 0 1 58590.8086 50.955)">
		<stop  offset="0" style="stop-color:#F6E8A0"/>
		<stop  offset="1" style="stop-color:#E65271"/>
	</linearGradient>
	<path style="fill:url(#SVGID_00000148655353882524474770000012714777968318053768_);" d="M7.6,8.6c6.9,7,9.7,12.3,6.4,18
		c-5.4,9.2-22-0.4-29.2,8.9c0.8-0.9,2.4-2.6,4-3.5c5.4-3.5,15.4-2.4,18.7-5.1C11.5,23.4,12.5,16.4,7.6,8.6z"/>
	
		<linearGradient id="SVGID_00000057845124009195551270000006712680454207108995_" gradientUnits="userSpaceOnUse" x1="58573.9297" y1="-30.8212" x2="58615.7266" y2="-42.188" gradientTransform="matrix(-1 0 0 1 58590.8086 50.955)">
		<stop  offset="0" style="stop-color:#FAA7B5"/>
		<stop  offset="0.3836" style="stop-color:#FAA100"/>
		<stop  offset="0.7317" style="stop-color:#BF73F2"/>
	</linearGradient>
	<path style="fill:url(#SVGID_00000057845124009195551270000006712680454207108995_);" d="M-14.8,23.3c0-0.5,1.1-3.2,0.9-3.8
		c-1.4-5.4-7.7-8-7.7-8s-7-2.8-8.2-15.8c-1.3-0.9-1.1,1-1.1,1.9C-30.1,14.6-15.9,12.7-14.8,23.3z"/>
	
		<linearGradient id="SVGID_00000121969774754744065200000002980904341215429507_" gradientUnits="userSpaceOnUse" x1="58462.6758" y1="18.0343" x2="58658.9922" y2="-87.224" gradientTransform="matrix(-1 0 0 1 58590.8086 50.955)">
		<stop  offset="0" style="stop-color:#FAA7B5"/>
		<stop  offset="0.3836" style="stop-color:#FAA100"/>
		<stop  offset="0.7317" style="stop-color:#BF73F2"/>
	</linearGradient>
	<path style="fill:url(#SVGID_00000121969774754744065200000002980904341215429507_);" d="M9.1-4.7C9-4.7,8.9-4.6,8.8-4.6
		C8.2-4.4,7.5-4.2,6.9-4.1C6.7-4,6.5-3.9,6.3-3.9c0,0,0,0.1,0,0.1c0.2,0,0.4,0.1,0.7,0.1c0.9,0,1.8,0,2.7,0c1.3,0,2.5,0,3.7,0.4
		c0.6,0.2,1.2,0.5,1.7,0.8c5.7,3.2,9.8,7.8,12.2,13.9c0.5,1.2,0.9,2.5,1.2,3.8c0,0.1,0,0.1,0,0.3c-0.1-0.1-0.2-0.1-0.2-0.1
		c-3.5-2.4-7.3-4-11.5-4.8c-1.5-0.3-3-0.4-4.5-0.5c-0.1,0-0.3,0-0.3-0.1C9.7,7.7,7,5.9,4.1,4.5C1.8,3.4-0.6,2.7-3.1,2.2
		C-6.3,1.6-9.5,1-12.7,0.4c-3.9-0.8-7.9-1.6-11.7-2.9c-2.4-0.8-4.8-1.8-6.9-3.2c-1.6-1.1-3-2.3-4.1-4c-0.4-0.6-0.6-1.2-0.9-1.9
		c-0.1-0.1-0.1-0.2-0.2-0.3c-2.1-2.1-3-4.6-2.6-7.5c0.2-2.2,1-4.2,2.1-6c0.1-0.2,0.2-0.4,0.3-0.6c0.1,0.5,0.1,1,0.2,1.5
		c0.5,3.3,2.2,5.8,5.1,7.5c1.7,1,3.5,1.6,5.4,2c2.1,0.5,4.2,0.8,6.3,1.2c2.6,0.5,5.1,0.8,7.6,1.6c0.5,0.2,1,0.3,1.4,0.5
		c0.6,0.2,1.2,0.5,1.7,0.9c1.8,1.3,3.7,2.3,5.7,3.1c0.1,0,0.1,0,0.2,0.1c0,0,0,0,0,0c0,0-0.1,0-0.1,0c-2.3,0-4.5,0-6.8,0
		c-2,0-4.1-0.1-6.1-0.3c-2.8-0.4-5.5-1.1-8.1-2.1c-3.1-1.2-6-2.7-8.9-4.4c-0.1,0-0.2-0.1-0.3-0.1c0.1,0,0.1,0.1,0.2,0.1
		c3.1,2.4,6.4,4.4,10.1,5.8c2.5,1,5.2,1.6,7.9,1.9c2.4,0.3,4.8,0.2,7.2,0.1C-5.8-6.7-3.8-6.8-1.7-7c0.2,0,0.4,0,0.5,0.1
		c2.1,0.6,4.2,1,6.3,1.3c1.3,0.2,2.5,0.5,3.7,0.7C9-4.9,9-4.8,9.1-4.7C9.1-4.8,9.1-4.8,9.1-4.7z"/>
	<path class="st9" d="M-29.1-11.7c8.1,9.7,29.2,4.6,38.2,7C3.4-8-1.2-7.4-1.2-7.4S-20.6-5.3-29.1-11.7z"/>
	<path class="st17" d="M33.1,25.1c-0.3,0-0.5-0.1-0.7-0.1c-0.7-0.2-1.5-0.4-2.2-0.7c-0.7-0.3-1.3-0.8-1.8-1.2
		c-1.1-0.9-2.1-1.8-3.2-2.7c-0.9-0.7-1.8-1.4-2.9-1.7c-0.4-0.1-0.7-0.2-1.1-0.2c1.5,0.7,2.3,2,3.1,3.4c-0.1,0-0.1,0-0.1,0
		c-2.2-1.1-4.4-2.3-6.4-3.8c-0.5-0.4-0.9-0.9-1.2-1.5c-0.5-1-1.1-1.9-1.6-2.9c0,0-0.1-0.1-0.1-0.2c0.5,0.1,0.9,0.2,1.3,0.3
		c1.7,0.4,3.4,1.2,5,2c2.5,1.3,4.9,2.8,7.2,4.4c0.1,0,0.1,0.1,0.2,0.1c0,0,0-0.1-0.1-0.1c-2.7-2.7-5.8-5-9.4-6.4
		c-1.5-0.6-3.1-1.1-4.8-1.2c-0.1,0-0.1,0-0.2-0.1c-0.4-0.4-0.7-0.9-1.1-1.4c1,0.2,2,0.4,2.9,0.6c2.7,0.6,5.3,1.4,7.8,2.5
		c1.8,0.8,3.6,1.8,5.1,3.2c1.9,1.8,3.4,4,4.2,6.6C32.9,24.2,33,24.6,33.1,25.1z"/>
	<path class="st10" d="M-13,0.4c0.8,0.3,1.7,0.6,2.6,1C1,4.9,4.7,7.8,4.7,7.8l11.4,8.4c0,0,1.9-1.4,4.3,0.4c-1.6-2-6.7-3.5-6.7-3.5
		s-0.2-1.5-1.9-2.7c4.5,1.5,12,1.1,17.2,5.8C25.1,5.1,15.3,13.6,5.8,6.6C4.7,6-9.7,2.3-2.5,2.5c7.2,0.3,11.9-4.6,17.9-3
		C9.7-2.5,4.8,0.7-3.1,1.3C-1.8,1-0.2,0.4,0.5-0.6c-2.8,2-8.4,2.1-9.7,1.7C-10.4,0.9-11.6,0.7-13,0.4z"/>
	<path class="st7" d="M14.2-3c-8.2-3.3-37.3,6.2-50.4-8.5c0,0-1,0.4,4.2,6.3C-11.6,4.5,3.7-4.7,14.2-3z"/>
	
		<radialGradient id="SVGID_00000018221523741079797650000009997858688181868965_" cx="114711.1406" cy="9545.0801" r="14.877" gradientTransform="matrix(-0.4579 0.1387 0.2675 0.883 49991.9805 -24334.0957)" gradientUnits="userSpaceOnUse">
		<stop  offset="9.100000e-03" style="stop-color:#FFFFFF"/>
		<stop  offset="1" style="stop-color:#FFFFFF;stop-opacity:0"/>
	</radialGradient>
	<path style="opacity:0.7;fill:url(#SVGID_00000018221523741079797650000009997858688181868965_);enable-background:new    ;" d="
		M26.9,10c2.4,1.4,0.5-2-2-4C15.3-0.7,11,7,1.5,3.3C16,11.3,17.4,1.3,26.9,10z"/>
	<path class="st13" d="M26.1,8.1C28.6,9.5,27.3,8,24.9,6C15.3-0.7,11,7,1.5,3.3C10.8,8.5,16.7-0.6,26.1,8.1z"/>
	<g>
		
			<radialGradient id="SVGID_00000032620812384139113580000003380774147841049749_" cx="100763.4453" cy="44095.4062" r="23.2557" gradientTransform="matrix(-0.4785 0 0 0.4785 48196.5859 -21086.7324)" gradientUnits="userSpaceOnUse">
			<stop  offset="9.100000e-03" style="stop-color:#FFFFFF"/>
			<stop  offset="1" style="stop-color:#FFFFFF;stop-opacity:0"/>
		</radialGradient>
		<path style="opacity:0.7;fill:url(#SVGID_00000032620812384139113580000003380774147841049749_);enable-background:new    ;" d="
			M-21.2,11.7c-4.4-4.1-1-13-1-13l-3.2-0.7C-25.3-1.9-28.5,6.7-21.2,11.7z"/>
		
			<radialGradient id="SVGID_00000013905889974314950250000014917364625669209514_" cx="100763.4609" cy="44095.4023" r="23.246" gradientTransform="matrix(-0.4785 0 0 0.4785 48196.5859 -21086.7324)" gradientUnits="userSpaceOnUse">
			<stop  offset="9.100000e-03" style="stop-color:#FFFFFF"/>
			<stop  offset="1" style="stop-color:#FFFFFF;stop-opacity:0"/>
		</radialGradient>
		<path style="opacity:0.7;fill:url(#SVGID_00000013905889974314950250000014917364625669209514_);enable-background:new    ;" d="
			M-13.6,18.5c3.3-6-5.5-14.1-0.8-17c-0.1-0.4-2.7-1.7-2.6-1.3c-5.9,9,3.8,11.2,2.5,16.8c-6.8-9.3-6.9-11.1-3.6-17
			c0,0-0.4-0.5-0.8-0.2C-23.9,3.6-25.3,7.9-13.6,18.5z"/>
	</g>
	<path class="st13" d="M-2.6,6.4c0.2-2.8,2.2,1.7,2.5,4.9C0.1,23-11.8,20.1-12.3,29.6C-13.5,18.8-0.6,19.1-2.6,6.4z"/>
	<path class="st14" d="M8.9,11c0.2-2.8,5.8,4.4,6.1,7.5C13.1,38.6-7.6,26.4-13,33.8C-8.5,25.7,20.4,37,8.9,11z"/>
	
		<linearGradient id="SVGID_00000072268104331898313150000006389965817574968714_" gradientUnits="userSpaceOnUse" x1="58543.3789" y1="-72.6408" x2="58554.3906" y2="-97.4644" gradientTransform="matrix(-1 0 0 1 58590.8086 50.955)">
		<stop  offset="4.100000e-03" style="stop-color:#FAA7B5"/>
		<stop  offset="0.3836" style="stop-color:#FAA100"/>
	</linearGradient>
	<path style="fill:url(#SVGID_00000072268104331898313150000006389965817574968714_);" d="M46.7-28c-0.3-0.3-0.6-0.5-0.8-0.7
		c-0.2-0.2-0.5-0.3-0.7-0.4c-0.6-0.3-1.2-0.3-1.8,0c-1,0.5-2,0.5-3,0.4c-0.3,0-0.5-0.2-0.6-0.5c-1-2.1-2.8-3.5-5-4.4
		c-0.2-0.1-0.4-0.2-0.4-0.5c-0.1-0.7-0.2-1.4,0-2c0.3-1.1,0.9-1.9,1.9-2.5c1-0.6,2-1,3.1-1.3c1.3-0.3,2.7-0.5,4-0.5
		c0.7,0,1.4,0.1,2,0.3c1.5,0.5,2.4,1.4,2.8,3c0.2,1,0.4,2,0.5,3c0.2,2.3-0.4,4.3-1.9,6.1C46.7-28.1,46.7-28.1,46.7-28z"/>
	<g>
		<path class="st29" d="M42.4-28.2c0.1-0.7,1.4-0.9,2-0.9c1.1,0,1.7,0.6,2.4,1.4c0.1,0.1,0.2,0.3,0.3,0.4c1.2-0.9,1.9-2.2,1.7-3.5
			c-0.3-2.3-3.2-3.8-6.4-3.4c-2.2,0.3-4,1.5-4.8,2.9c0.6,0.7,0.8,1.7,1.6,2.3C39.9-28.3,41.4-28.2,42.4-28.2z"/>
	</g>
	
		<linearGradient id="SVGID_00000101085021181148402210000003839458356279368327_" gradientUnits="userSpaceOnUse" x1="58616.7109" y1="-0.9676" x2="58625.7383" y2="-69.5722" gradientTransform="matrix(-1 0 0 1 58590.8086 50.955)">
		<stop  offset="0" style="stop-color:#FAA7B5"/>
		<stop  offset="0.3836" style="stop-color:#FAA100"/>
		<stop  offset="0.7317" style="stop-color:#BF73F2"/>
	</linearGradient>
	<path style="fill:url(#SVGID_00000101085021181148402210000003839458356279368327_);" d="M-35-6.5c0.7-0.3,1.2-0.4,1.6-0.3
		c-0.5,2.5-0.7,5-0.7,7.6c0.1,2.8,0.6,5.5,1.8,8.1c0.2,0.3,0.3,0.6,0.5,0.9c0-0.1,0-0.1,0-0.1c-0.7-1.7-1-3.4-1.1-5.2
		C-33,1.7-32.7-1-32.1-3.7c0-0.1,0-0.1,0.1-0.2c0.4,0.3,0.8,0.5,1.1,0.8c0,0,0,0.2,0,0.2C-31-1.3-31,0.4-30.8,2
		c0.3,2.3,0.8,4.6,1.7,6.8c1.2,3.1,2.7,5.9,4.6,8.6c0,0.1,0.1,0.1,0.1,0.2c0,0,0,0,0,0.1c-0.3-0.1-0.5-0.2-0.8-0.3
		c-1.8-0.6-3.5-1.4-5.1-2.2c-0.3-0.1-0.5-0.3-0.7-0.5c-2.3-2.1-3.7-4.7-4.3-7.7c-0.1-0.4-0.2-0.9-0.3-1.4c0,0.5,0,1,0.1,1.5
		c0.2,2.4,0.7,4.7,1.5,7c0.2,0.6,0.1,1.1,0,1.6c0,0.2-0.1,0.3-0.2,0.5c-0.1-0.1-0.3-0.2-0.4-0.4c-0.7-1.1-1.1-2.2-1.4-3.4
		c-0.5-1.8-0.9-3.7-1.1-5.6c-0.2-1.8-0.4-3.5-0.4-5.3c0-1.8,0.1-3.6,0.7-5.3c0.3-0.8,0.7-1.6,1.2-2.2C-35.6-6.1-35.3-6.3-35-6.5
		C-35.1-6.5-35.1-6.5-35-6.5z"/>
	<path class="st7" d="M-26.9,17.7c0,0-4.4-0.6-6.3-3.7c-1.9-3.1-2.4-8.3-2.4-8.3s-1-7.8,2.2-12.4C-35.5,10-26.9,17.7-26.9,17.7z"/>
	
		<linearGradient id="SVGID_00000138553119745059153350000000607332136162833319_" gradientUnits="userSpaceOnUse" x1="58624.2422" y1="2.199465e-02" x2="58633.2695" y2="-68.5824" gradientTransform="matrix(-1 0 0 1 58590.8086 50.955)">
		<stop  offset="0" style="stop-color:#FAA7B5"/>
		<stop  offset="0.3836" style="stop-color:#FAA100"/>
		<stop  offset="0.7317" style="stop-color:#BF73F2"/>
	</linearGradient>
	<path style="fill:url(#SVGID_00000138553119745059153350000000607332136162833319_);" d="M-35-6.5C-35.1-6.5-35.1-6.5-35-6.5
		c-1,0.4-1.7,1-2.3,1.7c-0.9,1.1-1.3,2.4-1.6,3.8c-0.4,2-0.4,4.1-0.3,6.2c0.1,1.2,0.3,2.3,0.4,3.5c0,0,0,0.1,0,0.2
		c-0.1-0.1-0.1-0.1-0.2-0.1c-3.4-3.5-6-7.6-7.6-12.2c0-0.1,0-0.3,0-0.4c1-3.2,2.4-6.2,4.2-9c0.7-1.2,1.6-2.3,2.4-3.5
		c0.1-0.1,0.1-0.2,0.2-0.3c0,0.6,0.3,1.1,0.1,1.6c-0.3,0.7-0.5,1.5-0.5,2.3c0,0.3,0.1,0.6,0.3,0.9c0.2-0.6,0.4-1.2,0.8-1.6
		c0.1,0.2,0.2,0.5,0.1,0.7c-0.3,1-0.5,1.9-0.5,3c0,0.3,0.1,0.6,0.2,0.9c0.3-0.8,0.7-1.4,1.3-2c0,0,0.1,0.1,0.1,0.1
		c0.7,1.5,1.6,2.8,2.7,4C-35.1-6.7-35.1-6.6-35-6.5z"/>
	<path class="st7" d="M-38.5-10.4c0,0-5,9.8-2.7,18.2c0.3,0.2-0.5-0.4-1.4-1.4c-0.1-0.2-1.8-11.3,1.6-16.1
		c-4.6,5.4-2.4,15.1-2.6,14.8c-0.4-0.6-0.8-1.3-1-2c-2.3-11,5.7-17.5,5.7-17.5L-38.5-10.4z"/>
	<path class="st2" d="M38-45.6c-0.2-0.3-0.4-0.6-0.6-1c-0.2-0.3-0.2-0.7-0.1-1c0.1-0.4,0.4-0.6,0.9-0.5c0.4,0.1,0.7,0.1,1.1,0.1
		c0.4,0,0.4,0,0.5-0.4c0-0.1,0-0.2,0.1-0.3c0.1-0.4,0.4-0.7,0.8-0.8c0.4-0.1,0.7,0.2,1,0.5c0.7,1,0.1,2.3-1.1,2.4
		c-0.4,0-0.8,0-1.1,0c-0.1,0-0.1,0-0.2,0c0,0,0,0-0.1,0.1c0.1,0.1,0.2,0.3,0.3,0.4c0.3,0.2,0.6,0.2,0.9,0.2c2-0.2,4,0,5.7,1.2
		c1,0.7,1.7,1.6,2.2,2.6c0,0,0,0,0,0c0.1,0.2,0.2,0.4,0,0.6c-0.1,0.1-0.4,0-0.5,0c-0.8-0.2-1.5-0.6-2.3-0.8
		c-1.1-0.3-2.3-0.3-3.5-0.3c-1.6,0.1-3.1,0.3-4.6,0.9c-1.7,0.6-3.2,1.5-4.4,2.7c-0.1,0.1-0.3,0.3-0.5,0.4c-0.3,0.2-0.5,0.1-0.5-0.2
		c0-0.2,0-0.5,0.1-0.7c0.6-2.4,2-4.1,4.2-5.2C36.9-45.2,37.5-45.4,38-45.6z"/>
	
		<linearGradient id="SVGID_00000007388034453848368310000013159138566687105440_" gradientUnits="userSpaceOnUse" x1="58637.5039" y1="-29.2334" x2="58633.4492" y2="-76.9717" gradientTransform="matrix(-1 0 0 1 58590.8086 50.955)">
		<stop  offset="0" style="stop-color:#FAA7B5"/>
		<stop  offset="0.3836" style="stop-color:#FAA100"/>
		<stop  offset="0.7317" style="stop-color:#BF73F2"/>
	</linearGradient>
	<path style="fill:url(#SVGID_00000007388034453848368310000013159138566687105440_);" d="M-48-0.6c-0.1-8.7,2.7-16.3,8.6-22.7
		c-0.1,0.6-0.2,1.2-0.2,1.8c-0.1,1-0.1,2-0.2,3c0,0.2-0.1,0.4-0.2,0.5c-2.2,3.2-4.2,6.4-5.8,9.9c-0.8,1.8-1.5,3.6-1.9,5.5
		C-47.9-2-47.9-1.3-48-0.6z"/>
	
		<linearGradient id="SVGID_00000089540379367668265380000006279424665209863605_" gradientUnits="userSpaceOnUse" x1="58565.3008" y1="10.9659" x2="58567.1055" y2="-72.989" gradientTransform="matrix(-1 0 0 1 58590.8086 50.955)">
		<stop  offset="0" style="stop-color:#FAA7B5"/>
		<stop  offset="0.3836" style="stop-color:#FAA100"/>
		<stop  offset="0.7317" style="stop-color:#BF73F2"/>
	</linearGradient>
	<path style="fill:url(#SVGID_00000089540379367668265380000006279424665209863605_);" d="M23.3,28c1,1.8,2.1,3.5,2.5,5.6
		c0.1,0.3,0,0.7,0,1.1c-0.1,2,0.1,3.9,0.7,5.8c0.1,0.2,0.1,0.3,0.1,0.5c0,0.1-0.1,0.3-0.2,0.4c-0.1,0.1-0.3,0.1-0.4,0
		c-0.5-0.3-0.9-0.7-1.1-1.2c-0.6-1-0.9-2-1.1-3.1c-0.6-3-0.7-6-0.6-9C23.3,28.1,23.3,28.1,23.3,28z"/>
	<path class="st34" d="M23.9,39.6c0.2,0.4,1,1.3,1.3,1.5l0.7,0.5c-0.7-1.8-1-3.7-1-5.6c0-1.6,0.5-3.1,0.6-4.8c0.1-1.3-0.5-2-1.2-3.1
		c-0.3-0.5-0.7-1.5-1.4-1.5c-0.3,0.8-0.3,1.7-0.3,2.6c0,1-0.2,2-0.1,2.9C22.6,34,23.6,38.9,23.9,39.6z"/>
	<path class="st2" d="M48.3-38.4C48.2-38.4,48.2-38.4,48.3-38.4c-0.8-1.6-2.2-2.3-3.8-2.4c-2.7-0.2-5.3,0.3-7.8,1.4
		c-1,0.5-1.9,1.2-2.4,2.3c-0.2,0.5-0.3,1-0.5,1.5c-0.5,0-1.2-0.5-1.2-1.1c0-0.2,0.1-0.4,0.2-0.6c0.3-0.7,0.9-1.2,1.5-1.7
		c1.5-1.2,3.3-2,5.2-2.5c2.5-0.6,5-0.6,7.5,0.1c0.6,0.2,1.1,0.5,1.7,0.8c0.4,0.2,0.6,0.6,0.6,1.1C49-39,48.8-38.6,48.3-38.4z"/>
	<path class="st35" d="M48.3-38.4C48.2-38.4,48.2-38.4,48.3-38.4c-0.8-1.6-2.2-2.3-3.8-2.4c-2.7-0.2-5.3,0.3-7.8,1.4
		c-1,0.5-1.9,1.2-2.4,2.3c-0.2,0.5-0.3,1-0.5,1.5c-0.5,0-1.2-0.5-1.2-1.1c0-0.2,0.1-0.4,0.2-0.6c0.3-0.7,0.9-1.2,1.5-1.7
		c1.5-1.2,3.3-2,5.2-2.5c2.5-0.6,5-0.6,7.5,0.1c0.6,0.2,1.1,0.5,1.7,0.8c0.4,0.2,0.6,0.6,0.6,1.1C49-39,48.8-38.6,48.3-38.4z"/>
	<g>
		<path class="st36" d="M20.9-13.3c0-1,0.2-1.9,0.6-2.8c0.9-1.8,2.3-2.9,4-3.6c1.5-0.7,3.1-0.9,4.8-0.8c0,0,0,0,0.1,0
			c-1.2,0.2-2.2,0.5-3.3,0.9c-1.8,0.7-3.4,1.8-4.6,3.3c-0.7,0.8-1.2,1.7-1.5,2.7C20.9-13.5,20.9-13.4,20.9-13.3z"/>
		<path class="st36" d="M34.4,0.7c1.8,1.1,2.2,3.7,1,5.1C35.7,4,35.3,2.3,34.4,0.7z"/>
		<path class="st36" d="M37.4-9.4c0.9-0.7,1.9-0.9,3-0.9c0.4,0,0.9,0.1,1.3,0.1c0.2,0,0.5,0,0.7-0.1c0.4-0.1,0.6,0,0.8,0.4
			c0.3,1,0.5,2,0.4,3c-0.1,0.5-0.2,1-0.4,1.4c-0.8,1.8-3.1,2.5-4.8,1.5C38.2-4,38-4.1,37.8-4.3c-0.2-0.2-0.4-0.4-0.6-0.6
			c0.1-0.1,0.2-0.2,0.3-0.3c0.2-0.2,0.3-0.5,0.2-0.7c-0.2-0.9,0.2-1.5,0.9-1.9c0.5-0.3,1.1-0.5,1.7-0.7c0.3-0.1,0.6-0.2,0.9-0.2
			c0.1,0,0.1,0,0.2,0.1c0.5,0.3,0.8,0.7,1,1.2c0.1-0.3,0.1-0.8,0-1.2c-0.1-0.2,0-0.8,0.1-1c0,0,0,0,0,0c-0.1,0-0.1,0.1-0.2,0.1
			c-0.6,0.4-1.3,0.5-1.9,0.6c-0.8,0.1-1.6,0.3-2.4,0.8c-0.9,0.6-1.3,1.4-1.4,2.4c0,0,0,0.1,0,0.1C35.9-7.2,36.1-8.4,37.4-9.4z"/>
	</g>
	
		<linearGradient id="SVGID_00000118393033154558069090000011755167991732183685_" gradientUnits="userSpaceOnUse" x1="58548.3008" y1="-53.2564" x2="58552.7695" y2="-60.6302" gradientTransform="matrix(-1 0 0 1 58590.8086 50.955)">
		<stop  offset="0" style="stop-color:#FAA7B5"/>
		<stop  offset="0.3836" style="stop-color:#FAA100"/>
		<stop  offset="0.7317" style="stop-color:#BF73F2"/>
	</linearGradient>
	<path style="fill:url(#SVGID_00000118393033154558069090000011755167991732183685_);" d="M38.5-6.1c0-0.9,0.8-1.7,1.7-1.7
		c0.9,0,1.7,0.8,1.7,1.7s-0.8,1.7-1.7,1.7C39.3-4.4,38.5-5.2,38.5-6.1z"/>
	<g>
		<defs>
			<rect id="SVGID_00000090278276054896741880000003314355236840965265_" x="38.4" y="-5.8" width="1.2" height="1.4"/>
		</defs>
		<clipPath id="SVGID_00000032623454732797544180000015320783076541387659_">
			<use xlink:href="#SVGID_00000090278276054896741880000003314355236840965265_"  style="overflow:visible;"/>
		</clipPath>
		<g style="clip-path:url(#SVGID_00000032623454732797544180000015320783076541387659_);">
			
				<use xlink:href="#New_Symbol_2"  width="6" height="7" x="-3" y="-3.5" transform="matrix(-0.2012 0 0 0.2012 39.0506 -5.1299)" style="overflow:visible;"/>
		</g>
	</g>
	<path class="st0" d="M46.1-34.8c0.3-0.2,0.8-0.1,0.9,0.2c0.7,1.4,0.7,3-0.1,4.4c-0.4,0.8-1.6,0.2-1.2-0.6c0.5-0.9,0.6-2.1,0.1-3
		C45.7-34.2,45.8-34.6,46.1-34.8z"/>
	<g>
		<path class="st3" d="M-27.9-38.8c-0.4,12.3,7.2,8.3,10.5,13.5c0.3,0.3,0.4,0.7,0.6,1C-20.6-26.4-31.2-25-27.9-38.8z"/>
	</g>
	<g>
		<path class="st7" d="M-33.7-14.8c10.4,9,31,8,32.5,7.9C-9.8-13.1-35.7-7.3-36.6-26C-38.3-20.7-36.1-16.9-33.7-14.8z"/>
	</g>
	<path class="st3" d="M-17-24.8c0,0,0-2.7,0-4.6c0-1.9-2.4-0.9-3.3,1.8C-18-26.8-17-24.8-17-24.8z"/>
	<path class="st3" d="M-18.3-25.7c1.7,3.1,0,5.8-0.3,5.9c1,0.1,2.9,1.9,3.4,2.5c0.7,1,0.8,2.4,0.8,3.5c1.4,0.1,2.4,0.9,3.7,1.2
		c-1.1-1-2.6-2.2-3.2-3.6c-0.6-1.2-1.1-2.6-1.5-3.9c-0.3-1.1-0.6-2.1-0.8-3.2c-0.1-0.8-0.6-1.9-0.5-2.7c0,0-0.2-7.2,1.3-10.7
		c-2.7,0.9-4.2,3.1-4.6,4c-0.6,1-1.6,3.4-0.3,4.9C-19.7-27.5-18.8-26.6-18.3-25.7z"/>
	<path class="st36" d="M-43.8-35c5.5-7.6,12.8-12.4,21.9-14.5c3-0.7,6.1-0.9,9.2-0.9c7.6,0,15.2,0,22.9,0c5.1,0,10.2,0,15.4,0
		c1.2,0,2.4,0.1,3.6,0.5c1.1,0.4,2,1.1,2.5,2.2c0.7,1.6,0.1,3.7-1.4,4.8c-1.1,0.8-2.4,1.1-3.7,1c-0.4,0-0.7-0.1-1.1-0.1
		c-0.1,0-0.2,0-0.3,0c-0.1,0-0.2,0.1-0.3,0.1c0.1,0.1,0.1,0.2,0.2,0.3c1.4,1.2,2.4,2.6,2.8,4.4c0.2,0.6,0.2,1.3,0.2,2
		c0,0.1,0,0.1,0,0.2c0,0.3,0.1,0.4,0.4,0.5c1,0,2,0.1,3,0.2c0.5,0,0.9,0.2,1.5,0.2c-0.1-0.1-0.1-0.2-0.2-0.2c-0.8-0.4-1.3-1-1.6-1.8
		c-0.3-1-0.5-1.9-0.5-3c0.1-1.6,0.7-3.1,1.8-4.3c0.9-1.1,2.1-2,3.4-2.6c0.2-0.1,0.2-0.2,0.2-0.3c-0.2-0.5-0.1-1.1,0-1.6
		c0.1-0.3,0.3-0.6,0.6-0.7c0.7-0.4,1.5-0.4,2.2-0.1c0-0.1,0-0.2,0.1-0.3c0.2-0.8,0.7-1.1,1.5-1.6c0.2,0,0.4,0,0.6,0
		c0,0,0,0.1,0.1,0.1c1.4,0.2,2,1.5,1.8,2.7c0,0.3-0.1,0.6-0.2,0.9c0.6,0.2,1.3,0.3,1.9,0.5c2.9,1,4.8,3,5.6,5.9
		c0.3,1.2,0.1,2.3-0.8,3.1c-0.1,0.1-0.1,0.2,0,0.3c0.2,1.1,0.5,2.2,0.5,3.4c0.2,2.7-0.7,5-2.5,7c-0.1,0.1-0.1,0.2-0.1,0.4
		c0.1,0.6,0.3,1.2,0.3,1.8c0.2,1.2-0.3,2.2-1.1,3.1c-0.1,0.1-0.2,0.2-0.2,0.3c-0.2,0.7-0.7,1.1-1.3,1.5c-1.3,0.6-2.6,0.8-4,0.5
		c-0.9-0.2-1.7-0.5-2.5-0.9c-0.4-0.2-0.7-0.3-1,0c-0.1,0-0.1,0.1-0.2,0.1c-0.1,0.1-0.2,0.2-0.2,0.3c0,0.1,0.2,0.2,0.3,0.3
		c0.6,0.2,1.3,0.4,2,0.4c0.5,0,1,0,1.5,0.1c1.6,0.2,3.1,0.8,4.5,1.6c0.1,0.1,0.2,0.1,0.3,0.1c1.8,0.3,3.3,1.7,3.6,3.5
		c0,0.2,0,0.4,0.1,0.5c0.8,1.2,0.8,2.4,0.4,3.7c-0.3,0.8-0.7,1.6-1,2.4c-0.2,0.4-0.3,0.9-0.4,1.3c-0.1,1.3-0.3,2.6-0.6,3.8
		c-0.7,2.6-2,4.9-4.1,6.7c-2.1,1.8-4.6,2.8-7.4,3.1c-0.2,0-0.4,0.1-0.5,0.3c-0.6,1.4-1.6,2.3-3,2.8c-0.4,0.1-0.7,0.2-1.1,0
		c-0.5-0.2-1-0.5-1.4-0.8c-1.2-0.8-2.1-1.9-2.9-3.1c-0.1-0.1-0.1-0.2-0.2-0.2c-0.1,0-0.3-0.1-0.4,0c-0.1,0-0.1,0.2-0.1,0.4
		c0,0.1,0.1,0.3,0.2,0.4c2,2.9,3.3,6.2,3.9,9.7c0,0.1,0.1,0.2,0.2,0.3c0.5,0.5,1,1,1.5,1.5c0.8,0.8,1.3,1.8,1.5,2.9
		c0.1,0.3,0.1,0.6,0.1,0.9c0,0.1-0.1,0.2-0.1,0.3C34,23,33.9,23,33.8,22.9c-0.1-0.2-0.2-0.4-0.4-0.6c-0.1-0.1-0.2-0.2-0.3-0.4
		c0,0.1,0,0.1,0,0.1c0.5,1.4,0.9,2.7,1.1,4.2c0,0.4,0.1,0.8,0.1,1.2c0,0.3-0.2,0.5-0.4,0.4c-0.1,0-0.2-0.1-0.3-0.2
		c-0.8-0.8-1.7-1.4-2.7-1.9c0,0,0,0,0,0.1c0,0.1-0.1,0.3-0.1,0.4c-0.3,1.7-0.7,3.3-1.2,4.9c-0.4,1.2-0.6,2.5-0.4,3.8
		c0.1,0.8,0.4,1.5,1.1,2c0,0,0.1,0.1,0.1,0.2c-0.1,0-0.1,0.1-0.2,0.1c-0.9,0.2-1.9,0.1-2.4-1c-0.1-0.1-0.1-0.2-0.2-0.4
		c-0.1,0.2-0.2,0.4-0.3,0.6c-0.2,0.9-0.2,1.7-0.2,2.6c0.1,1.1,0.5,2.1,1,3c0.1,0.2,0.2,0.5,0.3,0.8c0.1,0.5-0.1,0.8-0.6,0.8
		c-0.2,0-0.5,0-0.7-0.1c-1.2-0.5-2.2-1.3-2.8-2.4c-0.1-0.1-0.1-0.2-0.2-0.3c-0.5,0.5-0.9,0.9-1.2,1.6c-0.2,0.4-0.3,0.8-0.6,1.2
		c-0.1,0.3-0.3,0.3-0.4,0c0-0.1-0.1-0.1-0.1-0.2c-0.1-0.2-0.2-0.2-0.4,0c-0.1,0.2-0.2,0.3-0.2,0.5c-0.3,0.9-0.8,1.6-1.6,2.2
		c0,0-0.1,0.1-0.2,0.1c0-0.3,0.1-0.5,0.1-0.7c0-0.2,0.1-0.4,0.1-0.7c-0.1,0-0.1,0-0.1,0c-0.1,0-0.1,0.1-0.2,0.1
		c-2.9,2-6.1,3.4-9.6,4.2c-1.1,0.2-2.2,0.3-3.1,0.9c0,0,0,0-0.1,0c-0.2,0.1-0.3,0-0.5-0.1c-0.1-0.1-0.3-0.1-0.4-0.1
		c-0.4,0-0.8,0.1-1.3,0.1c-0.4,0-0.8,0.1-1.2,0.2C2.6,50.3,2,51,1.4,51c-0.2,0-0.3,0-0.5,0c-0.1,0-0.3-0.4-0.4-0.6
		c-0.2-0.3-0.5-0.6-0.8-0.6c-2.2-0.1-4.3-0.4-6.4-1c-3.2-0.8-6.2-2-8.9-4c-2-1.4-3.6-3.1-4.8-5.2c-0.2-0.4-0.4-0.9-0.6-1.4
		c-0.1-0.4-0.2-0.7-0.1-1.1c0.1-0.3,0.3-0.5,0.6-0.4c1.8,0.3,3.2-0.4,4.6-1.4c1.4-1,2.4-2.3,3-3.8c0.9-2.3,0.4-4.4-1.2-6.3
		c-0.2-0.2-0.4-0.4-0.6-0.6c-0.1,0.3-0.1,0.5-0.2,0.8c-0.4,1.3-0.9,2.5-1.8,3.4c-0.5,0.6-0.7-0.1-0.6-1.2c0.3-2.2-0.4-4.1-1.9-5.7
		c-0.1-0.1-0.2-0.2-0.4-0.2c-1.6-0.6-3.3-1.1-4.9-1.7c-2.9-1.1-5.7-2.4-8.3-4c0,0-0.1,0-0.1-0.1c-0.3,0.2-0.4,0.4-0.3,0.7
		c0,0.4,0.1,0.7,0.1,1.1c0,0,0,0.1,0,0.1c0.1,0.6-0.2,0.8-0.7,0.6c-0.3-0.1-0.6-0.4-0.8-0.6c-0.7-0.8-1.1-1.8-1.5-2.7
		c-0.2-0.5-0.4-1-0.6-1.5c-0.1-0.2-0.2-0.4-0.4-0.5c-2.3-1.9-4.4-4-6.2-6.5c-1.6-2.1-2.9-4.3-4-6.6c0-0.1-0.1-0.1-0.1-0.2
		c0,0,0,0-0.1-0.1C-47.8,1.9-47.8,4-47.6,6c-0.2-0.6-0.3-1.2-0.5-1.8c-0.6-2.5-0.8-5-0.6-7.6c0-0.1,0-0.3-0.1-0.4
		c-0.8-2.4-1.3-4.8-1.5-7.4C-51.1-19.9-49-27.9-43.8-35z M-45.9-8.1c1.6-3.5,3.6-6.8,5.8-9.9c0.1-0.2,0.2-0.3,0.2-0.5
		c0-1,0.1-2,0.2-3c0-0.6,0.2-1.2,0.2-1.8c-5.8,6.4-8.6,14-8.6,22.7c0.1-0.7,0.2-1.3,0.3-1.9C-47.4-4.5-46.7-6.3-45.9-8.1z
		 M-24.4,17.7C-24.4,17.7-24.4,17.7-24.4,17.7c-0.1-0.1-0.1-0.2-0.2-0.3c-1.9-2.7-3.5-5.5-4.6-8.6C-30,6.6-30.6,4.4-30.8,2
		c-0.2-1.6-0.2-3.3,0-4.9c0-0.1,0-0.2,0-0.2c-0.4-0.3-0.8-0.5-1.1-0.8c0,0.1,0,0.2-0.1,0.2C-32.7-1-33,1.7-32.9,4.5
		c0.1,1.8,0.4,3.5,1.1,5.2c0,0,0,0.1,0,0.1c-0.2-0.3-0.4-0.6-0.5-0.9c-1.2-2.6-1.7-5.3-1.8-8.1c-0.1-2.5,0.2-5.1,0.7-7.6
		c-0.4-0.2-0.9-0.1-1.6,0.3c0-0.1,0-0.2-0.1-0.2c-1.1-1.2-2-2.6-2.7-4c0,0,0-0.1-0.1-0.1c-0.5,0.6-1,1.2-1.3,2
		c-0.1-0.3-0.2-0.6-0.2-0.9c-0.1-1,0.2-2,0.5-3c0.1-0.3,0.1-0.5-0.1-0.7c-0.5,0.4-0.6,1-0.8,1.6c-0.2-0.3-0.3-0.6-0.3-0.9
		c0-0.8,0.2-1.6,0.5-2.3c0.2-0.6-0.1-1.1-0.1-1.6c-0.1,0.1-0.2,0.2-0.2,0.3c-0.8,1.2-1.6,2.3-2.4,3.5c-1.8,2.8-3.2,5.8-4.2,9
		c0,0.1-0.1,0.3,0,0.4c1.7,4.6,4.2,8.7,7.6,12.2c0,0,0.1,0.1,0.2,0.1c0-0.1,0-0.1,0-0.2c-0.1-1.2-0.3-2.3-0.4-3.5
		c-0.2-2.1-0.1-4.1,0.3-6.2c0.3-1.4,0.7-2.7,1.6-3.8c0.6-0.8,1.3-1.4,2.2-1.8c-0.2,0.2-0.5,0.4-0.7,0.7c-0.5,0.7-0.9,1.4-1.2,2.2
		c-0.6,1.7-0.7,3.5-0.7,5.3c0,1.8,0.1,3.5,0.4,5.3c0.3,1.9,0.6,3.7,1.1,5.6c0.3,1.2,0.8,2.3,1.4,3.4c0.1,0.1,0.3,0.3,0.4,0.4
		c0.1-0.2,0.2-0.3,0.2-0.5c0.1-0.5,0.2-1.1,0-1.6c-0.8-2.3-1.3-4.6-1.5-7c0-0.5-0.1-1-0.1-1.5c0.1,0.5,0.2,0.9,0.3,1.4
		c0.6,3,2,5.6,4.3,7.7c0.2,0.2,0.5,0.4,0.7,0.5c1.7,0.9,3.4,1.6,5.1,2.2C-24.9,17.5-24.7,17.6-24.4,17.7z M26.7,41
		c0-0.2-0.1-0.3-0.1-0.5c-0.6-1.9-0.8-3.8-0.7-5.8c0-0.4,0-0.7,0-1.1c-0.4-2.1-1.5-3.8-2.5-5.6c0,0.1,0,0.1,0,0.1c-0.1,3,0,6,0.6,9
		c0.2,1.1,0.5,2.1,1.1,3.1c0.3,0.5,0.6,0.9,1.1,1.2c0.2,0.1,0.3,0.1,0.4,0C26.6,41.3,26.7,41.1,26.7,41z M27.9,25
		c-0.5-0.3-1-0.7-1.5-0.9c-1.8-0.9-3.8-1.6-5.7-2.3c-0.4-0.1-0.7-0.3-1.1-0.6c-0.7-0.4-1.2-1.1-1.6-1.7c-0.2-0.3-0.4-0.6-0.6-1
		c0,0.1,0,0.2,0.1,0.3c0.2,0.8,0.5,1.5,0.7,2.3c0.3,1.1,0.7,2.1,1.3,3.1c0.3,0.5,0.7,1,1,1.5c0.2,0.3,0.4,0.7,0.5,1
		c0.1,0.2,0.1,0.5,0.1,0.7c0,0-0.1,0-0.1,0c-0.1-0.1-0.2-0.2-0.3-0.3c-0.4-0.4-0.7-0.8-1.1-1.2c-0.1-0.1-0.3-0.2-0.3-0.1
		c-0.1,0-0.2,0.2-0.2,0.3c0,0.4,0.1,0.9,0.2,1.3c0.2,0.6,0.5,1.1,0.7,1.7c0.1,0.3,0.2,0.6,0.2,0.9c0,0.1-0.1,0.3-0.2,0.4
		c-0.1-0.1-0.3-0.1-0.4-0.2c-0.2-0.2-0.3-0.4-0.5-0.6c-0.2-0.2-0.3-0.1-0.4,0.1c-0.1,0.2-0.1,0.3-0.1,0.5c0.1,0.4,0.2,0.8,0.3,1.2
		c0.1,0.4,0.2,0.7,0.3,1.1c0,0.2,0,0.5-0.3,0.7c-0.1-0.1-0.1-0.2-0.2-0.3c-0.1-0.2-0.2-0.4-0.3-0.7c-0.2-0.5-0.4-1-0.7-1.5
		c-0.2-0.4-0.4-0.4-0.7,0c-0.5,0.8-0.9,1.6-1.4,2.3c-0.3,0.4-0.5,0.8-0.5,1.3c-0.1,0.6-0.1,1.3-0.2,1.9c0,0.2-0.1,0.5-0.4,0.7
		c-0.1-0.3-0.1-0.5-0.1-0.7c-0.1-0.3-0.1-0.7-0.2-1c-0.1-0.2-0.2-0.3-0.4,0c-0.1,0.2-0.2,0.4-0.2,0.6c0,0.4,0,0.8,0,1.2
		c0,0.2-0.1,0.4-0.1,0.5c0,0.1-0.1,0.1-0.2,0.2c0-0.1-0.1-0.1-0.1-0.2c0-0.1,0-0.2,0-0.3c0-0.3-0.1-0.6-0.1-0.9
		c-0.1-0.3-0.3-0.4-0.5-0.1c-0.2,0.2-0.3,0.5-0.4,0.8c-0.1,0.4-0.2,0.9-0.3,1.3c-0.1,0.2-0.2,0.4-0.3,0.6c0,0.1-0.2,0.1-0.3,0.1
		c-0.1,0-0.1-0.1-0.1-0.2c0-0.3,0-0.7,0-1c0-0.2,0-0.3,0-0.5c-0.1,0-0.1,0-0.1,0c0,0-0.1,0.1-0.1,0.1c-0.3,0.4-0.6,0.8-0.6,1.3
		c0,0.2,0,0.4-0.1,0.7c-0.1,0.3-0.2,0.4-0.5,0.3c-0.3,0-0.4-0.2-0.5-0.6c0-0.2,0-0.4,0-0.7c-0.3,0.2-0.6,0.3-0.9,0.4
		c-2.8,1.4-5.8,2.3-9,2.6c-2,0.2-4.1,0.2-6.1-0.2C-7.8,41.1-9,40.7-10,40c-0.1-0.1-0.3-0.2-0.4-0.4c1.1,0.6,1.8,0.9,2.8,1.1
		c1.8,0.4,3.7,0.3,5.5,0c3.2-0.5,6.3-1.5,9.2-3.1C9.3,36.5,11.3,35,13,33c0.1-0.1,0.2-0.3,0.4-0.4c-3.3,1.6-7.1-1.4-10.9-0.1
		c5.2-2.7,8.2,0.8,11.1-1.5c0.7-0.6,0.9-2-0.8-1.8c-1.6,0.2,2.4-0.6,3.2-4.8c0-0.7-0.1-1.4-0.3-2.1c-0.7-3.2-2.2-5.9-4.2-8.4
		c-2.1-2.6-4.7-4.5-7.6-6c0,0-0.1,0-0.1,0c0,0,0,0.1,0,0.1c0,0.1,0.1,0.1,0.1,0.2c1.4,2.1,2.6,4.3,3.1,6.7c0.4,1.7,0.4,3.4-0.1,5.1
		c-0.6,1.9-1.8,3.3-3.4,4.4c-1.7,1.3-3.7,2.1-5.8,2.7c-0.4,0.1-0.9,0.2-1.4,0.4c0.1-0.1,0.1-0.1,0.1-0.1c0.1,0,0.2-0.1,0.3-0.1
		c1.4-0.6,2.8-1.2,4.1-2.2c1.8-1.3,3.1-3,3.7-5.2c0.5-1.9,0.4-3.9-0.1-5.8c-0.6-2.5-1.7-4.7-3.1-6.9C1,6.8,0.6,6.5,0,6.3
		C-0.7,6.1-1.3,5.8-2,5.6c2.1,2.2,2.1,5.3,1.7,7.2c0,0,0-0.1,0-0.1c-0.1-1.5-0.6-2.8-1.4-4.1C-3,6.8-4.7,5.5-6.6,4.4
		c-0.1-0.1-0.3-0.1-0.5-0.2C-6.4,5-5.9,5.9-5.5,6.9c0.3,1,0.4,2.5,0.2,3c-0.3-1-0.6-1.7-1.3-2.6c-1.2-1.5-2.6-2.9-4.2-4
		c-1.1-0.7-2.2-1.4-3.4-1.8c-2.2-0.8-4.4-1.3-6.6-1.9c-2-0.5-3.9-1-5.9-1.5c-1.1-0.3-2.1-0.7-3-1.4C-30-3-30.3-1.8-30.3-0.8
		c-0.1,11.6,9.1,17.9,12,21.1c0.8,0.9,1.3,2.1,1.7,3.3c0.2,0.5,0.3,1,0.5,1.5c0,0,0.1-0.1,0.1-0.1c0.8-1.5,1.3-3.1,0.9-4.8
		c-0.6-2.7-1.7-5.1-3.7-7c0,0,0,0-0.1-0.1c0.1,0.1,0.1,0.1,0.2,0.1c1.7,1,3.2,2.1,4.5,3.6c2.2,2.4,3.3,5.3,3.5,8.5
		c0.1,1.4-0.1,2.8-0.3,4.2c-0.4,3.7-3.1,6.7-6.8,7.6c-0.3,0.1-0.6,0.2-0.8,0.3c-0.4,0.2-0.4,0.5-0.3,0.9c0,0.1,0.1,0.3,0.2,0.4
		c0.6,1,1.5,1.8,2.5,2.5c0.5,0.3,1,0.7,1.5,1c2.1,1.5,4.3,2.6,6.7,3.3c1,0.3,2,0.5,3.1,0.4c0.3,0,0.7-0.2,1-0.2
		c0.1,0,0.3,0.1,0.4,0.1c-0.1,0.1-0.1,0.2-0.2,0.3c-0.6,0.4-1.3,0.5-2.1,0.5C-7,46.6-8,46.4-9,46.2c-0.1,0-0.2,0-0.3,0
		c0.8,0.7,1.8,1.2,2.9,1.5c1.7,0.5,3.5,0.6,5.2,0.5c0.6,0,1.1-0.1,1.7-0.4C0.9,47.5,1.5,47.3,2,47c0.1-0.1,0.2-0.1,0.4-0.1
		c0,0,0,0,0.1,0.1c-0.1,0.1-0.1,0.3-0.2,0.4c-0.2,0.4-0.4,0.7-0.6,1.1c0,0.1,0,0.2,0,0.3c0.1,0,0.2,0,0.2,0c0.4-0.1,0.8-0.3,1.2-0.4
		c0.6-0.3,1.1-0.4,1.7-0.4c0.8-0.1,1.7-0.1,2.5-0.3c1.2-0.2,2.1-0.8,2.7-1.9c0.1-0.3,0.3-0.5,0.4-0.7c0.1-0.1,0.1-0.2,0.2-0.2
		c0,0,0.1,0,0.1,0c-0.2,0.6-0.4,1.3-0.6,2c0.6-0.1,1.3-0.6,1.8-1.2c0.3-0.3,0.5-0.6,0.7-0.9c0.1-0.1,0.2-0.2,0.4-0.3
		c0,0,0.1,0,0.1,0.1c-0.1,0.4-0.1,0.9-0.1,1.3c0,0,0.1,0,0.1,0c0.4-0.2,0.8-0.5,1.2-0.7c1.3-0.8,2.6-1.7,3.5-2.9
		c0.1-0.2,0.2-0.1,0.3,0.1c0.1,0.3,0.1,0.5,0.2,0.8c0,0.1,0.1,0.2,0.2,0.2c0.1,0,0.2-0.1,0.2-0.2c0.1-0.2,0.1-0.4,0.1-0.5
		c0-0.4,0-0.7,0.1-1.1c0-0.1,0.1-0.2,0.2-0.3c0.1,0.1,0.2,0.2,0.3,0.3c0.1,0.3,0.3,0.6,0.4,0.9c0.1,0.3,0.2,0.3,0.4,0
		c0.2-0.3,0.5-0.6,1-0.5c0.4,0,0.5,0,0.6-0.4c0.3-0.7,0.5-1.3,0.8-2c0.1-0.3,0.3-0.6,0.5-0.9c0-0.1,0.1-0.2,0.1-0.2
		c-0.6-1.8-0.7-3.6-0.7-5.5c0-1.7,0-3.4,0-5.2c0-1.3-0.3-2.7-1.3-3.7c0.1,0,0.3,0.1,0.4,0.2c0.6,0.3,1.2,0.8,1.6,1.4
		c1,1.2,1.7,2.6,2.3,4.1c0.5,1.2,1,2.4,1.5,3.5c0.1,0.3,0.3,0.5,0.5,0.8c0,0.1,0.2,0.1,0.2,0.1c0.1,0,0.1-0.1,0.2-0.2
		c0-0.2,0-0.4,0-0.6c0-1-0.1-1.9,0-2.9c0-0.1,0.1-0.3,0-0.4c-0.4-1.3-0.8-2.6-1.6-3.7c0,0,0-0.1-0.1-0.2c0.6,0.3,1,0.6,1.3,1.1
		c0.3,0.5,0.6,0.9,0.9,1.4c0.1-0.5,0.3-1,0.4-1.6C28.8,26,28.5,25.4,27.9,25z M28.6,17.3c-1.5-1.4-3.2-2.4-5.1-3.2
		c-2.5-1.1-5.1-1.9-7.8-2.5c-1-0.2-1.9-0.4-2.9-0.6c0.4,0.5,0.8,1,1.1,1.4c0,0,0.1,0.1,0.2,0.1c1.7,0.2,3.3,0.6,4.8,1.2
		c3.6,1.5,6.6,3.7,9.4,6.4c0,0,0,0.1,0.1,0.1c-0.1,0-0.2-0.1-0.2-0.1c-2.3-1.6-4.7-3.1-7.2-4.4c-1.6-0.8-3.2-1.6-5-2
		c-0.4-0.1-0.8-0.2-1.3-0.3c0.1,0.1,0.1,0.2,0.1,0.2c0.5,1,1.2,1.9,1.6,2.9c0.3,0.6,0.7,1.1,1.2,1.5c2,1.5,4.2,2.7,6.4,3.8
		c0,0,0,0,0.1,0c-0.8-1.3-1.7-2.7-3.1-3.4c0.4,0.1,0.8,0.1,1.1,0.2c1.1,0.3,2.1,1,2.9,1.7c1.1,0.9,2.1,1.9,3.2,2.7
		c0.6,0.5,1.2,0.9,1.8,1.2c0.7,0.3,1.4,0.5,2.2,0.7c0.2,0.1,0.4,0.1,0.7,0.1c-0.1-0.5-0.1-0.9-0.3-1.2C32,21.3,30.5,19.1,28.6,17.3z
		 M15.1-2.5c-0.5-0.3-1.1-0.6-1.7-0.8c-1.2-0.4-2.5-0.4-3.7-0.4c-0.9,0-1.8,0-2.7,0c-0.2,0-0.4-0.1-0.7-0.1c0,0,0-0.1,0-0.1
		C6.5-3.9,6.7-4,6.9-4.1c0.6-0.2,1.2-0.3,1.9-0.5c0.1,0,0.2-0.1,0.3-0.2c0,0,0,0,0-0.1C9-4.8,9-4.9,8.9-4.9C7.6-5.1,6.4-5.4,5.1-5.6
		C3-5.9,0.9-6.3-1.1-6.9C-1.3-7-1.5-7-1.7-7c-2.1,0.1-4.1,0.3-6.2,0.4c-2.4,0.2-4.8,0.2-7.2-0.1c-2.7-0.3-5.4-0.9-7.9-1.9
		c-3.7-1.4-7-3.4-10.1-5.8c-0.1,0-0.1-0.1-0.2-0.1c0.1,0,0.2,0.1,0.3,0.1c2.8,1.7,5.8,3.2,8.9,4.4c2.6,1,5.3,1.7,8.1,2.1
		c2,0.3,4,0.3,6.1,0.3c2.3,0,4.5,0,6.8,0c0,0,0.1,0,0.1,0c0,0,0,0,0,0c-0.1,0-0.1,0-0.2-0.1c-2-0.8-4-1.8-5.7-3.1
		c-0.5-0.4-1.1-0.7-1.7-0.9c-0.5-0.2-0.9-0.4-1.4-0.5c-2.5-0.8-5-1.2-7.6-1.6c-2.1-0.4-4.2-0.8-6.3-1.2c-1.9-0.4-3.7-1.1-5.4-2
		c-2.9-1.7-4.6-4.1-5.1-7.5c-0.1-0.5-0.1-1.1-0.2-1.5c-0.1,0.2-0.2,0.4-0.3,0.6c-1.1,1.9-1.9,3.9-2.1,6c-0.3,2.9,0.5,5.5,2.6,7.5
		c0.1,0.1,0.1,0.2,0.2,0.3c0.3,0.6,0.6,1.3,0.9,1.9c1,1.7,2.4,2.9,4.1,4c2.1,1.4,4.5,2.4,6.9,3.2c3.8,1.3,7.7,2.1,11.7,2.9
		C-9.5,1-6.3,1.6-3.1,2.2c2.5,0.5,4.9,1.2,7.2,2.3C7,6,9.7,7.7,12,10c0.1,0.1,0.2,0.1,0.3,0.1c1.5,0,3,0.2,4.5,0.5
		c4.2,0.8,8,2.4,11.5,4.8c0.1,0,0.1,0.1,0.2,0.1c0-0.1,0-0.2,0-0.3c-0.3-1.3-0.7-2.6-1.2-3.8C24.9,5.3,20.8,0.7,15.1-2.5z
		 M48.6-34.2c-0.1-1-0.3-2-0.5-3c-0.3-1.5-1.3-2.5-2.8-3c-0.7-0.2-1.4-0.3-2-0.3c-1.4,0-2.7,0.2-4,0.5c-1.1,0.3-2.2,0.6-3.1,1.3
		c-0.9,0.6-1.6,1.4-1.9,2.5c-0.2,0.7-0.1,1.4,0,2c0,0.3,0.2,0.4,0.4,0.5c2.2,0.9,3.9,2.2,5,4.4c0.1,0.3,0.3,0.4,0.6,0.5
		c1,0.1,2.1,0.1,3-0.4c0.6-0.3,1.2-0.3,1.8,0c0.2,0.1,0.5,0.3,0.7,0.4c0.3,0.2,0.5,0.5,0.8,0.7c0,0,0-0.1,0.1-0.1
		C48.2-29.9,48.9-32,48.6-34.2z M32.5-38.7c0.2-0.1,0.3-0.2,0.5-0.4c1.3-1.2,2.8-2.1,4.4-2.7c1.5-0.6,3-0.8,4.6-0.9
		c1.2-0.1,2.3-0.1,3.5,0.3c0.8,0.2,1.5,0.5,2.3,0.8c0.2,0.1,0.4,0.1,0.5,0c0.2-0.1,0-0.4,0-0.6c0,0,0,0,0,0c-0.5-1-1.2-1.9-2.2-2.6
		c-1.7-1.2-3.7-1.5-5.7-1.2c-0.3,0-0.6,0-0.9-0.2c-0.1-0.1-0.2-0.2-0.3-0.4c0,0,0,0,0.1-0.1c0.1,0,0.1,0,0.2,0c0.4,0,0.8,0.1,1.1,0
		c1.2-0.2,1.8-1.5,1.1-2.4c-0.2-0.3-0.5-0.6-1-0.5c-0.4,0.1-0.7,0.4-0.8,0.8c0,0.1,0,0.2-0.1,0.3c0,0.4-0.1,0.4-0.5,0.4
		c-0.4,0-0.7-0.1-1.1-0.1c-0.5-0.1-0.8,0.1-0.9,0.5c-0.1,0.4-0.1,0.7,0.1,1c0.2,0.3,0.4,0.7,0.6,1c-0.6,0.2-1.2,0.4-1.7,0.7
		c-2.2,1.1-3.6,2.8-4.2,5.2c-0.1,0.2-0.1,0.5-0.1,0.7C32.1-38.6,32.2-38.5,32.5-38.7z M33.7-35.7c0.2-0.5,0.3-1,0.5-1.5
		c0.5-1.1,1.4-1.8,2.4-2.3c2.5-1.1,5.1-1.7,7.8-1.4c1.7,0.1,3,0.8,3.8,2.4c0,0,0,0,0,0c0.5-0.2,0.8-0.6,0.9-1.2
		c0.1-0.5-0.2-0.9-0.6-1.1c-0.5-0.3-1.1-0.6-1.7-0.8c-2.5-0.8-5-0.7-7.5-0.1c-1.9,0.5-3.7,1.3-5.2,2.5c-0.6,0.5-1.2,1-1.5,1.7
		c-0.1,0.2-0.2,0.4-0.2,0.6C32.5-36.2,33.1-35.7,33.7-35.7z M-45.5-23c-2,3.5-3.1,7.3-3.1,7.8c0,1.8,0.1,3.6,0.4,5.4
		c0.1,0.4,0.1,0.8,0.2,1.2c0.1-0.1,0.1-0.2,0.1-0.2c0.3-1,0.6-2,0.9-3c1.8-5.1,4.5-9.7,7.9-13.9c0.1-0.2,0.2-0.3,0.3-0.5
		c0.7-2.3,1.8-4.3,3.1-6.2c-1.5,0.6-3.2,0.9-5.3,3.3c2.5-4.9,8.5-6.8,8.5-6.8c3.3-3,7.2-5,11.5-6.1c0.3-0.1,0.7-0.2,1-0.3
		c-0.1,0.1-0.2,0.1-0.2,0.1c-3.2,1.1-6.1,2.7-8.8,4.8c-3.3,2.6-5.8,5.8-7.3,9.8c-0.2,0.4-0.2,0.8-0.1,1.3c0.1,0.3,0.2,0.6,0.3,0.9
		c0.7,2.3,1.8,4.4,3.6,6.1c1.7,1.6,3.7,2.6,6,3.2c2.7,0.8,5.4,1.1,8.1,1.4c1.6,0.2,3.2,0.5,4.7,0.7c0.4,0.1,0.8,0.2,1.3,0.3
		c0-0.1,0-0.1-0.1-0.1c-1.2-1.4-2.3-2.9-3.1-4.6c0-0.1-0.2-0.2-0.3-0.2c-0.7-0.2-1.5-0.5-2.2-0.7c-1.1-0.2-2.2-0.3-3.4-0.5
		c-5.9-1.2-7.8-4.4-7.8-4.3c1.8,1.9,4.7,2.5,5.5,2.7c1.8,0.6,3.6,0.8,5.5,0.8c0.5,0,1.1,0,1.7-0.1c-1.7-5.5-1.5-10.8,0.8-16
		c0,0.1,0,0.2,0,0.3c-0.9,3.4-1.2,6.8-0.7,10.3c0.6,4.2,2.4,7.8,5.5,10.8c2.3,2.2,5,3.8,7.9,5.1c2.8,1.2,5.6,2,8.6,2.7
		c2.2,0.5,4.4,1,6.6,1.7c2.9,0.9,5.5,2.2,7.8,4.3c0.3,0.3,0.7,0.6,1,1c1.9,2.4,4.2,4.4,7,5.6c0.2,0.6,0.5,1.2,1,1.9
		c0.7,0.9,1.5,1.7,2.5,2.4c0.3,0.2,0.6,0.3,0.9,0.4c0.4,0.1,0.6-0.1,0.7-0.4c0-0.1,0.1-0.2,0.1-0.3c0.2-0.1,0.4-0.2,0.6-0.3
		c0.1-0.1,0.2-0.2,0.4-0.3c0.5-0.5,0.9-1.1,1.2-1.8c0.1-0.1,0.2-0.2,0.3-0.2c0.4,0,0.7-0.1,1-0.2C42.2,5,46.3,0.7,47-5.5
		c0.1-0.6,0.1-1.1,0.2-1.7c0.2-0.7,0.6-1.3,0.9-1.9c0.3-0.6,0.5-1.1,0.8-1.7c0.2-0.6,0.3-1.2,0.1-1.8c-0.1-0.2-0.2-0.3-0.3-0.2
		c-0.2,0.1-0.4,0.3-0.7,0.5c-0.3,0.2-0.5,0.4-0.8,0.6c-0.2,0.1-0.5,0.1-0.7-0.1c0,0,0.1-0.1,0.1-0.1c0.6-0.5,1.2-1,1.7-1.6
		c0.1-0.1,0.1-0.2,0.1-0.3c-0.1-0.8-0.3-1.6-0.9-2.1c-0.7-0.8-1.6-1.2-2.7-0.9c0-0.4-0.1-0.5-0.3-0.6c-1.5-0.8-3.1-1.3-4.9-1.3
		c-1.3,0-2.4-0.4-3.5-1c-0.3-0.2-0.7-0.4-1.1-0.5c-1.2-0.3-2.4-0.4-3.6-0.4c-0.1,0-0.2,0-0.3,0c0.1-0.1,0.1-0.1,0.2-0.1
		c1-0.2,2-0.3,3-0.2c0.3,0,0.7,0.1,1,0c0.8-0.3,1.6-0.7,2.4-1.1c0.2-0.1,0.4-0.2,0.6-0.1c0.5,0.2,1,0.4,1.5,0.6
		c1,0.5,2.1,0.7,3.3,0.6c0.6-0.1,1.2-0.2,1.8-0.6c0.4-0.2,0.6-0.5,0.7-1c0-0.1,0.1-0.1,0.1-0.2c0.1-0.1,0.3-0.3,0.5-0.4
		c0.4-0.4,0.6-0.9,0.6-1.5c0-0.5-0.2-0.6-0.6-0.4c-0.2,0.1-0.4,0.2-0.6,0c0.3-0.2,0.6-0.3,0.8-0.5c0.4-0.3,0.5-0.7,0.5-1.1
		c0-1.3-1.6-2.4-2.9-2.1c-0.4,0.1-0.8,0.3-1.1,0.7c0,0.1-0.1,0.1-0.2,0.1c-0.3,0-0.7,0-1-0.1c-0.6-0.1-1.2-0.3-1.8-0.2
		c-0.3,0.1-0.6,0.1-0.9,0.2c-0.2-0.8-0.6-1.5-1.1-2.2c-1.2-1.5-2.7-2.5-4.5-3c-2.3-0.8-4.7-0.8-7.1-0.5c-3.5,0.5-5.9,2.4-7.2,5.6
		c-0.3,0.8-0.5,1.7-0.7,2.5c-0.4,1.4-0.9,2.7-1.6,3.9c-1.1,2-2.6,3.6-4.7,4.7c-2.3,1.2-4.7,1.4-7.2,1C4-16,3.6-16.1,3-16.2
		c0.9-0.1,1.8-0.1,2.6-0.2c2.3-0.2,4.5-0.9,6.5-2.2c2.4-1.5,4.1-3.5,4.9-6.3c0.4-1.5,1-2.9,1.6-4.3c0.5-0.9,1-1.8,1.7-2.6
		c1.2-1.3,2.7-2,4.3-2.4c0.5-0.1,1-0.3,1.5-0.5c0.2-0.1,0.4-0.3,0.5-0.5c0.3-0.7,0.4-1.4,0.2-2.2c-0.2-1.2-0.8-2.2-1.6-3.1
		c-0.7-0.8-1.5-1.3-2.3-1.9c-0.4-0.3-0.8-0.6-1.2-0.9c-0.3-0.3-0.5-0.6-0.5-1.1c0-0.8,0.1-0.9,0.8-0.6c0.1,0,0.2,0.1,0.4,0.1
		c0.6,0.3,1.2,0.5,1.9,0.8c1.2,0.5,2.4,0.7,3.7,0.4c1.4-0.3,2.4-1.2,2.9-2.6c0.1-0.3,0.1-0.6,0-0.9c-0.1-0.1-0.3-0.3-0.4-0.3
		c-0.1,0-0.3,0.1-0.4,0.3C30-47,30-46.8,30-46.7c-0.1,0.5-0.4,1-0.9,1.3c-0.1,0.1-0.2,0.1-0.3,0.1c0.7-0.7,1.1-1.6,1.1-2.6
		c0-0.8-0.6-1.3-1.4-1.2c-0.2,0-0.4,0.1-0.4,0.3c0,0.3,0,0.5,0,0.8c0,0.3,0,0.6,0,1c-0.1,0.5-0.4,0.8-0.9,1c-0.2,0.1-0.5,0-0.7-0.1
		c0.3-0.1,0.6-0.2,0.8-0.5c0.2-0.3,0.3-0.6,0.4-0.9c0.2-0.7,0.1-1.3-0.5-1.7c-0.3-0.2-0.6-0.3-1-0.3c-0.7-0.1-1.4,0.1-2.1,0.3
		C23.5-49.1,23-49,22.6-49c-0.4,0-0.8-0.1-1.2-0.2c-2.4-0.4-4.8-0.3-7.3-0.2c-2.7,0-5.3,0-8,0c-4.8,0-9.5,0-14.3,0c-2,0-3.9,0-5.9,0
		c-2.7,0-5.4,0.3-8,1c-10,2.6-17.5,8-22.4,17.1c-2.2,4-3.4,8.3-3.9,12.8C-48.4-18-45.5-23.5-45.5-23z"/>
	<path class="st2" d="M32.7,0.6c-0.8,1.8-0.8,2.5,0.1,4.2c0.7,1.3,2.6,0.1,2.3,1.6C35,7.7,33.7,9,33.5,9.3C33.2,9.7,33,10,32.6,9.9
		c-0.4-0.1-0.8-0.3-1.1-0.5c-1.1-0.8-2.2-1.8-3-2.9c-1.5-2.1-0.9-3.3,0.9-4.9C30.1,0.8,32.8,0.4,32.7,0.6z"/>
	<path class="st7" d="M31,7.4c0.4,0.5,1.1,1,1.9,1.4c0.4,0.3-0.8-2.9-1.1-3.7c-1.1-2.7,0.3-4.4-0.1-4.2C30.9,1.4,29.7,3,29.6,4
		C29.5,5.1,30.3,6.6,31,7.4z"/>
	<g>
		<path class="st36" d="M32.4,0.8c-0.8,1.8-0.8,2.5,0.1,4.2c0.7,1.3,1,2.6,0.8,4c0,0.2-0.1,0.3-0.1,0.5c-0.1,0.4-0.4,0.6-0.8,0.5
			c-0.4-0.1-0.8-0.2-1.1-0.5c-1.1-0.8-2.2-1.8-3-2.9C26.9,5.1,27,4,27.9,2.8c0.3-0.3,0.4-0.3,0.7-0.4c0.4-0.1,0.5,0.5,0.4,0.8
			c-0.3,0.6-0.5,1.1-0.6,1.5c-0.1,1.1,0.5,2.2,1.2,3c0.7,0.7,2.1,1.9,3,2.2c0.2-0.9-0.3-2.6-0.6-3.5c-0.4-1-1.5-2.9-1.2-4.1
			c0,0,0.4-1.1,0.8-1.4C32.2,0.6,32.4,0.8,32.4,0.8z"/>
	</g>
	
		<linearGradient id="SVGID_00000076594591795124505050000008564350015694773666_" gradientUnits="userSpaceOnUse" x1="58562.9102" y1="-16.265" x2="58562.9102" y2="-16.265" gradientTransform="matrix(-1 0 0 1 58590.8086 50.955)">
		<stop  offset="0" style="stop-color:#E65271"/>
		<stop  offset="0.3836" style="stop-color:#FAA100"/>
	</linearGradient>
	<path style="fill:url(#SVGID_00000076594591795124505050000008564350015694773666_);" d="M27.9,34.7"/>
	<g class="st4">
		<path class="st39" d="M-18.6-19.9c-0.1,0-0.2,0-0.3,0.1C-18.8-19.8-18.7-19.8-18.6-19.9z"/>
	</g>
	<path class="st3" d="M33.1-34.9c1,1.5,2.1,2,3.3,3.2c1.2,1.1,2.1,2.5,3.3,3.5c0.9-0.2,2,0,2.9-0.1c0.7-1.7,4-0.1,4.3,1l0.4-0.7
		c0.9-1.9-2.5-2-4.4-1.8c-1.4,0.1-7.2-1.4-7-9c-0.7-1-2.2,0-2.2-1.3c0-1.4,0-3.7,1.2-4.6c-0.3-1.2-1.5,0.1-1.8,0.5
		c-0.7,1.1-1.7,2.9-2,4.2C30.7-37.7,32-36.5,33.1-34.9z"/>
</symbol>
<g transform="matrix(0.609758, 0, 0, 0.573533, -690.608643, 73.553665)">
	<path class="st40" d="M1873.9,377.4h-667.5c-40.6,0-73.8-35.3-73.8-78.5V-49.8c0-43.2,33.2-78.5,73.8-78.5h667.5
		c40.6,0,73.8,35.3,73.8,78.5v348.7C1947.7,342.1,1914.5,377.4,1873.9,377.4z"/>
	<g>
		
			<use xlink:href="#New_Symbol_3"  width="100.9" height="101.9" x="-50.5" y="-51" transform="matrix(3.5035 0 0 -3.5035 1366.512 116.7934)" style="overflow:visible;"/>
	</g>
	<g>
		<path class="st41" d="M1565.3,192.1h67.4v16.2h-48.8V237h46v15.6h-46v44h-18.6L1565.3,192.1L1565.3,192.1z"/>
		<path class="st41" d="M1649.2,185.1h17.7v111.5h-17.7V185.1z"/>
		<path class="st41" d="M1686.2,201.7c0-2.9,1.1-5.3,3.2-7.4c2.1-2.1,4.8-3.2,8-3.2c3.2,0,6,1,8.2,3c2.2,2,3.3,4.5,3.3,7.6
			c0,3-1.1,5.6-3.3,7.6c-2.2,2-4.9,3-8.2,3s-5.9-1.1-8-3.2C1687.3,207.1,1686.2,204.6,1686.2,201.7z M1688.8,225.8h17.7v70.8h-17.7
			V225.8z"/>
		<path class="st41" d="M1728,225.8h16.8v11.4h0.3c1.6-3.5,4.3-6.7,8.2-9.4c3.9-2.7,8.5-4.1,13.8-4.1c4.6,0,8.6,0.8,11.9,2.4
			c3.3,1.6,6,3.8,8.1,6.4c2.1,2.7,3.7,5.7,4.6,9.1c1,3.4,1.5,7,1.5,10.6v44.2h-17.7v-39.2c0-2.1-0.1-4.2-0.4-6.5
			c-0.3-2.3-0.9-4.3-1.9-6.1c-1-1.8-2.3-3.3-4.1-4.5c-1.7-1.2-4-1.8-6.9-1.8c-2.9,0-5.3,0.6-7.4,1.7c-2.1,1.1-3.8,2.6-5.1,4.4
			c-1.3,1.8-2.3,3.8-3,6.1c-0.7,2.3-1,4.6-1,7v38.9H1728L1728,225.8L1728,225.8L1728,225.8z"/>
		<path class="st41" d="M1814.1,185.1h17.7v70.5h0.4l26.8-29.8h22.7l-30.7,32l32.6,38.8h-23.5l-28-36.3h-0.4v36.3h-17.7
			L1814.1,185.1L1814.1,185.1z"/>
	</g>
</g>
</svg>
