<?xml version="1.0" encoding="utf-8"?>
<!-- Generator: Adobe Illustrator 27.9.0, SVG Export Plug-In . SVG Version: 6.00 Build 0)  -->
<svg version="1.1" id="Layer_2_00000150794164989664918530000016802948061849297038_"
	 xmlns="http://www.w3.org/2000/svg" xmlns:xlink="http://www.w3.org/1999/xlink" x="0px" y="0px" viewBox="0 0 112.7 50.3"
	 style="enable-background:new 0 0 112.7 50.3;" xml:space="preserve">
<style type="text/css">
	.st0{fill:#FFFFFF;stroke:#000000;stroke-width:0.1;stroke-miterlimit:10;}
	.st1{fill:#5F6368;}
	.st2{fill:#4285F4;}
	.st3{fill:#EA4335;}
	.st4{fill:#FBBC04;}
	.st5{fill:#34A853;}
</style>
<path class="st0" d="M12.1,0.2h88.4c6.6,0,12,5.4,12,12v26c0,6.6-5.4,12-12,12H12.1c-6.6,0-12-5.4-12-12v-26
	C0.1,5.6,5.5,0.2,12.1,0.2z"/>
<g>
	<g id="_294x96_00000050646840666354286690000015755503420309315219_">
		<path class="st1" d="M71,29.9c-1.7,0-3.2-0.6-4.4-1.8c-1.2-1.2-1.7-2.6-1.7-4.4c0-1.7,0.6-3.2,1.7-4.4c1.2-1.2,2.6-1.8,4.4-1.8
			c1.8,0,3.2,0.6,4.3,1.9l-1.1,1c-0.8-1-2-1.5-3.2-1.5c-1.2,0-2.4,0.4-3.3,1.3c-0.9,0.9-1.3,2-1.3,3.4c0,1.4,0.4,2.5,1.3,3.4
			c0.9,0.9,2,1.3,3.3,1.3c1.4,0,2.5-0.6,3.6-1.7l1.1,1.1c-0.6,0.7-1.3,1.2-2,1.5C72.8,29.7,71.9,29.9,71,29.9z M78.1,17.9v11.7h-1.5
			V17.9H78.1z M79.2,25.6c0-1.2,0.4-2.3,1.2-3.1c0.8-0.8,1.8-1.2,3-1.2c1.1,0,2.2,0.4,2.9,1.2c0.8,0.8,1.2,1.8,1.2,3.1
			c0,1.2-0.4,2.3-1.2,3.1c-0.8,0.8-1.8,1.2-2.9,1.2c-1.1,0-2.2-0.4-3-1.2C79.6,27.8,79.2,26.8,79.2,25.6z M80.7,25.6
			c0,0.9,0.3,1.6,0.8,2.1c1,1,2.6,1.1,3.6,0.1c0,0,0.1-0.1,0.1-0.1c0.5-0.5,0.8-1.2,0.8-2.1c0-0.9-0.3-1.6-0.8-2.1
			c-0.9-1-2.6-1.1-3.6-0.2c-0.1,0-0.1,0.1-0.2,0.2C81,24,80.7,24.7,80.7,25.6z M95.6,29.6h-1.4v-1.1h-0.1c-0.3,0.4-0.6,0.8-1.1,1
			c-0.5,0.3-1,0.4-1.5,0.4c-1,0-1.7-0.3-2.3-0.8c-0.5-0.6-0.8-1.4-0.8-2.4v-5H90v4.9c0,1.3,0.7,2,2,2c0.6,0,1.1-0.3,1.5-0.7
			c0.4-0.5,0.6-1.1,0.6-1.7v-4.4h1.5L95.6,29.6z M100.5,29.9c-1,0-2-0.5-2.7-1.2c-0.7-0.8-1.1-1.9-1.1-3c0-1.1,0.4-2.2,1.1-3
			c0.7-0.8,1.7-1.2,2.7-1.2c0.6,0,1.1,0.1,1.6,0.4c0.5,0.2,0.8,0.6,1.1,1h0.1l-0.1-1.1v-3.7h1.5v11.7h-1.4v-1.1h-0.1
			c-0.3,0.4-0.7,0.8-1.1,1C101.6,29.7,101,29.9,100.5,29.9L100.5,29.9z M100.7,28.5c0.7,0,1.4-0.3,1.8-0.8c0.5-0.5,0.7-1.2,0.7-2.1
			c0-0.8-0.2-1.5-0.7-2.1c-0.5-0.5-1.1-0.8-1.8-0.8c-0.7,0-1.4,0.3-1.8,0.8c-0.5,0.6-0.8,1.3-0.7,2.1c0,0.9,0.2,1.5,0.7,2.1
			C99.3,28.2,100,28.5,100.7,28.5L100.7,28.5z"/>
		<path class="st2" d="M14.7,29.9c-3.7,0-6.7-3-6.7-6.6s3.1-6.6,6.7-6.6c1.7,0,3.3,0.6,4.5,1.8L18,19.7c-0.9-0.8-2-1.3-3.3-1.3
			c-2.6,0-4.7,2.1-4.7,4.8c0,0,0,0,0,0.1c0,2.6,2.1,4.8,4.7,4.8c0,0,0,0,0.1,0c1.7,0,2.7-0.7,3.3-1.3c0.5-0.5,0.9-1.3,1-2.3h-4.4
			v-1.8h6.1c0.1,0.4,0.1,0.8,0.1,1.1c0,1.4-0.4,3-1.6,4.2C18.2,29.2,16.7,29.9,14.7,29.9z"/>
		<path class="st3" d="M30.1,25.6c0,2.4-1.9,4.3-4.3,4.3s-4.3-1.9-4.3-4.3c0-2.4,1.9-4.3,4.3-4.3S30.1,23.2,30.1,25.6L30.1,25.6z
			 M28.2,25.6c0-1.5-1.1-2.6-2.4-2.6s-2.4,1-2.4,2.6c0,1.5,1.1,2.6,2.4,2.6S28.2,27.1,28.2,25.6z"/>
		<path class="st4" d="M39.4,25.6c0,2.4-1.9,4.3-4.3,4.3c-2.4,0-4.3-1.9-4.3-4.3s1.9-4.3,4.3-4.3C37.5,21.3,39.4,23.2,39.4,25.6z
			 M37.5,25.6c0-1.5-1.1-2.6-2.4-2.6c-1.3,0-2.4,1-2.4,2.6c0,1.5,1.1,2.6,2.4,2.6C36.4,28.2,37.5,27.1,37.5,25.6z"/>
		<path class="st2" d="M48.3,21.6v7.7c0,3.2-1.9,4.4-4.1,4.4c-1.7,0-3.2-1-3.8-2.5l1.6-0.7c0.3,0.7,1,1.5,2.1,1.5
			c1.4,0,2.3-0.9,2.3-2.5v-0.6h-0.1c-0.6,0.6-1.4,1-2.2,1c-2.1,0-4.1-1.9-4.1-4.3s2-4.3,4.1-4.3c0.9,0,1.7,0.3,2.2,1h0.1v-0.7H48.3z
			 M46.6,25.6c0-1.5-1-2.6-2.3-2.6c-1.3,0-2.4,1.1-2.4,2.6s1.1,2.6,2.4,2.6C45.7,28.2,46.6,27.1,46.6,25.6L46.6,25.6z"/>
		<path class="st5" d="M51.5,17.1v12.5h-1.9V17.1H51.5z"/>
		<path class="st3" d="M58.8,27l1.5,1c-0.8,1.2-2.1,1.9-3.6,1.9c-2.4,0-4.2-1.9-4.2-4.3c0-2.5,1.8-4.3,4-4.3s3.3,1.8,3.6,2.7
			l0.2,0.5l-5.7,2.4c0.4,0.9,1.1,1.3,2.1,1.3C57.6,28.2,58.3,27.7,58.8,27z M54.3,25.5l3.8-1.6c-0.2-0.5-0.8-0.9-1.6-0.9
			C55.2,23,54.2,24.1,54.3,25.5C54.3,25.4,54.3,25.5,54.3,25.5z"/>
	</g>
</g>
</svg>
