<?xml version="1.0" encoding="utf-8"?>
<!-- Generator: Adobe Illustrator 27.9.0, SVG Export Plug-In . SVG Version: 6.00 Build 0)  -->
<svg version="1.1" id="Layer_2_00000025409204102716839700000007188190934644404881_"
	 xmlns="http://www.w3.org/2000/svg" xmlns:xlink="http://www.w3.org/1999/xlink" x="0px" y="0px" viewBox="0 0 496 251.4"
	 style="enable-background:new 0 0 496 251.4;" xml:space="preserve">
<style type="text/css">
	.st0{fill-rule:evenodd;clip-rule:evenodd;fill:none;stroke:#000000;stroke-width:0.5;stroke-miterlimit:10;}
	.st1{fill:#FFB567;}
	.st2{fill:#351D36;}
</style>
<path class="st0" d="M-0.1,41.5L-0.1,41.5C0,18.3,18.8-0.4,41.9-0.4h411.9c23.2,0,41.9,18.7,41.9,41.9l0,0v167.7
	c0,23.1-18.7,41.9-41.9,41.9h-412c-23.1,0.1-42-18.5-42.1-41.7v-0.2L-0.1,41.5z"/>
<g>
	<path class="st1" d="M171.9,121.2c-10.1-1.4-18.2-9.4-19.6-19.6l-2.1-15.3h-0.7l-14.7-2c-10.1-1.4-18.2-9.4-19.6-19.6l-2-15.3h-4.1
		L107,64.8c-1.4,10.1-9.4,18.2-19.6,19.6l-14.7,2h-0.6l-2.1,15.3c-1.4,10.1-9.4,18.2-19.6,19.6l-15.3,2.1v4.1l15.3,2.1
		c10.1,1.4,18.2,9.4,19.6,19.6l2.1,15.3h0.3l14.8,2.1c10.1,1.4,18.2,9.4,19.6,19.6l2.1,15.3h4.1l2.1-15.3
		c1.4-10.1,9.4-18.2,19.6-19.6l14.8-2.1h0.4l2.1-15.3c1.4-10.1,9.4-18.2,19.6-19.6l15.3-2.1v-4.1L171.9,121.2z M134.9,92.7l10.5-1.5
		l-1.5,10.4c-1.4,10.1-9.4,18.2-19.6,19.6l-10.5,1.5l1.5-10.4C116.7,102.1,124.8,94.1,134.9,92.7z M107,112.2l1.5,10.4L98,121.1
		c-10.1-1.4-18.2-9.4-19.6-19.6l-1.5-10.4l10.5,1.5C97.5,94.1,105.6,102.1,107,112.2z M87.4,158l-10.5,1.5l1.5-10.4
		C79.8,139,87.8,131,98,129.6l10.5-1.5l-1.5,10.4C105.6,148.6,97.5,156.6,87.4,158z M115.3,138.5l-1.5-10.4l10.5,1.5
		c10.1,1.4,18.2,9.4,19.6,19.6l1.5,10.4l-10.5-1.5C124.8,156.6,116.7,148.6,115.3,138.5z"/>
	<path class="st2" d="M270,96.4c9.6,0,18.2,4.3,20.6,14h21.3c-2.1-20-19.1-33-41.3-33c-28.6,0-47.4,20.1-47.4,48.1
		c0,28.4,18.2,47.4,44.1,47.4c11,0,21.1-3.9,26.1-9.7l1.1,8.4h17.4v-53.2h-43.6v17.8h24.5c-0.9,9.6-7.7,17.9-22.9,17.9
		c-14.7,0-25.3-9.3-25.3-27.9C244.5,108.1,253.2,96.4,270,96.4z"/>
	<path class="st2" d="M366.8,108.9c-2.7-0.6-5.1-0.9-7.4-0.9c-8.4,0-13.9,4.1-16.6,10.2l-1-9.3h-18.1v62.5H343v-27.2
		c0-12.4,6.6-17.3,17.7-17.3h6.1v-18H366.8z"/>
	<path class="st2" d="M390.5,173.1c9.4,0,17.7-4.1,19.6-9.9l1.2,8.3h17v-36.5c0-17.9-10.2-28-28.4-28c-17.9,0-29.6,9.3-29.6,23.4
		h16.1c0-5.6,4.4-8.8,12.5-8.8c6.9,0,10.6,3.3,10.6,9.4v1l-17.5,1.3c-15,1.1-23.1,8.3-23.1,19.7
		C368.9,165.3,377.2,173.1,390.5,173.1z M397.2,158.9c-5.9,0-8.6-2.1-8.6-6.6c0-4,3-5.9,11.4-6.6l9.7-0.9v3.4
		C409.7,155.2,404.6,158.9,397.2,158.9z"/>
	<path class="st2" d="M449.2,99.1c6,0,10.9-4.9,10.9-11s-4.9-10.9-10.9-10.9c-6.1,0-11,4.8-11,10.9
		C438.3,94.2,443.1,99.1,449.2,99.1z M439.7,171.4H459v-62.6h-19.3V171.4z"/>
</g>
</svg>
