<?xml version="1.0" encoding="utf-8"?>
<!-- Generator: Adobe Illustrator 27.5.0, SVG Export Plug-In . SVG Version: 6.00 Build 0)  -->
<svg version="1.1" id="Layer_2_00000031901914225487965990000002041577859532328874_"
	 xmlns="http://www.w3.org/2000/svg" xmlns:xlink="http://www.w3.org/1999/xlink" x="0px" y="0px" viewBox="0 0 118.5 55.7"
	 style="enable-background:new 0 0 118.5 55.7;" xml:space="preserve">
<style type="text/css">
	.st0{fill:#FFFFFF;stroke:#000000;stroke-width:0.25;stroke-miterlimit:10;}
	.st1{fill:#3CA0FF;}
</style>
<path class="st0" d="M12-0.1h94.4c6.6,0,12,5.4,12,12.1v31.6c0,6.6-5.4,12.1-12,12.1H12c-6.6,0-12-5.4-12-12.1V12
	C0,5.4,5.4-0.1,12-0.1z"/>
<g>
	<g id="Page-1_00000070095288141326470900000008310967913639096238_">
		<path id="logo_white-copy_00000128453228881665092040000018033388913339408044_" class="st1" d="M110,25.5
			c0.9,0.9,1.3,2.1,1.3,3.7V35c0,0.7-0.6,1.3-1.3,1.3c-0.8,0-1.3-0.5-1.3-1.1v-0.5c-0.8,1-2,1.7-3.8,1.7c-2.2,0-4.2-1.3-4.2-3.7v0
			c0-2.6,2-3.8,4.9-3.8c1.3,0,2.2,0.2,3.2,0.5v-0.3c0-1.7-1-2.6-2.9-2.6c-1,0-1.9,0.2-2.6,0.5c-0.2,0-0.3,0.1-0.4,0.1
			c-0.6,0-1.1-0.5-1.1-1.1c0-0.5,0.3-0.9,0.7-1.1c1.1-0.4,2.2-0.7,3.8-0.7C107.8,24.1,109.1,24.6,110,25.5z M108.7,31.9v-0.8
			c-0.7-0.3-1.6-0.5-2.7-0.5c-1.7,0-2.8,0.7-2.8,2v0c0,1.1,1,1.8,2.3,1.8C107.3,34.4,108.7,33.4,108.7,31.9z M97.8,19.6
			c0.8,0,1.4,0.6,1.4,1.4v14c0,0.8-0.6,1.4-1.4,1.4c-0.7,0-1.3-0.6-1.3-1.4V21C96.5,20.2,97.1,19.6,97.8,19.6z M88.7,24
			c3.6,0,6.3,2.8,6.3,6.2v0c0,3.4-2.7,6.2-6.3,6.2c-3.6,0-6.2-2.8-6.2-6.1v0C82.4,26.9,85.1,24,88.7,24z M92.2,30.3L92.2,30.3
			c0-2.1-1.5-3.9-3.6-3.9c-2.2,0-3.5,1.7-3.5,3.8v0c0,2.1,1.5,3.8,3.6,3.8C90.9,34.1,92.2,32.4,92.2,30.3z M75.4,24
			c3.6,0,6.3,2.8,6.3,6.2v0c0,3.4-2.7,6.2-6.3,6.2c-3.6,0-6.2-2.8-6.2-6.1v0C69.1,26.9,71.8,24,75.4,24z M78.9,30.3L78.9,30.3
			c0-2.1-1.5-3.9-3.6-3.9c-2.2,0-3.5,1.7-3.5,3.8v0c0,2.1,1.5,3.8,3.6,3.8C77.6,34.1,78.9,32.4,78.9,30.3z M62.8,24
			c2.8,0,5.5,2.2,5.5,6.2v0c0,3.9-2.7,6.2-5.5,6.2c-2,0-3.2-1-4-2.1v0.6c0,0.7-0.6,1.4-1.4,1.4c-0.7,0-1.3-0.6-1.3-1.4V21
			c0-0.8,0.6-1.4,1.3-1.4c0.8,0,1.4,0.6,1.4,1.4v5.3C59.7,25,60.9,24,62.8,24z M65.6,30.3L65.6,30.3c0-2.3-1.5-3.9-3.4-3.9
			c-1.8,0-3.4,1.5-3.4,3.8v0c0,2.3,1.6,3.8,3.4,3.8C64,34.1,65.6,32.6,65.6,30.3z M49.1,24c3.7,0,5.6,3.1,5.6,5.9
			c0,0.8-0.6,1.3-1.3,1.3h-7.4c0.3,1.9,1.6,3,3.4,3c1.1,0,2-0.4,2.8-1c0.2-0.2,0.4-0.2,0.7-0.2c0.6,0,1.1,0.5,1.1,1.1
			c0,0.3-0.2,0.6-0.4,0.8c-1.1,1-2.4,1.6-4.2,1.6c-3.4,0-6-2.5-6-6.2v0C43.4,26.8,45.8,24,49.1,24z M46.1,29.4h6
			c-0.2-1.8-1.2-3.1-3-3.1C47.5,26.3,46.3,27.6,46.1,29.4z M37.7,27.4l5.3,6.6c0.2,0.3,0.4,0.6,0.4,1c0,0.8-0.6,1.4-1.4,1.4
			c-0.5,0-0.9-0.3-1.2-0.7l-5-6.5l-2.5,2.5v3.3c0,0.8-0.6,1.4-1.4,1.4c-0.8,0-1.4-0.6-1.4-1.4V21.7c0-0.8,0.6-1.4,1.4-1.4
			c0.8,0,1.4,0.6,1.4,1.4v6.7l7.4-7.5c0.3-0.3,0.6-0.5,1.1-0.5c0.8,0,1.3,0.6,1.3,1.3c0,0.4-0.2,0.7-0.5,1L37.7,27.4z M15.2,31.3
			c-3.6,0-6.4-4.4-6.4-10c0-5.6,2.3-6.4,6.4-6.4s6.2,0.8,6.2,6.4C21.4,26.9,18.5,31.3,15.2,31.3z M22.5,36.4
			c0.3,0.5,0.1,1.1-0.4,1.4C21.9,38,21.7,38,21.5,38c-0.4,0-0.7-0.2-0.9-0.5c-0.3-0.6-0.7-1-1.1-1.3c-0.4-0.4-0.8-0.7-1.4-1.1
			c-0.3-0.2-0.5-0.3-0.7-0.5c0,0.1,0.1,0.1,0.1,0.2c0.7,1.4,1.5,3.2,1.5,5.4c0,0.6-0.5,1-1.1,1c-0.6,0-1.1-0.5-1.1-1
			c0-1.6-0.6-3.2-1.2-4.4c-0.2-0.4-0.4-0.7-0.6-1c-0.2,0.3-0.4,0.6-0.6,0.9c-0.6,1.2-1.2,2.8-1.2,4.4c0,0.6-0.5,1-1.1,1
			c-0.6,0-1.1-0.5-1.1-1c0-2.1,0.7-4,1.5-5.4c0-0.1,0.1-0.1,0.1-0.2c-0.2,0.1-0.5,0.3-0.7,0.5c-0.5,0.4-1,0.7-1.4,1.1
			c-0.4,0.4-0.7,0.8-1.1,1.3c-0.3,0.5-0.9,0.7-1.5,0.4c-0.5-0.3-0.7-0.9-0.4-1.4c0.4-0.7,0.9-1.3,1.5-1.8c0.5-0.5,1-0.9,1.5-1.2
			c0.2-0.2,0.5-0.3,0.7-0.5c-0.2-0.1-0.5-0.3-0.7-0.5c-1.1-0.9-2.1-2-3-3.4c-0.3-0.5-0.1-1.1,0.4-1.4c0.5-0.3,1.2-0.1,1.5,0.4
			c0.7,1.2,1.6,2.2,2.4,2.8c0.9,0.7,1.9,1,2.8,1.1c0.1,0,0.2,0,0.3,0c0.1,0,0.2,0,0.3,0c1-0.1,1.9-0.4,2.8-1.1
			c0.9-0.7,1.7-1.6,2.4-2.8c0.3-0.5,0.9-0.7,1.5-0.4c0.5,0.3,0.7,0.9,0.4,1.4c-0.8,1.4-1.8,2.6-3,3.4c-0.2,0.2-0.5,0.3-0.7,0.5
			c0.2,0.1,0.5,0.3,0.7,0.5c0.5,0.4,1,0.7,1.5,1.2C21.5,35.1,22,35.7,22.5,36.4z M13.7,27.7c-0.6,0-1.1,0.5-1.1,1c0,0.6,0.5,1,1.1,1
			c0.6,0,1.1-0.5,1.1-1C14.8,28.2,14.3,27.7,13.7,27.7z M16.5,27.7c-0.6,0-1.1,0.5-1.1,1c0,0.6,0.5,1,1.1,1c0.6,0,1.1-0.5,1.1-1
			C17.6,28.2,17.1,27.7,16.5,27.7z"/>
	</g>
</g>
</svg>
