<?xml version="1.0" encoding="UTF-8"?><svg id="Layer_2" xmlns="http://www.w3.org/2000/svg" viewBox="0 0 496.25 234.01"><defs><style>.cls-1{fill:#3ca0ff;}.cls-2{fill:#fff;stroke:#000;stroke-miterlimit:10;stroke-width:.25px;}</style></defs><path class="cls-2" d="m50.4.12h395.46c27.65,0,50.27,22.62,50.27,50.69v132.38c0,27.65-22.62,50.69-50.27,50.69H50.4C22.75,233.88.12,211.26.12,183.19V50.81C.12,23.17,22.75.12,50.4.12Z"/><g id="Page-1"><path id="logo_white-copy" class="cls-1" d="m460.94,107.37c3.77,3.77,5.45,8.8,5.45,15.5v24.3c0,2.93-2.51,5.45-5.45,5.45-3.35,0-5.45-2.09-5.45-4.61v-2.09c-3.35,4.19-8.38,7.12-15.92,7.12-9.22,0-17.59-5.45-17.59-15.5h0c0-10.89,8.38-15.92,20.53-15.92,5.45,0,9.22.84,13.41,2.09v-1.26c0-7.12-4.19-10.89-12.15-10.89-4.19,0-7.96.84-10.89,2.09-.84,0-1.26.42-1.68.42-2.51,0-4.61-2.09-4.61-4.61,0-2.09,1.26-3.77,2.93-4.61,4.61-1.68,9.22-2.93,15.92-2.93,6.28-.42,11.73,1.68,15.5,5.45Zm-5.45,26.81v-3.35c-2.93-1.26-6.7-2.09-11.31-2.09-7.12,0-11.73,2.93-11.73,8.38h0c0,4.61,4.19,7.54,9.64,7.54,7.54,0,13.41-4.19,13.41-10.47Zm-45.66-51.53c3.35,0,5.86,2.51,5.86,5.86v58.65c0,3.35-2.51,5.86-5.86,5.86-2.93,0-5.45-2.51-5.45-5.86v-58.65c0-3.35,2.51-5.86,5.45-5.86Zm-38.12,18.43c15.08,0,26.39,11.73,26.39,25.97h0c0,14.24-11.31,25.97-26.39,25.97s-25.97-11.73-25.97-25.55h0c-.42-14.24,10.89-26.39,25.97-26.39Zm14.66,26.39h0c0-8.8-6.28-16.34-15.08-16.34s-14.66,7.12-14.66,15.92h0c0,8.8,6.28,15.92,15.08,15.92,9.22.42,14.66-6.7,14.66-15.5Zm-70.38-26.39c15.08,0,26.39,11.73,26.39,25.97h0c0,14.24-11.31,25.97-26.39,25.97s-25.97-11.73-25.97-25.55h0c-.42-14.24,10.89-26.39,25.97-26.39Zm14.66,26.39h0c0-8.8-6.28-16.34-15.08-16.34s-14.66,7.12-14.66,15.92h0c0,8.8,6.28,15.92,15.08,15.92,9.22.42,14.66-6.7,14.66-15.5Zm-67.45-26.39c11.73,0,23.04,9.22,23.04,25.97h0c0,16.34-11.31,25.97-23.04,25.97-8.38,0-13.41-4.19-16.76-8.8v2.51c0,2.93-2.51,5.86-5.86,5.86-2.93,0-5.45-2.51-5.45-5.86v-58.23c0-3.35,2.51-5.86,5.45-5.86,3.35,0,5.86,2.51,5.86,5.86v22.2c3.77-5.45,8.8-9.64,16.76-9.64Zm11.73,26.39h0c0-9.64-6.28-16.34-14.24-16.34-7.54,0-14.24,6.28-14.24,15.92h0c0,9.64,6.7,15.92,14.24,15.92,7.54.42,14.24-5.86,14.24-15.5Zm-69.12-26.39c15.5,0,23.46,12.99,23.46,24.72,0,3.35-2.51,5.45-5.45,5.45h-31c1.26,7.96,6.7,12.57,14.24,12.57,4.61,0,8.38-1.68,11.73-4.19.84-.84,1.68-.84,2.93-.84,2.51,0,4.61,2.09,4.61,4.61,0,1.26-.84,2.51-1.68,3.35-4.61,4.19-10.05,6.7-17.59,6.7-14.24,0-25.14-10.47-25.14-25.97h0c0-14.66,10.05-26.39,23.88-26.39Zm-12.57,22.62h25.14c-.84-7.54-5.03-12.99-12.57-12.99-6.7,0-11.73,5.45-12.57,12.99Zm-35.19-8.38l22.2,27.65c.84,1.26,1.68,2.51,1.68,4.19,0,3.35-2.51,5.86-5.86,5.86-2.09,0-3.77-1.26-5.03-2.93l-20.95-27.23-10.47,10.47v13.82c0,3.35-2.51,5.86-5.86,5.86s-5.86-2.51-5.86-5.86v-55.72c0-3.35,2.51-5.86,5.86-5.86s5.86,2.51,5.86,5.86v28.07l31-31.42c1.26-1.26,2.51-2.09,4.61-2.09,3.35,0,5.45,2.51,5.45,5.45,0,1.68-.84,2.93-2.09,4.19l-20.53,19.69Zm-94.26,16.34c-15.08,0-26.81-18.43-26.81-41.89s9.64-26.81,26.81-26.81,25.97,3.35,25.97,26.81c0,23.46-12.15,41.89-25.97,41.89Zm30.58,21.36c1.26,2.09.42,4.61-1.68,5.86-.84.84-1.68.84-2.51.84-1.68,0-2.93-.84-3.77-2.09-1.26-2.51-2.93-4.19-4.61-5.45-1.68-1.68-3.35-2.93-5.86-4.61-1.26-.84-2.09-1.26-2.93-2.09,0,.42.42.42.42.84,2.93,5.86,6.28,13.41,6.28,22.62,0,2.51-2.09,4.19-4.61,4.19s-4.61-2.09-4.61-4.19c0-6.7-2.51-13.41-5.03-18.43-.84-1.68-1.68-2.93-2.51-4.19-.84,1.26-1.68,2.51-2.51,3.77-2.51,5.03-5.03,11.73-5.03,18.43,0,2.51-2.09,4.19-4.61,4.19s-4.61-2.09-4.61-4.19c0-8.8,2.93-16.76,6.28-22.62,0-.42.42-.42.42-.84-.84.42-2.09,1.26-2.93,2.09-2.09,1.68-4.19,2.93-5.86,4.61-1.68,1.68-2.93,3.35-4.61,5.45-1.26,2.09-3.77,2.93-6.28,1.68-2.09-1.26-2.93-3.77-1.68-5.86,1.68-2.93,3.77-5.45,6.28-7.54,2.09-2.09,4.19-3.77,6.28-5.03.84-.84,2.09-1.26,2.93-2.09-.84-.42-2.09-1.26-2.93-2.09-4.61-3.77-8.8-8.38-12.57-14.24-1.26-2.09-.42-4.61,1.68-5.86,2.09-1.26,5.03-.42,6.28,1.68,2.93,5.03,6.7,9.22,10.05,11.73,3.77,2.93,7.96,4.19,11.73,4.61h2.51c4.19-.42,7.96-1.68,11.73-4.61s7.12-6.7,10.05-11.73c1.26-2.09,3.77-2.93,6.28-1.68,2.09,1.26,2.93,3.77,1.68,5.86-3.35,5.86-7.54,10.89-12.57,14.24-.84.84-2.09,1.26-2.93,2.09.84.42,2.09,1.26,2.93,2.09,2.09,1.68,4.19,2.93,6.28,5.03,2.93,2.09,5.03,4.61,7.12,7.54Zm-36.86-36.45c-2.51,0-4.61,2.09-4.61,4.19,0,2.51,2.09,4.19,4.61,4.19s4.61-2.09,4.61-4.19-2.09-4.19-4.61-4.19Zm11.73,0c-2.51,0-4.61,2.09-4.61,4.19,0,2.51,2.09,4.19,4.61,4.19s4.61-2.09,4.61-4.19-2.09-4.19-4.61-4.19Z"/></g></svg>