<?xml version="1.0" encoding="utf-8"?>
<!-- Generator: Adobe Illustrator 27.7.0, SVG Export Plug-In . SVG Version: 6.00 Build 0)  -->
<svg version="1.1" id="Layer_2_00000031901914225487965990000002041577859532328874_"
	 xmlns="http://www.w3.org/2000/svg" xmlns:xlink="http://www.w3.org/1999/xlink" x="0px" y="0px" viewBox="0 0 496.2 234"
	 style="enable-background:new 0 0 496.2 234;" xml:space="preserve">
<style type="text/css">
	.st0{fill:#FFFFFF;stroke:#000000;stroke-width:0.25;stroke-miterlimit:10;}
	.st1{fill:#3CA0FF;}
</style>
<path class="st0" d="M50.4,0.1h395.5c27.6,0,50.3,22.6,50.3,50.7v132.4c0,27.6-22.6,50.7-50.3,50.7H50.4
	c-27.6,0-50.3-22.6-50.3-50.7V50.8C0.1,23.2,22.7,0.1,50.4,0.1z"/>
<g>
	<g id="Page-1_00000070095288141326470900000008310967913639096238_">
		<path id="logo_white-copy_00000128453228881665092040000018033388913339408044_" class="st1" d="M460.9,107.4
			c3.8,3.8,5.4,8.8,5.4,15.5v24.3c0,2.9-2.5,5.4-5.4,5.4c-3.4,0-5.4-2.1-5.4-4.6v-2.1c-3.4,4.2-8.4,7.1-15.9,7.1
			c-9.2,0-17.6-5.4-17.6-15.5l0,0c0-10.9,8.4-15.9,20.5-15.9c5.4,0,9.2,0.8,13.4,2.1v-1.3c0-7.1-4.2-10.9-12.1-10.9
			c-4.2,0-8,0.8-10.9,2.1c-0.8,0-1.3,0.4-1.7,0.4c-2.5,0-4.6-2.1-4.6-4.6c0-2.1,1.3-3.8,2.9-4.6c4.6-1.7,9.2-2.9,15.9-2.9
			C451.7,101.5,457.2,103.6,460.9,107.4z M455.5,134.2v-3.4c-2.9-1.3-6.7-2.1-11.3-2.1c-7.1,0-11.7,2.9-11.7,8.4l0,0
			c0,4.6,4.2,7.5,9.6,7.5C449.6,144.7,455.5,140.5,455.5,134.2z M409.8,82.7c3.4,0,5.9,2.5,5.9,5.9v58.6c0,3.4-2.5,5.9-5.9,5.9
			c-2.9,0-5.4-2.5-5.4-5.9V88.5C404.4,85.2,406.9,82.7,409.8,82.7z M371.7,101.1c15.1,0,26.4,11.7,26.4,26l0,0
			c0,14.2-11.3,26-26.4,26c-15.1,0-26-11.7-26-25.6l0,0C345.3,113.2,356.6,101.1,371.7,101.1z M386.4,127.5L386.4,127.5
			c0-8.8-6.3-16.3-15.1-16.3c-9.2,0-14.7,7.1-14.7,15.9l0,0c0,8.8,6.3,15.9,15.1,15.9C380.9,143.4,386.4,136.3,386.4,127.5z
			 M316,101.1c15.1,0,26.4,11.7,26.4,26l0,0c0,14.2-11.3,26-26.4,26c-15.1,0-26-11.7-26-25.6l0,0C289.6,113.2,300.9,101.1,316,101.1
			z M330.7,127.5L330.7,127.5c0-8.8-6.3-16.3-15.1-16.3c-9.2,0-14.7,7.1-14.7,15.9l0,0c0,8.8,6.3,15.9,15.1,15.9
			C325.2,143.4,330.7,136.3,330.7,127.5z M263.2,101.1c11.7,0,23,9.2,23,26l0,0c0,16.3-11.3,26-23,26c-8.4,0-13.4-4.2-16.8-8.8v2.5
			c0,2.9-2.5,5.9-5.9,5.9c-2.9,0-5.4-2.5-5.4-5.9V88.5c0-3.4,2.5-5.9,5.4-5.9c3.4,0,5.9,2.5,5.9,5.9v22.2
			C250.2,105.3,255.2,101.1,263.2,101.1z M274.9,127.5L274.9,127.5c0-9.6-6.3-16.3-14.2-16.3c-7.5,0-14.2,6.3-14.2,15.9l0,0
			c0,9.6,6.7,15.9,14.2,15.9C268.2,143.4,274.9,137.1,274.9,127.5z M205.8,101.1c15.5,0,23.5,13,23.5,24.7c0,3.4-2.5,5.4-5.4,5.4
			h-31c1.3,8,6.7,12.6,14.2,12.6c4.6,0,8.4-1.7,11.7-4.2c0.8-0.8,1.7-0.8,2.9-0.8c2.5,0,4.6,2.1,4.6,4.6c0,1.3-0.8,2.5-1.7,3.4
			c-4.6,4.2-10.1,6.7-17.6,6.7c-14.2,0-25.1-10.5-25.1-26l0,0C181.9,112.8,192,101.1,205.8,101.1z M193.2,123.7h25.1
			c-0.8-7.5-5-13-12.6-13C199.1,110.7,194.1,116.2,193.2,123.7z M158.1,115.3l22.2,27.6c0.8,1.3,1.7,2.5,1.7,4.2
			c0,3.4-2.5,5.9-5.9,5.9c-2.1,0-3.8-1.3-5-2.9l-20.9-27.2l-10.5,10.5v13.8c0,3.4-2.5,5.9-5.9,5.9s-5.9-2.5-5.9-5.9V91.4
			c0-3.4,2.5-5.9,5.9-5.9s5.9,2.5,5.9,5.9v28.1l31-31.4c1.3-1.3,2.5-2.1,4.6-2.1c3.4,0,5.4,2.5,5.4,5.4c0,1.7-0.8,2.9-2.1,4.2
			L158.1,115.3z M63.8,131.7c-15.1,0-26.8-18.4-26.8-41.9S46.6,63,63.8,63s26,3.4,26,26.8C89.8,113.2,77.6,131.7,63.8,131.7z
			 M94.4,153c1.3,2.1,0.4,4.6-1.7,5.9c-0.8,0.8-1.7,0.8-2.5,0.8c-1.7,0-2.9-0.8-3.8-2.1c-1.3-2.5-2.9-4.2-4.6-5.4
			c-1.7-1.7-3.4-2.9-5.9-4.6c-1.3-0.8-2.1-1.3-2.9-2.1c0,0.4,0.4,0.4,0.4,0.8c2.9,5.9,6.3,13.4,6.3,22.6c0,2.5-2.1,4.2-4.6,4.2
			c-2.5,0-4.6-2.1-4.6-4.2c0-6.7-2.5-13.4-5-18.4c-0.8-1.7-1.7-2.9-2.5-4.2c-0.8,1.3-1.7,2.5-2.5,3.8c-2.5,5-5,11.7-5,18.4
			c0,2.5-2.1,4.2-4.6,4.2s-4.6-2.1-4.6-4.2c0-8.8,2.9-16.8,6.3-22.6c0-0.4,0.4-0.4,0.4-0.8c-0.8,0.4-2.1,1.3-2.9,2.1
			c-2.1,1.7-4.2,2.9-5.9,4.6c-1.7,1.7-2.9,3.4-4.6,5.4c-1.3,2.1-3.8,2.9-6.3,1.7c-2.1-1.3-2.9-3.8-1.7-5.9c1.7-2.9,3.8-5.4,6.3-7.5
			c2.1-2.1,4.2-3.8,6.3-5c0.8-0.8,2.1-1.3,2.9-2.1c-0.8-0.4-2.1-1.3-2.9-2.1c-4.6-3.8-8.8-8.4-12.6-14.2c-1.3-2.1-0.4-4.6,1.7-5.9
			s5-0.4,6.3,1.7c2.9,5,6.7,9.2,10.1,11.7c3.8,2.9,8,4.2,11.7,4.6c0.4,0,0.8,0,1.3,0c0.4,0,0.8,0,1.3,0c4.2-0.4,8-1.7,11.7-4.6
			c3.8-2.9,7.1-6.7,10.1-11.7c1.3-2.1,3.8-2.9,6.3-1.7c2.1,1.3,2.9,3.8,1.7,5.9c-3.4,5.9-7.5,10.9-12.6,14.2
			c-0.8,0.8-2.1,1.3-2.9,2.1c0.8,0.4,2.1,1.3,2.9,2.1c2.1,1.7,4.2,2.9,6.3,5C90.2,147.6,92.3,150.1,94.4,153z M57.5,116.6
			c-2.5,0-4.6,2.1-4.6,4.2c0,2.5,2.1,4.2,4.6,4.2s4.6-2.1,4.6-4.2S60,116.6,57.5,116.6z M69.2,116.6c-2.5,0-4.6,2.1-4.6,4.2
			c0,2.5,2.1,4.2,4.6,4.2c2.5,0,4.6-2.1,4.6-4.2S71.8,116.6,69.2,116.6z"/>
	</g>
</g>
</svg>
