<?xml version="1.0" encoding="utf-8"?>
<!-- Generator: Adobe Illustrator 27.5.0, SVG Export Plug-In . SVG Version: 6.00 Build 0)  -->
<svg version="1.1" id="Layer_2_00000124876029545678511740000003778376765079464383_"
	 xmlns="http://www.w3.org/2000/svg" xmlns:xlink="http://www.w3.org/1999/xlink" x="0px" y="0px" viewBox="0 0 1056.2 576"
	 style="enable-background:new 0 0 1056.2 576;" xml:space="preserve">
<style type="text/css">
	.st0{fill:#FCFCFC;stroke:#231F20;stroke-miterlimit:10;}
	.st1{fill:url(#SVGID_1_);}
	.st2{fill:url(#SVGID_00000072280710639027121090000005040668713180795537_);}
</style>
<path class="st0" d="M967,576.5H89.2C40.1,576.5,0,536.4,0,487.3V89.7C0,40.6,40.1,0.5,89.2,0.5H967c49,0,89.2,40.1,89.2,89.2v397.7
	C1056.2,536.4,1016.1,576.5,967,576.5z"/>
<g>
	<g>
		
			<linearGradient id="SVGID_1_" gradientUnits="userSpaceOnUse" x1="108.7249" y1="129.8267" x2="98.0063" y2="395.3929" gradientTransform="matrix(1 0 0 -1 132.1 558)">
			<stop  offset="0" style="stop-color:#2B6CCE"/>
			<stop  offset="0.3299" style="stop-color:#3C87F4"/>
			<stop  offset="1" style="stop-color:#05E1D0"/>
		</linearGradient>
		<path class="st1" d="M276.3,189.8c-23-23-60-23-83.1,0L102,281.1l0.9,0.2c38.8,12.6,72.2,36.3,97,67.3l22.8-7.1l12.2,64.9
			l12.2-64.9l23.5,7.3c24.8-31,58.5-54.9,97.2-67.6l0,0L276.3,189.8z"/>
		<g>
			<path d="M541.2,240.3c17.9,0,29.9,13.5,29.9,32.8v54h-17.5v-49.6c0-13.7-6-21.5-16.4-21.5c-11.3,0-19.9,10.2-19.9,24.8v46.3
				h-17.1v-49.6c0-13.7-6-21.5-16.6-21.5c-11.3,0-19.9,10.2-19.9,24.8v46.3h-17.5v-85.1h12.4l3.1,10.9c6.4-8,15.9-12.8,26.4-12.8
				c11.5,0,20.6,5.8,25.5,14.8C519.7,245.8,530.1,240.3,541.2,240.3L541.2,240.3z"/>
			<path d="M675.4,242.1v84.8h-14l-1.8-10.4c-7.8,7.8-18.4,12.4-30.8,12.4c-25.2,0-44.1-19-44.1-44.5c0-25.5,18.8-44.5,44.1-44.5
				c12.4,0,23.3,4.7,31,12.6l2-10.6h13.5V242.1z M657.9,284.6c0-15.9-11.7-27.9-27.7-27.9c-15.9,0-27.7,12-27.7,27.9
				c0,15.9,11.7,27.9,27.7,27.9C646.2,312.5,657.9,300.5,657.9,284.6z"/>
			<path d="M741.2,240.3c19.9,0,32.1,14.8,32.1,35.7v51.2h-17.5v-47.6c0-15.5-6.6-23.5-19.5-23.5c-13.3,0-22.8,10.6-22.8,25.7v45.4
				H696v-85.1h12.2l3.3,11.7C718.2,245.4,728.8,240.3,741.2,240.3L741.2,240.3z"/>
			<path d="M840,311.2v15.7h-13.1c-18.6,0-30.1-11.5-30.1-30.1v-39.6h-15.1v-3.3l29.5-31.5h2.9v19.7h25.2v14.8h-25v38.3
				c0,10.2,5.5,15.7,15.9,15.7h9.7V311.2z"/>
			<path d="M936.3,242.1v84.8h-14l-1.8-10.4c-7.8,7.8-18.4,12.4-30.8,12.4c-25.2,0-44.1-19-44.1-44.5c0-25.5,18.8-44.5,44.1-44.5
				c12.4,0,23.3,4.7,31,12.6l2-10.6h13.5V242.1z M918.8,284.6c0-15.9-11.7-27.9-27.7-27.9c-15.9,0-27.7,12-27.7,27.9
				c0,15.9,11.7,27.9,27.7,27.9C907.1,312.5,918.8,300.5,918.8,284.6z"/>
		</g>
	</g>
	<g>
		
			<linearGradient id="SVGID_00000009584067201619236260000004472044669320015759_" gradientUnits="userSpaceOnUse" x1="109.3842" y1="131.9509" x2="98.6654" y2="397.517" gradientTransform="matrix(1 0 0 -1 132.1 558)">
			<stop  offset="0" style="stop-color:#2B6CCE"/>
			<stop  offset="0.3299" style="stop-color:#3C87F4"/>
			<stop  offset="1" style="stop-color:#05E1D0"/>
		</linearGradient>
		<path style="fill:url(#SVGID_00000009584067201619236260000004472044669320015759_);" d="M277,187.8c-23-23-60-23-83.1,0
			l-91.3,91.3l0.9,0.2c38.8,12.6,72.2,36.3,97,67.3l22.8-7.1l12.2,64.9l12.2-64.9l23.5,7.3c24.8-31,58.5-54.9,97.2-67.6l0,0
			L277,187.8z"/>
		<g>
			<path d="M542.1,238.1c17.9,0,29.9,13.5,29.9,32.8v54h-17.5v-49.6c0-13.7-6-21.5-16.4-21.5c-11.3,0-19.9,10.2-19.9,24.8v46.3
				h-17.1v-49.6c0-13.7-6-21.5-16.6-21.5c-11.3,0-19.9,10.2-19.9,24.8v46.3h-17.5v-84.8h12.4l3.1,10.9c6.4-8,15.9-12.8,26.4-12.8
				c11.5,0,20.6,5.8,25.5,14.8C520.4,243.8,530.8,238.1,542.1,238.1L542.1,238.1z"/>
			<path d="M676.1,240.1v84.8h-14l-1.8-10.4c-7.8,7.8-18.4,12.4-30.8,12.4c-25.2,0-44.1-19-44.1-44.5s18.8-44.5,44.1-44.5
				c12.4,0,23.3,4.7,31,12.6l2-10.6h13.5V240.1z M658.6,282.4c0-15.9-11.7-27.9-27.7-27.9c-15.9,0-27.7,12-27.7,27.9
				c0,15.9,11.7,27.9,27.7,27.9C646.9,310.3,658.6,298.3,658.6,282.4z"/>
			<path d="M741.9,238.1c19.9,0,32.1,14.8,32.1,35.7v51.2h-17.5v-47.6c0-15.5-6.6-23.5-19.5-23.5c-13.3,0-22.8,10.6-22.8,25.7v45.4
				h-17.1v-84.8h12.2l3.3,11.7C719.1,243.4,729.5,238.1,741.9,238.1L741.9,238.1z"/>
			<path d="M840.7,309v15.7h-13.1c-18.6,0-30.1-11.5-30.1-30.1v-39.6h-15.1v-3.3l29.5-31.5h2.9v19.7H840v14.8h-25V293
				c0,10.2,5.5,15.7,15.9,15.7h9.7V309z"/>
			<path d="M937,240.1v84.8h-14l-1.8-10.4c-7.8,7.8-18.4,12.4-30.8,12.4c-25.2,0-44.1-19-44.1-44.5s18.8-44.5,44.1-44.5
				c12.4,0,23.3,4.7,31,12.6l2-10.6H937V240.1z M919.7,282.4c0-15.9-11.7-27.9-27.7-27.9c-15.9,0-27.7,12-27.7,27.9
				c0,15.9,11.7,27.9,27.7,27.9C908,310.3,919.7,298.3,919.7,282.4z"/>
		</g>
	</g>
</g>
</svg>
