<?xml version="1.0" encoding="utf-8"?>
<!-- Generator: Adobe Illustrator 26.3.1, SVG Export Plug-In . SVG Version: 6.00 Build 0)  -->
<svg version="1.1" id="Layer_2_00000124876029545678511740000003778376765079464383_"
	 xmlns="http://www.w3.org/2000/svg" xmlns:xlink="http://www.w3.org/1999/xlink" x="0px" y="0px" viewBox="0 0 1056.2 576"
	 style="enable-background:new 0 0 1056.2 576;" xml:space="preserve">
<style type="text/css">
	.st0{fill:#FCFCFC;stroke:#231F20;stroke-miterlimit:10;}
	.st1{fill:url(#SVGID_1_);}
	.st2{fill:#7B2927;}
</style>
<path class="st0" d="M967,576H89.2C40.1,576,0,535.9,0,486.8V89.2C0,40.1,40.1,0,89.2,0H967c49,0,89.2,40.1,89.2,89.2v397.7
	C1056.2,535.9,1016.1,576,967,576z"/>
<g id="Layer_2-2">
	<g id="Layer_1-2">
		<g>
			<g>
				
					<linearGradient id="SVGID_1_" gradientUnits="userSpaceOnUse" x1="456.4349" y1="137.8926" x2="495.7849" y2="-90.8574" gradientTransform="matrix(1 0 0 -1 0 229)">
					<stop  offset="0" style="stop-color:#FFFFFF"/>
					<stop  offset="1" style="stop-color:#616365"/>
				</linearGradient>
				<path class="st1" d="M450.9,127.3c0,0-36.5,17.4-89.5,59c-42.1,33.1-84.4,38.9-113.7,33.8c-29.3-5.1-20.3,0.9-7.4,9.2
					S304.3,264,365.7,260c77.4-5,138.8-48.9,179.4-73.7s87.5-52.6,139.8-62c38.8-7,31.7-8.1,2-5.6c-52.5,4.4-107.7,27.9-149.7,48.9
					C435.3,218.9,450.9,127.3,450.9,127.3L450.9,127.3L450.9,127.3z"/>
				<path class="st2" d="M327.4,120.1c0,0,2.3,19.8,14.6,34.1c12.8,14.9,27.6,17.1,27.6,17.1s-24.3,20.5-47.1,31.1
					c-28.5,13.3-60.2,14-76.9,11.6c-16.7-2.4-15.6-2.4,1.3-10c21.4-9.6,38.1-24.5,50.8-49.5C310.4,129.5,322.2,122,327.4,120.1
					L327.4,120.1z"/>
			</g>
			<g>
				<path class="st2" d="M227.9,342.2h13.4l42.5,63.7l42.5-63.7h13.4V459h-13.2v-94.5l-42.5,62.5h-0.6l-42.6-62.4v94.4h-12.8
					L227.9,342.2L227.9,342.2L227.9,342.2z"/>
				<path class="st2" d="M413.3,341.4h12.3L478.8,459h-14.1L451,428.1h-63.5L373.6,459h-13.5L413.3,341.4L413.3,341.4L413.3,341.4z
					 M445.9,416.1l-26.5-59.4l-26.7,59.4H445.9L445.9,416.1z"/>
				<path class="st2" d="M499.4,342.2h12.3l73.6,93.6v-93.6h12.8V459h-10.5l-75.4-95.7V459h-12.8L499.4,342.2L499.4,342.2
					L499.4,342.2z"/>
				<path class="st2" d="M659.5,354.4h-39.2v-12.2H712v12.2h-39.2V459h-13.4L659.5,354.4L659.5,354.4z"/>
				<path class="st2" d="M762.4,341.4h12.3L827.9,459h-14.2l-13.7-30.8h-63.5L722.7,459h-13.5L762.4,341.4L762.4,341.4L762.4,341.4z
					 M794.9,416.1l-26.5-59.4l-26.7,59.4H794.9L794.9,416.1z"/>
			</g>
		</g>
	</g>
</g>
</svg>
