<?xml version="1.0" encoding="utf-8"?>
<!-- Generator: Adobe Illustrator 27.7.0, SVG Export Plug-In . SVG Version: 6.00 Build 0)  -->
<svg version="1.1" id="Layer_2_00000124876029545678511740000003778376765079464383_"
	 xmlns="http://www.w3.org/2000/svg" xmlns:xlink="http://www.w3.org/1999/xlink" x="0px" y="0px" viewBox="0 0 1056.2 576"
	 style="enable-background:new 0 0 1056.2 576;" xml:space="preserve">
<style type="text/css">
	.st0{fill:#EAE4FC;stroke:#231F20;stroke-miterlimit:10;}
	.st1{fill-rule:evenodd;clip-rule:evenodd;fill:#292636;}
	.st2{fill:#041189;}
	.st3{fill:url(#SVGID_1_);}
	.st4{fill:#5B1D9F;}
	.st5{fill:url(#SVGID_00000152233945454481869200000017471187736293213600_);}
	.st6{fill:url(#SVGID_00000157994434413778782060000016814673967629163449_);}
</style>
<path class="st0" d="M965.9,577H88.1C39,577-1.1,536.9-1.1,487.8V90.2C-1.1,41.1,39,1,88.1,1h877.8c49,0,89.2,40.1,89.2,89.2v397.7
	C1055.1,536.9,1015,577,965.9,577z"/>
<g>
	<path class="st1" d="M411.4,286.8v44.4h-21.2v-41.5c0-8.1-4.4-12.5-10.9-12.5c-6.9,0-11.6,5-11.6,13.4v40.9h-21.2v-41.9
		c0-8.1-4.4-12.5-10.6-12.5c-6.9,0-11.9,5-11.9,13.4v40.9h-21.2v-69.7l20.6-2.5v8.4c4.7-5.6,11.6-9.1,19.7-9.1
		c8.7,0,15.6,3.7,19.7,10.3c5-6.6,13.1-10.3,22.8-10.3C402,258.7,411.4,270,411.4,286.8z"/>
	<path class="st1" d="M441,290.6l34.4-11.2c-2.8-5-8.1-8.1-14.7-8.1C450.1,271.2,442.3,279.3,441,290.6z M487.9,302.8l5.9,15.6
		c-8.4,7.2-20,11.9-32.2,11.9c-22.5,0-39.4-16.2-39.4-37.2s16.2-37.5,38.1-37.5c18.4,0,33.7,12.2,35.6,33.4l-51.8,16.6
		c3.4,5.3,9.7,8.4,17.5,8.4C470.1,314,478.8,310.9,487.9,302.8z"/>
	<path class="st1" d="M533.5,274.6v26.5c0,6.2,3.1,9.7,9.4,9.7c2.8,0,6.6-0.9,9.1-1.9v17.8c-3.4,1.6-8.4,2.5-14.1,2.5
		c-16.9,0-25.3-10-25.3-25.6v-29h-10.9l2.5-17.2h8.4v-13.1l21.2-10.6v23.7h18.4v17.2H533.5z"/>
	<path class="st1" d="M603.1,304.6c0-6.2-5-10.9-11.9-10.9c-6.6,0-11.6,4.7-11.6,10.9s5,10.9,11.6,10.9
		C598.1,315.6,603.1,310.9,603.1,304.6z M604.4,328.1l-0.6-4.7c-4.7,4.1-10.9,6.6-18.1,6.6c-14.7,0-26.5-10.9-26.5-25
		s11.2-25,27.2-25c5.9,0,11.2,1.9,16.2,5v-2.5c0-7.8-3.7-11.9-15.3-11.9c-5.6,0-11.2,0.9-16.9,2.8l2.5-15.3
		c6.6-1.6,12.5-2.5,18.4-2.5c20,0,31.2,8.4,31.2,25.3v34l0.6,12.8h-18.7V328.1z"/>
	<path class="st1" d="M695,292.8c0-10.6-8.1-19.1-18.7-19.1c-10.6,0-18.7,8.4-18.7,19.1c0,10.9,8.1,19.4,18.7,19.4
		C686.8,312.1,695,303.7,695,292.8z M715.3,292.8c0,20.9-15.9,37.2-35,37.2c-8.4,0-15.9-3.1-21.2-8.7v40.9h-21.2V258.7l19.1-2.2
		v10.3c5.3-6.9,13.4-10.9,23.1-10.9C699.3,255.6,715.3,271.8,715.3,292.8z"/>
	<path class="st1" d="M796.2,285v43.1h-21.2v-40.6c0-8.7-5-13.7-12.5-13.7c-7.8,0-13.4,5.6-13.4,14.4v40h-21.2V218.4l21.2-2.5v48.7
		c5-5.6,12.2-9.1,20.9-9.1C786.2,255.6,796.2,267.1,796.2,285z"/>
	<path class="st1" d="M864.9,292.8c0-10.9-8.1-19.1-18.7-19.1c-10.6,0-19.1,8.1-19.1,19.1c0,10.9,8.1,19.4,19.1,19.4
		C856.7,312.1,864.9,303.7,864.9,292.8z M807.1,292.8c0-20.9,17.2-37.5,39-37.5c21.9,0,39,16.2,39,37.5c0,20.9-16.9,37.2-39,37.2
		C824.3,330.2,807.1,313.7,807.1,292.8z"/>
	<path class="st1" d="M939.8,256.2v19.1c-13.7,0-21.6,6.2-21.6,20.6v32.5H897v-69.7l20-2.5v11.9
		C921.4,260.3,928.6,256.2,939.8,256.2z"/>
	<path class="st2" d="M116.5,226.9c0-7.2,5.9-12.8,13.1-12.8c7.2,0,13.1,5.6,13.1,12.8v112.8c0,7.2-5.9,12.8-13.1,12.8
		c-7.2,0-13.1-5.6-13.1-12.8C116.5,339.6,116.5,226.9,116.5,226.9z"/>
	
		<linearGradient id="SVGID_1_" gradientUnits="userSpaceOnUse" x1="-13.6425" y1="759.2184" x2="119.2867" y2="889.727" gradientTransform="matrix(1 0 0 1 132.1 -542)">
		<stop  offset="0" style="stop-color:#281692"/>
		<stop  offset="1" style="stop-color:#451A9A"/>
	</linearGradient>
	<path class="st3" d="M119.3,234c-3.7-4.4-3.7-10.9,0-15c5-6.2,14.4-6.9,20-1.2l110.3,110.9c5.3,5.3,5.6,13.7,0.9,19.7
		c-5.3,5.3-13.7,5-18.7,0l-56.5-57.2L143.7,260L119.3,234z"/>
	<path class="st4" d="M240.8,325.6c7.8,0,14.1,5.9,14.1,13.4c0,7.5-6.2,13.4-14.1,13.4h-55h-56.2c-6.2,0-11.9-4.4-12.8-10.6
		c-1.2-7.8,4.7-14.7,12.8-14.7L240.8,325.6z"/>
	
		<linearGradient id="SVGID_00000181080279426262007550000011988654528720776888_" gradientUnits="userSpaceOnUse" x1="121.7731" y1="761.7256" x2="-14.8107" y2="889.2444" gradientTransform="matrix(1 0 0 1 132.1 -542)">
		<stop  offset="0" style="stop-color:#A027B3"/>
		<stop  offset="1" style="stop-color:#521B9D"/>
	</linearGradient>
	<path style="fill:url(#SVGID_00000181080279426262007550000011988654528720776888_);" d="M232.4,217.8c4.4-4.4,11.6-5.3,16.9-1.6
		c2.2,1.6,4.1,3.7,5,6.2c1.9,5,0.6,10.6-3.1,14.4L139.3,348.7c-5.6,5.6-15,5-20-1.2c-4.4-5.3-3.7-13.1,0.9-17.8L232.4,217.8z"/>
	
		<linearGradient id="SVGID_00000003794591097895156100000012953460124966985876_" gradientUnits="userSpaceOnUse" x1="109.6586" y1="756.051" x2="109.6586" y2="894.6401" gradientTransform="matrix(1 0 0 1 132.1 -542)">
		<stop  offset="0" style="stop-color:#9E26B1"/>
		<stop  offset="1" style="stop-color:#DF4FF5"/>
	</linearGradient>
	<path style="fill:url(#SVGID_00000003794591097895156100000012953460124966985876_);" d="M228.6,226.9c0-7.2,5.9-12.8,13.1-12.8
		c7.2,0,13.1,5.6,13.1,12.8v112.8c0,7.2-5.9,12.8-13.1,12.8c-7.2,0-13.1-5.6-13.1-12.8V226.9z"/>
</g>
</svg>
