<?xml version="1.0" encoding="utf-8"?>
<svg width="496" height="270" viewBox="0 0 496 270" fill="none" xmlns="http://www.w3.org/2000/svg">
<rect width="496" height="270" rx="40" fill="#7048E8"/>
<ellipse cx="82.2227" cy="135.231" rx="55.2227" ry="55.2308" fill="white"/>
<path d="M47.5029 106.155C47.5029 102.482 50.4802 99.5051 54.1529 99.5051V99.5051C57.8256 99.5051 60.8029 102.482 60.8029 106.155V163.471C60.8029 167.143 57.8256 170.121 54.1529 170.121V170.121C50.4802 170.121 47.5029 167.143 47.5029 163.471V106.155Z" fill="#041189"/>
<path d="M49.0551 109.751C47.0687 107.589 47.0341 104.255 48.9751 102.05V102.05V102.05C51.4727 98.8512 56.176 98.5798 59.0172 101.471L114.624 158.048C117.297 160.767 117.53 165.079 115.167 168.077V168.077V168.077C112.52 170.714 108.26 170.688 105.645 168.018L77.1446 138.918L61.2667 123.046L49.0551 109.751Z" fill="url(#paint0_linear_1632_42441)"/>
<path d="M110.369 156.32C114.221 156.262 117.375 159.369 117.375 163.221V163.221C117.375 167.033 114.285 170.123 110.473 170.123L82.4377 170.123L54.0552 170.123C50.885 170.123 48.1807 167.829 47.6648 164.701V164.701C47.0208 160.795 49.9997 157.231 53.9574 157.171L110.369 156.32Z" fill="#5B1D9F"/>
<path d="M105.939 101.436C108.205 99.1456 111.755 98.7896 114.42 100.585V100.585C115.571 101.361 116.459 102.48 116.959 103.784V103.784C117.928 106.309 117.333 109.183 115.437 111.099L59.0125 168.117C56.1716 170.988 51.4934 170.727 48.9849 167.558V167.558C46.8404 164.849 47.0554 160.942 49.4841 158.488L105.939 101.436Z" fill="url(#paint1_linear_1632_42441)"/>
<path d="M104.077 106.155C104.077 102.482 107.054 99.5051 110.727 99.5051V99.5051C114.4 99.5051 117.377 102.482 117.377 106.155V163.471C117.377 167.143 114.4 170.121 110.727 170.121V170.121C107.054 170.121 104.077 167.143 104.077 163.471V106.155Z" fill="url(#paint2_linear_1632_42441)"/>
<path fill-rule="evenodd" clip-rule="evenodd" d="M207.191 134.252V154.456H196.735V135.452C196.735 131.778 194.505 129.729 191.352 129.729C187.97 129.729 185.586 132.061 185.586 135.806V154.456H175.051V135.452C175.051 131.778 172.898 129.729 169.747 129.729C166.363 129.729 163.902 132.061 163.902 135.806V154.456H153.445V122.877L163.594 121.747V125.562C165.901 122.948 169.285 121.464 173.361 121.464C177.743 121.464 181.048 123.159 183.125 126.126C185.663 123.159 189.661 121.464 194.428 121.464C202.58 121.464 207.191 126.48 207.191 134.252" fill="white"/>
<path fill-rule="evenodd" clip-rule="evenodd" d="M221.868 135.937L238.861 130.85C237.399 128.519 234.785 127.177 231.633 127.177C226.327 127.177 222.406 130.85 221.868 135.937M244.934 141.517L247.932 148.582C243.704 151.831 238.014 153.951 232.093 153.951C220.945 153.951 212.718 146.534 212.718 136.997C212.718 127.46 220.791 119.971 231.556 119.971C240.706 119.971 248.164 125.481 249.087 135.23L223.558 142.789C225.327 145.191 228.326 146.675 232.171 146.675C236.169 146.675 240.475 145.191 244.934 141.517" fill="white"/>
<path fill-rule="evenodd" clip-rule="evenodd" d="M267.474 128.658V140.741C267.474 143.566 269.089 145.191 272.087 145.191C273.548 145.191 275.317 144.768 276.547 144.343V152.397C274.779 153.104 272.319 153.598 269.551 153.598C261.245 153.598 257.017 149.076 257.017 141.942V128.658H251.558L252.864 120.889H257.017V114.883L267.474 110.009V120.889H276.547V128.658H267.474Z" fill="white"/>
<path fill-rule="evenodd" clip-rule="evenodd" d="M301.854 142.295C301.854 139.469 299.316 137.279 295.934 137.279C292.627 137.279 290.166 139.469 290.166 142.295C290.166 145.121 292.627 147.311 295.934 147.311C299.316 147.311 301.854 145.121 301.854 142.295V142.295ZM302.469 153.034L302.162 150.914C299.855 152.821 296.78 153.951 293.242 153.951C285.938 153.951 280.17 149.006 280.17 142.507C280.17 136.078 285.784 131.133 293.548 131.133C296.472 131.133 299.162 132.052 301.548 133.465V132.334C301.548 128.801 299.624 126.965 293.934 126.965C291.089 126.965 288.32 127.459 285.552 128.307L286.784 121.313C290.012 120.536 293.011 120.182 295.934 120.182C305.851 120.182 311.312 123.997 311.312 131.769V147.24L311.619 153.034H302.469Z" fill="white"/>
<path fill-rule="evenodd" clip-rule="evenodd" d="M301.854 142.295C301.854 139.469 299.316 137.279 295.934 137.279C292.627 137.279 290.166 139.469 290.166 142.295C290.166 145.121 292.627 147.311 295.934 147.311C299.316 147.311 301.854 145.121 301.854 142.295V142.295ZM302.469 153.034L302.162 150.914C299.855 152.821 296.78 153.951 293.242 153.951C285.938 153.951 280.17 149.006 280.17 142.507C280.17 136.078 285.784 131.133 293.548 131.133C296.472 131.133 299.162 132.052 301.548 133.465V132.334C301.548 128.801 299.624 126.965 293.934 126.965C291.089 126.965 288.32 127.459 285.552 128.307L286.784 121.313C290.012 120.536 293.011 120.182 295.934 120.182C305.851 120.182 311.312 123.997 311.312 131.769V147.24L311.619 153.034H302.469Z" fill="white"/>
<path fill-rule="evenodd" clip-rule="evenodd" d="M347.207 136.926C347.207 132.052 343.209 128.236 337.904 128.236C332.674 128.236 328.6 132.052 328.6 136.926C328.6 141.872 332.674 145.686 337.904 145.686C343.209 145.686 347.207 141.872 347.207 136.926M357.202 136.927C357.202 146.463 349.359 153.88 339.902 153.88C335.673 153.88 332.059 152.398 329.444 149.925V168.576H318.987V121.384L328.446 120.325V125.058C331.136 121.878 335.058 120.042 339.902 120.042C349.359 120.042 357.202 127.461 357.202 136.927" fill="white"/>
<path fill-rule="evenodd" clip-rule="evenodd" d="M397.081 133.323V153.033H386.547V134.523C386.547 130.567 384.01 128.307 380.319 128.307C376.398 128.307 373.63 130.92 373.63 134.877V153.033H363.173V103.086L373.63 101.885V124.139C376.091 121.525 379.704 120.041 384.01 120.041C392.238 120.041 397.081 125.199 397.081 133.323" fill="white"/>
<path fill-rule="evenodd" clip-rule="evenodd" d="M431.086 136.926C431.086 131.981 427.088 128.236 421.782 128.236C416.477 128.236 412.401 131.981 412.401 136.926C412.401 141.872 416.477 145.686 421.782 145.686C427.088 145.686 431.086 141.872 431.086 136.926M402.484 136.997C402.484 127.389 410.94 119.971 421.782 119.971C432.624 119.971 441.005 127.389 441.005 136.997C441.005 146.534 432.624 153.951 421.782 153.951C410.94 153.951 402.484 146.534 402.484 136.997" fill="white"/>
<path fill-rule="evenodd" clip-rule="evenodd" d="M468.044 120.254V128.872C461.2 128.872 457.433 131.768 457.433 138.268V153.033H446.975V121.454L456.818 120.325V125.693C458.894 122.09 462.507 120.254 468.044 120.254" fill="white"/>
<defs>
<linearGradient id="paint0_linear_1632_42441" x1="48.9204" y1="100.799" x2="115.776" y2="167.467" gradientUnits="userSpaceOnUse">
<stop stop-color="#281692"/>
<stop offset="1" stop-color="#451A9A"/>
</linearGradient>
<linearGradient id="paint1_linear_1632_42441" x1="116.376" y1="101.974" x2="47.6568" y2="167.139" gradientUnits="userSpaceOnUse">
<stop stop-color="#A027B3"/>
<stop offset="1" stop-color="#521B9D"/>
</linearGradient>
<linearGradient id="paint2_linear_1632_42441" x1="110.727" y1="99.5051" x2="110.727" y2="170.121" gradientUnits="userSpaceOnUse">
<stop stop-color="#9E26B1"/>
<stop offset="1" stop-color="#DF4FF5"/>
</linearGradient>
</defs>
</svg>
