<svg id="Layer_1" data-name="Layer 1" xmlns="http://www.w3.org/2000/svg" viewBox="0 0 716.5 178.08"><defs><style>.cls-1{fill:#efb38b;}.cls-2{fill:#d63600;}.cls-10,.cls-11,.cls-12,.cls-13,.cls-14,.cls-2,.cls-3,.cls-4,.cls-5,.cls-6,.cls-7,.cls-8,.cls-9{fill-opacity:0.5;}.cls-3{fill:#fff;}.cls-4{fill:#e26d06;}.cls-5{fill:#ea9b65;}.cls-6{fill:#e89048;}.cls-7{fill:#e06715;}.cls-8{fill:#e89254;}.cls-9{fill:#fae8db;}.cls-10{fill:#f5d1b9;}.cls-11{fill:#ea9a59;}.cls-12{fill:#e2762d;}.cls-13{fill:#e57f31;}.cls-14{fill:#e89052;}</style></defs><rect class="cls-1" width="716.5" height="178.08"/><path class="cls-2" d="M121.8,173.75,539.17,292,614.4,23.29,197-93.14Z"/><path class="cls-3" d="M0,25.08l-145.09,154L-37.62,279.43l143.3-154Z"/><path class="cls-3" d="M664.55,145.09l283-32.24L929.66-30.45,646.64,0Z"/><path class="cls-4" d="M98.52,43,266.9,308.09,569.62,114.64,401.24-148.67Z"/><path class="cls-3" d="M25.08,7.16-53.74,34,14.33,220.32l78.81-26.87Z"/><path class="cls-3" d="M707.54,3.58,566,351.08l204.21,80.61L911.75,84.19Z"/><path class="cls-5" d="M50.15,161.21,148.67,197,270.48-127.18,172-163Z"/><path class="cls-6" d="M573.2,62.69,483.64,363.62l64.48,17.92L637.68,80.61Z"/><path class="cls-3" d="M57.32,1.79-118.22-5.37l-17.91,467.51,173.75,7.17Z"/><path class="cls-3" d="M714.71,66.28,612.61,259.73l433.48,227.49,102.1-193.46Z"/><path class="cls-3" d="M677.09,5.37,696.8,180.92l498-62.7-19.7-173.75Z"/><path class="cls-3" d="M7.16,1.79,52,55.53,197-68.07,152.26-121.8Z"/><path class="cls-7" d="M209.58,68.07,340.34,236.44,506.92,103.89,376.16-62.69Z"/><path class="cls-3" d="M653.81,10.75l80.6,105.68L850.84,23.29l-80.6-103.9Z"/><path class="cls-8" d="M82.4,127.18,275.85,279.43l35.83-48.36L118.22,78.81Z"/><path class="cls-9" d="M77,130.76-252.57,394.07l105.69,132.56,327.8-263.32Z"/><path class="cls-10" d="M32.24,32.24l9,116.43,46.57-5.37-9-116.43Z"/><path class="cls-11" d="M573.2,123.6l66.28-21.5L600.07-23.29,533.79-1.79Z"/><path class="cls-3" d="M50.15,16.12l-329.58-80.6-59.12,249L-9,265.1Z"/><path class="cls-12" d="M175.54,17.91l9,306.31,59.11-3.59-9-306.3Z"/><path class="cls-13" d="M542.75,35.82,401.24,331.38l48.36,23.29L591.11,59.11Z"/><path class="cls-3" d="M657.39,159.42l152.25,306.3,146.89-73.44L804.27,86Z"/><path class="cls-3" d="M10.75,43l-59.11,19.7L0,202.41l59.11-19.7Z"/><path class="cls-14" d="M535.58,137.93l25.08,159.42,55.53-10.75L591.11,127.18Z"/></svg>