<?xml version="1.0" encoding="UTF-8" standalone="no"?>
<!DOCTYPE svg PUBLIC "-//W3C//DTD SVG 1.1//EN" "http://www.w3.org/Graphics/SVG/1.1/DTD/svg11.dtd">
<!-- Created with Vectornator (http://vectornator.io/) -->
<svg height="100%" stroke-miterlimit="10" style="fill-rule:nonzero;clip-rule:evenodd;stroke-linecap:round;stroke-linejoin:round;" version="1.1" viewBox="0 0 924.5 200.98" width="100%" xml:space="preserve" xmlns="http://www.w3.org/2000/svg" xmlns:vectornator="http://vectornator.io" xmlns:xlink="http://www.w3.org/1999/xlink">
<defs/>
<clipPath id="ArtboardFrame">
<rect height="200.98" width="924.5" x="0" y="0"/>
</clipPath>
<g clip-path="url(#ArtboardFrame)" id="Untitled" vectornator:layerName="Untitled">
<path d="M0 0L924.5 0L924.5 0L924.5 200.98L924.5 200.98L0 200.98L0 200.98L0 0L0 0Z" fill="#8e94a0" fill-rule="nonzero" opacity="1" stroke="none"/>
<path d="M198.77 115.56L628.66 164.1L647.15-9.24L217.26-57.78L198.77 115.56Z" fill="#dfe2f6" fill-rule="nonzero" opacity="1" stroke="none"/>
<path d="M305.08 39.29L205.7 127.12L559.32 515.41L658.71 427.58L305.08 39.29Z" fill="#f0f5ff" fill-rule="nonzero" opacity="1" stroke="none"/>
<path d="M406.78 43.91L737.29 131.74L751.16 71.65L420.65-13.87L406.78 43.91Z" fill="#434644" fill-rule="nonzero" opacity="1" stroke="none"/>
<path d="M159.48 60.09L-78.58 288.91L-6.93 362.91L228.81 134.05L159.48 60.09Z" fill="#1f2f2a" fill-rule="nonzero" opacity="1" stroke="none"/>
<path d="M469.18 141L323.57 672.57L804.31 802L949.92 270.42L469.18 141Z" fill="#090b00" fill-rule="nonzero" opacity="1" stroke="none"/>
<path d="M462.25 78.58L577.81 154.85L711.86-46.22L596.3-122.5L462.25 78.58Z" fill="#eff7ff" fill-rule="nonzero" opacity="1" stroke="none"/>
<path d="M707.24 143.3L730.35 323.57L977.66 286.57L954.55 106.32L707.24 143.3Z" fill="#d8def9" fill-rule="nonzero" opacity="1" stroke="none"/>
<path d="M307.4 150.23L242.68 203.39L598.61 605.55L663.33 552.39L307.4 150.23Z" fill="#334a57" fill-rule="nonzero" opacity="1" stroke="none"/>
<path d="M358.24 48.54L450.69 90.14L693.37-427.58L600.92-469.18L358.24 48.54Z" fill="#0e0d02" fill-rule="nonzero" opacity="1" stroke="none"/>
<path d="M99.38 32.36L376.73 92.45L420.65-117.87L143.3-178L99.38 32.36Z" fill="#eaefff" fill-rule="nonzero" opacity="1" stroke="none"/>
<path d="M695.69 147.92L547.77 448.38L647.15 494.61L795.07 194.14L695.69 147.92Z" fill="#ffffff" fill-rule="nonzero" opacity="1" stroke="none"/>
<path d="M37 166.41L-64.69 686.41L566.31 811.22L668 291.22L37 166.41Z" fill="#10120a" fill-rule="nonzero" opacity="1" stroke="none"/>
<path d="M644.84 124.81L351.31 815.87L607.86 924.5L901.39 233.44L644.84 124.81Z" fill="#dbe1fb" fill-rule="nonzero" opacity="1" stroke="none"/>
<path d="M464.56 124.81L457.63 143.3L885.21 293.53L892.14 275L464.56 124.81Z" fill="#374a41" fill-rule="nonzero" opacity="1" stroke="none"/>
<path d="M707.24 145.61L711.86 145.61L755.78-258.86L751.16-258.86L707.24 145.61Z" fill="#000000" fill-rule="nonzero" opacity="1" stroke="none"/>
<path d="M607.86 39.29L624 120.18L753.47 92.45L737.29 11.56L607.86 39.29Z" fill="#1d211f" fill-rule="nonzero" opacity="1" stroke="none"/>
<path d="M416 92.45L450.67 157.16L873.67-71.65L839-136.36L416 92.45Z" fill="#c9d2ee" fill-rule="nonzero" opacity="1" stroke="none"/>
<path d="M751.16 145.61L1338.21 157.16L1345.15-309.71L758.09-321.26L751.16 145.61Z" fill="#a3b1c9" fill-rule="nonzero" opacity="1" stroke="none"/>
<path d="M258.86 69.34L245 173.34L386 187.21L399.87 83.21L258.86 69.34Z" fill="#e9eaff" fill-rule="nonzero" opacity="1" stroke="none"/>
<path d="M242.68 178L145.61 716.49L815.87 834.36L912.94 295.84L242.68 178Z" fill="#142523" fill-rule="nonzero" opacity="1" stroke="none"/>
<path d="M4.62 104L-374.38 337.43L-335.09 397.52L41.6 164.1L4.62 104Z" fill="#ecf4ff" fill-rule="nonzero" opacity="1" stroke="none"/>
<path d="M677.2 53.16L698 67L885.21-221.88L864.41-235.75L677.2 53.16Z" fill="#111108" fill-rule="nonzero" opacity="1" stroke="none"/>
<path d="M11.56 94.76L101.69 141L272.69-189.51L182.55-235.74L11.56 94.76Z" fill="#a8b9d3" fill-rule="nonzero" opacity="1" stroke="none"/>
<path d="M644.84 110.94L610.17 150.23L850.54 349L885.21 309.71L644.84 110.94Z" fill="#d9ddf1" fill-rule="nonzero" opacity="1" stroke="none"/>
<path d="M533.9 159.48L469.18 201.08L691.06 517.72L755.78 476.12L533.9 159.48Z" fill="#1f1c11" fill-rule="nonzero" opacity="1" stroke="none"/>
<path d="M4.62 182.59L141 691.06L249.62 661.06L113.25 152.54L4.62 182.59Z" fill="#2a291f" fill-rule="nonzero" opacity="1" stroke="none"/>
<path d="M136.36 97.07L97.07 152.54L194.14 219.54L233.44 164.07L136.36 97.07Z" fill="#708189" fill-rule="nonzero" opacity="1" stroke="none"/>
<path d="M337.44 115.56L392.91 127.12L406.78 53.12L351.31 41.6L337.44 115.56Z" fill="#eae7fa" fill-rule="nonzero" opacity="1" stroke="none"/>
<path d="M483.05 55.47L536.21 131.74L806.63-57.78L753.47-134L483.05 55.47Z" fill="#ced3ec" fill-rule="nonzero" opacity="1" stroke="none"/>
</g>
</svg>
