<?xml version="1.0" encoding="UTF-8" standalone="no"?>
<!DOCTYPE svg PUBLIC "-//W3C//DTD SVG 1.1//EN" "http://www.w3.org/Graphics/SVG/1.1/DTD/svg11.dtd">
<!-- Created with Vectornator (http://vectornator.io/) -->
<svg height="100%" stroke-miterlimit="10" style="fill-rule:nonzero;clip-rule:evenodd;stroke-linecap:round;stroke-linejoin:round;" version="1.1" viewBox="0 0 924.5 629.73" width="100%" xml:space="preserve" xmlns="http://www.w3.org/2000/svg" xmlns:vectornator="http://vectornator.io" xmlns:xlink="http://www.w3.org/1999/xlink">
<defs/>
<clipPath id="ArtboardFrame">
<rect height="629.73" width="924.5" x="0" y="0"/>
</clipPath>
<g clip-path="url(#ArtboardFrame)" id="Untitled" vectornator:layerName="Untitled">
<path d="M0 0L924.5 0L924.5 0L924.5 629.73L924.5 629.73L0 629.73L0 629.73L0 0L0 0Z" fill="#86909b" fill-rule="nonzero" opacity="1" stroke="none"/>
<path d="M478.43 422.96L381.36 737.29L910.63 899.08L1007.71 584.75L478.43 422.96Z" fill="#000000" fill-rule="nonzero" opacity="1" stroke="none"/>
<path d="M247.3 457.63L-383.7 406.78L-404.5 665.64L224.16 716.49L247.3 457.63Z" fill="#090800" fill-rule="nonzero" opacity="1" stroke="none"/>
<path d="M134.05 182.59L559.32 337.44L633.28 134.05L208.01-18.49L134.05 182.59Z" fill="#202827" fill-rule="nonzero" opacity="1" stroke="none"/>
<path d="M180.28 263.48L178 427.58L642.56 429.89L644.87 265.79L180.28 263.48Z" fill="#e3e4f9" fill-rule="nonzero" opacity="1" stroke="none"/>
<path d="M166.41 106.32L436.83 610.17L501.54 573.19L231.13 69.34L166.41 106.32Z" fill="#dce3f4" fill-rule="nonzero" opacity="1" stroke="none"/>
<path d="M624.04 277.35L915.25 314.33L1023.88-494.61L732.67-531.59L624.04 277.35Z" fill="#c7cfe9" fill-rule="nonzero" opacity="1" stroke="none"/>
<path d="M4.62 34.67L-80.89 321.26L131.74 383.67L217.26 97.07L4.62 34.67Z" fill="#aebfdd" fill-rule="nonzero" opacity="1" stroke="none"/>
<path d="M240.37 113.25L423 358.24L668 175.65L485.36-67L240.37 113.25Z" fill="#292e29" fill-rule="nonzero" opacity="1" stroke="none"/>
<path d="M850.54 469.18L362.87 619.41L446.07 892.14L933.75 741.91L850.54 469.18Z" fill="#24261a" fill-rule="nonzero" opacity="1" stroke="none"/>
<path d="M254.24 53.16L545.46 120.19L612.48-166.41L321.26-233.44L254.24 53.16Z" fill="#8c9eb0" fill-rule="nonzero" opacity="1" stroke="none"/>
<path d="M734.98 455.32L945.3 584.75L1211.1 154.85L1000.77 25.42L734.98 455.32Z" fill="#bcc4db" fill-rule="nonzero" opacity="1" stroke="none"/>
<path d="M150.23 362.87L-106.32 792.76L-30 836.67L224.19 406.78L150.23 362.87Z" fill="#2b3029" fill-rule="nonzero" opacity="1" stroke="none"/>
<path d="M429.89 522.34L-143.3 684.13L-94.76 855.16L476.12 693.38L429.89 522.34Z" fill="#b1b6bc" fill-rule="nonzero" opacity="1" stroke="none"/>
<path d="M711.87 277.35L196.46 721.11L249.62 783.51L765.02 339.75L711.87 277.35Z" fill="#5b605f" fill-rule="nonzero" opacity="1" stroke="none"/>
<path d="M644.84 18.49L802 110.94L894.45-43.91L737.29-136.36L644.84 18.49Z" fill="#f8faff" fill-rule="nonzero" opacity="1" stroke="none"/>
<path d="M34.67 256.55L-6.93 305.08L293.53 566.26L335.13 517.72L34.67 256.55Z" fill="#6b7881" fill-rule="nonzero" opacity="1" stroke="none"/>
<path d="M286.6 159.48L244.99 196.46L298.15 249.62L339.75 212.63L286.6 159.48Z" fill="#000000" fill-rule="nonzero" opacity="1" stroke="none"/>
<path d="M612.48 450.69L1146.38 557L1155.62 496.91L621.73 390.6L612.48 450.69Z" fill="#e1e6fd" fill-rule="nonzero" opacity="1" stroke="none"/>
<path d="M492.3 492.3L436.83 520L478.43 596.27L533.9 568.54L492.3 492.3Z" fill="#e4ffff" fill-rule="nonzero" opacity="1" stroke="none"/>
<path d="M376.73 337.44L238.06 899.08L286.6 910.63L425.27 349L376.73 337.44Z" fill="#f1f2ff" fill-rule="nonzero" opacity="1" stroke="none"/>
<path d="M312.02 212.63L443.76 351.31L494.61 302.77L362.87 164.1L312.02 212.63Z" fill="#1a1a11" fill-rule="nonzero" opacity="1" stroke="none"/>
<path d="M76.27 300.46L217.26 342.06L365.18-140.99L224.19-182.59L76.27 300.46Z" fill="#8ba2bb" fill-rule="nonzero" opacity="1" stroke="none"/>
<path d="M448.38 379.05L418.34 450.69L651.77 545.46L681.82 473.81L448.38 379.05Z" fill="#2c332c" fill-rule="nonzero" opacity="1" stroke="none"/>
<path d="M312 325.89L772 506.16L781.24 478.43L321.26 298.15L312 325.89Z" fill="#dfe4fd" fill-rule="nonzero" opacity="1" stroke="none"/>
<path d="M725.73 247.3L989.21 480.74L1257.32 180.28L993.84-50.85L725.73 247.3Z" fill="#8e97a6" fill-rule="nonzero" opacity="1" stroke="none"/>
<path d="M208 344.38L256.54 459.94L423 386L374.42 270.42L208 344.38Z" fill="#eaebff" fill-rule="nonzero" opacity="1" stroke="none"/>
<path d="M381.36 464.56L469.18 471.49L480.74 353.62L392.91 346.69L381.36 464.56Z" fill="#9eadbf" fill-rule="nonzero" opacity="1" stroke="none"/>
<path d="M492.3 261.17L494.61 416L621.73 411.38L619.41 256.53L492.3 261.17Z" fill="#dee4fb" fill-rule="nonzero" opacity="1" stroke="none"/>
<path d="M815.87 446.07L774.27 557L843.61 582.42L885.21 471.48L815.87 446.07Z" fill="#4c5858" fill-rule="nonzero" opacity="1" stroke="none"/>
<path d="M388.29 4.62L376.73 57.78L443.73 67.03L455.29 13.87L388.29 4.62Z" fill="#c9daf8" fill-rule="nonzero" opacity="1" stroke="none"/>
<path d="M305.08 90.14L598.61 254.24L624 208L330.51 43.91L305.08 90.14Z" fill="#22231e" fill-rule="nonzero" opacity="1" stroke="none"/>
<path d="M175.65 325.89L138.65 344.38L177.95 411.38L214.95 392.89L175.65 325.89Z" fill="#1a2a25" fill-rule="nonzero" opacity="1" stroke="none"/>
<path d="M270.42 566.26L208.01 633.26L450.69 843.61L513.1 776.61L270.42 566.26Z" fill="#ccd8f1" fill-rule="nonzero" opacity="1" stroke="none"/>
<path d="M9.24 69.34L-545.45 251.93L-432.2 596.3L120.18 413.71L9.24 69.34Z" fill="#9caac4" fill-rule="nonzero" opacity="1" stroke="none"/>
</g>
</svg>
