<svg id="Layer_1" data-name="Layer 1" xmlns="http://www.w3.org/2000/svg" viewBox="0 0 460 114.87"><defs><style>.cls-1{fill:#b4bdb9;}.cls-10,.cls-11,.cls-12,.cls-13,.cls-14,.cls-15,.cls-16,.cls-2,.cls-3,.cls-4,.cls-5,.cls-6,.cls-7,.cls-8,.cls-9{fill-opacity:0.5;}.cls-3{fill:#002136;}.cls-4{fill:#00848e;}.cls-5{fill:#ff360a;}.cls-6{fill:#ff6b3e;}.cls-7{fill:#004143;}.cls-8{fill:#009494;}.cls-9{fill:#1a1024;}.cls-10{fill:#007073;}.cls-11{fill:#ff5e3d;}.cls-12{fill:#006e74;}.cls-13{fill:#0f1128;}.cls-14{fill:#252332;}.cls-15{fill:#ff6b4d;}.cls-16{fill:#007578;}</style></defs><rect class="cls-1" width="460" height="114.87"/><path class="cls-2" d="M61,81.65,510.6,222,590-35.65,140.3-175.95Z"/><path class="cls-3" d="M15,74.75,309.35,115,324.3,0,29.9-39.1Z"/><path class="cls-4" d="M310.5,50.6l35.65,246.1,308.2-44.85L618.7,5.75Z"/><path class="cls-5" d="M127.65,69-13.8,93.15,10.35,227.7,151.8,203.55Z"/><path class="cls-6" d="M303.6,23,488.75,39.1l29.9-320.85L333.5-297.85Z"/><path class="cls-7" d="M1.15,11.5-80.5,215.05l38,13.8L38,25.3Z"/><path class="cls-8" d="M54.05,92l108.1-20.7L141.45-33.35,33.35-12.65Z"/><path class="cls-9" d="M245-30.25,133.4,72.1,218.5,163,330.05,60.6Z"/><path class="cls-10" d="M4.6,90.85,155.25,69-3.45-1041.9-154.1-1020Z"/><path class="cls-11" d="M147.2,85.1,0,82.8l-1.15,138,146.05,2.3Z"/><path class="cls-12" d="M303.6,48.3l21.85,179.4L715.3,179.4,693.45,0Z"/><path class="cls-13" d="M254.15,15l56.35,18.4L411.7-282.9l-56.35-18.4Z"/><path class="cls-14" d="M317.4,24.15,162.15-4.6l-55.2,291L262.2,315.1Z"/><path class="cls-15" d="M346.15,3.45,529,55.2,571.55-95.45,388.7-147.2Z"/><path class="cls-16" d="M316.25,31.05,314,181.7l364.55,4.6,2.3-150.65Z"/></svg>