<?xml version="1.0" encoding="UTF-8"?><svg id="Layer_1" xmlns="http://www.w3.org/2000/svg" xmlns:xlink="http://www.w3.org/1999/xlink" viewBox="0 0 670 160"><defs><style>.cls-1{fill:#5f7f30;}.cls-2{fill:rgba(126,140,137,.5);}.cls-3{fill:rgba(101,142,39,.5);}.cls-4{fill:rgba(152,191,53,.5);}.cls-5{fill:rgba(132,167,43,.5);}.cls-6{fill:rgba(140,179,69,.5);}.cls-7{fill:rgba(141,180,55,.5);}.cls-8{fill:rgba(68,85,53,.5);}.cls-9{fill:rgba(61,88,33,.5);}.cls-10{fill:rgba(72,114,37,.5);}.cls-11{fill:rgba(56,85,19,.5);}.cls-12{fill:rgba(51,90,29,.5);}.cls-13{fill:rgba(75,107,20,.5);}.cls-14{fill:rgba(69,102,37,.5);}.cls-15{fill:rgba(93,112,59,.5);}.cls-16{fill:rgba(122,166,48,.5);}.cls-17{fill:rgba(122,159,45,.5);}.cls-18{fill:none;filter:url(#g0.6);}.cls-19{fill:#7fac27;opacity:.5;}</style><filter id="g0.6"><feGaussianBlur stdDeviation="0.6"/></filter></defs><rect class="cls-1" x="-124.75" y="-149.87" width="919.5" height="459.75"/><path class="cls-3" d="m135.01,116.78l121.83,333.32,572.39-211.48-121.83-333.32L135.01,116.78Z"/><path class="cls-8" d="m86.73,43.22l-737.9,156.31,32.18,147.12L116.62,190.34l-29.88-147.12Z"/><path class="cls-7" d="m-21.31,8.74L201.67-30.34l-27.58-151.72-222.98,36.78L-21.31,8.74Z"/><path class="cls-9" d="m13.17,68.51l25.29,87.35L475.22,22.53l-25.29-87.35L13.17,68.51Z"/><path class="cls-10" d="m537.29,109.88l-374.7,147.12,222.98,560.89,374.7-147.12L537.29,109.88Z"/><path class="cls-4" d="m300.52,61.61l-62.07,170.11,66.66,22.99,62.07-170.11-66.66-22.99Z"/><path class="cls-2" d="m541.89,121.38l45.97-20.69-27.58-64.36-45.97,20.69,27.58,64.36Z"/><path class="cls-17" d="m302.82,121.38l121.83,209.19,64.36-39.08-121.83-209.19-64.36,39.08Z"/><path class="cls-5" d="m583.26-94.71l-62.07,117.24,101.14,50.57,62.07-117.24-101.14-50.57Z"/><path class="cls-15" d="m199.37-106.2L399.36,63.91l250.56-291.94-199.99-170.11L199.37-106.2Z"/><path class="cls-12" d="m406.26,151.26l-59.77-6.9-27.58,314.93,59.77,6.9,27.58-314.93Z"/><path class="cls-14" d="m-14.41,227.12l87.35,59.77L325.8-90.11l-87.35-59.77L-14.41,227.12Z"/><path class="cls-6" d="m114.32,222.52l13.79,41.38,220.68-80.46-13.79-41.38-220.68,80.46Z"/><g class="cls-18"><polygon class="cls-19" points="369.48 43.22 174.09 109.88 208.57 206.43 403.96 139.77 369.48 43.22"/></g><path class="cls-13" d="m567.17,24.83l397.68,363.2,25.29-29.88L592.46-5.05l-25.29,29.88Z"/><path class="cls-16" d="m72.94,40.92l103.44-6.9-11.49-174.7-103.44,6.9,11.49,174.7Z"/><path class="cls-11" d="m447.64-37.24l-2.3,9.19,301.14,55.17,2.3-9.19-301.14-55.17Z"/></svg>