<?xml version="1.0" encoding="UTF-8"?><svg id="Layer_1" xmlns="http://www.w3.org/2000/svg" xmlns:xlink="http://www.w3.org/1999/xlink" viewBox="0 0 670 480"><defs><style>.cls-1{fill:#5f7f30;}.cls-2{fill:rgba(126,140,137,.5);}.cls-3{fill:rgba(101,142,39,.5);}.cls-4{fill:rgba(152,191,53,.5);}.cls-5{fill:rgba(132,167,43,.5);}.cls-6{fill:rgba(140,179,69,.5);}.cls-7{fill:rgba(141,180,55,.5);}.cls-8{fill:rgba(66,92,34,.5);}.cls-9{fill:rgba(68,85,53,.5);}.cls-10{fill:rgba(61,88,33,.5);}.cls-11{fill:rgba(149,192,61,.5);}.cls-12{fill:rgba(72,114,37,.5);}.cls-13{fill:rgba(56,85,19,.5);}.cls-14{fill:rgba(51,90,29,.5);}.cls-15{fill:rgba(75,107,20,.5);}.cls-16{fill:rgba(69,102,37,.5);}.cls-17{fill:rgba(93,112,59,.5);}.cls-18{fill:rgba(122,166,48,.5);}.cls-19{fill:rgba(122,159,45,.5);}.cls-20{filter:url(#g1);}.cls-20,.cls-21{fill:none;}.cls-21{filter:url(#g0.6);}.cls-22{fill:#9cb44c;}.cls-22,.cls-23{opacity:.5;}.cls-23{fill:#7fac27;}</style><filter id="g1"><feGaussianBlur stdDeviation="1"/></filter><filter id="g0.6"><feGaussianBlur stdDeviation="0.6"/></filter></defs><rect class="cls-1" width="670" height="480"/><path class="cls-3" d="m135.01,276.78l121.83,333.32,572.39-211.48-121.83-333.32L135.01,276.78Z"/><path class="cls-9" d="m86.74,203.22l-737.9,156.31,32.18,147.12L116.62,350.34l-29.88-147.12Z"/><path class="cls-7" d="m-21.31,168.74l222.98-39.08-27.58-151.72L-48.89,14.72l27.58,154.02Z"/><path class="cls-10" d="m13.18,228.51l25.29,87.35,436.76-133.33-25.29-87.35L13.18,228.51Z"/><path class="cls-12" d="m537.29,269.88l-374.7,147.12,222.98,560.89,374.7-147.12-222.98-560.89Z"/><path class="cls-4" d="m300.52,221.61l-62.07,170.11,66.66,22.99,62.07-170.11-66.66-22.99Z"/><path class="cls-2" d="m541.89,281.38l45.97-20.69-27.58-64.36-45.97,20.69,27.58,64.36Z"/><path class="cls-19" d="m302.82,281.38l121.83,209.19,64.36-39.08-121.83-209.19-64.36,39.08Z"/><path class="cls-8" d="m555.68,92.88l271.25,62.07,6.9-34.48-271.25-62.07-6.9,34.48Z"/><path class="cls-5" d="m583.26,65.3l-62.07,117.24,101.14,50.57,62.07-117.24-101.14-50.57Z"/><path class="cls-17" d="m199.37,53.8l199.99,170.11,250.56-291.94-199.99-170.11L199.37,53.8Z"/><path class="cls-14" d="m406.26,311.26l-59.77-6.9-27.58,314.93,59.77,6.9,27.58-314.93Z"/><g class="cls-20"><polygon class="cls-22" points="523.5 44.61 649.93 49.2 668.32 -479.51 541.89 -484.11 523.5 44.61"/></g><path class="cls-16" d="m-14.41,387.12l87.35,59.77L325.81,69.89,238.45,10.13-14.41,387.12Z"/><path class="cls-6" d="m114.32,382.52l13.79,41.38,220.68-80.46-13.79-41.38-220.68,80.46Z"/><g class="cls-21"><polygon class="cls-23" points="369.48 203.22 174.09 269.88 208.57 366.43 403.96 299.77 369.48 203.22"/></g><path class="cls-15" d="m567.17,184.83l397.68,363.2,25.29-29.88-397.68-363.2-25.29,29.88Z"/><path class="cls-11" d="m22.37,95.18l20.69,32.18,599.97-388.49-20.69-32.18L22.37,95.18Z"/><path class="cls-18" d="m72.94,200.92l103.44-6.9-11.49-174.7-103.44,6.9,11.49,174.7Z"/><path class="cls-13" d="m447.64,122.76l-2.3,9.19,301.14,55.17,2.3-9.19-301.14-55.17Z"/></svg>