<?xml version="1.0" encoding="UTF-8" standalone="no"?>
<!DOCTYPE svg PUBLIC "-//W3C//DTD SVG 1.1//EN" "http://www.w3.org/Graphics/SVG/1.1/DTD/svg11.dtd">
<!-- Created with Vectornator (http://vectornator.io/) -->
<svg height="100%" stroke-miterlimit="10" style="fill-rule:nonzero;clip-rule:evenodd;stroke-linecap:round;stroke-linejoin:round;" version="1.1" viewBox="0 0 796.5 173.15" width="100%" xml:space="preserve" xmlns="http://www.w3.org/2000/svg" xmlns:vectornator="http://vectornator.io" xmlns:xlink="http://www.w3.org/1999/xlink">
<defs/>
<clipPath id="ArtboardFrame">
<rect height="173.15" width="796.5" x="0" y="0"/>
</clipPath>
<g clip-path="url(#ArtboardFrame)" id="Untitled" vectornator:layerName="Untitled">
<path d="M0 0L796.5 0L796.5 0L796.5 173.15L796.5 173.15L0 173.15L0 173.15L0 0L0 0Z" fill="#736151" fill-rule="nonzero" opacity="1" stroke="none"/>
<path d="M239 169.26L703 864.2L908 724.82L444 29.87L239 169.26Z" fill="#ffffff" fill-rule="nonzero" opacity="1" stroke="none"/>
<path d="M766.63 47.79L473.92 127.44L589.41 541.62L882.12 462L766.63 47.79Z" fill="#1c0a00" fill-rule="nonzero" opacity="1" stroke="none"/>
<path d="M324.57 109.52L396.26 195.14L744.73-99.56L673.04-185.19L324.57 109.52Z" fill="#f7f5dd" fill-rule="nonzero" opacity="1" stroke="none"/>
<path d="M61.73 45.8L63.72 266.83L302.67 260.85L300.68 39.83L61.73 45.8Z" fill="#432d23" fill-rule="nonzero" opacity="1" stroke="none"/>
<path d="M157.31 33.85L434.09 83.63L549.59-539.63L272.8-589.41L157.31 33.85Z" fill="#492f20" fill-rule="nonzero" opacity="1" stroke="none"/>
<path d="M543.61 0L637.2 151.34L671.05 129.43L577.46-19.91L543.61 0Z" fill="#e5b687" fill-rule="nonzero" opacity="1" stroke="none"/>
<path d="M282.76 167.26L396.26 252.89L475.91 145.36L362.41 59.74L282.76 167.26Z" fill="#d3ffff" fill-rule="nonzero" opacity="1" stroke="none"/>
<path d="M684.99 169.26L774.6 332.54L971.73 223.02L882.12 59.74L684.99 169.26Z" fill="#000000" fill-rule="nonzero" opacity="1" stroke="none"/>
<path d="M613.3 75.67L1218.64 145.36L1270.42-318.6L665.08-388.29L613.3 75.67Z" fill="#a57042" fill-rule="nonzero" opacity="1" stroke="none"/>
<path d="M577.46 103.55L541.62 171.25L684.99 240.94L720.83 173.24L577.46 103.55Z" fill="#000000" fill-rule="nonzero" opacity="1" stroke="none"/>
<path d="M647.16 95.58L627.24 115.49L685 163.28L704.91 143.37L647.16 95.58Z" fill="#d6b28b" fill-rule="nonzero" opacity="1" stroke="none"/>
<path d="M27.88 1.99L-97.57 384.31L191.16 477.9L316.61 95.58L27.88 1.99Z" fill="#594435" fill-rule="nonzero" opacity="1" stroke="none"/>
<path d="M260.85 69.69L292.71 121.47L430.11 31.86L398.25-17.92L260.85 69.69Z" fill="#271e20" fill-rule="nonzero" opacity="1" stroke="none"/>
<path d="M531.66 53.76L671.05 55.76L671.05-21.9L531.66-23.89L531.66 53.76Z" fill="#c8a784" fill-rule="nonzero" opacity="1" stroke="none"/>
<path d="M330.55 91.6L-242.93 1019.52L-123.46 1091.2L448.03 163.28L330.55 91.6Z" fill="#d2fbff" fill-rule="nonzero" opacity="1" stroke="none"/>
<path d="M545.6 37.83L515.73 53.76L786.54 485.87L816.41 469.94L545.6 37.83Z" fill="#120c08" fill-rule="nonzero" opacity="1" stroke="none"/>
<path d="M485.87 105.54L452.01 123.46L573.48 328.56L607.33 310.63L485.87 105.54Z" fill="#a27958" fill-rule="nonzero" opacity="1" stroke="none"/>
<path d="M23.89 109.52L111.51 201.12L647.16-306.65L559.54-398.25L23.89 109.52Z" fill="#725a45" fill-rule="nonzero" opacity="1" stroke="none"/>
<path d="M203.11 155.32L278.77 189.17L324.57 85.62L248.91 51.77L203.11 155.32Z" fill="#322a23" fill-rule="nonzero" opacity="1" stroke="none"/>
<path d="M501.8 151.34L440.07 189.17L591.4 418.16L653.13 380.33L501.8 151.34Z" fill="#f9d8b5" fill-rule="nonzero" opacity="1" stroke="none"/>
<path d="M677.02 5.97L780.57 113.5L1234.58-314.62L1131.03-422.14L677.02 5.97Z" fill="#754c2a" fill-rule="nonzero" opacity="1" stroke="none"/>
<path d="M575.47 75.67L557.55 91.6L822.39 332.54L840.31 316.61L575.47 75.67Z" fill="#110f0f" fill-rule="nonzero" opacity="1" stroke="none"/>
<path d="M459.98 19.91L396.26 83.63L450.02 135.41L513.74 71.69L459.98 19.91Z" fill="#e7caa9" fill-rule="nonzero" opacity="1" stroke="none"/>
<path d="M565.51 29.87L639.19 61.73L730.79-153.33L657.11-185.19L565.51 29.87Z" fill="#a07f61" fill-rule="nonzero" opacity="1" stroke="none"/>
<path d="M764.64 103.55L714.86 244.92L1009.56 342.5L1059.35 201.12L764.64 103.55Z" fill="#000000" fill-rule="nonzero" opacity="1" stroke="none"/>
<path d="M651.14 95.58L1212.67 234.97L1216.65 213.06L655.12 73.68L651.14 95.58Z" fill="#000003" fill-rule="nonzero" opacity="1" stroke="none"/>
<path d="M67.7 4L-444-31.86L-454 123.46L55.76 159.3L67.7 4Z" fill="#5a4632" fill-rule="nonzero" opacity="1" stroke="none"/>
<path d="M436.08 71.69L485.87 89.61L611.31-244.92L561.53-262.85L436.08 71.69Z" fill="#edd6b4" fill-rule="nonzero" opacity="1" stroke="none"/>
<path d="M487.86 115.49L511.75 119.47L565.51-113.5L541.62-117.48L487.86 115.49Z" fill="#c79368" fill-rule="nonzero" opacity="1" stroke="none"/>
<path d="M372.36 77.66L219.04 225.01L298.69 306.65L452.01 159.3L372.36 77.66Z" fill="#d3f4ff" fill-rule="nonzero" opacity="1" stroke="none"/>
<path d="M533.65 9.96L559.54 25.89L613.3-67.7L587.42-83.63L533.65 9.96Z" fill="#f7f7da" fill-rule="nonzero" opacity="1" stroke="none"/>
<path d="M683 153.33L710.88 408.21L1037.44 368.38L1009.56 113.5L683 153.33Z" fill="#000004" fill-rule="nonzero" opacity="1" stroke="none"/>
<path d="M227 17.92L-67.7 59.74L21.9 704.9L316.61 663.09L227 17.92Z" fill="#654e3f" fill-rule="nonzero" opacity="1" stroke="none"/>
<path d="M95.58 109.52L165.27 123.46L187.18 4L117.48-8L95.58 109.52Z" fill="#776148" fill-rule="nonzero" opacity="1" stroke="none"/>
</g>
</svg>
