<?xml version="1.0" encoding="UTF-8" standalone="no"?>
<!DOCTYPE svg PUBLIC "-//W3C//DTD SVG 1.1//EN" "http://www.w3.org/Graphics/SVG/1.1/DTD/svg11.dtd">
<!-- Created with Vectornator (http://vectornator.io/) -->
<svg height="100%" stroke-miterlimit="10" style="fill-rule:nonzero;clip-rule:evenodd;stroke-linecap:round;stroke-linejoin:round;" version="1.1" viewBox="0 0 796.5 542.5" width="100%" xml:space="preserve" xmlns="http://www.w3.org/2000/svg" xmlns:vectornator="http://vectornator.io" xmlns:xlink="http://www.w3.org/1999/xlink">
<defs/>
<clipPath id="ArtboardFrame">
<rect height="542.5" width="796.5" x="0" y="0"/>
</clipPath>
<g clip-path="url(#ArtboardFrame)" id="Untitled" vectornator:layerName="Untitled">
<path d="M0 0L796.5 0L796.5 0L796.5 542.5L796.5 542.5L0 542.5L0 542.5L0 0L0 0Z" fill="#533f35" fill-rule="nonzero" opacity="1" stroke="none"/>
<path d="M15.9 151.3L244.9 533.6L1318.2-105.6L1089.2-487.9L15.9 151.3Z" fill="#c6a587" fill-rule="nonzero" opacity="1" stroke="none"/>
<path d="M503.8 471.9L-6 487.9L0 671.1L509.8 655.2L503.8 471.9Z" fill="#000000" fill-rule="nonzero" opacity="1" stroke="none"/>
<path d="M358.4 254.9L320.6 428.1L493.8 464L531.6 290.8L358.4 254.9Z" fill="#ecffff" fill-rule="nonzero" opacity="1" stroke="none"/>
<path d="M659.1 296.7L448 577.5L828.3 858.3L1039.4 577.5L659.1 296.7Z" fill="#000000" fill-rule="nonzero" opacity="1" stroke="none"/>
<path d="M35.8 370.4L286.7 432.1L356.4 149.3L105.5 87.6L35.8 370.4Z" fill="#53402d" fill-rule="nonzero" opacity="1" stroke="none"/>
<path d="M440.1 242.9L497.8 310.6L581.4 234.9L523.7 167.2L440.1 242.9Z" fill="#fffdd1" fill-rule="nonzero" opacity="1" stroke="none"/>
<path d="M37.8 85.6L23.9 284.7L438.1 308.6L452 109.5L37.8 85.6Z" fill="#6a4e38" fill-rule="nonzero" opacity="1" stroke="none"/>
<path d="M525.7 288.7L475.9 366.4L702.9 507.8L752.7 430.1L525.7 288.7Z" fill="#060000" fill-rule="nonzero" opacity="1" stroke="none"/>
<path d="M6 10L35.9 237L1845.9-6L1816-233L6 10Z" fill="#9a6b51" fill-rule="nonzero" opacity="1" stroke="none"/>
<path d="M10 410.2L-91.6 655.1L235 790.5L336.6 545.6L10 410.2Z" fill="#000213" fill-rule="nonzero" opacity="1" stroke="none"/>
<path d="M655.1 330.5L1435.7 250.9L1403.8-65.7L623.3 11.9L655.1 330.5Z" fill="#8e5f30" fill-rule="nonzero" opacity="1" stroke="none"/>
<path d="M440.1 131.4L141.4 398.2L191.2 454L489.9 187.2L440.1 131.4Z" fill="#322323" fill-rule="nonzero" opacity="1" stroke="none"/>
<path d="M97.6 406.2L87.6 465.9L167.3 477.8L177.3 418.1L97.6 406.2Z" fill="#efdfcd" fill-rule="nonzero" opacity="1" stroke="none"/>
<path d="M714.9 121.5L591.4 334.5L714.9 404.2L838.4 191.1L714.9 121.5Z" fill="#8a6b47" fill-rule="nonzero" opacity="1" stroke="none"/>
<path d="M199.1 119.5L-15.9 119.5L-13.9 428.1L199.2 428.1L199.2 119.5L199.1 119.5Z" fill="#6d5944" fill-rule="nonzero" opacity="1" stroke="none"/>
<path d="M587.4 489.8L639.2 557.5L836.3 402.2L784.5 334.5L587.4 489.8Z" fill="#000000" fill-rule="nonzero" opacity="1" stroke="none"/>
<path d="M448 473.9L456 557.5L625.3 535.6L617.3 452L448 473.9Z" fill="#000007" fill-rule="nonzero" opacity="1" stroke="none"/>
<path d="M2 39.8L123.5 153.3L396.3-137.4L274.8-250.9L2 39.8Z" fill="#736d68" fill-rule="nonzero" opacity="1" stroke="none"/>
<path d="M485.9 404.2L477.9 456L547.6 464L555.6 412.2L485.9 404.2Z" fill="#ffebd3" fill-rule="nonzero" opacity="1" stroke="none"/>
<path d="M115.5 475.9L119.5 802.5L527.7 796.5L523.7 469.9L115.5 475.9Z" fill="#05030c" fill-rule="nonzero" opacity="1" stroke="none"/>
<path d="M448 223L489.8 233L525.6 83.7L483.8 73.7L448 223Z" fill="#f1ae82" fill-rule="nonzero" opacity="1" stroke="none"/>
<path d="M736.8 298.7L673 310.6L760.6 702.9L824.3 691L736.8 298.7Z" fill="#3c1c11" fill-rule="nonzero" opacity="1" stroke="none"/>
<path d="M326.6 491.8L481.9 732.7L579.5 669L424.1 428.1L326.6 491.8Z" fill="#04080e" fill-rule="nonzero" opacity="1" stroke="none"/>
<path d="M250.9 125.4L581.4 19.9L527.6-147.4L197.1-41.8L250.9 125.4Z" fill="#b27c6a" fill-rule="nonzero" opacity="1" stroke="none"/>
<path d="M617.3 382.3L619.3 461.9L945.8 448L943.8 368.4L617.3 382.3Z" fill="#04030a" fill-rule="nonzero" opacity="1" stroke="none"/>
<path d="M378.3 406.2L380.3 442L539.6 426.1L537.6 390.3L378.3 406.2Z" fill="#d2d5d1" fill-rule="nonzero" opacity="1" stroke="none"/>
<path d="M117.5 438.1L109.5 460L201.1 489.9L209.1 468L117.5 438.1Z" fill="#e5d5c7" fill-rule="nonzero" opacity="1" stroke="none"/>
<path d="M724.8 469.9L687 623.3L840.3 657.2L878.1 503.9L724.8 469.9Z" fill="#6c2b0e" fill-rule="nonzero" opacity="1" stroke="none"/>
<path d="M718.8 242.9L993.6 302.6L1095.2-165.3L820.4-225L718.8 242.9Z" fill="#81592b" fill-rule="nonzero" opacity="1" stroke="none"/>
<path d="M380.3 171.2L207.1 282.8L262.9 368.4L436.1 256.9L380.3 171.2Z" fill="#40312b" fill-rule="nonzero" opacity="1" stroke="none"/>
</g>
</svg>
