<?xml version="1.0" encoding="UTF-8"?><svg id="Layer_1" xmlns="http://www.w3.org/2000/svg" xmlns:xlink="http://www.w3.org/1999/xlink" viewBox="0 0 670 160"><defs><style>.cls-1{filter:url(#g0.6-2);}.cls-2{filter:url(#g1);}.cls-3{filter:url(#g0.6);}.cls-4{fill:#6ccb73;}.cls-4,.cls-5,.cls-6{opacity:.5;}.cls-4,.cls-5,.cls-6,.cls-7,.cls-8,.cls-9,.cls-10,.cls-11,.cls-12,.cls-13{stroke-width:0px;}.cls-5{fill:#6fcf76;}.cls-6{fill:#7bd781;}.cls-7{fill:rgba(119,210,121,.5);}.cls-8{fill:rgba(116,212,129,.5);}.cls-9{fill:rgba(88,189,100,.5);}.cls-10{fill:rgba(110,203,115,.5);}.cls-11{fill:rgba(108,204,117,.5);}.cls-12{fill:rgba(124,215,132,.5);}.cls-13{fill:#7bd681;}</style><filter id="g1"><feGaussianBlur stdDeviation="1"/></filter><filter id="g0.6"><feGaussianBlur stdDeviation="0.6"/></filter><filter id="g0.6-2"><feGaussianBlur stdDeviation="0.6"/></filter></defs><rect class="cls-13" width="670" height="160"/><g class="cls-2"><polygon class="cls-4" points="261.56 148.32 970.71 462.74 1193.33 -42.16 484.17 -354.28 261.56 148.32"/></g><path class="cls-7" d="m-43.67-133.96L73.37,247.01l454.41-142.29-117.04-378.67L-43.67-133.96Z"/><path class="cls-10" d="m426.8-14.62l300.64,112.45,176.71-468.18-300.64-112.45L426.8-14.62Z"/><path class="cls-8" d="m507.12,129.96l-112.45,206.55,231.79,121.63,112.45-206.55-231.79-121.63Z"/><g class="cls-3"><polygon class="cls-5" points="84.85 -154.62 -392.51 -161.5 -392.51 24.39 82.55 31.28 84.85 -154.62"/></g><g class="cls-1"><polygon class="cls-6" points="493.35 -3.15 323.53 -.85 332.71 490.28 502.53 487.98 493.35 -3.15"/></g><path class="cls-11" d="m192.71,168.98l828.49,6.88v-36.72l-828.49-6.88v36.72Z"/><path class="cls-12" d="m419.91,125.37l165.24,185.89,100.98-91.8-165.24-185.89-100.98,91.8Z"/><path class="cls-9" d="m465.81,45.05l-2.29,11.47,213.43,6.88,2.29-11.47-213.43-6.88Z"/></svg>