<?xml version="1.0" encoding="UTF-8"?><svg id="Layer_1" xmlns="http://www.w3.org/2000/svg" xmlns:xlink="http://www.w3.org/1999/xlink" viewBox="0 0 670 480"><defs><style>.cls-1{filter:url(#g0.6-4);}.cls-2{filter:url(#g0.6-2);}.cls-3{filter:url(#g0.6-3);}.cls-4{filter:url(#g1);}.cls-5{filter:url(#g0.6);}.cls-6{fill:#7fdb8a;}.cls-6,.cls-7,.cls-8,.cls-9,.cls-10{opacity:.5;}.cls-6,.cls-7,.cls-8,.cls-9,.cls-10,.cls-11,.cls-12,.cls-13,.cls-14,.cls-15,.cls-16,.cls-17,.cls-18,.cls-19,.cls-20,.cls-21,.cls-22,.cls-23{stroke-width:0px;}.cls-7{fill:#6ccb73;}.cls-8{fill:#4fa953;}.cls-9{fill:#6fcf76;}.cls-10{fill:#7bd781;}.cls-11{fill:rgba(119,210,121,.5);}.cls-12{fill:rgba(116,212,129,.5);}.cls-13{fill:rgba(77,177,86,.5);}.cls-14{fill:rgba(83,187,102,.5);}.cls-15{fill:rgba(88,189,100,.5);}.cls-16{fill:rgba(110,203,115,.5);}.cls-17{fill:rgba(127,215,130,.5);}.cls-18{fill:rgba(108,204,117,.5);}.cls-19{fill:rgba(141,229,144,.5);}.cls-20{fill:rgba(138,218,143,.5);}.cls-21{fill:rgba(124,215,132,.5);}.cls-22{fill:rgba(127,212,128,.5);}.cls-23{fill:#7bd681;}</style><filter id="g1"><feGaussianBlur stdDeviation="1"/></filter><filter id="g0.6"><feGaussianBlur stdDeviation="0.6"/></filter><filter id="g0.6-2"><feGaussianBlur stdDeviation="0.6"/></filter><filter id="g0.6-3"><feGaussianBlur stdDeviation="0.6"/></filter><filter id="g0.6-4"><feGaussianBlur stdDeviation="0.6"/></filter></defs><rect class="cls-23" width="670" height="480"/><g class="cls-4"><polygon class="cls-7" points="261.56 308.32 970.71 622.74 1193.33 117.84 484.17 -194.28 261.56 308.32"/></g><path class="cls-11" d="m-43.67,26.04l117.04,380.97,454.41-142.29-117.04-378.67L-43.67,26.04Z"/><path class="cls-16" d="m426.8,145.38l300.64,112.45,176.71-468.18-300.64-112.45-176.71,468.18Z"/><path class="cls-12" d="m507.12,289.96l-112.45,206.55,231.79,121.63,112.45-206.55-231.79-121.63Z"/><g class="cls-5"><polygon class="cls-9" points="84.85 5.38 -392.51 -1.5 -392.51 184.39 82.55 191.28 84.85 5.38"/></g><g class="cls-2"><polygon class="cls-10" points="493.35 156.85 323.53 159.15 332.71 650.28 502.53 647.98 493.35 156.85"/></g><path class="cls-22" d="m640.23,26.04l585.22,18.36,9.18-346.54-585.22-18.36-9.18,346.54Z"/><g class="cls-3"><polygon class="cls-8" points="346.47 5.38 346.47 16.86 603.51 9.97 603.51 -1.5 346.47 5.38"/></g><path class="cls-18" d="m192.71,328.98l828.49,6.88v-36.72l-828.49-6.88v36.72Z"/><path class="cls-21" d="m419.91,285.37l165.24,185.89,100.98-91.8-165.24-185.89-100.98,91.8Z"/><path class="cls-13" d="m518.6,106.36h259.33v-13.77h-259.33v13.77Z"/><path class="cls-15" d="m465.81,205.05l-2.29,11.47,213.43,6.88,2.29-11.47-213.43-6.88Z"/><g class="cls-1"><polygon class="cls-6" points="-121.7 530.94 440.57 689.29 470.4 579.13 -91.87 420.78 -121.7 530.94"/></g><path class="cls-14" d="m718.26,345.04l-300.64,321.3,11.47,9.18,300.64-321.3-11.47-9.18Z"/><path class="cls-19" d="m-96.46,16.86l-2.29,4.59,660.96,13.77,2.29-4.59L-96.46,16.86Z"/><path class="cls-20" d="m-98.75,35.22l18.36,18.36L110.09-155.27l-18.36-18.36L-98.75,35.22Z"/><path class="cls-17" d="m374.01-38.22L-156.13,90.3l9.18,34.42L380.9-3.8l-6.88-34.42Z"/></svg>