<?xml version="1.0" encoding="UTF-8" standalone="no"?>
<!DOCTYPE svg PUBLIC "-//W3C//DTD SVG 1.1//EN" "http://www.w3.org/Graphics/SVG/1.1/DTD/svg11.dtd">
<!-- Created with Vectornator (http://vectornator.io/) -->
<svg height="100%" stroke-miterlimit="10" style="fill-rule:nonzero;clip-rule:evenodd;stroke-linecap:round;stroke-linejoin:round;" version="1.1" viewBox="0 0 720 153.39" width="100%" xml:space="preserve" xmlns="http://www.w3.org/2000/svg" xmlns:vectornator="http://vectornator.io" xmlns:xlink="http://www.w3.org/1999/xlink">
<defs/>
<clipPath id="ArtboardFrame">
<rect height="153.39" width="720" x="0" y="0"/>
</clipPath>
<g clip-path="url(#ArtboardFrame)" id="Untitled" vectornator:layerName="Untitled">
<path d="M0 0L720 0L720 0L720 153.39L720 153.39L0 153.39L0 153.39L0 0L0 0Z" fill="#646f83" fill-rule="nonzero" opacity="1" stroke="none"/>
<path d="M426.6 113.4L518.4 360L990 180L898.2-64.8L426.6 113.4Z" fill="#b8bddb" fill-rule="nonzero" opacity="1" stroke="none"/>
<path d="M138.6 10.8L-32.4-3.6L-82.8 617.4L86.4 631.8L138.6 10.8Z" fill="#193950" fill-rule="nonzero" opacity="1" stroke="none"/>
<path d="M327.6 3.6L370.8 127.8L442.8 100.8L399.6-21.6L327.6 3.6Z" fill="#a5b7d8" fill-rule="nonzero" opacity="1" stroke="none"/>
<path d="M37.8 3.6L-12.6 167.4L379.8 288L430.2 124.2L37.8 3.6Z" fill="#3c5468" fill-rule="nonzero" opacity="1" stroke="none"/>
<path d="M430.2 12.6L520.2 86.4L707.4-145.8L617.4-219.6L430.2 12.6Z" fill="#573324" fill-rule="nonzero" opacity="1" stroke="none"/>
<path d="M554.4 82.8L729 136.8L853.2-271.8L678.6-325.8L554.4 82.8Z" fill="#9ca0b3" fill-rule="nonzero" opacity="1" stroke="none"/>
<path d="M41.4 73.8L158.4 122.4L286.2-189L169.2-237.6L41.4 73.8Z" fill="#526b84" fill-rule="nonzero" opacity="1" stroke="none"/>
<path d="M444.6 73.8L424.8 176.4L567 199.8L586.8 97.2L444.6 73.8Z" fill="#7685b0" fill-rule="nonzero" opacity="1" stroke="none"/>
<path d="M34.2 55.8L-37.8 133.2L329.4 468L401.4 390.6L34.2 55.8Z" fill="#2b3f51" fill-rule="nonzero" opacity="1" stroke="none"/>
<path d="M509.4 16.2L885.6 64.8L887.4 37.8L511.2-9L509.4 16.2Z" fill="#9992a1" fill-rule="nonzero" opacity="1" stroke="none"/>
<path d="M435.6 138.6L419.4 147.6L432 163.8L448.2 154.8L435.6 138.6Z" fill="#ffffff" fill-rule="nonzero" opacity="1" stroke="none"/>
<path d="M523.8 106.2L603 140.4L622.8 90L543.6 55.8L523.8 106.2Z" fill="#adb8d6" fill-rule="nonzero" opacity="1" stroke="none"/>
<path d="M538.2 124.2L248.4 239.4L336.6 464.4L626.4 349.2L538.2 124.2Z" fill="#26314e" fill-rule="nonzero" opacity="1" stroke="none"/>
<path d="M597.6 30.6L608.4 41.4L837-171L826.2-181.8L597.6 30.6Z" fill="#233767" fill-rule="nonzero" opacity="1" stroke="none"/>
<path d="M586.8 34.2L583.2 82.8L622.8 84.6L626.4 36L586.8 34.2Z" fill="#20335f" fill-rule="nonzero" opacity="1" stroke="none"/>
<path d="M585 117L324 304.2L376.2 378L637.2 190.8L585 117Z" fill="#c1cceb" fill-rule="nonzero" opacity="1" stroke="none"/>
<path d="M511.2 111.6L383.4 163.8L390.6 183.6L518.4 131.4L511.2 111.6Z" fill="#cfd9f5" fill-rule="nonzero" opacity="1" stroke="none"/>
<path d="M88.2 81L86.4 122.4L390.6 122.4L392.4 81L88.2 81Z" fill="#516477" fill-rule="nonzero" opacity="1" stroke="none"/>
<path d="M444.6 102.6L658.8 158.4L667.8 118.8L453.6 63L444.6 102.6Z" fill="#78829f" fill-rule="nonzero" opacity="1" stroke="none"/>
<path d="M442.8 127.8L421.2 131.4L482.4 419.4L504 415.8L442.8 127.8Z" fill="#f9f4ff" fill-rule="nonzero" opacity="1" stroke="none"/>
<path d="M622.8 109.8L581.4 174.6L667.8 226.8L709.2 162L622.8 109.8Z" fill="#787d83" fill-rule="nonzero" opacity="1" stroke="none"/>
<path d="M446.4 84.6L149.4 437.4L158.4 444.6L455.4 91.8L446.4 84.6Z" fill="#1a2047" fill-rule="nonzero" opacity="1" stroke="none"/>
<path d="M543.6 122.4L561.6 138.6L592.2 104.4L574.2 88.2L543.6 122.4Z" fill="#455274" fill-rule="nonzero" opacity="1" stroke="none"/>
<path d="M487.8 61.2L448.2 75.6L469.8 131.4L509.4 117L487.8 61.2Z" fill="#8595bd" fill-rule="nonzero" opacity="1" stroke="none"/>
<path d="M653.4 70.2L702 151.2L847.8 63L799.2-16.2L653.4 70.2Z" fill="#adb3c4" fill-rule="nonzero" opacity="1" stroke="none"/>
<path d="M583.2 27L621 19.8L576-275.4L538.2-268.2L583.2 27Z" fill="#ddf0ff" fill-rule="nonzero" opacity="1" stroke="none"/>
<path d="M396 113.4L419.4 117L442.8-43.2L419.4-46.8L396 113.4Z" fill="#ced2f4" fill-rule="nonzero" opacity="1" stroke="none"/>
<path d="M144 0L347.4 70.2L426.6-163.8L223.2-234L144 0Z" fill="#68809b" fill-rule="nonzero" opacity="1" stroke="none"/>
<path d="M648 1.8L1121.4 433.8L1427.4 97.2L954-333L648 1.8Z" fill="#757686" fill-rule="nonzero" opacity="1" stroke="none"/>
<path d="M378 122.4L388.8 124.2L489.6-210.6L478.8-212.4L378 122.4Z" fill="#5c6489" fill-rule="nonzero" opacity="1" stroke="none"/>
<path d="M468 63L642.6 214.2L646.2 208.8L471.6 57.6L468 63Z" fill="#747e9d" fill-rule="nonzero" opacity="1" stroke="none"/>
<path d="M538.2 124.2L550.8 372.6L619.2 367.2L606.6 118.8L538.2 124.2Z" fill="#b4c0e0" fill-rule="nonzero" opacity="1" stroke="none"/>
<path d="M441 25.2L439.2 64.8L541.8 64.8L543.6 25.2L441 25.2Z" fill="#36303c" fill-rule="nonzero" opacity="1" stroke="none"/>
<path d="M111.6 482.374L118.807 116.975L118.807 116.975L396.003 122.442L396.003 122.442L388.796 487.841L388.796 487.841L111.6 482.374L111.6 482.374Z" fill="#445867" fill-rule="nonzero" opacity="1" stroke="none"/>
</g>
</svg>
