<?xml version="1.0" encoding="UTF-8" standalone="no"?>
<!DOCTYPE svg PUBLIC "-//W3C//DTD SVG 1.1//EN" "http://www.w3.org/Graphics/SVG/1.1/DTD/svg11.dtd">
<!-- Created with Vectornator (http://vectornator.io/) -->
<svg height="100%" stroke-miterlimit="10" style="fill-rule:nonzero;clip-rule:evenodd;stroke-linecap:round;stroke-linejoin:round;" version="1.1" viewBox="0 0 672.5 157.62" width="100%" xml:space="preserve" xmlns="http://www.w3.org/2000/svg" xmlns:vectornator="http://vectornator.io" xmlns:xlink="http://www.w3.org/1999/xlink">
<defs/>
<clipPath id="ArtboardFrame">
<rect height="157.62" width="672.5" x="0" y="0"/>
</clipPath>
<g clip-path="url(#ArtboardFrame)" id="Untitled" vectornator:layerName="Untitled">
<path d="M0 0L672.5 0L672.5 0L672.5 157.62L672.5 157.62L0 157.62L0 157.62L0 0L0 0Z" fill="#a66f3c" fill-rule="nonzero" opacity="1" stroke="none"/>
<path d="M84.06 23.54L351.38 275.72L479.16 137.86L211.84-112.64L84.06 23.54Z" fill="#11120a" fill-rule="nonzero" opacity="1" stroke="none"/>
<path d="M70.61 26.9L-104.24 617L126.09 684.25L300.94 94.15L70.61 26.9Z" fill="#fea339" fill-rule="nonzero" opacity="1" stroke="none"/>
<path d="M322.8 25.22L763.29 104.22L795.23-82.38L354.74-161.38L322.8 25.22Z" fill="#e2c077" fill-rule="nonzero" opacity="1" stroke="none"/>
<path d="M314.39 47.07L233.69 292.54L385 341.29L465.7 95.83L314.39 47.07Z" fill="#000000" fill-rule="nonzero" opacity="1" stroke="none"/>
<path d="M11.77 30.26L-94.15 193.34L52.12 287.49L158 124.41L11.77 30.26Z" fill="#ffb12e" fill-rule="nonzero" opacity="1" stroke="none"/>
<path d="M1.68 6.72L148 121.05L343-127.77L196.71-242.1L1.68 6.72Z" fill="#817269" fill-rule="nonzero" opacity="1" stroke="none"/>
<path d="M529.59 53.8L519.51 158L686 169.81L696 65.57L529.59 53.8Z" fill="#cc5f04" fill-rule="nonzero" opacity="1" stroke="none"/>
<path d="M198.39 23.54L423.67 203.43L479.16 132.82L253.87-45.39L198.39 23.54Z" fill="#0d0706" fill-rule="nonzero" opacity="1" stroke="none"/>
<path d="M265.64 107.6L-43.71 122.73L-35.31 292.54L272.36 277.41L265.64 107.6Z" fill="#f37e0f" fill-rule="nonzero" opacity="1" stroke="none"/>
<path d="M317.76 3.36L494.29 132.82L534.64 74L358.11-53.8L317.76 3.36Z" fill="#eab35c" fill-rule="nonzero" opacity="1" stroke="none"/>
<path d="M443.85 79L529.59 410.2L860.8 324.48L775.06-5L443.85 79Z" fill="#c36e1f" fill-rule="nonzero" opacity="1" stroke="none"/>
<path d="M23.54 8.41L-131.14 94.15L-89.14 164.76L63.89 79L23.54 8.41Z" fill="#ffcb77" fill-rule="nonzero" opacity="1" stroke="none"/>
<path d="M227 85.74L284.16 144.59L317.76 111L260.59 52.12L227 85.74Z" fill="#db993c" fill-rule="nonzero" opacity="1" stroke="none"/>
<path d="M146.27 102.56L161.4 122.73L422-85.74L406.87-105.92L146.27 102.56Z" fill="#0e0b0e" fill-rule="nonzero" opacity="1" stroke="none"/>
<path d="M408.54 109.28L255.54 142.91L275.71 238.74L428.71 205.11L408.54 109.28Z" fill="#090e18" fill-rule="nonzero" opacity="1" stroke="none"/>
<path d="M40.35 63.89L163.08 124.41L274-95.83L151.31-156.36L40.35 63.89Z" fill="#8d6d50" fill-rule="nonzero" opacity="1" stroke="none"/>
<path d="M144.59 45.39L53.8 77.39L60.52 95.88L151.31 63.94L144.59 45.39Z" fill="#d7ab69" fill-rule="nonzero" opacity="1" stroke="none"/>
<path d="M82.38 21.86L97.51 63.86L136.18 47.04L121.05 5L82.38 21.86Z" fill="#ffee8a" fill-rule="nonzero" opacity="1" stroke="none"/>
<path d="M3.36 8.41L126.09 18.49L141.22-174.85L18.49-184.94L3.36 8.41Z" fill="#ffd694" fill-rule="nonzero" opacity="1" stroke="none"/>
<path d="M220.24 84.06L79 173.17L173.15 324.48L314.37 235.37L220.24 84.06Z" fill="#e98a28" fill-rule="nonzero" opacity="1" stroke="none"/>
<path d="M112.64 1.68L153 53.8L238.75-15.13L198.39-67.25L112.64 1.68Z" fill="#1d0f0f" fill-rule="nonzero" opacity="1" stroke="none"/>
<path d="M427 70.61L228.65 164.76L282.45 274L480.84 179.85L427 70.61Z" fill="#0f0e10" fill-rule="nonzero" opacity="1" stroke="none"/>
<path d="M287.49 6.72L250.49 70.61L395.07 149.61L432.07 85.72L287.49 6.72Z" fill="#160b04" fill-rule="nonzero" opacity="1" stroke="none"/>
<path d="M482.52 117.69L440.49 533L485.88 536.36L527.88 121.09L482.52 117.69Z" fill="#f06f0b" fill-rule="nonzero" opacity="1" stroke="none"/>
</g>
</svg>
