<?xml version="1.0" encoding="UTF-8" standalone="no"?>
<!DOCTYPE svg PUBLIC "-//W3C//DTD SVG 1.1//EN" "http://www.w3.org/Graphics/SVG/1.1/DTD/svg11.dtd">
<!-- Created with Vectornator (http://vectornator.io/) -->
<svg height="100%" stroke-miterlimit="10" style="fill-rule:nonzero;clip-rule:evenodd;stroke-linecap:round;stroke-linejoin:round;" version="1.1" viewBox="0 0 672.5 483.36" width="100%" xml:space="preserve" xmlns="http://www.w3.org/2000/svg" xmlns:vectornator="http://vectornator.io" xmlns:xlink="http://www.w3.org/1999/xlink">
<defs/>
<clipPath id="ArtboardFrame">
<rect height="483.36" width="672.5" x="0" y="0"/>
</clipPath>
<g clip-path="url(#ArtboardFrame)" id="Untitled" vectornator:layerName="Untitled">
<path d="M0 0L672.5 0L672.5 0L672.5 483.36L672.5 483.36L0 483.36L0 483.36L0 0L0 0Z" fill="#f9fefa" fill-rule="nonzero" opacity="1" stroke="none"/>
<path d="M152.99 368.19L702.76 566.58L894.42 28.58L344.66-168.13L152.99 368.19Z" fill="#000000" fill-rule="nonzero" opacity="1" stroke="none"/>
<path d="M250.51 79.02L-287.49 487.56L-16.81 838.94L519.51 430.4L250.51 79.02Z" fill="#000000" fill-rule="nonzero" opacity="1" stroke="none"/>
<path d="M33.62 25.22L-70.61 410.22L694.39 617.02L798.59 232L33.62 25.22Z" fill="#3f0300" fill-rule="nonzero" opacity="1" stroke="none"/>
<path d="M238.74 87.42L655.74 272.36L765 21.86L348-161.4L238.74 87.42Z" fill="#de9a3b" fill-rule="nonzero" opacity="1" stroke="none"/>
<path d="M15.13 16.81L53.8 290.86L295.9 253.87L257.23-18.49L15.13 16.81Z" fill="#c88427" fill-rule="nonzero" opacity="1" stroke="none"/>
<path d="M396.77 210.16L348.02 366.51L659.05 460.66L707.81 304.31L396.77 210.16Z" fill="#000000" fill-rule="nonzero" opacity="1" stroke="none"/>
<path d="M176.53 28.58L134.53 102.58L423.67 258.91L465.67 184.91L176.53 28.58Z" fill="#000501" fill-rule="nonzero" opacity="1" stroke="none"/>
<path d="M144.59 23.54L-124.41 25.22L-121.05 274.04L146.27 272.36L144.59 23.54Z" fill="#efa148" fill-rule="nonzero" opacity="1" stroke="none"/>
<path d="M415.27 300.94L-127.73 285.81L-131.1 415.27L410.22 430.4L415.27 300.94Z" fill="#030a00" fill-rule="nonzero" opacity="1" stroke="none"/>
<path d="M326.16 31.94L240.42 62.21L378.28 447.21L464.02 416.95L326.16 31.94Z" fill="#1d1909" fill-rule="nonzero" opacity="1" stroke="none"/>
<path d="M45.39 26.9L230.33 92.47L405.18-400.14L220.24-465.71L45.39 26.9Z" fill="#bbbba7" fill-rule="nonzero" opacity="1" stroke="none"/>
<path d="M327.84 368.19L228.65 633.83L652.33 790.19L751.52 524.55L327.84 368.19Z" fill="#82753a" fill-rule="nonzero" opacity="1" stroke="none"/>
<path d="M378.28 92.47L487.56 262.27L590.12 195L480.84 25.22L378.28 92.47Z" fill="#eea64b" fill-rule="nonzero" opacity="1" stroke="none"/>
<path d="M329.52 21.86L1018.84 179.89L1039.01 84.06L349.7-72.29L329.52 21.86Z" fill="#a6ac98" fill-rule="nonzero" opacity="1" stroke="none"/>
<path d="M242.1 201.75L-13.45 213.52L-10.09 274L243.78 262.23L242.1 201.75Z" fill="#ff7e04" fill-rule="nonzero" opacity="1" stroke="none"/>
<path d="M553.13 363.15L637.19 442.17L738.07 332.89L654.01 253.87L553.13 363.15Z" fill="#000000" fill-rule="nonzero" opacity="1" stroke="none"/>
<path d="M453.94 235.37L662.41 279.09L682.59 176.53L474.11 132.82L453.94 235.37Z" fill="#d05a02" fill-rule="nonzero" opacity="1" stroke="none"/>
<path d="M1.6371 70.5867L171.543-258.883L171.543-258.883L279.139-203.396L279.139-203.396L109.232 126.073L109.232 126.073L1.6371 70.5867L1.6371 70.5867Z" fill="#c7c4a9" fill-rule="nonzero" opacity="1" stroke="none"/>
<path d="M354.74 31.94L122.74 102.56L131.15 131.14L363.15 60.52L354.74 31.94Z" fill="#110c19" fill-rule="nonzero" opacity="1" stroke="none"/>
<path d="M255.55 33.62L391.73 38.67L406.86-272.33L270.68-277.38L255.55 33.62Z" fill="#bbc4ae" fill-rule="nonzero" opacity="1" stroke="none"/>
<path d="M237.06 437.12L-235.37 448.89L-225.29 780.1L245.46 768.33L237.06 437.12Z" fill="#a28b41" fill-rule="nonzero" opacity="1" stroke="none"/>
<path d="M474.11 265.64L474.11 438.81L807 437.12L807 264L474.11 265.64Z" fill="#0c0c00" fill-rule="nonzero" opacity="1" stroke="none"/>
<path d="M327.84 193.34L75.66 361.47L126.09 435.47L378.28 267.32L327.84 193.34Z" fill="#0d0f05" fill-rule="nonzero" opacity="1" stroke="none"/>
<path d="M398.46 183.26L361.47 458.98L425.36 467.39L462.34 191.66L398.46 183.26Z" fill="#1e190e" fill-rule="nonzero" opacity="1" stroke="none"/>
<path d="M141.22 141.22L171.49 195L445.49 40.33L415.27-11.77L141.22 141.22Z" fill="#453b30" fill-rule="nonzero" opacity="1" stroke="none"/>
<path d="M390.05 102.56L494.29 193.34L598.52 72.34L494.29-16.81L390.05 102.56Z" fill="#c4af7e" fill-rule="nonzero" opacity="1" stroke="none"/>
<path d="M141.22 443.85L124.41 583.39L474.11 623.74L490.92 484.2L141.22 443.85Z" fill="#8d856c" fill-rule="nonzero" opacity="1" stroke="none"/>
<path d="M47.08 116.01L35.31 159.72L309.35 226.97L321.12 183.26L47.08 116.01Z" fill="#b98b4f" fill-rule="nonzero" opacity="1" stroke="none"/>
<path d="M272.36 274L-190 312.71L-176.55 460.71L284.13 422L272.36 274Z" fill="#221b01" fill-rule="nonzero" opacity="1" stroke="none"/>
</g>
</svg>
