<?xml version="1.0" encoding="UTF-8" standalone="no"?>
<!DOCTYPE svg PUBLIC "-//W3C//DTD SVG 1.1//EN" "http://www.w3.org/Graphics/SVG/1.1/DTD/svg11.dtd">
<!-- Created with Vectornator (http://vectornator.io/) -->
<svg height="100%" stroke-miterlimit="10" style="fill-rule:nonzero;clip-rule:evenodd;stroke-linecap:round;stroke-linejoin:round;" version="1.1" viewBox="0 0 616.5 127.4" width="100%" xml:space="preserve" xmlns="http://www.w3.org/2000/svg" xmlns:vectornator="http://vectornator.io" xmlns:xlink="http://www.w3.org/1999/xlink">
<defs/>
<clipPath id="ArtboardFrame">
<rect height="127.4" width="616.5" x="0" y="0"/>
</clipPath>
<g clip-path="url(#ArtboardFrame)" id="Untitled" vectornator:layerName="Untitled">
<path d="M-200 0L830 0L830 0L830 330L830 330L-200 330L-200 330L-200 0L-200 0Z" fill="#697b92" fill-rule="nonzero" opacity="1" stroke="none"/>
<path d="M87.9 63.2L339.1 366.8L618.1 134.1L366.8-168L87.9 63.2Z" fill="#ab8358" fill-opacity="0.5" fill-rule="nonzero" opacity="1" stroke="none"/>
<path d="M115.6 43.2L-279 135.6L-184.9 530.2L208.1 437.7L115.6 43.2Z" fill="#dead71" fill-rule="nonzero" opacity="0.5" stroke="none"/>
<path d="M599.5 55.5L536.4 86.3L590.3 191.1L653.5 160.3L599.5 55.5Z" fill="#4c3c2b" fill-rule="nonzero" opacity="0.5" stroke="none"/>
<path d="M342.2 32.4L638.1 18.5L633.5-57L337.5-43.2L342.2 32.4Z" fill="#2971cb" fill-opacity="0.5" fill-rule="nonzero" opacity="1" stroke="none"/>
<path d="M75.5 61.6L55.5 80.1L77.1 100.2L97.1 81.7L75.5 61.6Z" fill="#0f0000" fill-rule="nonzero" opacity="0.5" stroke="none"/>
<path d="M323.7 97.1L80.1 334.5L242 497.8L485.5 260.4L323.7 97.1Z" fill="#000000" fill-opacity="0.5" fill-rule="nonzero" opacity="1" stroke="none"/>
<path d="M530.2 38.5L655 114.1L789.1-103.3L664.3-178.8L530.2 38.5Z" fill="#478bd8" fill-rule="nonzero" opacity="0.5" stroke="none"/>
<path d="M183.4 9.2L510.2 17L513.2-138.7L186.5-146.4L183.4 9.2Z" fill="#246dc9" fill-rule="nonzero" opacity="0.5" stroke="none"/>
<path d="M181.9 115.6L302.1 359.1L357.6 331.4L237.4 87.9L181.9 115.6Z" fill="#f5d3a5" fill-rule="nonzero" opacity="0.5" stroke="none"/>
<path d="M485.5 13.9L283.6 23.1L283.6 44.7L485.5 35.4L485.5 13.9Z" fill="#745131" fill-rule="nonzero" opacity="0.5" stroke="none"/>
<path d="M57 67.8L337.5 101.7L343.7 47.8L63.2 13.9L57 67.8Z" fill="#b19b81" fill-rule="nonzero" opacity="0.5" stroke="none"/>
<path d="M160.3 100.2L54 174.2L260.5 462.4L366.8 388.4L160.3 100.2Z" fill="#000000" fill-opacity="0.5" fill-rule="nonzero" opacity="1" stroke="none"/>
<path d="M363.7 32.4L351.4 38.5L405.3 138.7L417.7 132.5L363.7 32.4Z" fill="#ffe9c9" fill-rule="nonzero" opacity="0.5" stroke="none"/>
<path d="M480.9 44.7L205 43.2L203.4 70.9L479.3 72.4L480.9 44.7Z" fill="#c4b29c" fill-rule="nonzero" opacity="0.5" stroke="none"/>
<path d="M111 80.1L-146.4 164.9L-3.1 590.3L252.7 505.5L111 80.1Z" fill="#d9c2a1" fill-opacity="0.5" fill-rule="nonzero" opacity="1" stroke="none"/>
<path d="M214.2 53.9L212.7 86.3L514.8 97.1L516.3 64.7L214.2 53.9Z" fill="#7a6451" fill-opacity="0.5" fill-rule="nonzero" opacity="1" stroke="none"/>
<path d="M402.3 115.6L505.5 316L557.9 286.7L454.7 86.3L402.3 115.6Z" fill="#d2b690" fill-rule="nonzero" opacity="0.5" stroke="none"/>
<path d="M314.4 55.5L201.9 163.4L221.9 183.4L334.5 75.5L314.4 55.5Z" fill="#bab6ae" fill-rule="nonzero" opacity="0.5" stroke="none"/>
<path d="M382.2 15.4L363.7 17L382.2 144.9L400.7 143.3L382.2 15.4Z" fill="#d0bda5" fill-rule="nonzero" opacity="0.5" stroke="none"/>
<path d="M316 97.1L265.1 157.2L556.4 394.6L607.3 334.5L316 97.1Z" fill="#110704" fill-rule="nonzero" opacity="0.5" stroke="none"/>
<path d="M188 37L186.5 58.6L556.4 66.3L557.9 44.7L188 37Z" fill="#c1b3a1" fill-rule="nonzero" opacity="0.5" stroke="none"/>
<path d="M482.4 109.4L325.2 263.6L343.7 283.6L500.9 129.5L482.4 109.4Z" fill="#000000" fill-rule="nonzero" opacity="0.5" stroke="none"/>
<path d="M30.8 4.6L203.4 46.2L251.2-155.7L78.6-197.3L30.8 4.6Z" fill="#514d50" fill-rule="nonzero" opacity="0.5" stroke="none"/>
<path d="M252.8 0L260.5 127.9L274.3 126.4L266.6 0L252.8 0Z" fill="#4f3d34" fill-rule="nonzero" opacity="0.5" stroke="none"/>
</g>
</svg>
