<?xml version="1.0" encoding="UTF-8" standalone="no"?>
<!DOCTYPE svg PUBLIC "-//W3C//DTD SVG 1.1//EN" "http://www.w3.org/Graphics/SVG/1.1/DTD/svg11.dtd">
<!-- Created with Vectornator (http://vectornator.io/) -->
<svg height="100%" stroke-miterlimit="10" style="fill-rule:nonzero;clip-rule:evenodd;stroke-linecap:round;stroke-linejoin:round;" version="1.1" viewBox="0 0 350 250" width="100%" xml:space="preserve" xmlns="http://www.w3.org/2000/svg" xmlns:vectornator="http://vectornator.io" xmlns:xlink="http://www.w3.org/1999/xlink">
<defs/>
<clipPath id="ArtboardFrame">
<rect height="250" width="350" x="0" y="0"/>
</clipPath>
<g clip-path="url(#ArtboardFrame)" id="Untitled" vectornator:layerName="Untitled">
<path d="M0 0L350 0L350 0L350 250L350 250L0 250L0 250L0 0L0 0Z" fill="#647891" fill-rule="nonzero" opacity="1" stroke="none"/>
<path d="M150 23L-10 238L201 394L361 179L150 23Z" fill="#c79254" fill-opacity="0.5" fill-rule="nonzero" opacity="1" stroke="none"/>
<path d="M121 18L-73 108L1 268L195 178L121 18Z" fill="#b39b7f" fill-opacity="0.5" fill-rule="nonzero" opacity="1" stroke="none"/>
<path d="M263 249L463 423L545 327L345 153L263 249Z" fill="#5b4126" fill-opacity="0.5" fill-rule="nonzero" opacity="1" stroke="none"/>
<path d="M82 53L290 96L295 71L87 28L82 53Z" fill="#6d4017" fill-opacity="0.5" fill-rule="nonzero" opacity="1" stroke="none"/>
<path d="M160 195L189 319L217 312L188 188L160 195Z" fill="#000000" fill-opacity="0.5" fill-rule="nonzero" opacity="1" stroke="none"/>
<path d="M100 26L376 51L392-120L116-145L100 26Z" fill="#3875c3" fill-opacity="0.5" fill-rule="nonzero" opacity="1" stroke="none"/>
<path d="M197 88L195 123L315 126L317 91L197 88Z" fill="#e4cbaa" fill-opacity="0.5" fill-rule="nonzero" opacity="1" stroke="none"/>
<path d="M137 118L17 145L25 181L145 154L137 118Z" fill="#634834" fill-opacity="0.5" fill-rule="nonzero" opacity="1" stroke="none"/>
<path d="M15 211L43 239L184 93L156 65L15 211Z" fill="#beb3a2" fill-opacity="0.5" fill-rule="nonzero" opacity="1" stroke="none"/>
<path d="M81 53L29 78L50 120L102 95L81 53Z" fill="#e3c095" fill-opacity="0.5" fill-rule="nonzero" opacity="1" stroke="none"/>
<path d="M141 151L70 236L84 247L155 162L141 151Z" fill="#493a2d" fill-opacity="0.5" fill-rule="nonzero" opacity="1" stroke="none"/>
<path d="M111 157L130 474L143 473L124 156L111 157Z" fill="#fce8ca" fill-opacity="0.5" fill-rule="nonzero" opacity="1" stroke="none"/>
<path d="M85 68L116 73L120 45L89 40L85 68Z" fill="#060000" fill-opacity="0.5" fill-rule="nonzero" opacity="1" stroke="none"/>
<path d="M73 213L-173 216L-172 281L73 278L73 213Z" fill="#d9c9af" fill-opacity="0.5" fill-rule="nonzero" opacity="1" stroke="none"/>
<path d="M294 102L375 161L472 25L391-33L294 102Z" fill="#5194df" fill-opacity="0.5" fill-rule="nonzero" opacity="1" stroke="none"/>
<path d="M310 148L289 148L308 550L329 550L310 148Z" fill="#b5a188" fill-opacity="0.5" fill-rule="nonzero" opacity="1" stroke="none"/>
<path d="M229 209L327 191L317 133L219 151L229 209Z" fill="#6e553e" fill-opacity="0.5" fill-rule="nonzero" opacity="1" stroke="none"/>
<path d="M73 50L300 80L304 43L77 13L73 50Z" fill="#96775a" fill-opacity="0.5" fill-rule="nonzero" opacity="1" stroke="none"/>
<path d="M15 38L-174 81L-160 142L28 99L15 38Z" fill="#1e77e6" fill-opacity="0.5" fill-rule="nonzero" opacity="1" stroke="none"/>
<path d="M154 189L185 194L201 87L170 82L154 189Z" fill="#a8b3bd" fill-opacity="0.5" fill-rule="nonzero" opacity="1" stroke="none"/>
<path d="M84 203L141 251L173 211L116 163L84 203Z" fill="#c9b294" fill-opacity="0.5" fill-rule="nonzero" opacity="1" stroke="none"/>
<path d="M97 131L86 163L149 183L160 151L97 131Z" fill="#51382a" fill-opacity="0.5" fill-rule="nonzero" opacity="1" stroke="none"/>
<path d="M286 143L315 299L326 296L297 140L286 143Z" fill="#dbccb3" fill-opacity="0.5" fill-rule="nonzero" opacity="1" stroke="none"/>
<path d="M211 69L198 79L211 96L224 86L211 69Z" fill="#f2e4cf" fill-opacity="0.5" fill-rule="nonzero" opacity="1" stroke="none"/>
</g>
</svg>
