<?xml version="1.0" encoding="UTF-8" standalone="no"?>
<!DOCTYPE svg PUBLIC "-//W3C//DTD SVG 1.1//EN" "http://www.w3.org/Graphics/SVG/1.1/DTD/svg11.dtd">
<!-- Created with Vectornator (http://vectornator.io/) -->
<svg height="100%" stroke-miterlimit="10" style="fill-rule:nonzero;clip-rule:evenodd;stroke-linecap:round;stroke-linejoin:round;" version="1.1" viewBox="0 0 843.5 215.5" width="100%" xml:space="preserve" xmlns="http://www.w3.org/2000/svg" xmlns:vectornator="http://vectornator.io" xmlns:xlink="http://www.w3.org/1999/xlink">
<defs/>
<clipPath id="ArtboardFrame">
<rect height="215.5" width="843.5" x="0" y="0"/>
</clipPath>
<g clip-path="url(#ArtboardFrame)" id="Untitled" vectornator:layerName="Untitled">
<path d="M0 0L1100.3 0L1100.3 0L1100.3 215.5L1100.3 215.5L0 215.5L0 215.5L0 0L0 0Z" fill="#3c402b" fill-rule="nonzero" opacity="1" stroke="none"/>
<path d="M347.9 48.5L347.9 113.9L759.2 109.7L759.2 44.3L347.9 48.5Z" fill="#cb915b" fill-rule="nonzero" opacity="0.5" stroke="none"/>
<path d="M413.3 116L185.6 269.9L402.8 592.6L630.5 438.6L413.3 116Z" fill="#ab9c9b" fill-rule="nonzero" opacity="0.5" stroke="none"/>
<path d="M613.6 6.3L449.2 717L558.9 742.3L723.3 31.6L613.6 6.3Z" fill="#110c0c" fill-opacity="0.5" fill-rule="nonzero" opacity="1" stroke="none"/>
<path d="M225.6 73.8L259.3 398.5L366.8 385.8L333.2 61.2L225.6 73.8Z" fill="#000a0e" fill-opacity="0.5" fill-rule="nonzero" opacity="1" stroke="none"/>
<path d="M516.6 44.3L461.8 57L573.6 529.4L628.4 516.7L516.6 44.3Z" fill="#c8a365" fill-opacity="0.5" fill-rule="nonzero" opacity="1" stroke="none"/>
<path d="M426 12.7L805.6 181.4L856.2 65.4L476.6-101.2L426 12.7Z" fill="#747b50" fill-opacity="0.5" fill-rule="nonzero" opacity="1" stroke="none"/>
<path d="M341.6 177.1L383.8 185.5L531.4-468.2L489.2-476.6L341.6 177.1Z" fill="#d08375" fill-opacity="0.5" fill-rule="nonzero" opacity="1" stroke="none"/>
<path d="M567.3 97L440.8 253L900.5 626.2L1027 470.2L567.3 97Z" fill="#170b0e" fill-opacity="0.5" fill-rule="nonzero" opacity="1" stroke="none"/>
<path d="M265.7 25.3L449.2 90.7L506.1-65.4L322.6-130.7L265.7 25.3Z" fill="#5b6f3c" fill-rule="nonzero" opacity="0.5" stroke="none"/>
<path d="M710.6 2.1L693.7 265.7L731.7 267.8L748.6 4.2L710.6 2.1Z" fill="#c1cda3" fill-opacity="0.5" fill-rule="nonzero" opacity="1" stroke="none"/>
<path d="M750.7 181.4L788.7 430.2L1208.3 360.6L1170.3 111.8L750.7 181.4Z" fill="#000000" fill-opacity="0.5" fill-rule="nonzero" opacity="1" stroke="none"/>
<path d="M223.5 46.4L35.8 118.1L219.3 582L407 510.3L223.5 46.4Z" fill="#3a1a14" fill-rule="nonzero" opacity="0.5" stroke="none"/>
<path d="M748.6 52.7L993.2 261.5L1242.1-33.7L997.4-242.5L748.6 52.7Z" fill="#06130e" fill-rule="nonzero" opacity="0.5" stroke="none"/>
<path d="M257.3 27.4L269.9 52.7L497.7-63.3L485-88.6L257.3 27.4Z" fill="#79b966" fill-rule="nonzero" opacity="0.5" stroke="none"/>
<path d="M417.5 82.2L613.6 567.2L647.3 552.4L451.2 67.4L417.5 82.2Z" fill="#2a0912" fill-opacity="0.5" fill-rule="nonzero" opacity="1" stroke="none"/>
<path d="M50.6 183.5L-19 295.2L194 432.3L263.6 320.5L50.6 183.5Z" fill="#dc6f52" fill-opacity="0.5" fill-rule="nonzero" opacity="1" stroke="none"/>
<path d="M107.5 181.4L215.1 219.3L291 2.1L183.5-33.7L107.5 181.4Z" fill="#36251b" fill-rule="nonzero" opacity="0.5" stroke="none"/>
<path d="M312.1 166.6L453.4 318.4L512.4 261.5L371.1 109.7L312.1 166.6Z" fill="#aaa094" fill-opacity="0.5" fill-rule="nonzero" opacity="1" stroke="none"/>
<path d="M655.8 23.2L672.7 139.2L727.5 130.8L710.6 14.8L655.8 23.2Z" fill="#191611" fill-opacity="0.5" fill-rule="nonzero" opacity="1" stroke="none"/>
<path d="M126.5 33.7L69.6 44.3L75.9 78L132.8 67.5L126.5 33.7Z" fill="#ea8943" fill-opacity="0.5" fill-rule="nonzero" opacity="1" stroke="none"/>
<path d="M565.1 50.6L674.8 170.8L742.3 107.5L632.6-10.5L565.1 50.6Z" fill="#3b281c" fill-rule="nonzero" opacity="0.5" stroke="none"/>
<path d="M143.4 185.6L172.9 204.6L463.9-272L434.4-291L143.4 185.6Z" fill="#281915" fill-opacity="0.5" fill-rule="nonzero" opacity="1" stroke="none"/>
<path d="M438.6 128.6L-10.5 792.9L12.7 807.7L461.9 143.4L438.6 128.6Z" fill="#1a1010" fill-opacity="0.5" fill-rule="nonzero" opacity="1" stroke="none"/>
<path d="M710.6 99.1L742.2 103.3L799.1-244.6L767.5-248.8L710.6 99.1Z" fill="#c4cf97" fill-opacity="0.5" fill-rule="nonzero" opacity="1" stroke="none"/>
<path d="M463.751 92.6665C459.417 75.7606 481.493 55.4967 513.058 47.4059C544.623 39.3151 573.724 46.4612 578.057 63.3671C582.391 80.2731 560.315 100.537 528.75 108.628C497.186 116.719 468.084 109.572 463.751 92.6665Z" fill="#fff17f" fill-opacity="0.5" fill-rule="nonzero" opacity="1" stroke="none"/>
<path d="M653.501 88.3091C640.731 70.2153 634.22 52.8368 638.957 49.4931C643.695 46.1494 657.888 58.1067 670.658 76.2005C683.427 94.2943 689.939 111.673 685.201 115.017C680.463 118.36 666.27 106.403 653.501 88.3091Z" fill="#fac77f" fill-rule="nonzero" opacity="0.5" stroke="none"/>
<path d="M406.955 74.9411C405.186 55.2484 409.415 38.7755 416.401 38.1478C423.387 37.5201 430.485 52.9754 432.254 72.6681C434.023 92.3608 429.794 108.834 422.808 109.461C415.822 110.089 408.725 94.6338 406.955 74.9411Z" fill="#3d0000" fill-rule="nonzero" opacity="0.5" stroke="none"/>
<path d="M770.571 163.013C767.594 151.746 777.042 139.48 791.672 135.615C806.302 131.75 820.575 137.75 823.551 149.017C826.527 160.283 817.08 172.549 802.45 176.414C787.82 180.279 773.547 174.279 770.571 163.013Z" fill="#ded192" fill-opacity="0.5" fill-rule="nonzero" opacity="1" stroke="none"/>
<path d="M153.91 62.5181C147.486 54.221 156.474 36.5037 173.986 22.9456C191.497 9.38741 210.9 5.12251 217.324 13.4197C223.748 21.7168 214.76 39.434 197.249 52.9922C179.738 66.5503 160.334 70.8152 153.91 62.5181Z" fill="#987848" fill-opacity="0.5" fill-rule="nonzero" opacity="1" stroke="none"/>
</g>
</svg>
