<?xml version="1.0" encoding="UTF-8" standalone="no"?>
<!DOCTYPE svg PUBLIC "-//W3C//DTD SVG 1.1//EN" "http://www.w3.org/Graphics/SVG/1.1/DTD/svg11.dtd">
<!-- Created with Vectornator (http://vectornator.io/) -->
<svg height="100%" stroke-miterlimit="10" style="fill-rule:nonzero;clip-rule:evenodd;stroke-linecap:round;stroke-linejoin:round;" version="1.1" viewBox="0 0 770 190" width="100%" xml:space="preserve" xmlns="http://www.w3.org/2000/svg" xmlns:vectornator="http://vectornator.io" xmlns:xlink="http://www.w3.org/1999/xlink">
<defs/>
<clipPath id="ArtboardFrame">
<rect height="190" width="770" x="0" y="0"/>
</clipPath>
<g clip-path="url(#ArtboardFrame)" id="Untitled" vectornator:layerName="Untitled">
<g opacity="1">
<path d="M-6.70479-58.7588L772.919-58.7588L772.919-58.7588L772.919 374.24L772.919 374.24L-6.70479 374.24L-6.70479 374.24L-6.70479-58.7588L-6.70479-58.7588Z" fill="#19639c" fill-rule="nonzero" opacity="1" stroke="none"/>
<path d="M615.046 20.2035L-74.918 378.426L139.481 779.021L829.445 420.799L615.046 20.2035Z" fill="#0c2951" fill-opacity="0.5" fill-rule="nonzero" opacity="1" stroke="none"/>
<path d="M310.988-39.5019L223.287 106.875L457.174 241.693L544.875 95.3164L310.988-39.5019Z" fill="#b29779" fill-opacity="0.5" fill-rule="nonzero" opacity="1" stroke="none"/>
<path d="M441.581 343.761L735.89 667.319L1049.69 386.134L755.378 62.5767L441.581 343.761Z" fill="#002a75" fill-opacity="0.5" fill-rule="nonzero" opacity="1" stroke="none"/>
<path d="M-6.70479 129.981L211.59 99.1657L168.708-193.577L-47.6389-162.762C-47.6389-162.762-6.70478 129.981-6.70479 129.981Z" fill="#1abce7" fill-opacity="0.5" fill-rule="nonzero" opacity="1" stroke="none"/>
<path d="M172.614 72.2102L-250.341 339.912L-86.6149 588.357L334.382 320.655L172.614 72.2102Z" fill="#005297" fill-opacity="0.5" fill-rule="nonzero" opacity="1" stroke="none"/>
<path d="M388.95 207.018L351.922 407.316L523.439 438.131L560.467 237.833L388.95 207.018Z" fill="#062a50" fill-opacity="0.5" fill-rule="nonzero" opacity="1" stroke="none"/>
<path d="M256.419 8.64527L266.169 276.347L330.486 272.498L320.737 4.79594L256.419 8.64527Z" fill="#3c484f" fill-opacity="0.5" fill-rule="nonzero" opacity="1" stroke="none"/>
<path d="M535.136 212.802L681.312 268.659L751.483 87.6177L605.307 31.7616L535.136 212.802Z" fill="#005b9e" fill-opacity="0.5" fill-rule="nonzero" opacity="1" stroke="none"/>
<path d="M322.685 129.981L496.15 156.946L511.742 60.652L338.277 33.6863L322.685 129.981Z" fill="#a49998" fill-opacity="0.5" fill-rule="nonzero" opacity="1" stroke="none"/>
<path d="M248.618 33.6863L-148.985 56.8027L-139.236 218.587L256.419 195.47C256.419 195.47 248.618 33.6863 248.618 33.6863Z" fill="#0079b0" fill-opacity="0.5" fill-rule="nonzero" opacity="1" stroke="none"/>
<path d="M669.615 191.611L537.073 601.84L724.183 659.62L856.724 249.392L669.615 191.611Z" fill="#00296e" fill-opacity="0.5" fill-rule="nonzero" opacity="1" stroke="none"/>
<path d="M221.339-22.1698L180.405 0.94661L513.69 511.319L554.624 488.203L221.339-22.1698Z" fill="#263b50" fill-opacity="0.5" fill-rule="nonzero" opacity="1" stroke="none"/>
<path d="M260.315 170.429L-6.70479 251.316L20.5846 341.837L287.604 260.95L260.315 170.429Z" fill="#005694" fill-opacity="0.5" fill-rule="nonzero" opacity="1" stroke="none"/>
<path d="M542.927 27.9123L494.202 51.0287L634.534 328.364L683.259 305.248L542.927 27.9123Z" fill="#004379" fill-opacity="0.5" fill-rule="nonzero" opacity="1" stroke="none"/>
<path d="M441.581-31.7931L414.292 20.2035L718.35 164.655L745.639 112.659L441.581-31.7931Z" fill="#115682" fill-opacity="0.5" fill-rule="nonzero" opacity="1" stroke="none"/>
<path d="M494.202 158.871L385.055 220.501L435.728 303.313L544.875 241.683L494.202 158.871Z" fill="#43413e" fill-opacity="0.5" fill-rule="nonzero" opacity="1" stroke="none"/>
<path d="M396.752 218.576L525.387 216.652L523.439 95.3164L394.804 97.241L396.752 218.576Z" fill="#818488" fill-opacity="0.5" fill-rule="nonzero" opacity="1" stroke="none"/>
<path d="M307.092 151.172L273.96 195.47L410.396 285.991L443.529 241.693L307.092 151.172Z" fill="#383739" fill-opacity="0.5" fill-rule="nonzero" opacity="1" stroke="none"/>
<path d="M570.216 226.285L603.349 318.73L806.051 243.618L772.919 151.172L570.216 226.285Z" fill="#004485" fill-rule="nonzero" opacity="0.5" stroke="none"/>
<path d="M184.3 37.5356L-18.4017 54.8678L-6.7048 155.022L194.049 137.69C194.049 137.69 184.3 37.5356 184.3 37.5356Z" fill="#0084be" fill-opacity="0.5" fill-rule="nonzero" opacity="1" stroke="none"/>
<path d="M613.098 54.8678L753.431 129.981L1059.44-424.69L919.104-499.803L613.098 54.8678Z" fill="#255e9f" fill-opacity="0.5" fill-rule="nonzero" opacity="1" stroke="none"/>
</g>
</g>
</svg>
