<?xml version="1.0" encoding="UTF-8" standalone="no"?>
<!DOCTYPE svg PUBLIC "-//W3C//DTD SVG 1.1//EN" "http://www.w3.org/Graphics/SVG/1.1/DTD/svg11.dtd">
<!-- Created with Vectornator (http://vectornator.io/) -->
<svg height="100%" stroke-miterlimit="10" style="fill-rule:nonzero;clip-rule:evenodd;stroke-linecap:round;stroke-linejoin:round;" version="1.1" viewBox="0 0 1200 870" width="100%" xml:space="preserve" xmlns="http://www.w3.org/2000/svg" xmlns:vectornator="http://vectornator.io" xmlns:xlink="http://www.w3.org/1999/xlink">
<defs/>
<clipPath id="ArtboardFrame">
<rect height="870" width="1200" x="0" y="0"/>
</clipPath>
<g clip-path="url(#ArtboardFrame)" id="Untitled" vectornator:layerName="Untitled">
<g opacity="1">
<path d="M-337.606 0.927603L1204.62 0.927603L1204.62 0.927603L1204.62 935.767L1204.62 935.767L-337.606 935.767L-337.606 935.767L-337.606 0.927603L-337.606 0.927603Z" fill="#19639c" fill-rule="nonzero" opacity="1" stroke="none"/>
<path d="M892.318 140.852L-472.543 775.636L-48.4475 1485.5L1316.44 850.723L892.318 140.852Z" fill="#0c2951" fill-opacity="0.5" fill-rule="nonzero" opacity="1" stroke="none"/>
<path d="M290.841 35.0516L117.334 294.437L580 533.34L753.508 273.955L290.841 35.0516Z" fill="#b29779" fill-opacity="0.5" fill-rule="nonzero" opacity="1" stroke="none"/>
<path d="M-299.056 137.442L599.285 93.0676L568.441-357.436L-329.9-313.062L-299.056 137.442Z" fill="#49ecff" fill-opacity="0.5" fill-rule="nonzero" opacity="1" stroke="none"/>
<path d="M549.176 714.21L1131.37 1287.56L1752.11 789.297L1169.92 215.939L549.176 714.21Z" fill="#002a75" fill-opacity="0.5" fill-rule="nonzero" opacity="1" stroke="none"/>
<path d="M-337.606 335.382L94.2156 280.777L9.3884-237.975L-418.58-183.37L-337.606 335.382Z" fill="#1abce7" fill-opacity="0.5" fill-rule="nonzero" opacity="1" stroke="none"/>
<path d="M17.1147 233.01L-819.558 707.389L-495.681 1147.64L337.118 673.265L17.1147 233.01Z" fill="#005297" fill-opacity="0.5" fill-rule="nonzero" opacity="1" stroke="none"/>
<path d="M607.012 69.1936L749.675 256.903L1416.68-132.175L1274.01-319.884L607.012 69.1936Z" fill="#2783c3" fill-opacity="0.5" fill-rule="nonzero" opacity="1" stroke="none"/>
<path d="M445.063 471.896L371.816 826.831L711.104 881.437L784.352 526.501L445.063 471.896Z" fill="#062a50" fill-opacity="0.5" fill-rule="nonzero" opacity="1" stroke="none"/>
<path d="M182.896 120.371L202.181 594.749L329.412 587.928L310.127 113.55L182.896 120.371Z" fill="#3c484f" fill-opacity="0.5" fill-rule="nonzero" opacity="1" stroke="none"/>
<path d="M734.243 482.146L1023.4 581.125L1162.21 260.313L873.053 161.334L734.243 482.146Z" fill="#005b9e" fill-opacity="0.5" fill-rule="nonzero" opacity="1" stroke="none"/>
<path d="M313.98 335.382L657.121 383.166L687.966 212.529L344.824 164.745L313.98 335.382Z" fill="#a49998" fill-opacity="0.5" fill-rule="nonzero" opacity="1" stroke="none"/>
<path d="M969.419 523.091L-854.255 683.496L-796.42 1164.71L1023.4 1004.3L969.419 523.091Z" fill="#003876" fill-opacity="0.5" fill-rule="nonzero" opacity="1" stroke="none"/>
<path d="M167.464 164.745L-619.079 205.708L-599.794 492.395L182.876 451.432L167.443 164.745L167.464 164.745Z" fill="#0079b0" fill-opacity="0.5" fill-rule="nonzero" opacity="1" stroke="none"/>
<path d="M1000.26 444.593L738.075 1171.53L1108.21 1273.92L1370.4 546.983L1000.26 444.593Z" fill="#00296e" fill-opacity="0.5" fill-rule="nonzero" opacity="1" stroke="none"/>
<path d="M240.732 123.799L502.92 137.46L556.902-534.877L294.715-548.537L240.732 123.799Z" fill="#1094ce" fill-opacity="0.5" fill-rule="nonzero" opacity="1" stroke="none"/>
<path d="M113.501 65.7646L32.5268 106.728L691.819 1011.13L772.793 970.164L113.501 65.7646Z" fill="#263b50" fill-opacity="0.5" fill-rule="nonzero" opacity="1" stroke="none"/>
<path d="M-252.779 41.8906L-17.5827 76.0146L71.0772-412.024L-164.099-446.147L-252.779 41.8906Z" fill="#88d7f2" fill-opacity="0.5" fill-rule="nonzero" opacity="1" stroke="none"/>
<path d="M-90.8511 700.567L152.052 1639.09L807.49 1505.99L564.588 567.464L-90.8511 700.567Z" fill="#003f83" fill-opacity="0.5" fill-rule="nonzero" opacity="1" stroke="none"/>
<path d="M179.043 55.5336L209.887 171.566L1004.14 0.927603L973.292-111.694L179.043 55.5336Z" fill="#278dbe" fill-opacity="0.5" fill-rule="nonzero" opacity="1" stroke="none"/>
<path d="M190.602 407.059L-337.606 550.393L-283.623 710.799L244.585 567.464L190.602 407.059Z" fill="#005694" fill-opacity="0.5" fill-rule="nonzero" opacity="1" stroke="none"/>
<path d="M749.655 154.513L653.268 195.476L930.868 686.925L1027.25 645.962L749.655 154.513Z" fill="#004379" fill-opacity="0.5" fill-rule="nonzero" opacity="1" stroke="none"/>
<path d="M549.176 48.7116L495.193 140.852L1096.67 396.809L1150.66 304.669L549.176 48.7116Z" fill="#115682" fill-opacity="0.5" fill-rule="nonzero" opacity="1" stroke="none"/>
<path d="M653.268 386.577L437.357 495.788L537.597 642.533L753.508 533.322L653.268 386.577Z" fill="#43413e" fill-opacity="0.5" fill-rule="nonzero" opacity="1" stroke="none"/>
<path d="M460.496 492.377L714.957 488.967L711.104 273.955L456.643 277.366L460.496 492.377Z" fill="#818488" fill-opacity="0.5" fill-rule="nonzero" opacity="1" stroke="none"/>
<path d="M283.135 372.935L217.593 451.432L487.487 611.838L553.029 533.34L283.135 372.935Z" fill="#383739" fill-opacity="0.5" fill-rule="nonzero" opacity="1" stroke="none"/>
<path d="M-248.721-493.939L391.303-507.587L391.303-507.587L406.351 45.3086L406.351 45.3086L-233.674 58.9566L-233.674 58.9566L-248.721-493.939L-248.721-493.939Z" fill="#53c4e6" fill-rule="nonzero" opacity="0.5" stroke="none"/>
<path d="M803.637 506.038L869.179 669.854L1270.16 536.751L1204.62 372.935L803.637 506.038Z" fill="#004485" fill-rule="nonzero" opacity="0.5" stroke="none"/>
<path d="M40.2328 171.566L-360.745 202.279L-337.606 379.756L59.5182 349.042C59.5182 349.042 40.2328 171.566 40.2328 171.566Z" fill="#0084be" fill-opacity="0.5" fill-rule="nonzero" opacity="1" stroke="none"/>
<path d="M423.614 125.218L701.214 258.321L1306.53-724.577L1028.92-857.681L423.614 125.218Z" fill="#255e9f" fill-opacity="0.5" fill-rule="nonzero" opacity="1" stroke="none"/>
</g>
</g>
</svg>
