<?xml version="1.0" encoding="UTF-8" standalone="no"?>
<!DOCTYPE svg PUBLIC "-//W3C//DTD SVG 1.1//EN" "http://www.w3.org/Graphics/SVG/1.1/DTD/svg11.dtd">
<!-- Created with Vectornator (http://vectornator.io/) -->
<svg height="100%" stroke-miterlimit="10" style="fill-rule:nonzero;clip-rule:evenodd;stroke-linecap:round;stroke-linejoin:round;" version="1.1" viewBox="0 0 921 225" width="100%" xml:space="preserve" xmlns="http://www.w3.org/2000/svg" xmlns:vectornator="http://vectornator.io" xmlns:xlink="http://www.w3.org/1999/xlink">
<defs/>
<clipPath id="ArtboardFrame">
<rect height="225" width="921" x="0" y="0"/>
</clipPath>
<g clip-path="url(#ArtboardFrame)" id="Untitled" vectornator:layerName="Untitled">
<path d="M537.91 130.669L333.32 335.259L436.76 436.399L641.35 231.809L537.91 130.669Z" fill="#f4e2bc" fill-opacity="0.5" fill-rule="nonzero" opacity="1" stroke="none"/>
<path d="M383.89 155.959L335.62 220.319L685.03 480.079L733.3 415.719L383.89 155.959Z" fill="#72471c" fill-opacity="0.5" fill-rule="nonzero" opacity="1" stroke="none"/>
</g>
<g id="Artboard1" vectornator:layerName="Artboard1">
<g opacity="1">
<clipPath id="ClipPath">
<path d="M0.000324011 3.92649e-05L920.404 3.92649e-05L920.404 3.92649e-05L920.404 224.662L920.404 224.662L0.000324011 224.662L0.000324011 224.662L0.000324011 3.92649e-05L0.000324011 3.92649e-05Z"/>
</clipPath>
<g clip-path="url(#ClipPath)">
<path d="M0-126.791L1289-126.791L1289-126.791L1289 227.9L1289 227.9L0 227.9L0 227.9L0-126.791L0-126.791Z" fill="#706351" fill-rule="evenodd" opacity="1" stroke="none"/>
<path d="M524.11-16.451L108.04 197.33L289.64 549.041L705.71 335.26L524.11-16.451Z" fill="#ffb163" fill-opacity="0.5" fill-rule="nonzero" opacity="1" stroke="none"/>
<path d="M29.88 1.9391L533.31 29.5192L540.21-131.391L36.78-158.971L29.88 1.9391Z" fill="#004660" fill-opacity="0.5" fill-rule="nonzero" opacity="1" stroke="none"/>
<path d="M498.83 24.9292L202.29 1054.77L779.28 1220.28L1075.81 190.44L498.83 24.9292Z" fill="#e49b6b" fill-opacity="0.5" fill-rule="nonzero" opacity="1" stroke="none"/>
<path d="M291.94 50.2092L724.1 98.4794L825.24-777.343L393.08-825.613L291.94 50.2092Z" fill="#797777" fill-opacity="0.5" fill-rule="nonzero" opacity="1" stroke="none"/>
<path d="M0 64.0093L236.77 59.4093L229.87-262.412L-4.6-257.822L0 64.0093Z" fill="#09231b" fill-opacity="0.5" fill-rule="nonzero" opacity="1" stroke="none"/>
<path d="M685.03 24.9292L710.32 116.879L1696.48-149.781L1671.19-241.732L685.03 24.9292Z" fill="#34648f" fill-opacity="0.5" fill-rule="nonzero" opacity="1" stroke="none"/>
<path d="M78.16 24.9292L-108.04 109.979L75.86 519.161L262.06 434.11L78.16 24.9292Z" fill="#ac5c1d" fill-opacity="0.5" fill-rule="nonzero" opacity="1" stroke="none"/>
<path d="M558.6 41.0192L517.22 77.7993L671.24 241.01L712.62 204.23L558.6 41.0192Z" fill="#a53500" fill-opacity="0.5" fill-rule="nonzero" opacity="1" stroke="none"/>
<path d="M834.45 82.3993L673.54 149.06L742.5 307.67L903.41 241.01L834.45 82.3993Z" fill="#9b99a5" fill-opacity="0.5" fill-rule="nonzero" opacity="1" stroke="none"/>
<path d="M273.55 116.879L397.68 185.84L498.82-2.66091L374.69-71.6211L273.55 116.879Z" fill="#6b767b" fill-opacity="0.5" fill-rule="nonzero" opacity="1" stroke="none"/>
<path d="M291.94-44.041L599.97 6.52913L682.72-490.002L374.69-540.572L291.94-44.041Z" fill="#29667e" fill-opacity="0.5" fill-rule="nonzero" opacity="1" stroke="none"/>
<path d="M537.91-9.55093L560.9 34.1292L797.67-103.801L774.68-145.181L537.91-9.55093Z" fill="#cb8051" fill-opacity="0.5" fill-rule="nonzero" opacity="1" stroke="none"/>
<path d="M551.7-9.55093L443.66 73.1993L501.13 146.76L609.17 64.0093L551.7-9.55093Z" fill="#ef6200" fill-opacity="0.5" fill-rule="nonzero" opacity="1" stroke="none"/>
</g>
</g>
</g>
</svg>
