<?xml version="1.0" encoding="UTF-8"?><svg id="Layer_1" xmlns="http://www.w3.org/2000/svg" viewBox="0 0 670 160"><defs><style>.cls-1{fill:#cdd4cc;}.cls-2{fill:rgba(247,180,65,.5);}.cls-3{fill:rgba(0,40,36,.5);}.cls-4{fill:rgba(0,139,178,.5);}.cls-5{fill:rgba(0,13,0,.5);}.cls-6{fill:rgba(233,32,96,.5);}.cls-7{fill:rgba(255,229,69,.5);}.cls-8{fill:rgba(255,255,73,.5);}.cls-9{fill:rgba(255,205,97,.5);}.cls-10{fill:rgba(255,191,30,.5);}.cls-11{fill:rgba(255,194,48,.5);}.cls-12{fill:rgba(255,13,108,.5);}.cls-13{fill:rgba(204,0,3,.5);}.cls-14{fill:rgba(18,9,10,.5);}.cls-15{fill:rgba(34,0,0,.5);}.cls-16{fill:rgba(19,207,255,.5);}.cls-17{fill:rgba(81,86,28,.5);}</style></defs><rect class="cls-1" x="-121.75" y="-266.32" width="913.5" height="692.63"/><path class="cls-17" d="M38.11-99.6L-16.7,459.92l851.84,77.65L889.95-21.95,38.11-99.6Z"/><path class="cls-13" d="M-25.83-238.91L-404.94,179.02-44.1,503.31,335,85.38-25.83-238.91Z"/><path class="cls-4" d="M444.62-156.7L846.56,137.91l196.4-274.05-401.94-292.32L444.62-156.7Z"/><path class="cls-10" d="M273.34,5.45l221.52,308.31,214.67-157.58L488.01-152.13,273.34,5.45Z"/><path class="cls-16" d="M606.77,354.86l155.3,79.93L967.6,35.14l-155.3-79.93-205.54,399.66Z"/><path d="M88.36,101.37l-9.14,109.62,219.24,13.7,9.14-109.62-219.24-13.7Z"/><path class="cls-12" d="M-32.68,83.1L-299.88,220.12l157.58,308.31L122.61,391.4-32.68,83.1Z"/><path class="cls-3" d="M115.76,195h84.5l4.57-221.52H120.33l-4.57,221.52Z"/><path class="cls-8" d="M44.96-104.17L-66.94,117.35l111.9,54.81L156.87-49.36,44.96-104.17Z"/><path class="cls-11" d="M366.97,133.34l-102.77,82.22,77.65,93.63,102.77-82.22-77.65-93.63Z"/><path class="cls-7" d="M111.19-122.44L-57.8-8.25,3.86,80.81,172.85-33.37l-61.66-89.07Z"/><path class="cls-15" d="M611.33-97.32l-34.26,38.82,134.74,114.19,34.26-38.82-134.74-114.19Z"/><path class="cls-6" d="M-73.79-106.45l-130.17,18.27L-112.61,512.44l130.17-18.27L-73.79-106.45Z"/><path class="cls-2" d="M567.94-101.89L364.69,71.68l134.74,157.58L702.68,55.69l-134.74-157.58Z"/><path class="cls-5" d="M252.79,151.61l59.38-2.28L307.6,3.17l-59.38,2.28,4.57,146.16Z"/><path class="cls-14" d="M700.4,5.45l-63.95,22.84,52.53,143.88,63.95-22.84L700.4,5.45Z"/><path class="cls-9" d="M296.18,21.44L458.32-1.4l-15.99-127.89-162.15,22.84,15.99,127.89Z"/></svg>