<?xml version="1.0" encoding="UTF-8"?><svg id="Layer_1" xmlns="http://www.w3.org/2000/svg" viewBox="0 0 670 480"><defs><style>.cls-1{fill:#cdd4cc;}.cls-2{fill:rgba(247,180,65,.5);}.cls-3{fill:rgba(0,40,36,.5);}.cls-4{fill:rgba(0,139,178,.5);}.cls-5{fill:rgba(0,13,0,.5);}.cls-6{fill:rgba(233,32,96,.5);}.cls-7{fill:rgba(255,229,69,.5);}.cls-8{fill:rgba(255,255,73,.5);}.cls-9{fill:rgba(255,205,97,.5);}.cls-10{fill:rgba(255,191,30,.5);}.cls-11{fill:rgba(255,4,55,.5);}.cls-12{fill:rgba(255,194,48,.5);}.cls-13{fill:rgba(255,13,108,.5);}.cls-14{fill:rgba(226,255,236,.5);}.cls-15{fill:rgba(45,206,217,.5);}.cls-16{fill:rgba(204,0,3,.5);}.cls-17{fill:rgba(18,9,10,.5);}.cls-18{fill:rgba(29,116,153,.5);}.cls-19{fill:rgba(34,0,0,.5);}.cls-20{fill:rgba(19,207,255,.5);}.cls-21{fill:rgba(41,228,255,.5);}.cls-22{fill:rgba(44,220,250,.5);}.cls-23{fill:rgba(59,191,227,.5);}.cls-24{fill:rgba(81,86,28,.5);}</style></defs><rect class="cls-1" x="-121.75" y="-106.32" width="913.5" height="692.63"/><path class="cls-24" d="M38.11,60.4L-16.7,619.92l851.84,77.65,54.81-559.52L38.11,60.4Z"/><path class="cls-16" d="M-25.83-78.91L-404.94,339.02-44.1,663.31,335,245.38-25.83-78.91Z"/><path class="cls-4" d="M444.62,3.3l401.94,294.6L1042.96,23.86l-401.94-292.32L444.62,3.3Z"/><path class="cls-21" d="M193.41,352.72l-79.93,264.92,655.44,189.55,79.93-264.92L193.41,352.72Z"/><path class="cls-18" d="M-7.56,39.84l573.22,36.54,15.99-246.65L8.42-206.8-7.56,39.84Z"/><path class="cls-10" d="M273.34,165.45l221.52,308.31,214.67-157.58L488.01,7.87l-214.67,157.58Z"/><path class="cls-20" d="M606.77,514.86l155.3,79.93,205.54-399.66-155.3-79.93-205.54,399.66Z"/><path d="M88.36,261.37l-9.14,109.62,219.24,13.7,9.14-109.62-219.24-13.7Z"/><path class="cls-11" d="M-66.94,158.6L152.3,71.82,26.69-250.19l-216.96,86.78L-66.94,158.6Z"/><path class="cls-13" d="M-32.68,243.1l-267.2,137.03,157.58,308.31L122.61,551.4-32.68,243.1Z"/><path class="cls-3" d="M115.76,355h84.5l4.57-221.52H120.33l-4.57,221.52Z"/><path class="cls-15" d="M136.31-65.21l27.41,162.15L951.61-44.65l-27.41-159.86L136.31-65.21Z"/><path class="cls-8" d="M44.96,55.83l-111.9,221.52,111.9,54.81L156.87,110.64,44.96,55.83Z"/><path class="cls-12" d="M366.97,293.34l-102.77,82.22,77.65,93.63,102.77-82.22-77.65-93.63Z"/><path class="cls-23" d="M186.56,359.57L-5.28,761.51l500.14,232.94,191.84-401.94L186.56,359.57Z"/><path class="cls-7" d="M111.19,37.56L-57.8,151.75,3.86,240.81,172.85,126.63,111.19,37.56Z"/><path class="cls-19" d="M611.33,62.68l-34.26,38.82,134.74,114.19,34.26-38.82-134.74-114.19Z"/><path class="cls-6" d="M-73.79,53.55l-130.17,18.27L-112.61,672.44l130.17-18.27L-73.79,53.55Z"/><path class="cls-2" d="M567.94,58.11l-203.25,173.57,134.74,157.58,203.25-173.57L567.94,58.11Z"/><path class="cls-5" d="M252.79,311.61l59.38-2.28-4.57-146.16-59.38,2.28,4.57,146.16Z"/><path class="cls-14" d="M156.87,42.13l-20.55,61.66,178.13,52.53,20.55-61.66L156.87,42.13Z"/><path class="cls-17" d="M700.4,165.45l-63.95,22.84,52.53,143.88,63.95-22.84-52.53-143.88Z"/><path class="cls-9" d="M296.18,181.44l162.15-22.84-15.99-127.89-162.15,22.84,15.99,127.89Z"/><path class="cls-22" d="M150.02,396.11L-299.88,1761.79l31.97,9.14L179.71,405.24l-29.69-9.14Z"/></svg>