<?xml version="1.0" encoding="UTF-8" standalone="no"?>
<!DOCTYPE svg PUBLIC "-//W3C//DTD SVG 1.1//EN" "http://www.w3.org/Graphics/SVG/1.1/DTD/svg11.dtd">
<!-- Created with Vectornator (http://vectornator.io/) -->
<svg height="100%" stroke-miterlimit="10" style="fill-rule:nonzero;clip-rule:evenodd;stroke-linecap:round;stroke-linejoin:round;" version="1.1" viewBox="0 0 400 80" width="100%" xml:space="preserve" xmlns="http://www.w3.org/2000/svg" xmlns:vectornator="http://vectornator.io" xmlns:xlink="http://www.w3.org/1999/xlink">
<defs/>
<clipPath id="ArtboardFrame">
<rect height="80" width="400" x="0" y="0"/>
</clipPath>
<g clip-path="url(#ArtboardFrame)" id="Untitled" vectornator:layerName="Untitled">
<path d="M0 0L400 0L400 0L400 80L400 80L0 80L0 80L0 0L0 0Z" fill="#79705b" fill-rule="nonzero" opacity="1" stroke="none"/>
<path d="M202 28L220 146L352 124L334 6L202 28Z" fill="#e6bc6e" fill-opacity="0.5" fill-rule="nonzero" opacity="1" stroke="none"/>
<path d="M228 29L53 49L67 176L242 156L228 29Z" fill="#c19140" fill-opacity="0.5" fill-rule="nonzero" opacity="1" stroke="none"/>
<path d="M276 74L303 113L599-88L572-127L276 74Z" fill="#795d29" fill-opacity="0.5" fill-rule="nonzero" opacity="1" stroke="none"/>
<path d="M10 10L22 62L254 8L242-43L10 10Z" fill="#483e2a" fill-opacity="0.5" fill-rule="nonzero" opacity="1" stroke="none"/>
<path d="M174 77L183 212L413 194L404 59L174 77Z" fill="#948e82" fill-opacity="0.5" fill-rule="nonzero" opacity="1" stroke="none"/>
<path d="M120 68L114 149L227 155L233 74L120 68Z" fill="#b7ada4" fill-opacity="0.5" fill-rule="nonzero" opacity="1" stroke="none"/>
<path d="M127 61L194 69L199 25L132 17L127 61Z" fill="#7e5920" fill-opacity="0.5" fill-rule="nonzero" opacity="1" stroke="none"/>
<path d="M128 67L0 73L4 147L132 141L128 67Z" fill="#a39585" fill-opacity="0.5" fill-rule="nonzero" opacity="1" stroke="none"/>
<path d="M189 32L191 51L346 30L344 11L189 32Z" fill="#e9cd90" fill-opacity="0.5" fill-rule="nonzero" opacity="1" stroke="none"/>
<path d="M146 48L306 55L306 46L146 39L146 48Z" fill="#f0c672" fill-opacity="0.5" fill-rule="nonzero" opacity="1" stroke="none"/>
<path d="M199 61L206 214L345 207L338 54L199 61Z" fill="#81683f" fill-opacity="0.5" fill-rule="nonzero" opacity="1" stroke="none"/>
<path d="M297 71L84 75L84 105L297 101L297 71Z" fill="#a99d89" fill-opacity="0.5" fill-rule="nonzero" opacity="1" stroke="none"/>
<path d="M373 51L459 109L565-47L479-105L373 51Z" fill="#5d4b28" fill-opacity="0.5" fill-rule="nonzero" opacity="1" stroke="none"/>
<path d="M22 26L-173 35L-171 65L23 56L22 26Z" fill="#353227" fill-opacity="0.5" fill-rule="nonzero" opacity="1" stroke="none"/>
<path d="M68 51L-35 65L-32 79L70 65L68 51Z" fill="#9c7224" fill-opacity="0.5" fill-rule="nonzero" opacity="1" stroke="none"/>
<path d="M333 5L470 65L505-16L368-76L333 5Z" fill="#6a6d58" fill-opacity="0.5" fill-rule="nonzero" opacity="1" stroke="none"/>
<path d="M213 11L184 44L201 58L230 25L213 11Z" fill="#c2994d" fill-opacity="0.5" fill-rule="nonzero" opacity="1" stroke="none"/>
<path d="M82 50L84 61L147 44L145 33L82 50Z" fill="#d9ab37" fill-opacity="0.5" fill-rule="nonzero" opacity="1" stroke="none"/>
<path d="M30 26L107 43L170-238L93-255L30 26Z" fill="#6d644f" fill-opacity="0.5" fill-rule="nonzero" opacity="1" stroke="none"/>
<path d="M321 25L276 50L281 59L326 34L321 25Z" fill="#cdc5b4" fill-opacity="0.5" fill-rule="nonzero" opacity="1" stroke="none"/>
<path d="M117 13L142 40L167 16L142-10L117 13Z" fill="#4c4741" fill-opacity="0.5" fill-rule="nonzero" opacity="1" stroke="none"/>
<path d="M357 44L553 92L555 80L359 32L357 44Z" fill="#78530d" fill-opacity="0.5" fill-rule="nonzero" opacity="1" stroke="none"/>
<path d="M338 73L103 64L96 243L331 252L338 73Z" fill="#a29478" fill-opacity="0.5" fill-rule="nonzero" opacity="1" stroke="none"/>
<path d="M91 9L304 21L311-119L98-131L91 9Z" fill="#695e46" fill-opacity="0.5" fill-rule="nonzero" opacity="1" stroke="none"/>
</g>
</svg>
