<?xml version="1.0" encoding="UTF-8" standalone="no"?>
<!DOCTYPE svg PUBLIC "-//W3C//DTD SVG 1.1//EN" "http://www.w3.org/Graphics/SVG/1.1/DTD/svg11.dtd">
<!-- Created with Vectornator (http://vectornator.io/) -->
<svg height="100%" stroke-miterlimit="10" style="fill-rule:nonzero;clip-rule:evenodd;stroke-linecap:round;stroke-linejoin:round;" version="1.1" viewBox="0 0 600 435" width="100%" xml:space="preserve" xmlns="http://www.w3.org/2000/svg" xmlns:vectornator="http://vectornator.io" xmlns:xlink="http://www.w3.org/1999/xlink">
<defs/>
<clipPath id="ArtboardFrame">
<rect height="435" width="600" x="0" y="0"/>
</clipPath>
<g clip-path="url(#ArtboardFrame)" id="Untitled" vectornator:layerName="Untitled">
<path d="M-13.4591-6.62163L598.685-6.62163L598.685-6.62163L598.685 439.733L598.685 439.733L-13.4591 439.733L-13.4591 439.733L-13.4591-6.62163L-13.4591-6.62163Z" fill="#736b55" fill-rule="nonzero" opacity="1" stroke="none"/>
<path d="M214.565 201.507L416.572 516.761L687.446 340.77L485.438 25.5159L214.565 201.507Z" fill="#d7ac5e" fill-opacity="0.5" fill-rule="nonzero" opacity="1" stroke="none"/>
<path d="M468.604 209.159L519.106 374.438L667.551 326.997L617.049 161.718L468.604 209.159Z" fill="#4d360d" fill-opacity="0.5" fill-rule="nonzero" opacity="1" stroke="none"/>
<path d="M156.411 183.143L21.7392 441.774L271.188 568.794L405.86 310.163L156.411 183.143Z" fill="#c09247" fill-opacity="0.5" fill-rule="nonzero" opacity="1" stroke="none"/>
<path d="M499.211 91.3214L295.674 95.9125L300.265 305.572L503.803 300.981L499.211 91.3214Z" fill="#e6c98e" fill-opacity="0.5" fill-rule="nonzero" opacity="1" stroke="none"/>
<path d="M180.897 4.09089L118.152 167.839L252.824 218.341L315.568 54.5928L180.897 4.09089Z" fill="#403323" fill-opacity="0.5" fill-rule="nonzero" opacity="1" stroke="none"/>
<path d="M228.338 242.827L182.427 291.799L304.856 398.924L350.767 349.952L228.338 242.827Z" fill="#563102" fill-opacity="0.5" fill-rule="nonzero" opacity="1" stroke="none"/>
<path d="M107.439 331.588L82.9536 437.183L447.179 515.231L471.665 409.636L107.439 331.588Z" fill="#a89d8d" fill-opacity="0.5" fill-rule="nonzero" opacity="1" stroke="none"/>
<path d="M61.5285 31.6374L-195.572 60.7142L-161.904 331.588L93.6661 302.511L61.5285 31.6374Z" fill="#453e2b" fill-opacity="0.5" fill-rule="nonzero" opacity="1" stroke="none"/>
<path d="M546.653 118.868L410.451 359.134L471.665 392.802L607.867 152.536L546.653 118.868Z" fill="#745418" fill-opacity="0.5" fill-rule="nonzero" opacity="1" stroke="none"/>
<path d="M419.633 421.879L557.365 581.037L714.992 443.304L577.26 284.147L419.633 421.879Z" fill="#7a786f" fill-opacity="0.5" fill-rule="nonzero" opacity="1" stroke="none"/>
<path d="M549.713 278.025L314.038 363.725L324.75 392.802L560.426 307.102L549.713 278.025Z" fill="#6c5229" fill-opacity="0.5" fill-rule="nonzero" opacity="1" stroke="none"/>
<path d="M12.557 34.6981L49.2856 167.839L401.268 66.8356L364.54-64.7753L12.557 34.6981Z" fill="#59523f" fill-opacity="0.5" fill-rule="nonzero" opacity="1" stroke="none"/>
<path d="M108.97 268.843L-22.6413 331.588L15.6177 412.697L147.229 349.952L108.97 268.843Z" fill="#a27626" fill-opacity="0.5" fill-rule="nonzero" opacity="1" stroke="none"/>
<path d="M399.738 68.366L49.2856 313.224L75.3018 351.483L425.754 106.625L399.738 68.366Z" fill="#bb9541" fill-opacity="0.5" fill-rule="nonzero" opacity="1" stroke="none"/>
<path d="M87.5446 37.7588L-131.297 146.414L-41.0056 325.466L176.306 216.811L87.5446 37.7588Z" fill="#5b5542" fill-opacity="0.5" fill-rule="nonzero" opacity="1" stroke="none"/>
<path d="M59.9982 377.499L-54.7788 417.288L110.5 877.926L225.277 838.137L59.9982 377.499Z" fill="#948c85" fill-opacity="0.5" fill-rule="nonzero" opacity="1" stroke="none"/>
<path d="M113.561 394.333L113.561 530.535L335.463 529.004L335.463 392.802L113.561 394.333Z" fill="#b2a492" fill-opacity="0.5" fill-rule="nonzero" opacity="1" stroke="none"/>
<path d="M321.69 163.248L318.629 209.159L372.192 210.689L375.252 164.779L321.69 163.248Z" fill="#fffdd7" fill-opacity="0.5" fill-rule="nonzero" opacity="1" stroke="none"/>
<path d="M242.111 31.6374L402.799 124.989L477.786-6.62163L317.099-98.4432L242.111 31.6374Z" fill="#665c42" fill-opacity="0.5" fill-rule="nonzero" opacity="1" stroke="none"/>
<path d="M502.272 51.532L451.77 56.1231L464.013 173.961L514.515 169.37L502.272 51.532Z" fill="#dccca5" fill-opacity="0.5" fill-rule="nonzero" opacity="1" stroke="none"/>
<path d="M410.451 105.095L326.281 129.58L341.584 181.613L425.754 157.127L410.451 105.095Z" fill="#ebd091" fill-opacity="0.5" fill-rule="nonzero" opacity="1" stroke="none"/>
<path d="M124.273 192.325L268.127 224.463L291.083 115.807L147.229 83.6696L124.273 192.325Z" fill="#64523a" fill-opacity="0.5" fill-rule="nonzero" opacity="1" stroke="none"/>
<path d="M376.783 111.216L439.527 135.702L479.317 33.1677L416.572 8.68197L376.783 111.216Z" fill="#948059" fill-opacity="0.5" fill-rule="nonzero" opacity="1" stroke="none"/>
<path d="M33.982 356.074L30.9213 377.499L445.649 408.106L448.71 386.681L33.982 356.074Z" fill="#997e45" fill-opacity="0.5" fill-rule="nonzero" opacity="1" stroke="none"/>
</g>
</svg>
