<?xml version="1.0" encoding="UTF-8"?><svg id="Layer_1" xmlns="http://www.w3.org/2000/svg" viewBox="0 0 670 160"><defs><style>.cls-1{fill:#34421f;}.cls-2{fill:rgba(4,15,1,.5);}.cls-3{fill:rgba(6,18,0,.5);}.cls-4{fill:rgba(0,7,0,.5);}.cls-5{fill:rgba(101,120,57,.5);}.cls-6{fill:rgba(124,145,90,.5);}.cls-7{fill:rgba(18,28,10,.5);}.cls-8{fill:rgba(66,85,37,.5);}.cls-9{fill:rgba(24,40,14,.5);}.cls-10{fill:rgba(12,25,5,.5);}.cls-11{fill:rgba(61,82,40,.5);}.cls-12{fill:rgba(110,131,73,.5);}.cls-13{fill:rgba(113,132,74,.5);}.cls-14{fill:rgba(90,108,54,.5);}.cls-15{fill:rgba(100,119,65,.5);}.cls-16{fill:rgba(38,51,20,.5);}.cls-17{fill:rgba(47,61,22,.5);}.cls-18{fill:rgba(52,69,33,.5);}.cls-19{fill:rgba(89,108,62,.5);}.cls-20{fill:rgba(80,100,51,.5);}</style></defs><rect class="cls-1" width="670" height="160"/><path class="cls-13" d="m319.65-34.61l156.57,248.67L836.94-13.12l-156.57-247.13L319.65-34.61Z"/><path d="m158.48,108.14l-219.5,6.14,6.14,136.61,217.97-6.14-4.6-136.61Z"/><path class="cls-19" d="m113.96,59.02l185.73,64.47,122.8-357.65-185.73-64.47L113.96,59.02Z"/><path class="cls-14" d="m183.04,8.37l-9.21,317.74,76.75,1.53,9.21-317.74-76.75-1.53Z"/><path class="cls-2" d="m319.65,184.89l46.05,89.03,72.14-38.37-46.05-89.03-72.14,38.37Z"/><path class="cls-15" d="m261.32-66.85L-13.44-277.14l-95.17,124.33L164.62,55.95l96.7-122.8Z"/><path class="cls-8" d="m509.99-28.47l93.63,239.46,178.06-72.14-93.63-237.92L509.99-28.47Z"/><path class="cls-9" d="m236.76-8.52l58.33,10.74,69.07-383.75-58.33-10.74L236.76-8.52Z"/><path class="cls-6" d="m427.1-59.17l-58.33,21.49,50.65,135.08,58.33-21.49-50.65-135.08Z"/><path class="cls-7" d="m235.23,224.8l213.36,405.24,130.47-70.61-213.36-405.24-130.47,70.61Z"/><path class="cls-10" d="m123.17,92.79L-114.75,389.05l95.17,73.68L216.81,166.47l-93.63-73.68Z"/><path class="cls-16" d="m589.81-5.45l42.98,102.84,116.66-50.65-42.98-102.84-116.66,50.65Z"/><path class="cls-12" d="m494.64-40.75l-3.07,191.87h39.91l3.07-191.87h-39.91Z"/><path class="cls-20" d="m245.97-40.75L-21.12,2.23l10.74,56.79L255.18,16.04l-9.21-56.79Z"/><path class="cls-18" d="m118.57,141.91l47.58,32.23L290.49-5.45l-47.58-32.23-124.33,179.59Z"/><path class="cls-4" d="m54.1,137.31l-121.26,50.65,55.26,124.33,119.73-50.65-53.72-124.33Z"/><path class="cls-5" d="m149.27-74.52L46.42-11.59l16.88,29.16,102.84-62.93-16.88-29.16Z"/><path class="cls-3" d="m29.54,48.28l-116.66,67.54L-14.98,238.62l115.12-67.54L29.54,48.28Z"/><path class="cls-17" d="m279.74-68.38l153.5,204.15,18.42-15.35-153.5-202.62-18.42,13.81Z"/><path class="cls-11" d="m454.73,209.45l15.35,26.09L800.1,31.39l-15.35-26.09-330.02,204.15Z"/></svg>