<?xml version="1.0" encoding="UTF-8"?><svg id="Layer_1" xmlns="http://www.w3.org/2000/svg" xmlns:xlink="http://www.w3.org/1999/xlink" viewBox="0 0 670 480"><defs><style>.cls-1{fill:#83645a;}.cls-2{fill:rgba(255,159,145,.5);}.cls-3{fill:rgba(240,162,153,.5);}.cls-4{fill:rgba(125,140,154,.5);}.cls-5{fill:rgba(140,165,195,.5);}.cls-6{fill:rgba(205,173,172,.5);}.cls-7{fill:rgba(176,115,113,.5);}.cls-8{fill:rgba(213,146,118,.5);}.cls-9{fill:rgba(64,69,76,.5);}.cls-10{fill:rgba(149,123,110,.5);}.cls-11{fill:rgba(138,108,113,.5);}.cls-12{fill:rgba(109,114,104,.5);}.cls-13{fill:rgba(119,101,109,.5);}.cls-14{fill:rgba(79,105,113,.5);}.cls-15{fill:rgba(79,75,75,.5);}.cls-16{fill:rgba(77,71,73,.5);}.cls-17{filter:url(#g0.6-4);}.cls-18{filter:url(#g0.6-2);}.cls-19{filter:url(#g0.6-3);}.cls-20{filter:url(#g1);}.cls-21{filter:url(#g0.6);}.cls-22{fill:#c98e88;}.cls-22,.cls-23,.cls-24,.cls-25,.cls-26{opacity:.5;}.cls-23{fill:#bea184;}.cls-24{fill:#c47675;}.cls-25{fill:#8b9171;}.cls-26{fill:#696469;}</style><filter id="g0.6"><feGaussianBlur stdDeviation="0.6"/></filter><filter id="g0.6-2"><feGaussianBlur stdDeviation="0.6"/></filter><filter id="g0.6-3"><feGaussianBlur stdDeviation="0.6"/></filter><filter id="g1"><feGaussianBlur stdDeviation="1"/></filter><filter id="g0.6-4"><feGaussianBlur stdDeviation="0.6"/></filter></defs><rect class="cls-1" width="670" height="480"/><path class="cls-6" d="M-64.87,237.72l582.67,173.66L664.04-82.18,81.37-255.84-64.87,237.72Z"/><path class="cls-4" d="M-35.17-52.48L-222.54,201.16,232.18,537.05l187.37-253.63L-35.17-52.48Z"/><path class="cls-2" d="M204.76,32.07l246.78,68.55,54.84-198.79-246.78-68.55L204.76,32.07Z"/><path class="cls-12" d="M291.59,379.38l598.67,379.31L1335.83,48.06,737.16-328.96,291.59,379.38Z"/><path class="cls-9" d="M293.87,411.37l-543.83-6.85-2.28,219.36,541.54,6.85,4.57-219.36Z"/><path class="cls-8" d="M-23.74-25.06l4.57,178.23,411.3-11.42-4.57-178.23L-23.74-25.06Z"/><path class="cls-15" d="M648.04,240l-34.27,315.33,237.64,25.13,34.27-315.33-237.64-25.13Z"/><g class="cls-21"><polygon class="cls-25" points="426.4 180.59 547.5 356.53 1509.49 -303.83 1388.38 -479.77 426.4 180.59"/></g><path class="cls-5" d="M-32.88,233.15l18.28,123.39,331.32-54.84-18.28-123.39L-32.88,233.15Z"/><path class="cls-13" d="M497.23,379.38l-290.19,11.42,18.28,457,290.19-11.42-18.28-457Z"/><path class="cls-10" d="M-112.86,61.77L67.66,297.12l118.82-91.4L5.96-29.63-112.86,61.77Z"/><g class="cls-18"><polygon class="cls-26" points="394.41 116.61 741.73 214.87 762.29 139.46 414.97 41.21 394.41 116.61"/></g><g class="cls-19"><polygon class="cls-22" points="289.3 6.93 223.04 80.05 538.36 351.96 604.63 278.84 289.3 6.93"/></g><path class="cls-16" d="M-35.17,475.35l-29.7,370.17,616.95,45.7,29.7-370.17L-35.17,475.35Z"/><g class="cls-20"><polygon class="cls-24" points="412.69 -63.9 586.35 73.2 778.29 -171.3 604.63 -308.4 412.69 -63.9"/></g><path class="cls-14" d="M-58.02,255.99l-191.94,118.82,93.68,148.52L33.38,404.52-58.02,255.99Z"/><path class="cls-3" d="M257.31,50.35l-4.57,70.83,125.67,4.57,4.57-70.83-125.67-4.57Z"/><path class="cls-11" d="M181.91,418.23l75.4,150.81,338.18-169.09-75.4-150.81L181.91,418.23Z"/><path class="cls-7" d="M21.96,52.63L-117.43,112.04l38.84,91.4L60.8,144.03,21.96,52.63Z"/><g class="cls-17"><polygon class="cls-23" points="627.48 164.6 526.94 196.59 558.93 294.84 659.47 262.85 627.48 164.6"/></g></svg>