<?xml version="1.0" encoding="UTF-8" standalone="no"?>
<!DOCTYPE svg PUBLIC "-//W3C//DTD SVG 1.1//EN" "http://www.w3.org/Graphics/SVG/1.1/DTD/svg11.dtd">
<!-- Created with Vectornator (http://vectornator.io/) -->
<svg height="100%" stroke-miterlimit="10" style="fill-rule:nonzero;clip-rule:evenodd;stroke-linecap:round;stroke-linejoin:round;" version="1.1" viewBox="0 0 770 190" width="100%" xml:space="preserve" xmlns="http://www.w3.org/2000/svg" xmlns:vectornator="http://vectornator.io" xmlns:xlink="http://www.w3.org/1999/xlink">
<defs/>
<clipPath id="ArtboardFrame">
<rect height="190" width="770" x="0" y="0"/>
</clipPath>
<g clip-path="url(#ArtboardFrame)" id="Untitled" vectornator:layerName="Untitled">
<path d="M-31.6783-17.0134L857.974-17.0134L857.974-17.0134L857.974 173.755L857.974 173.755L-31.6783 173.755L-31.6783 173.755L-31.6783-17.0134L-31.6783-17.0134Z" fill="#b7bfca" fill-rule="nonzero" opacity="1" stroke="none"/>
<path d="M-29.4542 52.3814L148.476 153.116L284.148-86.4082L106.218-187.143L-29.4542 52.3814Z" fill="#dddde4" fill-rule="nonzero" opacity="1" stroke="none"/>
<path d="M671.147-10.2978L319.734 573.937L488.768 676.935L840.181 92.6997L671.147-10.2978Z" fill="#e1e0de" fill-rule="nonzero" opacity="1" stroke="none"/>
<path d="M477.648 157.593L544.372 195.648L882.44-408.758L815.716-446.814L477.648 157.593Z" fill="#939faf" fill-rule="nonzero" opacity="1" stroke="none"/>
<path d="M30.5973 36.7116L-262.988 110.583L-216.281 298.621L75.08 224.749L30.5973 36.7116Z" fill="#dfdcdb" fill-rule="nonzero" opacity="1" stroke="none"/>
<path d="M228.545 112.822L-29.4542 162.07L86.2006 759.761L344.2 710.562L228.545 112.822Z" fill="#000000" fill-rule="nonzero" opacity="1" stroke="none"/>
<path d="M404.251 27.7574L415.372 79.2439L644.458 23.2803L633.337-25.9184L404.251 27.7574Z" fill="#8e9fb6" fill-rule="nonzero" opacity="1" stroke="none"/>
<path d="M402.027 36.7116L235.217 112.822L428.717 540.384L595.527 464.273L402.027 36.7116Z" fill="#d7d2ce" fill-rule="nonzero" opacity="1" stroke="none"/>
<path d="M811.267-5.82072L1071.49 204.602L1287.23-66.2122L1027.01-276.684L811.267-5.82072Z" fill="#6183a2" fill-rule="nonzero" opacity="1" stroke="none"/>
<path d="M37.2697 45.6657L46.1662 85.9595L273.028 27.7574L264.131-12.5363L37.2697 45.6657Z" fill="#e5e5ea" fill-rule="nonzero" opacity="1" stroke="none"/>
<path d="M410.924 155.354L439.837 253.85L604.423 204.602L575.509 106.106L410.924 155.354Z" fill="#000000" fill-rule="nonzero" opacity="1" stroke="none"/>
<path d="M357.545-12.5363L172.942 47.9043L181.838 77.0053L366.441 16.5647L357.545-12.5363Z" fill="#9ba8bb" fill-rule="nonzero" opacity="1" stroke="none"/>
<path d="M731.199 38.9501L753.44 85.9595L1100.4-93.1239L1078.16-140.133L731.199 38.9501Z" fill="#93a9bc" fill-rule="nonzero" opacity="1" stroke="none"/>
<path d="M110.666 7.58593L446.51 5.37199L444.286-558.741L108.442-556.502L110.666 7.58593Z" fill="#9eb0cb" fill-rule="nonzero" opacity="1" stroke="none"/>
<path d="M10.5801-10.2978L-82.8334 36.7116L-27.2301 148.639L66.1834 101.629L10.5801-10.2978Z" fill="#dfe1e5" fill-rule="nonzero" opacity="1" stroke="none"/>
<path d="M144.028 70.3143L-47.2473 251.612L15.0773 318.768L206.304 137.446L144.028 70.3143Z" fill="#adb0b5" fill-rule="nonzero" opacity="1" stroke="none"/>
<path d="M208.528 141.923L-167.35 455.319L-56.1438 585.154L317.51 271.759L208.528 141.923Z" fill="#f3ece7" fill-rule="nonzero" opacity="1" stroke="none"/>
<path d="M212.976-8.05926L239.617 27.7574L426.493-113.271L399.803-149.087L212.976-8.05926Z" fill="#dbdde9" fill-rule="nonzero" opacity="1" stroke="none"/>
<path d="M568.837 47.9043L379.786 121.776L388.682 148.639L577.734 74.7668L568.837 47.9043Z" fill="#e3e0e1" fill-rule="nonzero" opacity="1" stroke="none"/>
<path d="M642.233 166.547L704.558 182.217L840.206-355.033L777.881-370.703L642.233 166.547Z" fill="#c7cdd3" fill-rule="nonzero" opacity="1" stroke="none"/>
<path d="M755.664 119.538L777.905 146.4L860.198 77.0053L837.957 50.1428L755.664 119.538Z" fill="#d8e0e4" fill-rule="nonzero" opacity="1" stroke="none"/>
<path d="M660.026 3.13345L404.251 587.393L437.613 600.824L693.388 16.5647L660.026 3.13345Z" fill="#e5e5e5" fill-rule="nonzero" opacity="1" stroke="none"/>
<path d="M146.252-12.5363L-214.057 108.345L-202.936 135.207L155.149 14.3262L146.252-12.5363Z" fill="#a9b3c5" fill-rule="nonzero" opacity="1" stroke="none"/>
<path d="M39.4939 0.894905L-547.677 171.024L-541.004 188.932L43.9421 18.8032L39.4939 0.894905Z" fill="#f9f8fc" fill-rule="nonzero" opacity="1" stroke="none"/>
<path d="M159.597 148.639L41.718 218.034L328.631 688.127L446.51 618.733L159.597 148.639Z" fill="#7c8894" fill-rule="nonzero" opacity="1" stroke="none"/>
<path d="M353.096 121.776L366.441 141.923L704.509-106.531L691.164-126.702L353.096 121.776Z" fill="#97a3b2" fill-rule="nonzero" opacity="1" stroke="none"/>
<path d="M606.647 126.253L482.096 191.171L579.958 376.97L704.509 312.052L606.647 126.253Z" fill="#b9babd" fill-rule="nonzero" opacity="1" stroke="none"/>
<path d="M266.355 117.299L-36.1266 831.394L388.707 1014.93L691.164 300.86L266.355 117.299Z" fill="#dad7d5" fill-rule="nonzero" opacity="1" stroke="none"/>
<path d="M319.734 135.207L330.855 153.116L426.493 83.721L415.372 65.8126L319.734 135.207Z" fill="#9da3ac" fill-rule="nonzero" opacity="1" stroke="none"/>
<path d="M377.562 12.0876L386.458 47.9043L499.913 14.3262L490.992-19.252L377.562 12.0876Z" fill="#ced4e1" fill-rule="nonzero" opacity="1" stroke="none"/>
<path d="M297.493 106.106L255.235 108.345L273.028 381.447L315.286 379.209L297.493 106.106Z" fill="#e5e2e1" fill-rule="nonzero" opacity="1" stroke="none"/>
<path d="M350.872 12.0876L368.665 32.2345L700.061-263.253L682.268-283.4L350.872 12.0876Z" fill="#94a3bc" fill-rule="nonzero" opacity="1" stroke="none"/>
<path d="M660.002 94.9137L691.14 130.73L826.787 0.894905L795.65-32.6832L660.002 94.9137Z" fill="#acb8c4" fill-rule="nonzero" opacity="1" stroke="none"/>
<path d="M328.631 79.2439L353.072 103.843L568.837-113.271L544.396-137.87L328.631 79.2439Z" fill="#d4d8e2" fill-rule="nonzero" opacity="1" stroke="none"/>
<path d="M633.337 124.015L459.806 598.586L624.44 656.788L797.923 182.241L633.337 124.015Z" fill="#d9d7d2" fill-rule="nonzero" opacity="1" stroke="none"/>
</g>
</svg>
