<?xml version="1.0" encoding="UTF-8" standalone="no"?>
<!DOCTYPE svg PUBLIC "-//W3C//DTD SVG 1.1//EN" "http://www.w3.org/Graphics/SVG/1.1/DTD/svg11.dtd">
<!-- Created with Vectornator (http://vectornator.io/) -->
<svg height="100%" stroke-miterlimit="10" style="fill-rule:nonzero;clip-rule:evenodd;stroke-linecap:round;stroke-linejoin:round;" version="1.1" viewBox="0 0 400 271.304" width="100%" xml:space="preserve" xmlns="http://www.w3.org/2000/svg" xmlns:vectornator="http://vectornator.io" xmlns:xlink="http://www.w3.org/1999/xlink">
<defs/>
<clipPath id="ArtboardFrame">
<rect height="271.304" width="400" x="0" y="0"/>
</clipPath>
<g clip-path="url(#ArtboardFrame)" id="Untitled" vectornator:layerName="Untitled">
<path d="M0 0L400 0L400 0L400 271.304L400 271.304L0 271.304L0 271.304L0 0L0 0Z" fill="#8695a1" fill-rule="nonzero" opacity="1" stroke="none"/>
<path d="M6 92L365 191L425-28L66-127L6 92Z" fill="#ebebf3" fill-opacity="0.5" fill-rule="nonzero" opacity="1" stroke="none"/>
<path d="M70 161L42 293L440 373L468 241L70 161Z" fill="#505551" fill-opacity="0.5" fill-rule="nonzero" opacity="1" stroke="none"/>
<path d="M7 11L-147 196L-78 252L75 67L7 11Z" fill="#f3eff1" fill-opacity="0.5" fill-rule="nonzero" opacity="1" stroke="none"/>
<path d="M91 53L37 172L136 216L190 97L91 53Z" fill="#cac4c1" fill-opacity="0.5" fill-rule="nonzero" opacity="1" stroke="none"/>
<path d="M98 168L-31 198L2 335L131 305L98 168Z" fill="#596466" fill-opacity="0.5" fill-rule="nonzero" opacity="1" stroke="none"/>
<path d="M361 127L62 156L69 234L368 205L361 127Z" fill="#9a9b99" fill-opacity="0.5" fill-rule="nonzero" opacity="1" stroke="none"/>
<path d="M206 53L250 190L420 135L376-1L206 53Z" fill="#bec5ca" fill-opacity="0.5" fill-rule="nonzero" opacity="1" stroke="none"/>
<path d="M209 267L294 505L734 346L649 108L209 267Z" fill="#4d5d5f" fill-opacity="0.5" fill-rule="nonzero" opacity="1" stroke="none"/>
<path d="M17 2L47 168L128 152L98-13L17 2Z" fill="#c8cdd6" fill-opacity="0.5" fill-rule="nonzero" opacity="1" stroke="none"/>
<path d="M331 27L238 184L258 195L351 38L331 27Z" fill="#eae6e2" fill-opacity="0.5" fill-rule="nonzero" opacity="1" stroke="none"/>
<path d="M245 234L-11 236L-9 358L246 356L245 234Z" fill="#4c5a5e" fill-opacity="0.5" fill-rule="nonzero" opacity="1" stroke="none"/>
<path d="M243 45L198 219L233 227L278 53L243 45Z" fill="#808892" fill-opacity="0.5" fill-rule="nonzero" opacity="1" stroke="none"/>
<path d="M195 31L391 78L434-98L238-145L195 31Z" fill="#97b0ce" fill-opacity="0.5" fill-rule="nonzero" opacity="1" stroke="none"/>
<path d="M216 121L453 115L451 57L214 63L216 121Z" fill="#cbced2" fill-opacity="0.5" fill-rule="nonzero" opacity="1" stroke="none"/>
<path d="M391 122L310 169L348 235L429 188L391 122Z" fill="#8f9595" fill-opacity="0.5" fill-rule="nonzero" opacity="1" stroke="none"/>
<path d="M32 92L-26 178L22 210L80 124L32 92Z" fill="#9a9c9e" fill-opacity="0.5" fill-rule="nonzero" opacity="1" stroke="none"/>
<path d="M72 232L109 256L159 179L122 155L72 232Z" fill="#727a82" fill-opacity="0.5" fill-rule="nonzero" opacity="1" stroke="none"/>
<path d="M149 155L174 194L282 122L257 83L149 155Z" fill="#92959a" fill-opacity="0.5" fill-rule="nonzero" opacity="1" stroke="none"/>
<path d="M3 11L149 122L244-4L98-115L3 11Z" fill="#bfcbde" fill-opacity="0.5" fill-rule="nonzero" opacity="1" stroke="none"/>
<path d="M380 53L255 143L278 175L403 85L380 53Z" fill="#dadbd8" fill-opacity="0.5" fill-rule="nonzero" opacity="1" stroke="none"/>
<path d="M97 45L-57 117L-51 129L102 57L97 45Z" fill="#fbf7f2" fill-opacity="0.5" fill-rule="nonzero" opacity="1" stroke="none"/>
<path d="M369 10L442 132L499 96L426-25L369 10Z" fill="#7f9eba" fill-opacity="0.5" fill-rule="nonzero" opacity="1" stroke="none"/>
<path d="M77 45L294 77L298 46L81 14L77 45Z" fill="#a3b1c6" fill-opacity="0.5" fill-rule="nonzero" opacity="1" stroke="none"/>
<path d="M349 22L303 37L325 106L371 91L349 22Z" fill="#c6cdd5" fill-opacity="0.5" fill-rule="nonzero" opacity="1" stroke="none"/>
<path d="M151 196L152 245L470 232L469 183L151 196Z" fill="#767f82" fill-opacity="0.5" fill-rule="nonzero" opacity="1" stroke="none"/>
<path d="M121 31L48 109L79 138L152 60L121 31Z" fill="#afb2b8" fill-opacity="0.5" fill-rule="nonzero" opacity="1" stroke="none"/>
<path d="M232 131L213 132L217 197L236 196L232 131Z" fill="#586874" fill-opacity="0.5" fill-rule="nonzero" opacity="1" stroke="none"/>
<path d="M28 6L-114-43L-125-8L16 40L28 6Z" fill="#cde1fa" fill-opacity="0.5" fill-rule="nonzero" opacity="1" stroke="none"/>
<path d="M97 42L104 58L359-52L352-68L97 42Z" fill="#c8d1e4" fill-opacity="0.5" fill-rule="nonzero" opacity="1" stroke="none"/>
<path d="M15 168L10 207L119 218L124 179L15 168Z" fill="#888e93" fill-opacity="0.5" fill-rule="nonzero" opacity="1" stroke="none"/>
<path d="M154 77L125 82L132 126L161 121L154 77Z" fill="#e2dcd4" fill-opacity="0.5" fill-rule="nonzero" opacity="1" stroke="none"/>
<path d="M21 228L-98 311L-7 438L111 355L21 228Z" fill="#4b5b63" fill-opacity="0.5" fill-rule="nonzero" opacity="1" stroke="none"/>
<path d="M29 34L-130 107L-124 118L34 45L29 34Z" fill="#f1f2fb" fill-opacity="0.5" fill-rule="nonzero" opacity="1" stroke="none"/>
<path d="M344 118L359 177L422 160L407 101L344 118Z" fill="#acb2b5" fill-opacity="0.5" fill-rule="nonzero" opacity="1" stroke="none"/>
<path d="M128 36L-32 84L-28 96L131 48L128 36Z" fill="#e2e1e6" fill-opacity="0.5" fill-rule="nonzero" opacity="1" stroke="none"/>
<path d="M11 41L-15 59L33 129L59 111L11 41Z" fill="#cfd0d5" fill-opacity="0.5" fill-rule="nonzero" opacity="1" stroke="none"/>
<path d="M223 30L228 45L270 28L265 13L223 30Z" fill="#dadfe9" fill-opacity="0.5" fill-rule="nonzero" opacity="1" stroke="none"/>
<path d="M149 255L147 352L428 355L430 258L149 255Z" fill="#4e5c5f" fill-opacity="0.5" fill-rule="nonzero" opacity="1" stroke="none"/>
<path d="M295 73L311 82L332 41L316 32L295 73Z" fill="#f0f0f4" fill-opacity="0.5" fill-rule="nonzero" opacity="1" stroke="none"/>
</g>
</svg>
