<?xml version="1.0" encoding="UTF-8"?><svg id="Layer_1" xmlns="http://www.w3.org/2000/svg" xmlns:xlink="http://www.w3.org/1999/xlink" viewBox="0 0 670 160"><defs><style>.cls-1{fill:#83645a;}.cls-2{fill:rgba(125,140,154,.5);}.cls-3{fill:rgba(140,165,195,.5);}.cls-4{fill:rgba(205,173,172,.5);}.cls-5{fill:rgba(176,115,113,.5);}.cls-6{fill:rgba(149,123,110,.5);}.cls-7{fill:rgba(138,108,113,.5);}.cls-8{fill:rgba(109,114,104,.5);}.cls-9{fill:rgba(75,91,59,.5);}.cls-10{fill:rgba(79,75,75,.5);}.cls-11{filter:url(#g0.6-4);}.cls-12{filter:url(#g0.6-2);}.cls-13{filter:url(#g0.6-3);}.cls-14{filter:url(#g1);}.cls-15{filter:url(#g0.6);}.cls-16{fill:#c98e88;}.cls-16,.cls-17,.cls-18,.cls-19,.cls-20{opacity:.5;}.cls-17{fill:#bea184;}.cls-18{fill:#8b9171;}.cls-19{fill:#65b552;}.cls-20{fill:#696469;}</style><filter id="g0.6"><feGaussianBlur stdDeviation="0.6"/></filter><filter id="g0.6-2"><feGaussianBlur stdDeviation="0.6"/></filter><filter id="g1"><feGaussianBlur stdDeviation="1"/></filter><filter id="g0.6-3"><feGaussianBlur stdDeviation="0.6"/></filter><filter id="g0.6-4"><feGaussianBlur stdDeviation="0.6"/></filter></defs><rect class="cls-1" x="-53.7" y="1.91" width="670" height="160"/><rect class="cls-1" x="-64.7" y="1.91" width="670" height="160"/><path class="cls-4" d="M-118.57,79.63L464.1,253.28l146.24-493.56L27.67-413.93-118.57,79.63Z"/><path class="cls-2" d="M-88.87-210.57L-276.24,43.07,178.48,378.96,365.85,125.33-88.87-210.57Z"/><path class="cls-8" d="M237.89,221.3l598.67,379.31L1282.13-110.03,683.46-487.05,237.89,221.3Z"/><path class="cls-10" d="M594.35,81.91l-34.27,315.33,237.64,25.13,34.27-315.33-237.64-25.13Z"/><g class="cls-15"><polygon class="cls-18" points="372.7 22.5 493.81 198.45 1455.79 -461.92 1334.69 -637.86 372.7 22.5"/></g><path class="cls-3" d="M-86.58,75.06l18.28,123.39,331.32-54.84-18.28-123.39L-86.58,75.06Z"/><path class="cls-6" d="M-166.56-96.32L13.96,139.04,132.78,47.64-47.74-187.72l-118.82,91.4Z"/><g class="cls-12"><polygon class="cls-20" points="340.71 -41.48 688.03 56.78 708.6 -18.63 361.28 -116.88 340.71 -41.48"/></g><g class="cls-14"><polygon class="cls-19" points="658.33 -71.18 962.23 566.33 1220.44 440.65 916.53 -196.86 658.33 -71.18"/></g><g class="cls-13"><polygon class="cls-16" points="235.6 -151.16 169.34 -78.04 484.67 193.88 550.93 120.76 235.6 -151.16"/></g><path class="cls-9" d="M617.2-130.59l18.28,159.95,63.98-9.14-18.28-159.95-63.98,9.14Z"/><path class="cls-7" d="M0,84.57l122.15,75.43L670,75.43,547.85,0,0,84.57Z"/><path class="cls-5" d="M-31.74-105.46L-171.13-46.05l38.84,91.4L7.1-14.06-31.74-105.46Z"/><g class="cls-11"><polygon class="cls-17" points="573.78 6.51 473.24 38.5 505.23 136.75 605.77 104.76 573.78 6.51"/></g></svg>