<?xml version="1.0" encoding="UTF-8" standalone="no"?>
<!DOCTYPE svg PUBLIC "-//W3C//DTD SVG 1.1//EN" "http://www.w3.org/Graphics/SVG/1.1/DTD/svg11.dtd">
<!-- Created with Vectornator (http://vectornator.io/) -->
<svg height="100%" stroke-miterlimit="10" style="fill-rule:nonzero;clip-rule:evenodd;stroke-linecap:round;stroke-linejoin:round;" version="1.1" viewBox="0 0 350 250" width="100%" xml:space="preserve" xmlns="http://www.w3.org/2000/svg" xmlns:vectornator="http://vectornator.io" xmlns:xlink="http://www.w3.org/1999/xlink">
<defs/>
<clipPath id="ArtboardFrame">
<rect height="250" width="350" x="0" y="0"/>
</clipPath>
<g clip-path="url(#ArtboardFrame)" id="Untitled" vectornator:layerName="Untitled">
<path d="M-17.1217-9.18985L360.389-9.18985L360.389-9.18985L360.389 271.14L360.389 271.14L-17.1217 271.14L-17.1217 271.14L-17.1217-9.18985L-17.1217-9.18985Z" fill="#3c402b" fill-rule="nonzero" opacity="1" stroke="none"/>
<path d="M200.912 180.188L356.651 198.877L370.356 89.237L214.617 70.5484L200.912 180.188Z" fill="#fff587" fill-opacity="0.5" fill-rule="nonzero" opacity="1" stroke="none"/>
<path d="M113.699 205.107L35.2065 223.795L73.8297 378.288L152.322 359.599L113.699 205.107Z" fill="#ffffff" fill-opacity="0.5" fill-rule="nonzero" opacity="1" stroke="none"/>
<path d="M46.4197 36.9088L152.322 36.9088L152.322 258.681L46.4197 258.681L46.4197 36.9088Z" fill="#f7836c" fill-opacity="0.5" fill-rule="nonzero" opacity="1" stroke="none"/>
<path d="M148.584 116.647L251.995 116.647L251.995 241.238L148.584 241.238L148.584 116.647Z" fill="#450003" fill-opacity="0.5" fill-rule="nonzero" opacity="1" stroke="none"/>
<path d="M239.536 151.532L330.487 274.878L431.406 198.877L340.454 75.532L239.536 151.532Z" fill="#ffca76" fill-opacity="0.5" fill-rule="nonzero" opacity="1" stroke="none"/>
<path d="M-94.3681 43.1384L-24.5972-12.9276L28.977-24.1408L65.1083 68.0565L-94.3681 43.1384Z" fill="#e0ff9b" fill-opacity="0.5" fill-rule="nonzero" opacity="1" stroke="none"/>
<path d="M235.798 101.696L374.094 30.6793L163.535-387.946L25.2392-316.93L235.798 101.696Z" fill="#5ba152" fill-opacity="0.5" fill-rule="nonzero" opacity="1" stroke="none"/>
<path d="M285.634 34.417L345.438 51.8597L376.586-47.8131L316.782-65.2558L285.634 34.417Z" fill="#96d573" fill-opacity="0.5" fill-rule="nonzero" opacity="1" stroke="none"/>
<path d="M77.5674 227.533L30.2229 257.435L222.093 551.469L269.438 521.568L77.5674 227.533Z" fill="#f9ffec" fill-opacity="0.5" fill-rule="nonzero" opacity="1" stroke="none"/>
<path d="M210.88 110.417L217.109 137.827L330.487 111.663L324.258 84.2534L210.88 110.417Z" fill="#ffde88" fill-opacity="0.5" fill-rule="nonzero" opacity="1" stroke="none"/>
<path d="M264.454 215.074L142.355 97.9584L194.683 58.0893L240.782 135.336L264.454 215.074Z" fill="#340203" fill-opacity="0.5" fill-rule="nonzero" opacity="1" stroke="none"/>
<path d="M62.6165-14.1735L275.667-14.1735L275.667 85.4993L62.6165 85.4993L62.6165-14.1735Z" fill="#435432" fill-opacity="0.5" fill-rule="nonzero" opacity="1" stroke="none"/>
<path d="M114.945 206.353L96.2561 141.565L132.387 49.3679L167.273 157.762L114.945 206.353Z" fill="#ff7069" fill-opacity="0.5" fill-rule="nonzero" opacity="1" stroke="none"/>
<path d="M35.2065 100.45L-212.73 120.385L-200.27 259.927L46.4197 239.992L35.2065 100.45Z" fill="#000309" fill-opacity="0.5" fill-rule="nonzero" opacity="1" stroke="none"/>
<path d="M133.633 292.32L81.3052 251.205L95.0102 190.156L154.814 236.254L133.633 292.32Z" fill="#89829f" fill-opacity="0.5" fill-rule="nonzero" opacity="1" stroke="none"/>
<path d="M-22.1053 64.3188L-8.40033 30.6793L12.7801 29.4333L0.321039 54.3515L-22.1053 64.3188Z" fill="#001600" fill-opacity="0.5" fill-rule="nonzero" opacity="1" stroke="none"/>
<path d="M119.928 55.5975L175.994 29.4333L204.65 41.8924L147.338 81.7616L119.928 55.5975Z" fill="#b48856" fill-opacity="0.5" fill-rule="nonzero" opacity="1" stroke="none"/>
<path d="M77.5674 86.7452L101.24 86.7452L101.24 203.861L77.5674 203.861L77.5674 86.7452Z" fill="#620900" fill-opacity="0.5" fill-rule="nonzero" opacity="1" stroke="none"/>
<path d="M415.209 334.681L138.617 228.779L113.699 135.336L142.355 177.697L415.209 334.681Z" fill="#1f0c14" fill-opacity="0.5" fill-rule="nonzero" opacity="1" stroke="none"/>
<path d="M-15.8758 115.401L37.6983 89.237L91.2724 85.4993L57.6329 139.073L-15.8758 115.401Z" fill="#327638" fill-opacity="0.5" fill-rule="nonzero" opacity="1" stroke="none"/>
<path d="M187.207 131.598L204.65 131.598L204.65 218.812L187.207 218.812L187.207 131.598Z" fill="#b1413f" fill-opacity="0.5" fill-rule="nonzero" opacity="1" stroke="none"/>
<path d="M149.807-37.1625C166.38-41.7715 182.057-37.4465 184.823-27.5024C187.589-17.5583 176.394-5.76071 159.821-1.15175C143.248 3.45725 127.571-0.867761 124.805-10.8119C122.039-20.756 133.233-32.5535 149.807-37.1625Z" fill="#88ed8b" fill-opacity="0.5" fill-rule="nonzero" opacity="1" stroke="none"/>
<path d="M283.143 183.926L298.093 374.55L727.932 340.911L712.981 150.287L283.143 183.926Z" fill="#856c52" fill-opacity="0.5" fill-rule="nonzero" opacity="1" stroke="none"/>
<path d="M16.9486 233.211C31.1323 226.19 46.3422 227.996 50.921 237.247C55.4999 246.497 47.7136 259.687 33.5299 266.708C19.3462 273.729 4.13626 271.922-0.442579 262.671C-5.02142 253.422 2.76489 240.231 16.9486 233.211Z" fill="#345c44" fill-opacity="0.5" fill-rule="nonzero" opacity="1" stroke="none"/>
<path d="M255.733 166.483L379.078 181.434L382.815 151.532L259.47 136.582L255.733 166.483Z" fill="#ffe27f" fill-opacity="0.5" fill-rule="nonzero" opacity="1" stroke="none"/>
<path d="M16.5179 122.877L-28.3349 140.319L0.321039 213.828L45.1738 196.385L16.5179 122.877Z" fill="#000000" fill-opacity="0.5" fill-rule="nonzero" opacity="1" stroke="none"/>
<path d="M224.585 218.812L23.9933 414.419L156.06 550.224L356.651 354.616L224.585 218.812Z" fill="#030e14" fill-opacity="0.5" fill-rule="nonzero" opacity="1" stroke="none"/>
<path d="M48.9115 154.024L65.1083 166.483L90.0265 131.598L73.8297 119.139L48.9115 154.024Z" fill="#ffb351" fill-opacity="0.5" fill-rule="nonzero" opacity="1" stroke="none"/>
<path d="M219.601 149.041L220.847 159.008L412.717 116.647L411.471 106.68L219.601 149.041Z" fill="#6e4a1d" fill-opacity="0.5" fill-rule="nonzero" opacity="1" stroke="none"/>
</g>
</svg>
