<?xml version="1.0" encoding="UTF-8" standalone="no"?>
<!DOCTYPE svg PUBLIC "-//W3C//DTD SVG 1.1//EN" "http://www.w3.org/Graphics/SVG/1.1/DTD/svg11.dtd">
<!-- Created with Vectornator (http://vectornator.io/) -->
<svg height="100%" stroke-miterlimit="10" style="fill-rule:nonzero;clip-rule:evenodd;stroke-linecap:round;stroke-linejoin:round;" version="1.1" viewBox="0 0 659 140.4" width="100%" xml:space="preserve" xmlns="http://www.w3.org/2000/svg" xmlns:vectornator="http://vectornator.io" xmlns:xlink="http://www.w3.org/1999/xlink">
<defs/>
<clipPath id="ArtboardFrame">
<rect height="140.4" width="659" x="0" y="0"/>
</clipPath>
<g clip-path="url(#ArtboardFrame)" id="Untitled" vectornator:layerName="Untitled">
<path d="M0 0L659 0L659 0L659 140.4L659 140.4L0 140.4L0 140.4L0 0L0 0Z" fill="#102675" fill-rule="nonzero" opacity="1" stroke="none"/>
<path d="M339.38 18.12L397.05 425.06L512.37 406.93L454.71 0L339.38 18.12Z" fill="#6b8eff" fill-rule="nonzero" opacity="1" stroke="none"/>
<path d="M260.31 123.56L431.64 207.59L538.73-11.53L367.39-95.56L260.31 123.56Z" fill="#3357cb" fill-rule="nonzero" opacity="1" stroke="none"/>
<path d="M189.46 11.53L-202.64-113.68L-265.25 80.73L125.21 205.94L189.46 11.53Z" fill="#000038" fill-rule="nonzero" opacity="1" stroke="none"/>
<path d="M318 102.14L408.61 130.14L591.45-436.59L500.84-464.59L318 102.14Z" fill="#5b76ce" fill-rule="nonzero" opacity="1" stroke="none"/>
<path d="M97.2 107.09L337.74 184.52L392.11 16.52L151.57-59.31L97.2 107.09Z" fill="#041990" fill-rule="nonzero" opacity="1" stroke="none"/>
<path d="M388.81 51.07L199.35 365.75L245.48 393.75L434.94 79.08L388.81 51.07Z" fill="#9b92cc" fill-rule="nonzero" opacity="1" stroke="none"/>
<path d="M593.1 14.83L527.2 62.6L733.14 344.33L799.04 296.55L593.1 14.83Z" fill="#00053b" fill-rule="nonzero" opacity="1" stroke="none"/>
<path d="M542.03 93.91L273.49 126.86L285.02 230.65L553.56 197.7L542.03 93.91Z" fill="#103fb0" fill-rule="nonzero" opacity="1" stroke="none"/>
<path d="M350.92 4.94L382.22 74.14L813.87-116.97L782.56-186.17L350.92 4.94Z" fill="#1f5ec9" fill-rule="nonzero" opacity="1" stroke="none"/>
<path d="M607.93 56L777.62 135.08L1019.8-375.63L850.11-454.71L607.93 56Z" fill="#4468c2" fill-rule="nonzero" opacity="1" stroke="none"/>
<path d="M260.31 31.3L382.22 202.64L420.11 174.63L298.2 3.29L260.31 31.3Z" fill="#1c3dba" fill-rule="nonzero" opacity="1" stroke="none"/>
<path d="M449.77 34.6L416.82 217.47L736.43 271.84L769.38 88.97L449.77 34.6Z" fill="#0a1e6f" fill-rule="nonzero" opacity="1" stroke="none"/>
<path d="M405.29 49.42L369.04 93.91L395.4 115.33L431.64 70.84L405.29 49.42Z" fill="#d1c1e3" fill-rule="nonzero" opacity="1" stroke="none"/>
<path d="M515.67 70.84L337.74 156.51L355.86 192.76L533.79 107.09L515.67 70.84Z" fill="#224bba" fill-rule="nonzero" opacity="1" stroke="none"/>
<path d="M418.46 74.14L510.73 138.39L550.26 79.08L458 14.83L418.46 74.14Z" fill="#142d93" fill-rule="nonzero" opacity="1" stroke="none"/>
<path d="M581.57 56L495.9 248.77L609.58 296.55L695.24 103.79L581.57 56Z" fill="#030d44" fill-rule="nonzero" opacity="1" stroke="none"/>
<path d="M107.09 102.14L285.02 95.56L270.19-431.64L92.26-425.06L107.09 102.14Z" fill="#04136c" fill-rule="nonzero" opacity="1" stroke="none"/>
<path d="M324.56 37.89L319.62 54.37L416.82 72.49L421.76 56L324.56 37.89Z" fill="#1a34b5" fill-rule="nonzero" opacity="1" stroke="none"/>
<path d="M331.152-0.00136305L380.578-263.598L380.578-263.598L486.021-243.826L486.021-243.826L436.595 19.7698L436.595 19.7698L331.152-0.00136305L331.152-0.00136305Z" fill="#4cb6ff" fill-rule="nonzero" opacity="1" stroke="none"/>
<path d="M644.17 34.6L1141.72 703.48L1354.24 543.67L856.7-123.56L644.17 34.6Z" fill="#a27359" fill-rule="nonzero" opacity="1" stroke="none"/>
<path d="M314.67 49.42L273.49 52.72L321.26 523.9L362.45 520.61L314.67 49.42Z" fill="#143cb8" fill-rule="nonzero" opacity="1" stroke="none"/>
<path d="M476.13 9.88L551.91 26.36L647.47-382.22L571.68-398.69L476.13 9.88Z" fill="#4d68a1" fill-rule="nonzero" opacity="1" stroke="none"/>
<path d="M85.67 16.48L-314.67-6.59L-316.32 32.95L82.38 56.02L85.67 16.48Z" fill="#00052e" fill-rule="nonzero" opacity="1" stroke="none"/>
<path d="M294.9 118.62L276.78 126.86L309.73 192.76L327.85 184.52L294.9 118.62Z" fill="#4995ea" fill-rule="nonzero" opacity="1" stroke="none"/>
<path d="M547 64.25L593.1 75.78L645.82-125.22L599.69-136.75L547 64.25Z" fill="#000740" fill-rule="nonzero" opacity="1" stroke="none"/>
<path d="M29.66 37.89L-28 33L-46.13 352.56L9.87 357.51L29.66 37.89Z" fill="#020a2e" fill-rule="nonzero" opacity="1" stroke="none"/>
<path d="M103.79 23.06L59.31 69.19L243.83 235.59L288.31 189.46L103.79 23.06Z" fill="#061562" fill-rule="nonzero" opacity="1" stroke="none"/>
<path d="M308.08 103.79L326.21 126.86L377.28 84L359.16 61L308.08 103.79Z" fill="#505ec7" fill-rule="nonzero" opacity="1" stroke="none"/>
<path d="M627.7 113.68L808.92 238.89L1047.81-108.73L866.58-233.94L627.7 113.68Z" fill="#02082e" fill-rule="nonzero" opacity="1" stroke="none"/>
<path d="M406.93 112.03L224.06 438.24L352.56 510.73L535.44 184.52L406.93 112.03Z" fill="#4289eb" fill-rule="nonzero" opacity="1" stroke="none"/>
<path d="M400.34 117L136.74 159.84L166.4 334.44L430 291.61L400.34 117Z" fill="#122d9b" fill-rule="nonzero" opacity="1" stroke="none"/>
<path d="M466.24 120.27L416.82 135.09L514.02 425.06L563.45 410.23L466.24 120.27Z" fill="#215ed4" fill-rule="nonzero" opacity="1" stroke="none"/>
<path d="M253.72 39.54L234 74.14L268.59 92.26L288.36 57.66L253.72 39.54Z" fill="#071f9c" fill-rule="nonzero" opacity="1" stroke="none"/>
<path d="M543.68 51.07L454.68 319.61L772.68 425.05L861.68 156.51L543.68 51.07Z" fill="#061459" fill-rule="nonzero" opacity="1" stroke="none"/>
</g>
</svg>
