<?xml version="1.0" encoding="UTF-8" standalone="no"?>
<!DOCTYPE svg PUBLIC "-//W3C//DTD SVG 1.1//EN" "http://www.w3.org/Graphics/SVG/1.1/DTD/svg11.dtd">
<!-- Created with Vectornator (http://vectornator.io/) -->
<svg height="100%" stroke-miterlimit="10" style="fill-rule:nonzero;clip-rule:evenodd;stroke-linecap:round;stroke-linejoin:round;" version="1.1" viewBox="0 0 659 446.97" width="100%" xml:space="preserve" xmlns="http://www.w3.org/2000/svg" xmlns:vectornator="http://vectornator.io" xmlns:xlink="http://www.w3.org/1999/xlink">
<defs/>
<clipPath id="ArtboardFrame">
<rect height="446.97" width="659" x="0" y="0"/>
</clipPath>
<g clip-path="url(#ArtboardFrame)" id="Untitled" vectornator:layerName="Untitled">
<path d="M0 0L659 0L659 0L659 446.97L659 446.97L0 446.97L0 446.97L0 0L0 0Z" fill="#060f42" fill-rule="nonzero" opacity="1" stroke="none"/>
<path d="M507.43 39.54L70.84 121.91L123.56 402L560.15 319.62L507.43 39.54Z" fill="#2b53da" fill-rule="nonzero" opacity="1" stroke="none"/>
<path d="M318 84L247.13 276.78L360.8 318L431.65 125.24L318 84Z" fill="#5f85ed" fill-rule="nonzero" opacity="1" stroke="none"/>
<path d="M166.4 26.36L-169.69 79.08L-108.69 456.36L225.75 403.64L166.4 26.36Z" fill="#091978" fill-rule="nonzero" opacity="1" stroke="none"/>
<path d="M332.8 67.55L619.46 148.27L716.66-192.73L430-273.48L332.8 67.55Z" fill="#00001b" fill-rule="nonzero" opacity="1" stroke="none"/>
<path d="M601.34 181.22L744.67 278.43L792.45 204.29L649.11 107.09L601.34 181.22Z" fill="#497bf5" fill-rule="nonzero" opacity="1" stroke="none"/>
<path d="M550.27 138.39L439.88 428.39L512.37 454.75L622.75 164.75L550.27 138.39Z" fill="#041259" fill-rule="nonzero" opacity="1" stroke="none"/>
<path d="M56 89L-199.35 308.08L145 708.42L400.34 489.31L56 89Z" fill="#071565" fill-rule="nonzero" opacity="1" stroke="none"/>
<path d="M6.59 115.32L331.15 215.82L352.57 141.68L28 41.19L6.59 115.32Z" fill="#14288e" fill-rule="nonzero" opacity="1" stroke="none"/>
<path d="M285 362.45L362.43 405.28L395.38 342.68L318 299.84L285 362.45Z" fill="#3553a5" fill-rule="nonzero" opacity="1" stroke="none"/>
<path d="M467.89 97.2L739.73 112L749.61-98.88L477.78-113.68L467.89 97.2Z" fill="#00001e" fill-rule="nonzero" opacity="1" stroke="none"/>
<path d="M100.5 57.66L23.07 54.37L19.77 118.62L97.2 121.91L100.5 57.66Z" fill="#5261a6" fill-rule="nonzero" opacity="1" stroke="none"/>
<path d="M304.79 212.53L336.09 266.89L380.57 240.53L349.27 186.17L304.79 212.53Z" fill="#ffd6e5" fill-rule="nonzero" opacity="1" stroke="none"/>
<path d="M164.75 23.06L84 65.9L141.67 174.63L222.39 131.8L164.75 23.06Z" fill="#000049" fill-rule="nonzero" opacity="1" stroke="none"/>
<path d="M42.84 237.24L0 332.79L571.68 584.86L614.52 489.31L42.84 237.24Z" fill="#09135c" fill-rule="nonzero" opacity="1" stroke="none"/>
<path d="M182.87 23.06L332.8 121.91L420.11-8.24L270.19-107.09L182.87 23.06Z" fill="#00054b" fill-rule="nonzero" opacity="1" stroke="none"/>
<path d="M220.77 125.21L184.52 146.63L334.44 390.46L370.69 369L220.77 125.21Z" fill="#1638b1" fill-rule="nonzero" opacity="1" stroke="none"/>
<path d="M444.83 199.35L528.83 275.13L635.93 156.51L551.93 80.73L444.83 199.35Z" fill="#0b1f6c" fill-rule="nonzero" opacity="1" stroke="none"/>
<path d="M626.05 199.35L411.88 393.75L665.59 668.88L879.76 474.48L626.05 199.35Z" fill="#0a164f" fill-rule="nonzero" opacity="1" stroke="none"/>
<path d="M375.63 97.2L532.14 125.2L546.97 36.2L390.46 8.2L375.63 97.2Z" fill="#000340" fill-rule="nonzero" opacity="1" stroke="none"/>
<path d="M382.22 286.66L443.22 293.25L463 110.38L402 103.79L382.22 286.66Z" fill="#1f48b7" fill-rule="nonzero" opacity="1" stroke="none"/>
<path d="M192.76 115.32L44.48 128.5L62.61 316.32L210.88 303.14L192.76 115.32Z" fill="#031782" fill-rule="nonzero" opacity="1" stroke="none"/>
<path d="M309.73 113.68L158.16 197.68L207.59 285L359.16 201L309.73 113.68Z" fill="#1634b3" fill-rule="nonzero" opacity="1" stroke="none"/>
<path d="M568.39 207.58L505.78 248.77L573.33 349.27L635.93 308.08L568.39 207.58Z" fill="#051460" fill-rule="nonzero" opacity="1" stroke="none"/>
<path d="M224.06 75.78L215.82 98.85L395.4 158.16L403.64 135.09L224.06 75.78Z" fill="#3f8fe6" fill-rule="nonzero" opacity="1" stroke="none"/>
<path d="M365.75 255.36L365.75 308.08L390.46 306.43L390.46 253.71L365.75 255.36Z" fill="#3074eb" fill-rule="nonzero" opacity="1" stroke="none"/>
<path d="M286.67 202.64L266.9 220.76L326.21 278.43L346 260.3L286.67 202.64Z" fill="#6761bb" fill-rule="nonzero" opacity="1" stroke="none"/>
<path d="M612.87 390.46L100.5 408.58L105.44 540.38L617.81 522.26L612.87 390.46Z" fill="#050c40" fill-rule="nonzero" opacity="1" stroke="none"/>
<path d="M454.71 112L454.71 143.3L645.82 138.36L645.82 107.06L454.71 112Z" fill="#23428b" fill-rule="nonzero" opacity="1" stroke="none"/>
<path d="M13.18 1.65L169.69 69.19L247.13-107.09L90.61-174.63L13.18 1.65Z" fill="#00002a" fill-rule="nonzero" opacity="1" stroke="none"/>
</g>
</svg>
