<?xml version="1.0" encoding="UTF-8"?><svg id="Layer_1" xmlns="http://www.w3.org/2000/svg" xmlns:xlink="http://www.w3.org/1999/xlink" viewBox="0 0 670 480"><defs><style>.cls-1{fill:#62747d;}.cls-2{fill:rgba(236,200,190,.5);}.cls-3{fill:rgba(158,203,231,.5);}.cls-4{fill:rgba(183,222,250,.5);}.cls-5{fill:rgba(184,205,221,.5);}.cls-6{fill:rgba(139,181,223,.5);}.cls-7{fill:rgba(168,202,223,.5);}.cls-8{fill:rgba(171,83,37,.5);}.cls-9{fill:rgba(175,98,53,.5);}.cls-10{fill:rgba(201,221,229,.5);}.cls-11{fill:rgba(212,214,221,.5);}.cls-12{fill:rgba(219,167,121,.5);}.cls-13{fill:rgba(31,55,2,.5);}.cls-14{fill:rgba(11,44,16,.5);}.cls-15{fill:rgba(111,159,207,.5);}.cls-16{fill:rgba(72,49,8,.5);}.cls-17{fill:rgba(98,39,0,.5);}.cls-18{fill:rgba(132,87,58,.5);}.cls-19{filter:url(#g0.6-4);}.cls-20{filter:url(#g0.6-2);}.cls-21{filter:url(#g0.6-5);}.cls-22{filter:url(#g0.6-3);}.cls-23{filter:url(#g1);}.cls-24{filter:url(#g0.6);}.cls-25{fill:#090200;}.cls-25,.cls-26,.cls-27,.cls-28,.cls-29,.cls-30{opacity:.5;}.cls-26{fill:#d4ffff;}.cls-27{fill:#c35c45;}.cls-28{fill:#c34f00;}.cls-29{fill:#bb6232;}.cls-30{fill:#e6630e;}</style><filter id="g0.6"><feGaussianBlur stdDeviation="0.6"/></filter><filter id="g0.6-2"><feGaussianBlur stdDeviation="0.6"/></filter><filter id="g0.6-3"><feGaussianBlur stdDeviation="0.6"/></filter><filter id="g0.6-4"><feGaussianBlur stdDeviation="0.6"/></filter><filter id="g0.6-5"><feGaussianBlur stdDeviation="0.6"/></filter><filter id="g1"><feGaussianBlur stdDeviation="1"/></filter></defs><rect class="cls-1" width="670" height="480"/><path class="cls-11" d="M-27.81-29.81L171.97,482.25,1627.79-84.92l-199.77-512.06L-27.81-29.81Z"/><path class="cls-17" d="M426.85,229.67L-301.06,479.96-112.77,1021.87l727.91-250.29L426.85,229.67Z"/><path class="cls-2" d="M-25.51-57.36L-636.31,135.52l119.41,369.7L91.6,312.33-25.51-57.36Z"/><g class="cls-24"><polygon class="cls-25" points="424.55 401.89 408.48 555.73 791.95 587.88 808.03 434.03 424.55 401.89"/></g><path class="cls-10" d="M399.3,222.78l48.22,165.33,826.65-245.7-48.22-165.33L399.3,222.78Z"/><path class="cls-12" d="M-53.07,238.85l319.18,254.88,114.81-144.66L61.75,94.19-53.07,238.85Z"/><g class="cls-20"><polygon class="cls-28" points="300.56 66.63 238.56 296.26 344.19 323.81 406.18 94.19 300.56 66.63"/></g><path class="cls-15" d="M-64.55-55.07L1028.47,305.44,1122.61,11.52,29.6-346.69-64.55-55.07Z"/><path class="cls-16" d="M-108.18,328.41l-103.33,353.62,560.29,163.03,103.33-353.62L-108.18,328.41Z"/><path class="cls-5" d="M631.22,48.26l-107.92,117.11,365.1,328.36,107.92-117.11L631.22,48.26Z"/><g class="cls-22"><polygon class="cls-30" points="-16.33 209 -69.14 339.89 77.82 395 130.63 264.11 -16.33 209"/></g><g class="cls-19"><polygon class="cls-26" points="109.97 227.37 158.19 300.85 275.3 220.48 227.08 147 109.97 227.37"/></g><path class="cls-6" d="M199.52-66.55l-677.39-25.26-9.19,261.77,675.1,25.26,11.48-261.77Z"/><path class="cls-3" d="M346.48-32.11l57.41,268.66,140.07-29.85L486.55-61.96l-140.07,29.85Z"/><g class="cls-21"><polygon class="cls-29" points="571.51 346.78 516.4 401.89 626.62 507.51 681.73 452.4 571.51 346.78"/></g><g class="cls-23"><polygon class="cls-27" points="-59.96 335.29 -110.47 468.48 -34.7 496.03 15.82 362.85 -59.96 335.29"/></g><path class="cls-9" d="M243.15,94.19l68.89,52.81L399.3,27.6l-68.89-52.81-87.26,119.41Z"/><path class="cls-4" d="M176.56,87.3l-57.41,289.33,96.44,18.37,57.41-289.33-96.44-18.37Z"/><path class="cls-8" d="M-20.92,261.81l89.55,18.37,25.26-130.89L4.34,130.93l-25.26,130.89Z"/><path class="cls-13" d="M743.73,417.96L181.15,569.51l140.07,509.77,562.58-151.55-140.07-509.77Z"/><path class="cls-18" d="M477.37,408.77l146.96,103.33,96.44-137.78-146.96-103.33-96.44,137.78Z"/><path class="cls-14" d="M91.6,450.11l-429.4,103.33,94.15,371.99,427.1-103.33L91.6,450.11Z"/><path class="cls-7" d="M70.93,124.04l55.11,84.96,160.74-110.22L231.67,13.82,70.93,124.04Z"/></svg>