<?xml version="1.0" encoding="UTF-8"?><svg id="Layer_1" xmlns="http://www.w3.org/2000/svg" viewBox="0 0 670 160"><defs><style>.cls-1{fill:#3a99de;}.cls-2{fill:rgba(126,212,244,.5);}.cls-3{fill:rgba(30,132,212,.5);}.cls-4{fill:rgba(82,175,235,.5);}.cls-5{fill:rgba(110,198,238,.5);}.cls-6{fill:rgba(110,206,242,.5);}.cls-7{fill:rgba(98,186,235,.5);}.cls-8{fill:rgba(43,140,226,.5);}.cls-9{fill:rgba(58,157,224,.5);}.cls-10{fill:rgba(44,144,222,.5);}.cls-11{fill:rgba(94,182,236,.5);}.cls-12{fill:rgba(95,185,242,.5);}.cls-13{fill:rgba(115,196,246,.5);}</style></defs><rect class="cls-1" x="-122" y="-224.9" width="914" height="609.79"/><path class="cls-12" d="M-28.31,204.33L216.18,752.73,835.41,471.67,590.92-76.73-28.31,204.33Z"/><path class="cls-4" d="M44.81-133.5L-179.12,323.5l488.99,239.92L533.79,106.43,44.81-133.5Z"/><path class="cls-11" d="M-78.58,44.73l9.14,361.03,166.8-4.57L88.22,40.16l-166.8,4.57Z"/><path class="cls-9" d="M106.5-69.52l-27.42,233.07,313.04,31.99,27.42-233.07L106.5-69.52Z"/><path class="cls-2" d="M248.17,291.51l61.69,41.13,84.54-132.53-61.69-41.13-84.54,132.53Z"/><path class="cls-8" d="M83.65,138.42l63.98,191.94,118.82-41.13-63.98-191.94-118.82,41.13Z"/><path class="cls-5" d="M136.21-80.94l109.68,244.49,43.41-20.56L179.62-101.51l-43.41,20.56Z"/><path class="cls-10" d="M469.81,104.14l-13.71,27.42,388.45,189.65,13.71-27.42L469.81,104.14Z"/><path class="cls-3" d="M129.35,1.32l-4.57,11.42,217.07,45.7,4.57-11.42L129.35,1.32Z"/><path class="cls-6" d="M366.99,5.89l-61.69,86.83,41.13,27.42,61.69-86.83-41.13-27.42Z"/><path class="cls-13" d="M3.68-19.25L1.39,3.6l258.2,15.99,2.28-22.85L3.68-19.25Z"/><path class="cls-7" d="M510.94,56.16l61.69-4.57-9.14-187.37-61.69,4.57,9.14,187.37Z"/></svg>