<?xml version="1.0" encoding="UTF-8"?><svg id="Layer_1" xmlns="http://www.w3.org/2000/svg" viewBox="0 0 670 480"><defs><style>.cls-1{fill:#3a99de;}.cls-2{fill:rgba(124,205,240,.5);}.cls-3{fill:rgba(128,205,242,.5);}.cls-4{fill:rgba(126,212,244,.5);}.cls-5{fill:rgba(22,125,200,.5);}.cls-6{fill:rgba(30,132,212,.5);}.cls-7{fill:rgba(52,150,229,.5);}.cls-8{fill:rgba(82,175,235,.5);}.cls-9{fill:rgba(110,198,238,.5);}.cls-10{fill:rgba(110,206,242,.5);}.cls-11{fill:rgba(98,186,235,.5);}.cls-12{fill:rgba(97,194,242,.5);}.cls-13{fill:rgba(39,139,212,.5);}.cls-14{fill:rgba(43,140,226,.5);}.cls-15{fill:rgba(42,146,216,.5);}.cls-16{fill:rgba(58,157,224,.5);}.cls-17{fill:rgba(44,144,222,.5);}.cls-18{fill:rgba(94,182,236,.5);}.cls-19{fill:rgba(95,185,242,.5);}.cls-20{fill:rgba(92,180,230,.5);}.cls-21{fill:rgba(115,196,246,.5);}</style></defs><rect class="cls-1" x="-122" y="-64.9" width="914" height="609.79"/><path class="cls-19" d="M-28.31,364.33L216.18,912.73l619.23-281.05L590.92,83.27-28.31,364.33Z"/><path class="cls-8" d="M44.81,26.5L-179.12,483.5l488.99,239.92,223.93-457L44.81,26.5Z"/><path class="cls-18" d="M-78.58,204.73l9.14,361.03,166.8-4.57-9.14-361.03-166.8,4.57Z"/><path class="cls-2" d="M602.34,481.22l105.11,59.41,66.26-116.53-105.11-59.41-66.26,116.53Z"/><path class="cls-5" d="M188.76-32.91l102.82,84.54,169.09-205.65-102.82-84.54L188.76-32.91Z"/><path class="cls-16" d="M106.5,90.48l-27.42,233.07,313.04,31.99,27.42-233.07L106.5,90.48Z"/><path class="cls-4" d="M248.17,451.51l61.69,41.13,84.54-132.53-61.69-41.13-84.54,132.53Z"/><path class="cls-14" d="M83.65,298.42l63.98,191.94,118.82-41.13-63.98-191.94-118.82,41.13Z"/><path class="cls-7" d="M35.67,428.66l-285.62-13.71-29.7,747.19L3.68,1175.86,35.67,428.66Z"/><path class="cls-9" d="M136.21,79.06l109.68,244.49,43.41-20.56L179.62,58.49l-43.41,20.56Z"/><path class="cls-13" d="M536.08,3.65l18.28,139.38,559.82-75.4-18.28-137.1L536.08,3.65Z"/><path class="cls-12" d="M47.09,462.94l-127.96,13.71,36.56,308.47,127.96-13.71L47.09,462.94Z"/><path class="cls-20" d="M-60.3-7.77l-4.57,93.68,189.65,6.85L129.35-.92-60.3-7.77Z"/><path class="cls-17" d="M469.81,264.14l-13.71,27.42,388.45,189.65,13.71-27.42-388.45-189.65Z"/><path class="cls-6" d="M129.35,161.32l-4.57,11.42,217.07,45.7,4.57-11.42-217.07-45.7Z"/><path class="cls-10" d="M366.99,165.89l-61.69,86.83,41.13,27.42,61.69-86.83-41.13-27.42Z"/><path class="cls-15" d="M76.8,69.92l-4.57,29.7,411.3,41.13,4.57-29.7L76.8,69.92Z"/><path class="cls-21" d="M3.68,140.75l-2.28,22.85,258.2,15.99,2.28-22.85L3.68,140.75Z"/><path class="cls-11" d="M510.94,216.16l61.69-4.57-9.14-187.37-61.69,4.57,9.14,187.37Z"/><path class="cls-3" d="M611.48,469.79l356.46-66.26-11.42-54.84-356.46,66.26,11.42,54.84Z"/></svg>