<?xml version="1.0" encoding="UTF-8"?><svg id="Layer_1" xmlns="http://www.w3.org/2000/svg" xmlns:xlink="http://www.w3.org/1999/xlink" viewBox="0 0 670 160"><defs><style>.cls-1{fill:#796f61;}.cls-2{fill:rgba(104,93,72,.5);}.cls-3{fill:rgba(255,255,236,.5);}.cls-4{fill:rgba(116,104,80,.5);}.cls-5{fill:rgba(151,143,127,.5);}.cls-6{fill:rgba(156,146,126,.5);}.cls-7{fill:rgba(138,124,98,.5);}.cls-8{fill:rgba(143,130,113,.5);}.cls-9{fill:rgba(166,154,134,.5);}.cls-10{fill:rgba(112,99,74,.5);}.cls-11{fill:rgba(95,84,66,.5);}.cls-12{fill:rgba(97,82,60,.5);}.cls-13{fill:rgba(93,82,62,.5);}.cls-14{fill:rgba(120,105,79,.5);}.cls-15{filter:url(#g0.6-2);}.cls-16{filter:url(#g1);}.cls-17{filter:url(#g0.6);}.cls-18{fill:#574d3f;}.cls-18,.cls-19,.cls-20{opacity:.5;}.cls-19{fill:#554637;}.cls-20{fill:#91846d;}</style><filter id="g0.6"><feGaussianBlur stdDeviation="0.6"/></filter><filter id="g0.6-2"><feGaussianBlur stdDeviation="0.6"/></filter><filter id="g1"><feGaussianBlur stdDeviation="1"/></filter></defs><rect class="cls-1" x="-122" y="-224.11" width="914" height="608.23"/><path class="cls-6" d="M83.65,315.15l125.68,223.93,447.86-253.64-125.68-223.93L83.65,315.15Z"/><path class="cls-12" d="M191.04-93.87L785.15,29.52l75.41-370.17-594.1-123.39L191.04-93.87Z"/><g class="cls-17"><polygon class="cls-19" points="634.33 379.13 1052.49 433.97 1095.91 93.5 677.75 38.66 634.33 379.13"/></g><path class="cls-10" d="M159.05-32.17L-272.81,184.9-21.46,683.03l431.87-217.08L159.05-32.17Z"/><path class="cls-4" d="M10.53-155.56L513.23,125.49,595.49-23.03,92.79-301.8,10.53-155.56Z"/><path class="cls-8" d="M611.48,141.49l-91.4,491.28,116.54,20.57,91.4-491.28-116.54-20.57Z"/><g class="cls-15"><polygon class="cls-20" points="69.94 93.5 177.33 518.51 282.44 491.09 175.05 66.08 69.94 93.5"/></g><path class="cls-9" d="M670.89-25.32l-63.98-2.29-9.14,201.08,63.98,2.29,9.14-201.08Z"/><path class="cls-14" d="M10.53-162.42l-335.9-2.29V274.02l333.61,2.29,2.29-438.72Z"/><path class="cls-7" d="M104.21,111.78l57.13,59.41L515.51-166.99l-57.13-57.13L104.21,111.78Z"/><g class="cls-16"><polygon class="cls-18" points="531.51 56.94 526.94 102.64 1235.29 143.77 1239.86 98.07 531.51 56.94"/></g><path class="cls-11" d="M373.84,79.79L-46.6,322l22.85,43.42L396.69,123.21l-22.85-43.42Z"/><path class="cls-5" d="M161.34,322l13.71,25.14L721.17,4.39l-13.71-25.14L161.34,322Z"/><path class="cls-13" d="M72.22,61.51l219.36,107.4,34.28-75.41L106.5-13.89,72.22,61.51Z"/><path class="cls-2" d="M277.87-219.54L419.54,356.28l34.28-9.14L312.15-226.4l-34.28,6.86Z"/><path class="cls-3" d="M666.32,4.39l-57.13-2.29-2.29,38.85,57.13,2.29,2.29-38.85Z"/></svg>