<?xml version="1.0" encoding="UTF-8"?><svg id="Layer_1" xmlns="http://www.w3.org/2000/svg" xmlns:xlink="http://www.w3.org/1999/xlink" viewBox="0 0 670 480"><defs><style>.cls-1{fill:#796f61;}.cls-2{fill:rgba(104,93,72,.5);}.cls-3{fill:rgba(255,255,236,.5);}.cls-4{fill:rgba(116,104,80,.5);}.cls-5{fill:rgba(151,143,127,.5);}.cls-6{fill:rgba(156,146,126,.5);}.cls-7{fill:rgba(138,124,98,.5);}.cls-8{fill:rgba(160,154,141,.5);}.cls-9{fill:rgba(143,130,113,.5);}.cls-10{fill:rgba(166,154,134,.5);}.cls-11{fill:rgba(113,104,87,.5);}.cls-12{fill:rgba(112,99,74,.5);}.cls-13{fill:rgba(41,31,20,.5);}.cls-14{fill:rgba(76,68,58,.5);}.cls-15{fill:rgba(95,84,66,.5);}.cls-16{fill:rgba(97,82,60,.5);}.cls-17{fill:rgba(97,85,67,.5);}.cls-18{fill:rgba(93,82,62,.5);}.cls-19{fill:rgba(120,105,79,.5);}.cls-20{filter:url(#g0.6-2);}.cls-21{filter:url(#g0.6-3);}.cls-22{filter:url(#g1);}.cls-23{filter:url(#g0.6);}.cls-24{fill:#574d3f;}.cls-24,.cls-25,.cls-26,.cls-27{opacity:.5;}.cls-25{fill:#554637;}.cls-26{fill:#938265;}.cls-27{fill:#91846d;}</style><filter id="g0.6"><feGaussianBlur stdDeviation="0.6"/></filter><filter id="g0.6-2"><feGaussianBlur stdDeviation="0.6"/></filter><filter id="g1"><feGaussianBlur stdDeviation="1"/></filter><filter id="g0.6-3"><feGaussianBlur stdDeviation="0.6"/></filter></defs><rect class="cls-1" x="-122" y="-64.11" width="914" height="608.23"/><path class="cls-6" d="M83.65,475.15l125.68,223.93,447.86-253.64-125.68-223.93L83.65,475.15Z"/><path class="cls-16" d="M191.04,66.13l594.1,123.39,75.41-370.17-594.1-123.39L191.04,66.13Z"/><g class="cls-23"><polygon class="cls-25" points="634.33 539.13 1052.49 593.97 1095.91 253.5 677.75 198.66 634.33 539.13"/></g><path class="cls-12" d="M159.05,127.83l-431.87,217.08L-21.46,843.03l431.87-217.08L159.05,127.83Z"/><path class="cls-4" d="M10.53,4.44l502.7,281.06,82.26-148.53L92.79-141.8,10.53,4.44Z"/><path class="cls-9" d="M611.48,301.49l-91.4,491.28,116.54,20.57,91.4-491.28-116.54-20.57Z"/><path class="cls-17" d="M51.66,335.76l-363.32,59.41,123.39,749.48,361.03-59.41L51.66,335.76Z"/><g class="cls-20"><polygon class="cls-27" points="69.94 253.5 177.33 678.51 282.44 651.09 175.05 226.08 69.94 253.5"/></g><path class="cls-10" d="M670.89,134.68l-63.98-2.29-9.14,201.08,63.98,2.29,9.14-201.08Z"/><path class="cls-19" d="M10.53-2.42l-335.9-2.29V434.02l333.61,2.29L10.53-2.42Z"/><path class="cls-7" d="M104.21,271.78l57.13,59.41L515.51-6.99l-57.13-57.13L104.21,271.78Z"/><path class="cls-8" d="M218.46,452.3l-18.28,61.7,303.91,77.69,18.28-61.7-303.91-77.69Z"/><path class="cls-13" d="M1.39,84.41l-54.84,2.29,4.57,61.7,54.84-2.29L1.39,84.41Z"/><g class="cls-22"><polygon class="cls-24" points="531.51 216.94 526.94 262.64 1235.29 303.77 1239.86 258.07 531.51 216.94"/></g><path class="cls-15" d="M373.84,239.79L-46.6,482l22.85,43.42,420.44-242.21-22.85-43.42Z"/><g class="cls-21"><polygon class="cls-26" points="37.95 56.99 72.22 139.25 307.58 38.71 273.3 -43.55 37.95 56.99"/></g><path class="cls-5" d="M161.34,482l13.71,25.14L721.17,164.39l-13.71-25.14L161.34,482Z"/><path class="cls-18" d="M72.22,221.51l219.36,107.4,34.28-75.41L106.5,146.11l-34.28,75.41Z"/><path class="cls-14" d="M668.61,470.58l-27.42,242.21,187.37,18.28,27.42-242.21-187.37-18.28Z"/><path class="cls-2" d="M277.87-59.54l141.67,575.82,34.28-9.14L312.15-66.4l-34.28,6.86Z"/><path class="cls-11" d="M172.76,472.86l-50.27,159.95,194.23,57.13,50.27-159.95-194.23-57.13Z"/><path class="cls-3" d="M666.32,164.39l-57.13-2.29-2.29,38.85,57.13,2.29,2.29-38.85Z"/></svg>