<?xml version="1.0" encoding="UTF-8" standalone="no"?>
<!DOCTYPE svg PUBLIC "-//W3C//DTD SVG 1.1//EN" "http://www.w3.org/Graphics/SVG/1.1/DTD/svg11.dtd">
<!-- Created with Vectornator (http://vectornator.io/) -->
<svg height="100%" stroke-miterlimit="10" style="fill-rule:nonzero;clip-rule:evenodd;stroke-linecap:round;stroke-linejoin:round;" version="1.1" viewBox="0 0 690.5 147" width="100%" xml:space="preserve" xmlns="http://www.w3.org/2000/svg" xmlns:vectornator="http://vectornator.io" xmlns:xlink="http://www.w3.org/1999/xlink">
<defs/>
<clipPath id="ArtboardFrame">
<rect height="147" width="690.5" x="0" y="0"/>
</clipPath>
<g clip-path="url(#ArtboardFrame)" id="Untitled" vectornator:layerName="Untitled">
<path d="M0 0L690.5 0L690.5 0L690.5 147L690.5 147L0 147L0 147L0 0L0 0Z" fill="#9d1524" fill-rule="nonzero" opacity="1" stroke="none"/>
<path d="M25.89 72.5L112.21 75.95L117.39-81.13L31.07-84.59L25.89 72.5Z" fill="#000b00" fill-rule="nonzero" opacity="1" stroke="none"/>
<path d="M426.38 63.87L611.09 327.99L927 105.3L742.29-157.09L426.38 63.87Z" fill="#610816" fill-rule="nonzero" opacity="1" stroke="none"/>
<path d="M388.41 0L117.39 82.86L127.74 115.66L398.76 32.8L388.41 0Z" fill="#5f0a0a" fill-rule="nonzero" opacity="1" stroke="none"/>
<path d="M250.31 55.24L176.08 385L210.6 391.91L284.83 62.15L250.31 55.24Z" fill="#360b06" fill-rule="nonzero" opacity="1" stroke="none"/>
<path d="M271.02 3.45L258.94 50.06L454 100.12L466.09 53.51L271.02 3.45Z" fill="#b0021a" fill-rule="nonzero" opacity="1" stroke="none"/>
<path d="M269.295 438.479L478.174 46.6242L478.174 46.6242L504.074 60.4304L504.074 60.4304L295.195 452.285L295.195 452.285L269.295 438.479L269.295 438.479Z" fill="#300000" fill-rule="nonzero" opacity="1" stroke="none"/>
<path d="M31.07 48.34L-18.99 72.5L18.99 150.18L69.05 126.02L31.07 48.34Z" fill="#450910" fill-rule="nonzero" opacity="1" stroke="none"/>
<path d="M88.04 62.15L44.88 208.88L367.69 302.09L410.85 155.36L88.04 62.15Z" fill="#ba2133" fill-rule="nonzero" opacity="1" stroke="none"/>
<path d="M516.15 0L274.47 367.69L341.8 410.85L583.47 43.16L516.15 0Z" fill="#4d0808" fill-rule="nonzero" opacity="1" stroke="none"/>
<path d="M567.94 81.13L169.17 108.75L170.9 134.65L569.66 107.03L567.94 81.13Z" fill="#c01227" fill-rule="nonzero" opacity="1" stroke="none"/>
<path d="M567.94 8.63L811.34 43.16L866.58-343.52L623.18-378L567.94 8.63Z" fill="#c70e30" fill-rule="nonzero" opacity="1" stroke="none"/>
<path d="M384.95 37.98L321.08 72.5L341.8 112.21L405.67 77.68L384.95 37.98Z" fill="#340000" fill-rule="nonzero" opacity="1" stroke="none"/>
<path d="M605.91 77.68L826.87 81.13L826.87 65.6L605.91 62.15L605.91 77.68Z" fill="#dc2238" fill-rule="nonzero" opacity="1" stroke="none"/>
<path d="M74.23 13.81L165.72 50.06L222.69-94.94L131.19-131.19L74.23 13.81Z" fill="#d9535c" fill-rule="nonzero" opacity="1" stroke="none"/>
<path d="M281.38 31.07L236.5 27.62L229.59 198.52L274.47 201.97L281.38 31.07Z" fill="#430804" fill-rule="nonzero" opacity="1" stroke="none"/>
<path d="M295.19 81.13L138.1 188.16L236.5 334.89L393.58 227.87L295.19 81.13Z" fill="#c12135" fill-rule="nonzero" opacity="1" stroke="none"/>
<path d="M536.86 19L536.86 36.25L642.17 32.8L642.17 15.54L536.86 19Z" fill="#db354e" fill-rule="nonzero" opacity="1" stroke="none"/>
<path d="M538.59 120.84L379.77 643.89L581.75 704.31L740.56 181.26L538.59 120.84Z" fill="#cd3e56" fill-rule="nonzero" opacity="1" stroke="none"/>
<path d="M486.8 55.24L490.25 79.41L889.02 20.71L885.57-1.73L486.8 55.24Z" fill="#1c0000" fill-rule="nonzero" opacity="1" stroke="none"/>
<path d="M673.24 117.39L750.92 372.87L845.86 341.8L768.18 86.31L673.24 117.39Z" fill="#fc5c78" fill-rule="nonzero" opacity="1" stroke="none"/>
<path d="M134.65 101.85L-19 567.94L208.87 642.17L362.51 176.08L134.65 101.85Z" fill="#73170f" fill-rule="nonzero" opacity="1" stroke="none"/>
<path d="M459.18 55.24L346.98 179.53L359.06 191.61L471.27 67.32L459.18 55.24Z" fill="#ff214e" fill-rule="nonzero" opacity="1" stroke="none"/>
<path d="M661.15 46.61L826.87 207.15L851 181.26L685.32 20.72L661.15 46.61Z" fill="#110300" fill-rule="nonzero" opacity="1" stroke="none"/>
<path d="M298.64 69.05L20.71 305.55L27.62 312.45L305.55 75.95L298.64 69.05Z" fill="#e54962" fill-rule="nonzero" opacity="1" stroke="none"/>
<path d="M1.73 43.16L20.73 89.77L127.73 44.88L108.75 0L1.73 43.16Z" fill="#200901" fill-rule="nonzero" opacity="1" stroke="none"/>
<path d="M18.99 41.43L0 37.98L-15.54 136.37L1.73 139.83L18.99 41.43Z" fill="#ad3445" fill-rule="nonzero" opacity="1" stroke="none"/>
<path d="M196.79 31.07L331.44 27.62L326.26-181.26L191.61-177.8L196.79 31.07Z" fill="#cb0005" fill-rule="nonzero" opacity="1" stroke="none"/>
<path d="M214.06 119.11L231.32 124.29L288.28-56.97L271.02-62.15L214.06 119.11Z" fill="#480303" fill-rule="nonzero" opacity="1" stroke="none"/>
<path d="M493.71 25.89L650.8 309L666.33 300.37L509.24 17.26L493.71 25.89Z" fill="#481615" fill-rule="nonzero" opacity="1" stroke="none"/>
<path d="M578.29 12.08L592.1 19L728.48-252L714.67-258.91L578.29 12.08Z" fill="#1d0000" fill-rule="nonzero" opacity="1" stroke="none"/>
<path d="M286.56 48.34L257.21 233L302.09 238.18L331.44 53.51L286.56 48.34Z" fill="#cb0c24" fill-rule="nonzero" opacity="1" stroke="none"/>
<path d="M134.65 91.49L120.84 98.4L179.53 201.97L193.34 195.07L134.65 91.49Z" fill="#1a0000" fill-rule="nonzero" opacity="1" stroke="none"/>
<path d="M181.26 124.29L-122.56 167.45L-74.23 486.8L227.87 443.65L181.26 124.29Z" fill="#c60417" fill-rule="nonzero" opacity="1" stroke="none"/>
<path d="M588.65 77.68L612.82 89.77L833.78-324.54L809.61-336.62L588.65 77.68Z" fill="#ba0d2c" fill-rule="nonzero" opacity="1" stroke="none"/>
</g>
</svg>
