<?xml version="1.0" encoding="UTF-8" standalone="no"?>
<!DOCTYPE svg PUBLIC "-//W3C//DTD SVG 1.1//EN" "http://www.w3.org/Graphics/SVG/1.1/DTD/svg11.dtd">
<!-- Created with Vectornator (http://vectornator.io/) -->
<svg height="100%" stroke-miterlimit="10" style="fill-rule:nonzero;clip-rule:evenodd;stroke-linecap:round;stroke-linejoin:round;" version="1.1" viewBox="0 0 690.5 468.65" width="100%" xml:space="preserve" xmlns="http://www.w3.org/2000/svg" xmlns:vectornator="http://vectornator.io" xmlns:xlink="http://www.w3.org/1999/xlink">
<defs/>
<clipPath id="ArtboardFrame">
<rect height="468.65" width="690.5" x="0" y="0"/>
</clipPath>
<g clip-path="url(#ArtboardFrame)" id="Untitled" vectornator:layerName="Untitled">
<path d="M0 0L690.5 0L690.5 0L690.5 468.65L690.5 468.65L0 468.65L0 468.65L0 0L0 0Z" fill="#891826" fill-rule="nonzero" opacity="1" stroke="none"/>
<path d="M604.19 347L707.76 557.6L1450.05 195.09L1346.48-13.81L604.19 347Z" fill="#ee5e6c" fill-rule="nonzero" opacity="1" stroke="none"/>
<path d="M576.57 324.54L845.86 353.88L852.77 281.38L583.47 252L576.57 324.54Z" fill="#000500" fill-rule="nonzero" opacity="1" stroke="none"/>
<path d="M51.79 217.51L324.54 381.51L719.85-276.2L447.1-440.2L51.79 217.51Z" fill="#b41727" fill-rule="nonzero" opacity="1" stroke="none"/>
<path d="M486.8 331.44L493.71 369.44L763 317.63L756.1 279.63L486.8 331.44Z" fill="#200204" fill-rule="nonzero" opacity="1" stroke="none"/>
<path d="M183 226.14L77.68 221L65.6 523.05L170.9 528.23L183 226.14Z" fill="#540508" fill-rule="nonzero" opacity="1" stroke="none"/>
<path d="M366 279.65L423 331.44L507.59 234.77L450.59 182.98L366 279.65Z" fill="#2e0000" fill-rule="nonzero" opacity="1" stroke="none"/>
<path d="M138.1 6.91L-186.44-50.09L-212.33 98.4L110.48 155.4L138.1 6.91Z" fill="#2b0600" fill-rule="nonzero" opacity="1" stroke="none"/>
<path d="M561 67.32L776.78 120.84L795.78 41.43L580-10.36L561 67.32Z" fill="#ea0e36" fill-rule="nonzero" opacity="1" stroke="none"/>
<path d="M94.94 177.8L240 447.1L253.81 438.47L108.81 169.17L94.94 177.8Z" fill="#d6564e" fill-rule="nonzero" opacity="1" stroke="none"/>
<path d="M189.89 241.68L167.45 276.2L474.72 459.2L497.16 424.68L189.89 241.68Z" fill="#dd1c3b" fill-rule="nonzero" opacity="1" stroke="none"/>
<path d="M153.64 157.09L217.51 210.6L324.51 79.41L260.66 25.89L153.64 157.09Z" fill="#630000" fill-rule="nonzero" opacity="1" stroke="none"/>
<path d="M466.09 88L452.28 195L680.14 221L693.95 114L466.09 88Z" fill="#5d020b" fill-rule="nonzero" opacity="1" stroke="none"/>
<path d="M0 424.66L46.61 460.91L129.47 352.16L82.86 315.9L0 424.66Z" fill="#e21737" fill-rule="nonzero" opacity="1" stroke="none"/>
<path d="M592.1 360.79L595.56 409.12L1059.92 374.6L1056.47 326.26L592.1 360.79Z" fill="#e6515e" fill-rule="nonzero" opacity="1" stroke="none"/>
<path d="M422.93 300.37L284.83 312.45L326.26 752.65L464.36 740.56L422.93 300.37Z" fill="#b4061a" fill-rule="nonzero" opacity="1" stroke="none"/>
<path d="M221 398.76L293.5 405.67L298.64 347L226.14 340.09L221 398.76Z" fill="#001500" fill-rule="nonzero" opacity="1" stroke="none"/>
<path d="M267.57 79.41L314.18 110.48L605.91-329.71L559.31-360.79L267.57 79.41Z" fill="#eb3f42" fill-rule="nonzero" opacity="1" stroke="none"/>
<path d="M58.69 210.6L69.05 243.4L227.87 191.61L217.51 158.82L58.69 210.6Z" fill="#c92531" fill-rule="nonzero" opacity="1" stroke="none"/>
<path d="M145 91.49L198.51 81.13L124.29-376.32L70.78-366L145 91.49Z" fill="#ff505d" fill-rule="nonzero" opacity="1" stroke="none"/>
<path d="M24.17 8.63L-158.83 252.03L-122.57 276.2L58.69 32.8L24.17 8.63Z" fill="#c9041b" fill-rule="nonzero" opacity="1" stroke="none"/>
<path d="M272.75 20.72L305.55 32.8L341.8-67.32L309-79.41L272.75 20.72Z" fill="#e7ee94" fill-rule="nonzero" opacity="1" stroke="none"/>
<path d="M158.82 245.13L-141.55 286.56L-131.2 347L167.45 305.57L158.82 245.13Z" fill="#390c0d" fill-rule="nonzero" opacity="1" stroke="none"/>
<path d="M134.65 12.08L113.93 103.58L148.46 110.48L169.17 19L134.65 12.08Z" fill="#ff647c" fill-rule="nonzero" opacity="1" stroke="none"/>
<path d="M183 13.81L267.59 41.43L366-260.66L281.41-288.28L183 13.81Z" fill="#032e00" fill-rule="nonzero" opacity="1" stroke="none"/>
<path d="M309 160.54L343.52 195.07L400.52 138.07L366 103.58L309 160.54Z" fill="#410000" fill-rule="nonzero" opacity="1" stroke="none"/>
<path d="M628.36 393.59L901.1 707.76L1051.29 576.57L778.54 262.39L628.36 393.59Z" fill="#ff4f70" fill-rule="nonzero" opacity="1" stroke="none"/>
<path d="M74.23 231.32L-70.77 462.64L-43.15 478.17L100.12 246.85L74.23 231.32Z" fill="#be1d2f" fill-rule="nonzero" opacity="1" stroke="none"/>
<path d="M353.88 255.49L355.61 288.28L422.93 279.65L421.21 246.85L353.88 255.49Z" fill="#000000" fill-rule="nonzero" opacity="1" stroke="none"/>
<path d="M212.33 208.88L257.21 224.41L295.21 110.48L250.31 94.94L212.33 208.88Z" fill="#410c0a" fill-rule="nonzero" opacity="1" stroke="none"/>
<path d="M348.7 60.42L433.29 86.31L559.29-314.18L474.7-340.07L348.7 60.42Z" fill="#5d101a" fill-rule="nonzero" opacity="1" stroke="none"/>
<path d="M621.45 120.84L614.55 143.28L880.39 215.78L887.29 193.34L621.45 120.84Z" fill="#df2641" fill-rule="nonzero" opacity="1" stroke="none"/>
<path d="M184.71 288.28L203.71 295.19L236.5 202L217.5 195.1L184.71 288.28Z" fill="#ff89a3" fill-rule="nonzero" opacity="1" stroke="none"/>
<path d="M215.78 385L143.28 562.81L176.08 576.62L248.58 398.81L215.78 385Z" fill="#d84e4c" fill-rule="nonzero" opacity="1" stroke="none"/>
<path d="M536.86 274.47L516.15 347L628.36 378.07L649.07 305.57L536.86 274.47Z" fill="#300906" fill-rule="nonzero" opacity="1" stroke="none"/>
</g>
</svg>
